<?xml version="1.0" encoding="UTF-8"?>
<svg viewBox="0 0 800 800" xmlns="http://www.w3.org/2000/svg">
<defs><style>.cls-1, .cls-2, .cls-3 { fill-rule: evenodd; } .cls-2 { fill: #f0f0a5; } .cls-3 { fill: #0f0e0f; }</style></defs>
<path id="background" class="cls-3" d="M400,0C620.914,0,800,179.086,800,400S620.914,800,400,800,0,620.914,0,400,179.086,0,400,0Zm0,370a30,30,0,1,1-30,30A30,30,0,0,1,400,370Z"/>
<path id="foreground" class="cls-2" d="M8.5,318.4H791.55l2.2,11.2H6.25ZM400,0C620.914,0,800,179.086,800,400S620.914,800,400,800,0,620.914,0,400,179.086,0,400,0Zm0,264c-19.469,0-57.978-1.656-66.8-9.6-14.21,1.566-20.744,1.656-28.8-6.4-7.037-7.037,9.158-30,94.6-30,6.173-5.848,71.271-70.8,75-70.8s-32.3,43.331-54,70.8a65.486,65.486,0,0,1,10,0c23.222-18.486,50.136-42,52-42s-15.181,20.257-33.6,43.2c21.285,0,56.552,13.848,44.8,25.6C472.333,265.667,422.441,264,412,264c-11.161,13.9-19.7,24.7-21,26s-12.4,1.4-11,0S398.657,266.014,400,264Zm2-25a12.173,12.173,0,0,0,2-3s1.224,0.074,3,0C405.676,236.888,404.351,237.669,402,239Zm38.4-11.8c1.684-1.347,2.738-4.011,5.6-6.2,13.636,0,50.933,10.467,37.6,23.8C466.345,262.055,436.553,261,415,261c0.909-1.126,1.6-2.873,3-5,21.623,0,40.279,2.921,54.4-11.2C483.848,233.352,457.235,227.2,440.4,227.2Zm-1.6,1.6c-0.753,1.2-2.523,3.6-3.2,4.8,8.655,0,24.525,4.277,17.6,11.2-6.223,6.221-26.35,4.95-29.978,4.95-0.05.379-2.62,2.5-3.222,3.25,7.375,0,34.24,1.96,44.4-8.2S448.885,228.8,438.8,228.8Zm-43.2-8c-1.9,1.465-4.2,3.189-6.4,4.8-66.2,0-65.633,20.767-60.8,25.6C297.642,247.538,317.826,220.8,395.6,220.8Zm-11.2,8a31.608,31.608,0,0,1-6.4,4.8c-24.815,0-34.973,10.526-28.8,14.4a61.818,61.818,0,0,1-11.2,3.2C321.515,235.319,368.3,228.8,384.4,228.8Zm-27.2,16c1.816,0,11.365-5.029,16-8C363.821,236.8,354.9,241.144,357.2,244.8ZM355,251c-3.2.64-9.786,3.544-12,3,10.129,6.277,59,7,59,7a37.086,37.086,0,0,1,4-5H382C372.131,256,358.2,252.425,355,251Zm86.243-32.546c11.625-12.515,21.27-22.91,21.557-23.254-9.337,9.262-17.446,16.936-24.5,23.269C439.312,218.452,440.3,218.381,441.243,218.454Zm-11.734,7.682q2.737-2.31,5.738-4.953c0.667-.037,2.235-0.272,3.806-0.371l-4.772,5.137C433.4,226.061,431.4,226.074,429.509,226.136Zm-1.813,6.9A40.282,40.282,0,0,1,431,229c-1.3-.011-4.323.095-5.209,0.222q-2.42,1.974-4.622,3.675C422.457,232.906,426.127,232.966,427.7,233.035Zm-3.082,3.317c-3.25,3.5-6.728,7.543-9.614,10.648H378c0,2.332-.836,3,34,3-1.445,1.554-1.533,1.6-3,3-2.8-.141-10.571.059-18.136,0.059-13.1,0-28.5-2.213-29.447-4.116,5.6-2.714,16.427-9.441,21.583-12.943,0.726-.493,9.3-0.033,11,0-3.176,3.4-3.847,8.277-3.2,8.8,3.318,2.681,9.618,3.294,26.306-8.85C418.462,235.908,423.193,236.3,424.614,236.352ZM397,233c0.871-1.208,2.662-2.833,3.55-4.028-1.415-.337-6.224.113-7.55,0.028-1.561,1.306-3.018,2.549-5,4h9Zm0-7c1.394-1.412,5.508-4.561,6-5,1.527,0,2.755,0,4,0-0.983,1.249-2.677,3.265-4,5A58.8,58.8,0,0,1,397,226Zm13-8c9.312-11.289,17.51-20.688,25.6-29.2-9.325,9.2-29.6,29.2-29.6,29.2A19.094,19.094,0,0,1,410,218Zm17,28c0.959-.959,5.561-8.241,7-10,4.237,0,12.757,2.243,9,6S430.437,246,427,246Zm-21-13h6c0.66-.539,3.8-3.2,5-4-1.3,0-7.734-.2-7.734-0.2Zm11-12h10c-0.945.5-4.635,3.75-5.8,4.6-0.266.107-5.955,0.06-9.12,0.025C412.974,224.6,416.334,221.666,417,221Zm58-57c1.438-.038,11,0,11,0a83.935,83.935,0,0,1,7-5,23.445,23.445,0,0,1,1,5s4.1-.088,5,0c-1.078,1.254-6,4-6,4a29.788,29.788,0,0,1-3,5,21.456,21.456,0,0,1-4-3s-9.323,6-11,6c-0.628-1.166,6-8,6-8S475.428,165.2,475,164ZM141,151l51,52,3-3-32-32,55,12-7-50,26,37,7-9L203,99l9,68Zm11,6,6,6,56,13-1-5Zm57-44,31,45-3,4-27-39Zm60-46,2,4L240,87l14,23,26-14,2,4-26,14,14,26,25-13,2,4-36,18L228,89ZM233,91l4-2,30,53-4,2Zm82-22-10,58-4,2,13-82,46,65-12,5Zm1-13,38,54-4,3L316,64V56Zm83-15c24.5,0,37,16.25,37,35s-11.75,37-38,37-37.75-20-38-38S374.5,41,399,41ZM365,76c-0.25,21.5,20,32,20,32s-14.5-9.5-14-33,11-27,11-27S365.25,54.5,365,76Zm51-28s15,10,15,28-15,30-15,30,9-9.7,9-29C425,57.5,416,48,416,48Zm-9-2c20.588,10.452,14,56.6,1,62-2.485,1.032-17.215,1.666-19,0-18-16.8-15.4-52.6,1-62C393.242,44.142,402.977,43.958,407,46Zm26,62-1,4,73,19,2-4-7-2-9-75-49,60Zm15,3,34-43,5,53Zm37-46,4-6,8,65-6-2Zm89,48-25,38,8,7,41-57-67,22,24-45-12-6-31,63ZM545,77l4,3-24,46-6,3Zm9,74,25-39,9-4-31,46Zm56,50,50-47s-4.856-4.687-25-23c-19.25-17.5-50.25,7-23,29-9.25.5-41,4-41,4l9,11,43-4-22,21Zm37-53s-3.218-3.644-14-12c-10-7.75-27.75,11.5-18,22,3.25,3.5,11,11,11,11Zm-69,19,37-4,4,4-37,5Zm48-36c-11-8.5-29,9.5-17,21C605.058,141.42,617.1,129.373,626,131Zm23,20,4,4-43,41-3-3ZM400,371a29,29,0,1,1-29,29A29,29,0,0,1,400,371Z"/>
<path id="standart" class="cls-3" d="M92.86,267v15.028h2.108L95,269l6.284,0v-2H92.86Zm17.263,4.988c-7.563.063-7.313,11.007,0,11.007S117.685,271.926,110.123,271.988Zm0,2c3.812,0,4,6.945,0,7.008S105.885,273.988,110.123,273.988Zm18.1,7.327-1.758-1.463c-7.229,5.25-6.7-10.353,0-4.793l1.758-1.36a5.78,5.78,0,0,0-4.5-1.711c-6.7,0-6.817,11.043,0,11.007A4.825,4.825,0,0,0,128.222,281.315Zm7.184-7.276H139v-1.9h-9.642v1.9L133,274l-0.041,8.84H135.4ZM103,303c0-5.242-3.082-6.844-7-6,0.2-.489,1-4,1-4h5v-2H95l-2,8,1.8,0.317c0.926-.752,6.293-0.716,6.2,3.683-0.528,4.087-5.68,2.1-5.68,2.1l-2.031.749a4.8,4.8,0,0,0,3.457,1.737C98.79,307.538,103,307.931,103,303Zm2,4h10v-2h-6s5-7.835,5-9c0-4.479-2.048-4.755-4-4.755-0.407,0-3.742-.079-4.341,4.082v0.011h2.18v-0.011c1.4-3.517,5.3-1.38,3.954,1.039C111.089,297.637,106,305,106,305h-1v2Zm17.5-.012c4.571,0,4.5-4.612,4.5-4.612a4.38,4.38,0,0,0-2.07-3.772c1.754-.736,1.764-3.492,1.764-3.492a4.19,4.19,0,0,0-8.379,0s-0.181,2.574,1.733,3.492c-2.2.749-2.039,4.03-2.039,4.03,0,4.369,4.183,4.354,4.495,4.354h0Zm0-2.112a2.347,2.347,0,0,1-2.426-2.543,2.426,2.426,0,0,1,4.852-.011,2.388,2.388,0,0,1-2.426,2.554h0Zm-2.11-9.538a2.15,2.15,0,0,1,2.11-2.231,2.271,2.271,0,0,1,2.11,2.371,2.135,2.135,0,0,1-2.11,2.317A2.254,2.254,0,0,1,120.4,295.338Zm12.06,11.09h2.274s3.692-7.582,4.051-8.8c0.3-1.7.7-6.288-3.979-6.382-0.455,0-4.2-.1-4.2,4.6v0.011c0,0.289,0,4.4,3.607,4.4a3,3,0,0,0,2.026-1.292Zm2.346-8.093c-1.337,0-2.088-.927-2.088-2.553v-0.01c0-1.6.751-2.5,2.088-2.5s2.078,0.906,2.078,2.49v0.011c0,1.626-.755,2.563-2.078,2.563h0Zm6.08,0.705v2h6.945v-2h-6.945Zm27.581,7.948c4.528,0,4.454-4.612,4.454-4.612a4.392,4.392,0,0,0-2.05-3.772c1.737-.736,1.747-3.492,1.747-3.492a4.151,4.151,0,0,0-8.3,0s-0.179,2.574,1.717,3.492c-2.179.749-2.02,4.03-2.02,4.03,0,4.369,4.144,4.354,4.453,4.354h0Zm0-2.112a2.341,2.341,0,0,1-2.4-2.543,2.4,2.4,0,1,1,4.807-.011,2.384,2.384,0,0,1-2.4,2.554h0Zm-2.09-9.538a2.142,2.142,0,0,1,2.09-2.231,2.264,2.264,0,0,1,2.091,2.371,2.129,2.129,0,0,1-2.091,2.317A2.248,2.248,0,0,1,166.372,295.338Zm-7.9-3.766h-2.26s-3.67,7.582-4.028,8.8c-0.3,1.7-.7,6.288,3.956,6.382,0.452,0,4.171.1,4.171-4.6v-0.011c0-.289,0-4.4-3.585-4.4a2.977,2.977,0,0,0-2.014,1.292Zm-2.332,8.093c1.329,0,2.075.927,2.075,2.553v0.01c0,1.6-.746,2.5-2.075,2.5s-2.065-.906-2.065-2.49v-0.011c0-1.626.75-2.563,2.065-2.563h0Z"/>
<path id="tm" class="cls-3" d="M213.309,212.859c1.946-2.01,2.482-8.968-4.081-6.306,1.747-2.468-2.657-7.058-6.616-2.94-1.614,1.679-4.791,5.113-4.791,5.113L208.2,218.3S211.586,214.641,213.309,212.859Zm-11.935-5.008s1.719-1.915,2.65-2.8a1.957,1.957,0,1,1,2.852,2.675c-0.866.95-2.657,2.8-2.657,2.8Zm4.313,4.065s1.924-1.925,2.8-2.956c2.059-2.412,5.918-.663,2.9,2.834-0.87,1.008-2.753,2.9-2.753,2.9l-2.95-2.782h0Zm10.137-11.568c-3.8-4.009.392-8.783,3.95-6.377q0.992-1.065,2-2.117c-2.563-2.021-5.589-1.737-8.178.666-3.316,3.078-3.159,7.125-.168,10.2,4.925,5.075,9.244,1.232,9.949.576,2.656-2.466,3.09-5.546,1.5-7.917q-1.15.845-2.3,1.705C224.8,200.154,219.67,204.409,215.824,200.348Zm20.864-11.685-6.086,5-2.547-3.023,4.885-4.04-1.283-1.6-4.922,4.07-2.466-2.928,6.221-5.115-1.305-1.645-8.676,7.218,9.222,10.7,8.32-6.918Zm0.935-6.967c-3.359-4.381,1.233-8.615,4.5-5.833q1.082-.936,2.171-1.859c-2.329-2.288-5.337-2.353-8.119-.283-3.563,2.653-3.8,6.657-1.151,10.039,0.09,0.115,4.327,5.753,9.74,1.719,2.854-2.125,3.581-5.116,2.241-7.638q-1.216.7-2.428,1.42C246.844,182.3,241.591,186.872,237.623,181.7ZM258.8,167.1c-2.188-3.519-6.177-4.743-9.956-2.252a6.9,6.9,0,0,0-2.006,10.1c2.376,3.4,6.309,4.5,9.908,2.126C260.246,174.767,261.1,170.808,258.8,167.1Zm-9.209,6.055c-1.979-2.9-1.875-5.106.339-6.568,2.247-1.482,4.339-.483,6.082,2.245q1.609,2.522,1.285,4.082a3.712,3.712,0,0,1-1.659,2.441C253.625,176.68,251.505,175.975,249.586,173.155Zm26.476-7.646c3.739-2.022,4.669-6.143,2.814-9.789-1.981-3.893-5.985-5.05-9.839-2.964a6.793,6.793,0,0,0-3.4,8.667c-0.852.491-2.551,1.489-2.551,1.489l-2.9-4.9-2.655,1.591,7.336,12.072,2.52-1.51-3.245-5.475s1.686-.991,2.532-1.478A6.79,6.79,0,0,0,276.062,165.509Zm-0.094-8.329c1.468,2.8,1.137,5.434-.968,6.574-1.9,1.027-4.292.286-5.936-2.636-1.555-2.763-1.283-5.352.962-6.568C272.1,153.43,274.4,154.188,275.968,157.18Zm13.173,1.727c3.5-1.644,4.912-4.265,3.877-6.6-0.729-1.644-2.239-2.2-4.529-1.608,1.6-1.3,2.1-2.643,1.475-4.055-0.869-1.948-3.642-2.5-7.013-.918-3.33,1.567-4.641,3.733-3.949,6.383q1.276-.447,2.557-0.878c-0.392-1.527.508-2.418,2.144-3.594,2.971-2.133,6.3,1.385.787,4.114q0.4,0.84.8,1.68c5.742-3.32,5.551,2.408,2.9,3.656-1.873.881-3.373,0.622-4.522-.806q-1.137.773-2.265,1.557C282.857,160.053,285.647,160.549,289.141,158.907Zm14-21.458-2.849,1.089,2.12,5.4-5.873,2.362-2.245-5.352-2.816,1.189,5.606,12.962,2.672-1.129-2.373-5.657,5.826-2.343,2.24,5.711,2.7-1.033Zm10.656-3.757-3.551,1.2-0.363,15.117,2.32-.841,0.058-3.587,5.912-2,2.268,2.8,2.943-.923Zm-1.528,9.725,0.213-6.734,4.3,5.205s-3.014,1.006-4.515,1.529h0Zm21.34-.879,2.786-.718-3.5-13.675s-4.75,1.23-7.114,1.893c-5.465,1.532-5.145,7.86-.2,8.154-0.511,2.345-1.45,7.033-1.45,7.033l2.773-.826,1.214-6.446s2.646-.73,3.972-1.079Zm-2.03-7.592s-2.275.577-3.4,0.919c-3.944,1.2-5.522-2.91-1.361-3.98,1.23-.315,3.675-1,3.675-1Zm19.909,3.968q1.226-.234,2.452-0.456l-0.315-1.708c4.436-1.194,6.111-3.686,5.622-6.776-0.494-3.117-3-5.017-7.706-4.53q-0.156-.849-0.313-1.7-1.3.236-2.591,0.483,0.163,0.847.329,1.7c-4.477,1.208-6.218,3.883-5.532,6.994,0.677,3.069,3.184,4.782,7.723,4.291q0.165,0.853.331,1.7h0Zm-0.68-3.5c-2.533.121-4.027-.858-4.475-2.991-0.516-2.466.543-3.87,2.982-4.7q0.746,3.846,1.493,7.693h0Zm1.065-8.169c2.621-.109,4.108.938,4.469,3.083a3.779,3.779,0,0,1-.481,2.944,5.025,5.025,0,0,1-2.568,1.679q-0.71-3.852-1.42-7.706h0Zm19.487-1.731,1.023,9.839,2.84-.3-1.41-14.038-2.993.311,0.158,1.418-5.66,9.375-1.277-9.967-2.994.419,2.062,13.959,2.841-.4-0.174-1.27Zm9.789,3.417c1.349-.1,2.7-0.145,4.048-0.272,5.593-.527,6.909-8.926-0.861-8.48-2.283.131-6.843,0.5-6.843,0.5l1.223,14.056,2.857-.229-0.424-5.576h0Zm-0.486-6.39q1.634-.122,3.269-0.225c3.747-.235,4.158,3.891.534,4.2-1.159.1-3.482,0.238-3.482,0.238l-0.321-4.216h0Zm28.292-2.786-4.749-.086-3.423,9.073-3.534-9.054-4.723.111,0.457,14.1,2.34-.064-0.29-12.347,4.715,12.282,1.5-.006,4.6-12.317-0.195,12.349,2.923,0.061,0.38-14.1h0Zm11.2,0.519-3.712-.222-6.033,13.86L412.858,134l1.406-3.3,6.183,0.362,1.028,3.442,3.054,0.247Zm-5.073,8.433,2.737-6.155,1.986,6.431Zm20.127,7.19,1.531-11.83,5.977,0.825,0.327-2.156-9.024-1.2-1.658,14.011Zm11.217-4s2.67,0.456,4,.7c5.852,1.068,7.954-7.216,1.214-8.437-2.254-.409-6.777-1.142-6.777-1.142l-2.21,13.936,2.834,0.458,0.936-5.514h0Zm1.073-6.319q1.618,0.27,3.234.56c2.952,0.713,2.193,4.7-.5,4.206-1.147-.206-3.445-0.6-3.445-0.6l0.708-4.168h0ZM466,127.144l-3.638-.832-8.278,12.674,2.4,0.494,1.941-3.022,6.058,1.38,0.444,3.565,2.983,0.749Zm-6.426,7.479L463.3,129l0.895,6.672Zm29.7-.907-4.555-1.46-5.941,7.695-0.768-9.689-4.58-1.256-3.665,13.631,2.271,0.613,3.316-11.9,0.965,13.119,1.449,0.429,8.018-10.46L482,146.2l2.8,0.907Zm21.805,10.812-0.96,12.421,2.837,1.3,1.1-15.006-3.56-1.539-10.271,11.038,2.336,0.95ZM523.8,147.77l-11.071,10.371,2.248,1.055,2.608-2.48,5.643,2.8-0.387,3.582,2.765,1.452,1.581-15.094Zm-4.664,7.431c1.642-1.538,4.972-4.581,4.972-4.581l-0.661,6.719-4.311-2.138h0Zm13.183,4.9c2.656-3.937,7.463-2.709,7.057,1.728,0.656,0.313,1.7.811,2.549,1.224,1.162-3.05.03-5.819-2.939-7.508-3.8-2.161-8.072.386-9.54,3.042a7,7,0,0,0,2.231,9.552c3.047,1.732,6.06,1.183,7.827-1.06q-1.122-.824-2.251-1.636C535.02,168.507,529.666,164.039,532.322,160.1Zm18.208,5.246,3.806,2.5,1.213-1.815-10.542-6.705-1.13,1.868,3.864,2.379-6.35,10.115,2.668,1.7Zm12.475,11.074-5.917,7.942,2.377,1.77,8.482-11.3-2.5-1.865-0.845,1.152-10.713,2.947,5.811-8.211-2.57-1.767-7.93,11.69,2.439,1.677,0.732-1.054Zm18.071,8.963-2.418-2.045-3.71,4.465-5.074-4.136,3.6-4.553L571,177.171l-8.637,11.177,2.349,1.845,3.807-4.812,5.034,4.1-3.922,4.719,2.3,1.94Zm8.381,17.21c2.884-2.973,3.039-7.218-.372-10.374-3.385-3.131-7.7-2.715-10.386.383-2.72,3.132-2.806,7.247.442,10.247A6.993,6.993,0,0,0,589.457,202.594Zm-8.3-7.707c2.33-2.623,4.511-3.039,6.51-1.193,2.029,1.877,1.593,4.179-.63,6.531-2.739,2.9-4.882,2.617-6.488,1.133C578.732,199.683,578.883,197.434,581.152,194.887Zm18.28,14.464,6.273-.048-2.225-2.42-10.006.253,5.279-5.209-2.265-2.289-9.936,10.032,2.15,2.173,2.541-2.506,4.924-.112-2.715,7.605,2.327,2.543ZM490.875,149.194l4.1-11.333,5.593,2.068-4.341,11.243,2.7,1.048,5.23-13.116-11.35-4.2-4.653,13.331,2.726,0.957h0Z"/>
<path id="factory" class="cls-3" d="M314.6,298.249l-0.081,10.88h3.292V293.61h-3.292v1.569l-7.564,9.482,0.094-11.051h-3.306v15.519h3.306v-1.41Zm27.244-4.639h-3.252l-5.79,6.662V293.61h-3.144v6.662l-5.791-6.662h-3.628l5.858,7.435-6.342,8.084H323l6.651-7.015v7.015H332.8v-7.015l6.65,7.015h3.695l-6.771-8.857Zm-51.292,9.368h4.582c7.645,0,7.484-9.368-.377-9.368h-7.51v15.519h3.305v-6.151Zm0-7.049h3.614c4.628,0,4.648,4.65.3,4.65h-3.91v-4.65Zm57.233,5.389c0-3,3.226-6.849,7.645-2.183l3.063-.272c-0.627-3.532-3.189-5.492-6.826-5.492-4.639,0-7.456,3.263-7.456,7.993,0,0.091-.189,8,7.336,8,3.977,0,6.552-2.235,6.946-5.343l-3.063-.284C353.5,307.8,347.781,307.242,347.781,301.318Zm23.864-2.6,4.353-5.1h-3.346l-7,8.152V293.61h-3.305v15.519h3.305v-3.923l3.547-3.979,3.87,7.9h3.695Zm17.509,2.615a23.042,23.042,0,0,0,2.176-3.081q-0.079.75-.08,2.842v8.038h3.292V293.61H391.25v1.569l-5.4,6.389a19.943,19.943,0,0,0-2.164,3.093q0.094-1.286.094-2.342V293.61h-3.305v15.519h3.305v-1.41Zm21.526-3.081-0.08,10.88h3.291V293.61H410.6v1.569l-7.565,9.482,0.094-11.051h-3.305v15.519h3.305v-1.41Zm-3.721-6.094c2.418,0,4.021-1.372,4.111-3.115h-1.76q-0.242,1.5-2.284,1.5-2.11,0-2.352-1.5h-1.76C402.986,290.92,404.648,292.155,406.959,292.155Zm25.908,17.212c4.568,0,7.081-2.148,7.081-4.831q0-2.969-3.856-3.65,3.318-.852,3.318-3.4c0-2.35-2.508-4.116-6.5-4.116q-5.939,0-6.879,4.423l2.929,0.375q0.525-2.547,3.8-2.546c1.934,0,3.251.841,3.251,2.2,0,2.125-4.407,2.251-4.407,2.251v2.046s4.77,0.069,4.77,2.433c0,1.456-1.075,2.558-3.6,2.558q-3.507,0-4.178-2.944l-3.037.432C425.9,307.484,428.461,309.367,432.867,309.367ZM452.2,293.61h-4.072l-6.086,15.519h2.822l1.437-3.695h7.054l1.465,3.695h3.533Zm-5.079,9.584,2.674-6.923,2.673,6.923h-5.347Zm22.695,5.935c5.465,0,7.235-6.182,1.747-8.049,3.562,0,5.692-7.47-2.62-7.47H461.8v15.519h8.021Zm-4.891-13.3h3.964c3.755,0,3.9,4.3.067,4.3h-4.031v-4.3Zm0,6.514h4.286c3.643,0,3.672,4.457-.013,4.457h-4.273v-4.457Zm29.454-.989c0-4.562-2.96-7.981-7.726-7.981a7.605,7.605,0,0,0-7.873,7.947c0,4.548,2.853,8.049,7.726,8.049C491.257,309.367,494.383,306.142,494.383,301.352Zm-10.943,4.315a7.05,7.05,0,0,1-1.082-4.258q0-5.787,4.246-5.786c2.866,0,4.192,2.144,4.192,5.707q0,3.285-1.236,4.536a4.089,4.089,0,0,1-3.024,1.25A3.63,3.63,0,0,1,483.44,305.667Zm12.8,1.051v2.674h16.809v-2.674H511.7l-4.353-13.108H502.42l-4.837,13.108h-1.344Zm7.793-10.5h0.994l3.185,10.5H500.4Z"/>
<path id="speed" class="cls-3" d="M646,249c-2.539,5.108-5,2.32-5,1s3-4,3-4h15l-6,10a7.518,7.518,0,0,1,5.991,7.783c0,4.873-4.078,8.2-9.515,8.2A9.97,9.97,0,0,1,642,268c-2.309-2.9,2.275-4.32,3-2,1.183,3.012,10.09,3.339,10.09-2.293,0-6.193-7.167-5.349-7.167-5.349v-2.189L652,249h-6Zm-31-13v3l44,65h3l40-65v-3H615Zm50,13c-2.539,5.108-5,2.32-5,1s3-4,3-4h15l-6,10a7.518,7.518,0,0,1,5.991,7.783c0,4.873-4.078,8.2-9.515,8.2A9.97,9.97,0,0,1,661,268c-2.309-2.9,2.275-4.32,3-2,1.183,3.012,10.09,3.339,10.09-2.293,0-6.193-7.167-5.349-7.167-5.349v-2.189L671,249h-6Zm30-9H622l38,59Z"/>
</svg>
