<svg viewBox="0 0 194 152" xmlns="http://www.w3.org/2000/svg"><path d="M40 90c16.984 0 16 11.912 16 18 0 5.937-4.011 10-11 10-7.064 0-11-4.01-11-10v-6H0c0 28.345 13.828 50.459 46.9 50.006S92.192 123.969 92 110c0-24.285-15-32.333-15-34s15-9.715 15-34C92.192 28.031 79.963.447 46.9-.006S0 21.655 0 50h34v-6c0-5.99 3.936-10 11-10 6.989 0 11 4.063 11 10 0 6.088.984 18-16 18v28zm102 0c16.984 0 16 11.912 16 18 0 5.937-4.011 10-11 10-7.064 0-11-4.01-11-10v-6h-34c0 28.345 13.828 50.459 46.9 50.006S194.192 123.969 194 110c0-24.285-15-32.333-15-34s15-9.715 15-34c.192-13.969-12.037-41.553-45.1-42.006S102 21.655 102 50h34v-6c0-5.99 3.936-10 11-10 6.989 0 11 4.063 11 10 0 6.088.984 18-16 18v28z" data-name="33" fill="#0f0f14" fill-rule="evenodd"/></svg>