<?xml version="1.0" encoding="UTF-8"?>
<svg viewBox="0 0 194 152" xmlns="http://www.w3.org/2000/svg">
<defs><style>.cls-1 { fill: #0f0f14; fill-rule: evenodd; }</style></defs>
<path class="cls-1" d="M40,90c16.984,0,16,11.912,16,18,0,5.937-4.011,10-11,10-7.064,0-11-4.01-11-10v-6H0c0,28.345,13.828,50.459,46.9,50.006S92.192,123.969,92,110c0-24.285-15-32.333-15-34s15-9.715,15-34C92.192,28.031,79.963.447,46.9-.006S0,21.655,0,50H34V44c0-5.99,3.936-10,11-10,6.989,0,11,4.063,11,10,0,6.088.984,18-16,18V90Zm102,0c16.984,0,16,11.912,16,18,0,5.937-4.011,10-11,10-7.064,0-11-4.01-11-10v-6H102c0,28.345,13.828,50.459,46.9,50.006S194.192,123.969,194,110c0-24.285-15-32.333-15-34s15-9.715,15-34C194.192,28.031,181.963.447,148.9-.006S102,21.655,102,50h34V44c0-5.99,3.936-10,11-10,6.989,0,11,4.063,11,10,0,6.088.984,18-16,18V90Z" data-name="33"/>
</svg>
