<svg xmlns="http://www.w3.org/2000/svg" viewBox="0 0 450 228"><defs><style>@keyframes show-indicator{0%,55%{transform:matrix(1,0,0,1,0,0)}65%,to{transform:matrix(1,0,0,1,0,29)}}@keyframes autostop-arm{0%,50%{transform:matrix(1,0,0,1,20,0)}65%,to{transform:matrix(1,.3,-.3,1,-30,0)}}</style></defs><path fill="#0f0f14" fill-rule="evenodd" d="M386 75h30v28h-30z"/><path style="animation:show-indicator 2s linear infinite alternate" fill="#d6361a" fill-rule="evenodd" d="M386 47h30v28h-30z"/><path d="M-5 134h454V1H-5v133zm0-12h358V13H-5v109zm406-73c20.125 0 40 20.125 40 40s-19.875 40-40 40-40-20-40-40 19.875-40 40-40zM-5 13s358.547.209 358 0v109H-5V13zm406 62c7.044 0 14 7.044 14 14s-6.956 14-14 14-14-7-14-14 6.956-14 14-14zm0-26c20.125 0 40 20.125 40 40s-19.875 40-40 40-40-20-40-40 19.875-40 40-40z" fill="#fffef4" fill-rule="evenodd" stroke="#0f0f14" stroke-linecap="round" stroke-linejoin="round" stroke-width="2"/><path d="M249 142l2 7-49 9-2-7zm2 7l-6 60-21 3-22-54z" style="transform-origin:center center;animation:autostop-arm 2s linear infinite alternate" fill="#fffef4" fill-rule="evenodd" stroke="#0f0f14" stroke-linecap="round" stroke-linejoin="round" stroke-width="2"/><path d="M200 73l11 49H35V73h165zM56 93v20s3.216-.033 6 0c2.766.032 4.971-1.85 5.007-5.512.028-2.77-1.833-4.984-4.515-4.984C64.445 102.5 66 99.937 66 98c0-3.329-2.272-5-4-5h-6zm2 2v6h3a2.916 2.916 0 0 0 3-3 3.062 3.062 0 0 0-3-3h-3zm4 9c-1.248.048-4 0-4 0v7s2.9.048 4 0a3.294 3.294 0 0 0 3.039-3.4C65 104.967 63.248 103.952 62 104zm19-11v20s3.216-.053 6 0 4.977-1.8 4.989-5.568C92 104.615 90.665 102 88 102h-5v-9h-2zm6 11c-1.248.048-4 0-4 0v7s2.9.048 4 0a3.294 3.294 0 0 0 3.039-3.4C90 104.967 88.248 103.952 87 104zm7-11v20h2V93h-2zm16 0v20h2v-10h2l5 10h3l-6-12v-1l5-7h-3l-5 7h-1v-7h-2zm36 20V93h-6c-3.81 0-4 5.872-4 15 0 3.817-2 5-2 5h2s2-.937 2-5c0-11.541.349-13 3-13h3v18h2zm51-4V97h-13v-4h-2l-15 10 15 10h2v-4h13zm64-16v20h3v-10h2l5 10h4l-6-12v-1l5-7h-4l-5 7h-1v-7h-3zm41 20V93h-7c-3.81 0-4 5.872-4 15 0 3.817-2 5-2 5h3s2-.937 2-5c0-11.541.349-13 3-13h2v18h3zm6-7l3 3-3 3-3-3zM110 36v20s3.216-.033 6 0c2.766.032 4.97-1.85 5.007-5.512.028-2.77-1.833-4.984-4.515-4.984 1.953 0 3.508-2.568 3.508-4.5 0-3.329-2.272-5-4-5h-6zm3 3v4h2a2.088 2.088 0 0 0 2-2 2.176 2.176 0 0 0-2-2c-1.04-.037-2 0-2 0zm2 9h-2v5h2c1.611 0 2.978-.618 2.978-2.438 0-1.895-1.284-2.562-2.978-2.562zM85 36l-6 20h3l2-5h4l2 5h3l-6-20h-2zm2 12h-2l1-5zm65-12v3h-5v17h-3V39h-5v-3h13zm31 7v6c0 3.314-3.686 7-7 7h-2c-3.314 0-7-3.686-7-7v-6c0-3.314 3.686-7 7-7h2c3.314 0 7 3.686 7 7zm-8-4a5 5 0 0 1 5 5v4a5 5 0 0 1-10 0v-4a5 5 0 0 1 5-5zm37 10c0 3.314-3.686 7-7 7h-2c-3.314 0-7-3.686-7-7v-6c0-3.314 3.686-7 7-7h2c3.314 0 7 3.686 7 7l-3.36-.017c0-1.1-1.911-4.073-4.64-3.983a5.061 5.061 0 0 0-5 5v4a5.06 5.06 0 0 0 5 5 4.77 4.77 0 0 0 4.628-3.961zm29-13v3h-5v17h-3V39h-5v-3h13zM35 73h165m74-30v6c0 3.314-3.686 7-7 7h-2c-3.314 0-7-3.686-7-7v-6c0-3.314 3.686-7 7-7h2c3.314 0 7 3.686 7 7zm-8-4a5 5 0 0 1 5 5v4a5 5 0 0 1-10 0v-4a5 5 0 0 1 5-5zm35-3v20h-3V39h-6v17h-3V36h12zm-69 57v20s3.216-.033 6 0c2.766.032 4.97-1.85 5.007-5.512.028-2.77-1.833-4.984-4.515-4.984 1.953 0 3.508-2.568 3.508-4.5 0-3.329-2.272-5-4-5h-6zm3 3v4h2a2.088 2.088 0 0 0 2-2 2.176 2.176 0 0 0-2-2c-1.04-.037-2 0-2 0zm2 9h-2v5h2c1.611 0 2.978-.618 2.978-2.438 0-1.895-1.284-2.562-2.978-2.562z" fill="#0f0f14" fill-rule="evenodd"/></svg>