<svg xmlns="http://www.w3.org/2000/svg" width="500" height="250" viewBox="0 0 500 250">
<defs><style>#plate, #arm { fill: #fffef4; fill-rule: evenodd; stroke: #0f0f14; stroke-linecap: round; stroke-linejoin: round; stroke-width: 2px; } #background, #text { fill: #0f0f14; fill-rule: evenodd; } #arm { transform-origin: center center; animation: autostop-arm 2s linear infinite alternate; } #indicator { fill: #d6361a; fill-rule: evenodd; animation: show-indicator 2s linear infinite alternate; } @keyframes show-indicator { 0% { transform:matrix(1,0,0,1,0,0); } 55% { transform:matrix(1,0,0,1,0,0); } 65% { transform:matrix(1,0,0,1,0,25); } 100% { transform:matrix(1,0,0,1,0,25); } } @keyframes autostop-arm { 0% { transform:matrix(1,0,0,1,20,0); } 50% { transform:matrix(1,0,0,1,20,0); } 65% { transform:matrix(1,.3,-.3,1,-30,0); } 100% { transform:matrix(1,.3,-.3,1,-30,0); } }</style></defs>
<rect id="background" x="402" y="97" width="41" height="28"/>
<rect id="indicator" x="402" y="72" width="41" height="28"/>
<path id="plate" d="M477,23V156H23a311.085,311.085,0,0,1-3-42c0-19.427,9-41.886,9-60a87.008,87.008,0,0,0-6-31H477ZM17,6h0l6,17a85.71,85.71,0,0,1,6,31c0,18.386-9,40.872-9,60a298.972,298.972,0,0,0,3,42l3,18h0l-3-18a283.387,283.387,0,0,1-3-42c0-19.186,9-42.609,9-60a86.118,86.118,0,0,0-6-31ZM381,35V144l-359.4-.057A244.036,244.036,0,0,1,20,114c0-18.369,9-43.14,9-59,0-12.451-2.3-19.988-2.3-19.988Zm10,52h63v48H391V87Zm63,0v48l-14-13V100Zm-63,0v48l14-13V100Zm63,0H391l14,13h35Zm0,48H391l14-13h35ZM381,35V144l-359.4-.057A244.036,244.036,0,0,1,20,114c0-18.369,9-43.14,9-59,0-12.451-2.3-19.988-2.3-19.988Z"/>
<path id="arm" d="M277,164l2,7-49,9-2-7Zm2,7-6,60-21,3-22-54Z"/>
<path id="text" d="M228,95l11,49H63V95H228ZM84,115v20s3.216-.033,6,0c2.766,0.032,4.97-1.85,5.007-5.512,0.028-2.77-1.833-4.984-4.515-4.984,1.953,0,3.508-2.567,3.508-4.5,0-3.329-2.272-5-4-5H84Zm2,2v6h3a2.916,2.916,0,0,0,3-3,3.062,3.062,0,0,0-3-3H86Zm4,9c-1.248.048-4,0-4,0v7s2.9,0.048,4,0a3.294,3.294,0,0,0,3.039-3.4C93,126.967,91.248,125.952,90,126Zm19-11v20s3.216-.053,6,0,4.977-1.8,4.989-5.568C120,126.615,118.665,124,116,124h-5v-9h-2Zm6,11c-1.248.048-4,0-4,0v7s2.9,0.048,4,0a3.294,3.294,0,0,0,3.039-3.4C118,126.967,116.248,125.952,115,126Zm7-11v20h2V115h-2Zm16,0v20h2V125h2l5,10h3l-6-12v-1l5-7h-3l-5,7h-1v-7h-2Zm36,20V115h-6c-3.81,0-4,5.872-4,15,0,3.817-2,5-2,5h2s2-.937,2-5c0-11.541.349-13,3-13h3v18h2Zm51-4V119H212v-4h-2l-15,10,15,10h2v-4h13Zm64-16v20h3V125h2l5,10h4l-6-12v-1l5-7h-4l-5,7h-1v-7h-3Zm41,20V115h-7c-3.81,0-4,5.872-4,15,0,3.817-2,5-2,5h3s2-.937,2-5c0-11.541.349-13,3-13h2v18h3Zm6-7,3,3-3,3-3-3ZM138,58V78s3.216-.033,6,0c2.766,0.032,4.97-1.85,5.007-5.512,0.028-2.769-1.833-4.984-4.515-4.984,1.953,0,3.508-2.568,3.508-4.5,0-3.329-2.272-5-4-5h-6Zm3,3v4h2a2.088,2.088,0,0,0,2-2,2.176,2.176,0,0,0-2-2C141.96,60.963,141,61,141,61Zm2,9h-2v5h2c1.611,0,2.978-.618,2.978-2.438C145.978,70.667,144.694,70,143,70ZM113,58l-6,20h3l2-5h4l2,5h3l-6-20h-2Zm2,12h-2l1-5Zm65-12v3h-5V78h-3V61h-5V58h13Zm31,7v6c0,3.314-3.686,7-7,7h-2c-3.314,0-7-3.686-7-7V65c0-3.314,3.686-7,7-7h2C207.314,58,211,61.686,211,65Zm-8-4a5,5,0,0,1,5,5v4a5,5,0,0,1-10,0V66A5,5,0,0,1,203,61Zm37,10c0,3.314-3.686,7-7,7h-2c-3.314,0-7-3.686-7-7V65c0-3.314,3.686-7,7-7h2c3.314,0,7,3.686,7,7l-3.36-.017c0-1.1-1.911-4.073-4.64-3.983a5.061,5.061,0,0,0-5,5v4a5.06,5.06,0,0,0,5,5,4.77,4.77,0,0,0,4.628-3.961Zm29-13v3h-5V78h-3V61h-5V58h13ZM63,95H228m74-30v6c0,3.314-3.686,7-7,7h-2c-3.314,0-7-3.686-7-7V65c0-3.314,3.686-7,7-7h2C298.314,58,302,61.686,302,65Zm-8-4a5,5,0,0,1,5,5v4a5,5,0,0,1-10,0V66A5,5,0,0,1,294,61Zm35-3V78h-3V61h-6V78h-3V58h12Zm-69,57v20s3.216-.033,6,0c2.766,0.032,4.97-1.85,5.007-5.512,0.028-2.77-1.833-4.984-4.515-4.984,1.953,0,3.508-2.567,3.508-4.5,0-3.329-2.272-5-4-5h-6Zm3,3v4h2a2.088,2.088,0,0,0,2-2,2.176,2.176,0,0,0-2-2C263.96,117.963,263,118,263,118Zm2,9h-2v5h2c1.611,0,2.978-.618,2.978-2.438C267.978,127.667,266.694,127,265,127Z"/>
</svg>
