<svg xmlns="http://www.w3.org/2000/svg" width="500" height="250"><defs><style>@keyframes show-indicator{0%,55%{transform:matrix(1,0,0,1,0,0)}65%,to{transform:matrix(1,0,0,1,0,25)}}@keyframes autostop-arm{0%,50%{transform:matrix(1,0,0,1,20,0)}65%,to{transform:matrix(1,.3,-.3,1,-30,0)}}</style></defs><path fill="#0f0f14" fill-rule="evenodd" d="M402 97h41v28h-41z"/><path style="animation:show-indicator 2s linear infinite alternate" fill="#d6361a" fill-rule="evenodd" d="M402 72h41v28h-41z"/><path d="M477 23v133H23a311.085 311.085 0 0 1-3-42c0-19.427 9-41.886 9-60a87.008 87.008 0 0 0-6-31h454zM17 6h0l6 17a85.71 85.71 0 0 1 6 31c0 18.386-9 40.872-9 60a298.972 298.972 0 0 0 3 42l3 18h0l-3-18a283.387 283.387 0 0 1-3-42c0-19.186 9-42.609 9-60a86.118 86.118 0 0 0-6-31zm364 29v109l-359.4-.057A244.036 244.036 0 0 1 20 114c0-18.369 9-43.14 9-59 0-12.451-2.3-19.988-2.3-19.988zm10 52h63v48h-63V87zm63 0v48l-14-13v-22zm-63 0v48l14-13v-22zm63 0h-63l14 13h35zm0 48h-63l14-13h35zM381 35v109l-359.4-.057A244.036 244.036 0 0 1 20 114c0-18.369 9-43.14 9-59 0-12.451-2.3-19.988-2.3-19.988z" fill="#fffef4" fill-rule="evenodd" stroke="#0f0f14" stroke-linecap="round" stroke-linejoin="round" stroke-width="2"/><path d="M277 164l2 7-49 9-2-7zm2 7l-6 60-21 3-22-54z" style="transform-origin:center center;animation:autostop-arm 2s linear infinite alternate" fill="#fffef4" fill-rule="evenodd" stroke="#0f0f14" stroke-linecap="round" stroke-linejoin="round" stroke-width="2"/><path d="M228 95l11 49H63V95h165zM84 115v20s3.216-.033 6 0c2.766.032 4.97-1.85 5.007-5.512.028-2.77-1.833-4.984-4.515-4.984 1.953 0 3.508-2.567 3.508-4.5 0-3.329-2.272-5-4-5h-6zm2 2v6h3a2.916 2.916 0 0 0 3-3 3.062 3.062 0 0 0-3-3h-3zm4 9c-1.248.048-4 0-4 0v7s2.9.048 4 0a3.294 3.294 0 0 0 3.039-3.4C93 126.967 91.248 125.952 90 126zm19-11v20s3.216-.053 6 0 4.977-1.8 4.989-5.568C120 126.615 118.665 124 116 124h-5v-9h-2zm6 11c-1.248.048-4 0-4 0v7s2.9.048 4 0a3.294 3.294 0 0 0 3.039-3.4c-.039-2.633-1.791-3.648-3.039-3.6zm7-11v20h2v-20h-2zm16 0v20h2v-10h2l5 10h3l-6-12v-1l5-7h-3l-5 7h-1v-7h-2zm36 20v-20h-6c-3.81 0-4 5.872-4 15 0 3.817-2 5-2 5h2s2-.937 2-5c0-11.541.349-13 3-13h3v18h2zm51-4v-12h-13v-4h-2l-15 10 15 10h2v-4h13zm64-16v20h3v-10h2l5 10h4l-6-12v-1l5-7h-4l-5 7h-1v-7h-3zm41 20v-20h-7c-3.81 0-4 5.872-4 15 0 3.817-2 5-2 5h3s2-.937 2-5c0-11.541.349-13 3-13h2v18h3zm6-7l3 3-3 3-3-3zM138 58v20s3.216-.033 6 0c2.766.032 4.97-1.85 5.007-5.512.028-2.769-1.833-4.984-4.515-4.984 1.953 0 3.508-2.568 3.508-4.5 0-3.329-2.272-5-4-5h-6zm3 3v4h2a2.088 2.088 0 0 0 2-2 2.176 2.176 0 0 0-2-2c-1.04-.037-2 0-2 0zm2 9h-2v5h2c1.611 0 2.978-.618 2.978-2.438 0-1.895-1.284-2.562-2.978-2.562zm-30-12l-6 20h3l2-5h4l2 5h3l-6-20h-2zm2 12h-2l1-5zm65-12v3h-5v17h-3V61h-5v-3h13zm31 7v6c0 3.314-3.686 7-7 7h-2c-3.314 0-7-3.686-7-7v-6c0-3.314 3.686-7 7-7h2c3.314 0 7 3.686 7 7zm-8-4a5 5 0 0 1 5 5v4a5 5 0 0 1-10 0v-4a5 5 0 0 1 5-5zm37 10c0 3.314-3.686 7-7 7h-2c-3.314 0-7-3.686-7-7v-6c0-3.314 3.686-7 7-7h2c3.314 0 7 3.686 7 7l-3.36-.017c0-1.1-1.911-4.073-4.64-3.983a5.061 5.061 0 0 0-5 5v4a5.06 5.06 0 0 0 5 5 4.77 4.77 0 0 0 4.628-3.961zm29-13v3h-5v17h-3V61h-5v-3h13zM63 95h165m74-30v6c0 3.314-3.686 7-7 7h-2c-3.314 0-7-3.686-7-7v-6c0-3.314 3.686-7 7-7h2c3.314 0 7 3.686 7 7zm-8-4a5 5 0 0 1 5 5v4a5 5 0 0 1-10 0v-4a5 5 0 0 1 5-5zm35-3v20h-3V61h-6v17h-3V58h12zm-69 57v20s3.216-.033 6 0c2.766.032 4.97-1.85 5.007-5.512.028-2.77-1.833-4.984-4.515-4.984 1.953 0 3.508-2.567 3.508-4.5 0-3.329-2.272-5-4-5h-6zm3 3v4h2a2.088 2.088 0 0 0 2-2 2.176 2.176 0 0 0-2-2c-1.04-.037-2 0-2 0zm2 9h-2v5h2c1.611 0 2.978-.618 2.978-2.438 0-1.895-1.284-2.562-2.978-2.562z" fill="#0f0f14" fill-rule="evenodd"/></svg>