<svg viewBox="0 50 600 300" xmlns="http://www.w3.org/2000/svg"><defs><style>@keyframes cartridge{0%,25%{transform:matrix(1,-.05,.05,1,0,75)}45%,55%{transform:matrix(1,-.05,.05,1,-2,-10)}60%,to{transform:matrix(1,0,0,1,0,0)}}@keyframes arm{0%{transform-origin:right center;transform:matrix(1,-.05,.05,1,0,85)}25%{transform:matrix(1,-.05,.05,1,0,85)}45%,55%{transform:matrix(1,-.05,.05,1,-2,0)}60%{transform:matrix(1,0,0,1,0,10)}75%{transform-origin:right center;transform:matrix(1,0,0,1,0,10)}80%,to{transform-origin:left center;transform:matrix(1,-.05,0,1,0,10)}}</style><linearGradient id="fill-gradient" x1="56" y1="187.792" x2="83" y2="189.208" gradientUnits="userSpaceOnUse"><stop offset="0" stop-color="#fffef4" stop-opacity="0"/><stop offset=".5" stop-color="#fffef4" stop-opacity="0"/><stop offset=".5" stop-color="#fffef4"/><stop offset="1" stop-color="#fffef4"/></linearGradient><linearGradient id="stroke-gradient" x1="56" y1="187.792" x2="83" y2="189.208" gradientUnits="userSpaceOnUse"><stop offset="0" stop-color="#0f0f14" stop-opacity="0"/><stop offset=".49" stop-color="#0f0f14" stop-opacity="0"/><stop offset=".49" stop-color="#0f0f14"/><stop offset="1" stop-color="#0f0f14"/></linearGradient></defs><path d="M82 226l-11-6 1-52-7-3v51l-9-6 1-60 26 15z" fill="#fffef4" fill-rule="evenodd" stroke="#0f0f14" stroke-linejoin="round" stroke-width="3"/><path d="M75 235c14.893 4.3 25.177 4 71 4s148.143-6.13 158-7a25.919 25.919 0 0 0 16-8h-7l-2-39-1 37-2-38-1 38-2-39-1 39-2-38-1 38-2-37-1 37h14v2s-107.916 4.463-135 5c-26.754.53-80.113 3.382-97-1a79.983 79.983 0 0 1-18-7s-1.893 9.7 13 14zm33 5c10.865-.052 47-1 47-1s-39 6.219-46 6-19-7-19-7 11.917 2.029 18 2zm147-66s-12.731.541-13 16c-.221 12.71 11 18 11 18v10l-158 6-7-4 1-12 11-9 114-34 7 7zm-41-10l8 7 30 2-9-12-24 1zM86 220s-23.887-.04-25 0c-.816-.653-6.759-30.227-4-48 1.327-8.549 10-1 10-1l146-7-114 34-12 10zm190-30v34l-20 1-2-6v-12s-11-5.424-11-17c0-8.486 3.04-17 28-17 .473 0 24.451-11.07 26-6 2.629 8.6-21 23-21 23zm-12-11l-10 2-4 11 9 9 10-3 3-11zm49 8c0-5.286-16-5.143-16 0v36l-20 1s-.446-28.977 0-33c8.559-6.455 22.214-16 21-24 1.145-.654 9.8.328 17 9s8.9 33.682 9 38c.028 1.216-3 10-3 10l-8-1v-36zM87 221l7 4 159-6 2 6s-61.1 2.9-74 3c-26.852.2-85.74 1.844-96 0-12.159-2.186-21.429-6.511-22-7 1.795.571 24 0 24 0zm204.033-62.369c1.949.037 9.119 5.385 11.967 8.369-11.885-6.712-32 5-32 5l-11-13zM260 161l9 11-16 1-9-12h16zm8 36l-9 2-7-7 3-10 9-1 6 6z" style="animation:cartridge 2s linear infinite alternate;transform-origin:right center" fill="#fffef4" fill-rule="evenodd" stroke="#0f0f14" stroke-linejoin="round" stroke-width="3"/><path d="M57 150l290-35 276-86 27 19-291 76 16 13-292 28zM650 48l-289 76 17 14v12l-48 5-2 67c-.041.359 21.4-46.158 58-62 37.976-16.436 266-71 266-71zM83 227v-62l294-27v11l-48 5-2 68h-15v-31c0-5.923-4.231-7-8-7a7.307 7.307 0 0 0-7 7v34z" fill="#fffef4" fill-rule="evenodd" stroke="#0f0f14" stroke-linejoin="round" stroke-width="3"/><path d="M309 192l13 3h-8l-15-3h10zm-10 18v-18l15 3 2 7 1 1 1 6 1 1v7zm29 7l-2-7h-7v-1h7l-2-6h-7v-1h7l-2-7h-8l3 7v1l2 6v1l1 7h8z" style="animation:arm 2s linear infinite alternate" fill="#fffef4" fill-rule="evenodd" stroke="#0f0f14" stroke-linejoin="round" stroke-width="3"/><path data-name="78" d="M263.423 195.808l16.962-.808a1.615 1.615 0 0 1 1.615 1.615l-.808 16.962a1.615 1.615 0 0 1-1.615 1.615l-16.962.808a1.615 1.615 0 0 1-1.615-1.615l.808-16.962a1.615 1.615 0 0 1 1.615-1.615zM265 200h5l-4 12h-1l4-11h-4v-1zm11.064.027c1.852.018 2.425 1.626 2.343 3.037-.049.846-1.392 1.314-1.392 1.314s2 .465 2 3.462c0 2.976-1.632 4.207-3.328 4.154s-2.662-1.706-2.662-4.154c0-3.1 2-3.462 2-3.462a2.019 2.019 0 0 1-1.459-1.766 2.587 2.587 0 0 1 2.498-2.585zm-2.472 2.571a2.674 2.674 0 0 1 2.378-2.59 2.522 2.522 0 0 1 2.481 2.635c-.023 1.424-1.308 1.773-2.348 1.808-1.079.036-2.422-.371-2.511-1.851zm-.582 5.533c.179-3.274 1.133-3.686 3.027-3.707 2.2-.025 2.887 1.3 2.92 3.556.018 1.275-.246 3.816-3.125 4-2.196.143-2.876-2.855-2.822-3.849z" fill="#fffef4" fill-rule="evenodd" stroke="#0f0f14" stroke-linejoin="round" stroke-width="3"/><path d="M271 163c.9.05 2.05 1.237 3 2.219l8 13.718a1.864 1.864 0 0 1-2 1.688l-18 .844a1.864 1.864 0 0 1-2-1.688l8-14.719a3.921 3.921 0 0 1 3-2.062z" fill="#fffef4" fill-rule="evenodd" stroke="#0f0f14" stroke-linejoin="round" stroke-width="3"/><path d="M82 227l-11-6 1-53-7-3v51l-9-6 1-60 26 15z" fill="url(#fill-gradient)" fill-rule="evenodd" stroke="url(#stroke-gradient)" stroke-linejoin="round" stroke-width="3"/></svg>