<?xml version="1.0" encoding="UTF-8"?>
<svg viewBox="0 0 737 114" xmlns="http://www.w3.org/2000/svg">
<defs><style>.cls-1 { fill: #0f0f14; fill-rule: evenodd; }</style></defs>
<path id="electrophone" class="cls-1" d="M25,59H35V73c0,7.917-1.083,12-5,12s-5-3.979-5-12V64H0V83c0,9.111,8.5,23,30,23S59,92.083,59,83V23c0-9.083-7.5-23-29-23S0,13.889,0,23V42H25V33c0-8.021,1.083-12,5-12s5,4.083,5,12V47H25V59ZM106,0l17,106H98L91,63l-7,43H59L76,0h30ZM369,0h24V11A18.8,18.8,0,0,1,410,0c16.462,0,19,21.864,19,53s-2.636,53-19,53a18.8,18.8,0,0,1-17-11v19H369V0ZM157,39V33c0-8.021-1.083-12-5-12s-5,4.083-5,12v6h10ZM147,59V73c0,7.917,1.083,12,5,12s5-3.979,5-12V64h25V83c0,9.111-8.5,23-30,23s-29-13.917-29-23V23c0-9.083,7.5-23,29-23s30,13.889,30,23V49c0,6.872-2.089,10-7,10H147ZM188,0h25V30s-0.009,3,1,3c1.982,0,3-3,3-3L230,0h25L233,48a15.282,15.282,0,0,0-1,5,15.722,15.722,0,0,0,1,5l22,48H230L217,76s-0.966-3-3-3c-1,0-1,3-1,3v30H188V0ZM332,106h26V53c0-31.728,0-53-19-53a18.989,18.989,0,0,0-17,11A20.544,20.544,0,0,0,304,0c-8.157,0-14.02,5.01-17,11V0H262V106h25V38c0-6,1-9,5-9s5,3,5,9v68h25V38c0-6.054,1-9,5-9,3.925,0,5,3.021,5,9v68Zm61-68c0-6.018,1.139-9,5-9s5,3.1,5,9V68c0,5.9-1.139,9-5,9s-5-2.982-5-9V38ZM495,53c0-31.136-2-53-30-53s-30,21.864-30,53,2,53,30,53S495,84.136,495,53ZM460,38c0-6.018,1.139-9,5-9s5,3.1,5,9V68c0,5.9-1.139,9-5,9s-5-2.982-5-9V38Zm77,57a18.8,18.8,0,0,1-17,11c-16.364,0-19-21.864-19-53s2.538-53,19-53a18.8,18.8,0,0,1,17,11V0h24V11A18.8,18.8,0,0,1,578,0c16.462,0,19,21.864,19,53s-2.636,53-19,53a18.8,18.8,0,0,1-17-11v19H537V95Zm0-57c0-6.018-1.139-9-5-9s-5,3.1-5,9V68c0,5.9,1.139,9,5,9s5-2.982,5-9V38Zm24,0c0-6.018,1.139-9,5-9s5,3.1,5,9V68c0,5.9-1.139,9-5,9s-5-2.982-5-9V38ZM663,53c0-31.136-2-53-30-53s-30,21.864-30,53,2,53,30,53S663,84.136,663,53ZM628,38c0-6.018,1.139-9,5-9s5,3.1,5,9V68c0,5.9-1.139,9-5,9s-5-2.982-5-9V38Zm72,35c-1,0-1,3-1,3v30H674V0h25V30s-0.009,3,1,3h11c1.009,0,1-3,1-3V0h25V106H712V76s0-3-1-3H700Z"/>
</svg>
