<svg viewBox="0 0 1533 270" xmlns="http://www.w3.org/2000/svg"><path d="M1506 47V0h27v47h-27zm-37-47h28v47h-28V0zm-54 67a20 20 0 1 1 20-20 20 20 0 0 1-20 20zm-11 45h4l17-42h44v130h-44v-42h-4l-17 42h-44V70h44v42zm-107-42h44v130h-44V70zm-47.48 130H1189V70h44v58l16.52-.009q21.87 0 32.19 10.447 10.3 10.447 10.3 25.951 0 17.077-11.19 26.344t-31.3 9.267zm-8.52-46l-4.99.008V174h4.99c11.95 0 14-4.017 14-9.529 0-6.508-2.05-10.471-14-10.471zm-115-4h-21v50h-44V70h44v52h21V70h44v130h-44v-50zm-126 50l-11-23h-5v23h-45v-23h-5l-11 23h-51l34-65-34-65h51l11 23h5V70h45v23h5l11-23h51l-34 65 34 65h-51zm-123-53h-89c0 7.964 8.636 19 23 19a22.808 22.808 0 0 0 14.214-5.006c-.045 0 44.907 4.991 44.94 4.991A65.021 65.021 0 1 1 878 135c0 2.709-.678 9.378-1 12zm-66-34.75A22.635 22.635 0 0 0 790 126h42a23.024 23.024 0 0 0-21-13.75zM748 200H613v-23h13l38-107h33l38 107h13v23zm-65-46h-5l-8 23h21zm-135 46a65 65 0 1 1 65-65 65 65 0 0 1-65 65zm-2-87.75A22.75 22.75 0 1 0 568.75 135 22.751 22.751 0 0 0 546 112.25zM447 200l-14-42h-4l-14 42h-43l41-130h36l41 130h-43zm-133 0a65 65 0 1 1 65-65 65 65 0 0 1-65 65zm0-87.75A22.75 22.75 0 1 0 336.75 135 22.751 22.751 0 0 0 314 112.25zM203 200l-8.19-23.042L190 177l-8 23h-40l-8-23-4.81-.042L121 200H64l47-130h31l20 49 20-49h31l47 130h-57zM64 270H37v-47h27v47zM0 223h28v47H0v-47z" fill="#008cdc" fill-rule="evenodd"/></svg>