<?xml version="1.0" encoding="UTF-8"?>
<svg viewBox="0 0 800 800" xmlns="http://www.w3.org/2000/svg">
<defs><style>#background_red { fill: #910023; fill-rule: evenodd;} #foreground { fill: url(#gold); fill-rule: evenodd;}</style><linearGradient id="gold" x1="40%" y1="25%" x2="80%" y2="15%" ><stop offset="0%" stop-color="#cc9b47" /><stop offset="100%" stop-color="#bf8726" /></linearGradient></defs>
<path id="background_red" d="M400,0C620.914,0,800,179.086,800,400S620.914,800,400,800,0,620.914,0,400,179.086,0,400,0Zm0,371a29,29,0,1,1-29,29A29,29,0,0,1,400,371Z"/>
<path id="foreground" d="M516.51,361.5h6.666l1.8,4.372,0.976-5.814H511.115s2.325,0.752,2.325,1.8v18.231c0,1.4-2.263,1.721-2.263,1.721h7.937s-2.573-.519-2.573-1.8S516.51,361.5,516.51,361.5Zm21.223-.7c5.478,0,8.046,3.638,8.046,10.17,0,6.965-2.408,10.107-7.6,10.107-5.271,0-8.046-3.694-8.046-10.433C530.137,364.027,532.421,360.8,537.733,360.8Zm0.551-1.256c-7.23,0-11.542,4.46-11.542,11.612,0,6.862,3.956,11.177,10.875,11.177,7.292,0,11.558-4.739,11.558-11.891C549.175,363.7,545.224,359.542,538.284,359.542ZM570,360.457a15.012,15.012,0,0,0-5.472-.76c-7.277,0-12.263,4.429-12.263,11.519,0,6.655,4.516,11.1,11.193,11.1,5.2,0,6.744-2.806,6.744-2.806a15.88,15.88,0,0,1-5.194.945c-5.85,0-9.348-3.886-9.348-9.922,0-11.9,10.556-9.474,11.627-9.053l1.752,3.984ZM585.42,381.8s-2.728-.609-2.728-1.829-0.031-18.48-.031-18.48h5.472l1.613,4.124,0.883-5.566H571.855l0.295,5.675,2-4.233h5.472s-0.031,17.213-.031,18.48-2.635,1.829-2.635,1.829,6.87-.031,8.464,0h0ZM618.2,361.03c-1.657,0-9.513-.157-9.513-0.157l-1.7,7.366s8.915-1.679,8.915,6.372c0,3.6-2.243,6.325-6.419,6.325-4.795,0-4.123-.419-4.123-0.419s-0.522,1.458,4.418,1.458c-0.269,0,8.449.273,8.449-7.643,0-1.6-1.928-8.549-10.216-7.318,0.117-1.083.976-4.465,0.976-4.465a31.313,31.313,0,0,0,7.8,1.008c0.817,0,1.7-2.527,1.411-2.527h0Zm5.361,18.774s8.883-4.38,8.883-13.41c0-3.307-2.015-5.457-5.364-5.457-3.667,0-5.926,1.958-6.315,3.415,0.48-1.04,9.617-4.928,9.617,3.22a13.373,13.373,0,0,1-9.148,12.327c-0.688.195-.772,1.859-0.371,1.859h11.705s1.78-2.248.837-2.248Zm20.414-9.7c1.426-.706,3.55-1.81,3.55-4.852,0-2.17-1.664-4.418-5.178-4.418a5.768,5.768,0,0,0-6,6.108,4.89,4.89,0,0,0,2.806,4.186c-1.347.276-3.085,2.915-3.085,5.426,0,2.852,1.426,5.488,5.395,5.488,3.39,0,6.542-2.011,6.542-6.372C648.009,372.784,645.177,370.438,643.978,370.1Zm-0.8-.352c-1.065-.368-5.109-0.848-5.109-4.112,0-1.9.992-3.473,2.852-3.473,3.369,0,4.777,1.871,4.728,3.814C645.613,367.531,644.08,369.076,643.181,369.747ZM642.893,381c-3.05.031-3.979-1.444-4.7-3.132-0.754-1.769-.039-5.631,1.818-6.306,4.241,1.451,6.188,2.848,6.212,5.376a4.658,4.658,0,0,1-1.008,3.178S644.755,380.979,642.893,381Zm13.9-20.138c-2.5,0-6.248,1.55-6.248,7.379,0,7.379,8.959,7.538,10.279,5.8-0.3.78-1.712,4.856-5.488,6.387-3.452,1.4-4.729.183-4.729,1.086,0,0.106,2.522,1.506,6.946-.869,3.431-1.819,5.937-6.744,5.937-11.766C663.493,363.81,660.661,360.86,656.8,360.86Zm1.659,12.681c-5.292,0-6.139-3.674-6.139-7.085,0-4.651,2.878-4.449,3.147-4.449,3.452,0,6,3.007,6,7.968C661.462,372.084,661.555,373.541,658.455,373.541Zm7.159,1.287h9.209v-1.907h-9.209v1.907ZM698.6,360.767c1.592,0-7.069-1.732-7.069,11.084,0,1.716.351,10.093,7.069,10.093,4,0,6.806-2.5,6.806-10.7C705.4,364.467,702.422,360.767,698.6,360.767ZM699.4,381.06c-0.337,0-4.469,1.116-5.612-8.372,0.609,5.4-2.4-10.805,3.519-10.805,0.806,0,6.186-.532,6.186,11.022C703.5,381.132,700.438,381.06,699.4,381.06Zm-10.2-20.03c-1.657,0-9.513-.157-9.513-0.157l-1.7,7.366s8.915-1.679,8.915,6.372c0,3.6-2.243,6.325-6.419,6.325-4.795,0-4.123-.419-4.123-0.419s-0.522,1.458,4.418,1.458c-0.269,0,8.449.273,8.449-7.643,0-1.6-1.928-8.549-10.216-7.318,0.117-1.083.976-4.465,0.976-4.465a31.313,31.313,0,0,0,7.8,1.008c0.817,0,1.7-2.527,1.411-2.527h0Zm-432.24-30.256h4.519l-7.17-20.6H249.16l-7.17,20.6h4.489l1.2-3.708h8.074Zm-8.044-7.5,2.8-8.594,2.8,8.594h-5.6Zm29.914-13.1H263.528v20.6h4.158V314.057h6.99v16.717h4.157v-20.6Zm11.777,0h-7.863v20.6H286.9v-6.916h3.706A6.849,6.849,0,1,0,290.61,310.172Zm0,9.889H286.9v-6.092h3.706A3.047,3.047,0,0,1,290.61,320.061Zm14.007,6.828v-4.621h7.441v-3.8h-7.441v-4.415h8.195v-3.885H300.459v20.6h12.5v-3.885h-8.345Zm9.668,3.944c3.917,0.353,7.864-1.177,7.864-8.594v-8.182h5.031v16.717h4.127v-20.6H318.021v12.185c0,4.091-1.416,4.973-3.736,4.709v3.767Zm25.094-3.944v-4.621h7.441v-3.8h-7.441v-4.415h8.194v-3.885H335.221v20.6h12.5v-3.885h-8.345Zm25.515-8.653a4.561,4.561,0,0,0,.784-2.5c0-3.179-2.621-5.563-6.237-5.563h-8.767v20.6h11.208a6.468,6.468,0,0,0,6.658-6.563A6.605,6.605,0,0,0,364.894,318.236Zm-5.453-4.267a1.909,1.909,0,0,1,2.079,1.972,2.14,2.14,0,0,1-.633,1.5h-6.055v-3.473h4.609Zm1.9,13.008h-6.507v-5.945h6.537A2.973,2.973,0,1,1,361.339,326.977Zm19.822,4.209a10.234,10.234,0,0,0,10.243-7.77h-4.368a5.914,5.914,0,0,1-5.875,3.8,6.755,6.755,0,1,1,0-13.509,5.937,5.937,0,0,1,5.875,3.826H391.4a10.229,10.229,0,0,0-10.243-7.77A10.716,10.716,0,1,0,381.161,331.186Zm29.13-.412-8.1-10.566,7.8-10.036H405.2l-7.23,9.094v-9.094h-4.158v20.6h4.158v-9.683l7.532,9.683h4.79Zm13.434,0h4.128v-20.6h-3.164l-8.195,12.714V310.172h-4.157v20.6H415.5l8.225-12.744v12.744Zm11.747-22.485A9.592,9.592,0,0,0,440,310a7.388,7.388,0,0,0,4.209-1.711v-3.3S442.165,307,440,307c-2.2,0-4.528-2.008-4.528-2.008v3.3Zm7.682,22.485h4.128v-20.6h-3.164l-8.194,12.714V310.172h-4.158v20.6h3.164l8.224-12.744v12.744Zm26.72-12.1a5.028,5.028,0,0,0,1.355-3.355c0-3.179-2.621-5.563-6.507-5.563-3.917,0-6.538,2.384-6.538,5.8h4.158c0-1.148.783-2,2.38-2,1.566,0,2.38.853,2.38,2,0,2.517-3.615,1.825-3.615,1.825v3.767s5.182-.752,5.182,3.12c0,1.765-1.206,3.09-3.676,3.09-2.5,0-3.706-1.56-3.706-3.326H457.16c0,4.062,3.013,7.152,7.833,7.152,4.79,0,7.833-2.884,7.833-6.916A6.427,6.427,0,0,0,469.874,318.678Zm18.375,12.1h4.519l-7.17-20.6h-5.152l-7.17,20.6h4.489l1.205-3.708h8.074Zm-8.044-7.5,2.8-8.594,2.8,8.594h-5.6Zm28.83-5.033a4.56,4.56,0,0,0,.783-2.5c0-3.179-2.621-5.563-6.237-5.563h-8.767v20.6h11.208a6.468,6.468,0,0,0,6.658-6.563A6.606,6.606,0,0,0,509.035,318.236Zm-5.454-4.267a1.909,1.909,0,0,1,2.079,1.972c0,0.543-.492,1.493-2.1,1.493-1.025,0-4.6.02-4.59,0.008v-3.473h4.609Zm1.9,13.008h-6.507v-5.945h6.538A2.973,2.973,0,1,1,505.479,326.977Zm19.792,4.209a10.715,10.715,0,1,0-10.937-10.713A10.767,10.767,0,0,0,525.271,331.186Zm0-3.973a6.755,6.755,0,1,1,6.809-6.74A6.6,6.6,0,0,1,525.271,327.213Zm28.467-.236v-16.8H540.512v9.742c0,3.708-.753,5.709-1.807,7.063h-1.989v6.035h4.158v-2.238h11v2.238H556v-6.035h-2.26Zm-10.574,0c0.813-1.324,1.506-3.414,1.506-7v-6h4.941v13.008h-6.447ZM356.227,84a53.85,53.85,0,0,1,24.307-17.872C379.437,68.378,372,84,372,84S356.534,83.969,356.227,84ZM420,141c0.2,2.465,0,10,0,10l-2,2,20,12-10.654-33.8s-15.73-5-16.346-5.2c0,2.671,2.665,5.98,3,9,0.232,2.089-14,1-14,1s-14.232,1.089-14-1c0.335-3.02,3-6.329,3-9-0.616.2-16.346,5.2-16.346,5.2L362,165l20-12-2-2s-0.2-7.535,0-10,20-2,20-2S419.8,138.535,420,141Zm-39,24-34,24,13-54,4.818-1.445L355,176l26-17v6Zm26-72c0-2.874-4.745-4.038-7-4s-7,1.12-7,4c0,1.032,4.783,1,7,1S407,93.924,407,93Zm4,11c0.694,0.694,1,10,1,10l36-7,7-9-41,1L400,59,386,99l-41-1,7,9,36,7s-0.533-8.577,1-10C389.971,103.445,410.306,103.306,411,104Zm8,61,34,24-13-54-4.818-1.445L445,176l-26-17v6Zm-7.393-64.029c1.66,0-.467-4.55-0.967-4.988S389.6,95.406,389,96c-0.943.929-2.681,5-1,5C389.213,101,410.918,100.971,411.607,100.971ZM392,156c-0.511-.511-0.616-3,1-3a33.371,33.371,0,0,0,7.03.493A52.878,52.878,0,0,0,407,153c1.6,0.017,1.529,2.522,1,3s-1.408,1-8,1S392.511,156.511,392,156Zm31.748,20.112q-1.8.759-3.651,1.409A19.516,19.516,0,0,1,420,174S423.021,175.788,423.748,176.112Zm34.46-35.038a68.8,68.8,0,0,1-6.735,12.549c-0.619-2.546-1.884-8.987-2.611-11.865,0.5-.987,1.069-2.177,1.419-3C451.737,139.171,456.993,140.793,458.208,141.074Zm-13.056-57.1a57.911,57.911,0,0,0-27.263-21.417c-0.4-.7-3.117-6.425-3.687-7.739a64.542,64.542,0,0,1,39.76,29.156C452.813,83.972,446.561,83.948,445.152,83.973Zm-93.9,57.617-1.461-2.953L352,138ZM319,90l13.788,13.712,10.65,2.021L336,94h46l18-48,18,48h46l-7.438,11.733,10.65-2.021L481,90H423L400,36,377,90H319Zm25.805,81.694a77.584,77.584,0,0,1-17.458-26.258c1.342-.4,6.492-1.986,8.406-2.537a68.85,68.85,0,0,0,11.256,18.66C346.6,163.24,345.3,169.08,344.805,171.694Zm34.627,19.8a76.49,76.49,0,0,1-16.977-6.706c1.217-.743,7.529-4.624,8.3-5.087a68.282,68.282,0,0,0,8.885,3.38C379.587,184.229,379.443,190.333,379.432,191.489Zm79.839-107.5a68.907,68.907,0,0,0-47.289-33.846c-1.018-2.158-4.136-8.539-4.605-9.689A77.361,77.361,0,0,1,468.672,84C466.679,83.995,461.01,83.986,459.271,83.985Zm11.5,60.857a77.228,77.228,0,0,1-15.873,25.07c-0.3-1.644-1.693-8.178-1.956-9.545a68.85,68.85,0,0,0,10.36-17.774C464.464,142.95,469.521,144.478,470.773,144.842Zm-34.155,39.29a77.873,77.873,0,0,1-16.1,6.842c-0.056-2.139-.2-6.455-0.225-8.165a70.746,70.746,0,0,0,8.542-3.424C429.92,180.073,435,183.155,436.618,184.132Zm-95.246,3.888a92.282,92.282,0,0,1-27.846-38.462c1.508-.367,8.23-2.57,9.782-2.931a82.316,82.316,0,0,0,20.456,30.234C343.357,179.324,341.664,186.337,341.372,188.02Zm37.582,18.319a90.848,90.848,0,0,1-30.405-13.026c1.1-.628,8.379-5.084,9.426-5.72a80.559,80.559,0,0,0,21.3,8.874C379.3,197.722,378.934,204.8,378.954,206.339Zm105.759-57.3a93.368,93.368,0,0,1-26.393,37.426c-0.339-2.068-1.788-9.562-2.008-10.57a81.7,81.7,0,0,0,19.452-29.528C476.645,146.664,483.14,148.53,484.713,149.041ZM450.5,192.586a92.012,92.012,0,0,1-29.5,13.279c0-2.372-.233-7.819-0.339-9.657a82.333,82.333,0,0,0,21.06-9.032C442.422,187.65,449.563,192.023,450.5,192.586ZM313.828,83.944a92.21,92.21,0,0,1,85.714-58.323c-0.137.307-4.166,9.208-4.835,10.524a81.976,81.976,0,0,0-69.559,47.9C323.781,84.041,315.906,83.944,313.828,83.944Zm15.562,0.094a77.534,77.534,0,0,1,63.385-43.824c-0.75,1.517-3.67,7.9-4.608,9.716a68.97,68.97,0,0,0-48.412,34.086C339.25,84.016,329.968,84.038,329.39,84.038Zm49.22,137.906a106.927,106.927,0,0,1-79.262-68.123c0.8-.368,8.018-2.425,10.519-3.168a96.707,96.707,0,0,0,30.5,41.777c-0.373,1-1.365,6.57-1.365,6.57s5.4-3.088,5.729-3.317a95.149,95.149,0,0,0,34.144,15.072C378.926,212.024,378.628,220.148,378.61,221.944ZM488.9,83.964C477.125,47.167,440.405,22,399.5,22a95.509,95.509,0,0,0-89.371,61.985C309.659,84.018,308,84,308,84s1.18,1.83,1.3,2.039a98.915,98.915,0,0,0-3.418,12.53c-2.14-.415-9.352-1.762-10.82-2.017A106.624,106.624,0,0,1,399.5,11c51.686,0,94.645,36.884,104.53,85.686-0.535.12-10.3,1.959-10.86,2.067a90.851,90.851,0,0,0-3.177-11.818C490.246,86.555,492,84,492,84S489.678,84,488.9,83.964ZM428,84s-6.3-13.359-7.711-16.328A54.126,54.126,0,0,1,440.88,83.965C439.638,83.965,428,84,428,84Zm71.682,69.536a107.219,107.219,0,0,1-78.4,68.25c0.109-1.768-.231-9.3-0.256-11.218a96.772,96.772,0,0,0,33.947-15.308C455.316,195.545,461,199,461,199s-1.355-6.5-1.494-7.182a96.21,96.21,0,0,0,29.714-41.431C490.192,150.692,498.021,152.968,499.682,153.536ZM486.913,91.374c0.774,2.577,1.462,5.441,2.009,8.216-1.835.316-8.964,1.7-8.964,1.7S486.689,91.806,486.913,91.374Zm-12.96-7.369a82.426,82.426,0,0,0-68.616-47.8c-0.689-1.449-4.805-10.376-4.93-10.615,38.181,0.547,70.593,24.82,83.987,58.42C482.848,83.975,475.949,84.022,473.953,84.005ZM213,289v25s-137.846-.032-154.411-0.032A352.731,352.731,0,0,0,48,400c0,194.4,157.6,352,352,352S752,594.4,752,400a352.725,352.725,0,0,0-10.582-86L587,314V289H437l-15-43s-0.38-18.817-.494-20.009a110.522,110.522,0,0,0,82.19-71.242C505.143,155.124,671,205,671,205l-2-6L569,169l95,24-3-5L553,159l105,25-2-5-85-21,81,17-2-4-98-21,95,17-2-5-83-15,107,15-7-7L507,133l152,15-14-16-137-8H635l-4-4-117-3,72-3-5-4-55,1,48-6-5-4-41,3,35-6-5-4-29,4,25-6-4-4s-41.512,7.744-42.212,7.94a110.061,110.061,0,0,0-215.634.017C289.62,95.619,250,88,250,88l-4,4,25,6-29-4-5,4,35,6-41-3-5,4,48,6-55-1-5,4,72,3-117,3-4,4H292l-137,8-14,16,152-15L138,155l-7,7,107-15-83,15-2,5,95-17-98,21-2,4,81-17-85,21-2,5,105-25L139,188l-3,5,95-24L131,199l-2,6s166.137-49.878,167.273-50.24a110.47,110.47,0,0,0,82.22,71.13c0,1.384-.493,20.11-0.493,20.11l-16,43H213Zm157,0s0.3-4.651,2-5h56c1.7,0.349,2,5,2,5H370Zm9.807-110.922c-1.35-.424-3.989-1.4-3.989-1.4L380,174S379.817,177.134,379.807,178.078ZM321,101s-9.041-1.307-11.657-1.781a97.8,97.8,0,0,1,2.455-9.546C312.268,90.272,321,101,321,101Zm23.305-17.039a64.239,64.239,0,0,1,41.8-29.636c-0.782,1.607-2.529,5.412-3.219,6.7a57.1,57.1,0,0,0-32,22.892l-0.02.029C350.218,83.948,345,83.9,344.305,83.961Zm3.928,71.884a65.615,65.615,0,0,1-8.291-14.195c1.3-.369,4.18-1.315,6.228-1.859a60.267,60.267,0,0,0,3.928,7.173C349.848,148.471,348.833,153.237,348.233,155.845ZM403,116a3,3,0,0,0-6,0h6Zm0,7a3,3,0,0,1-6,0h6Zm-12,46c-0.511-.511-0.616-3,1-3a51.715,51.715,0,0,0,8.03.493c5.671-.067,6.787-0.506,7.97-0.493,1.6,0.017,1.529,2.522,1,3s-2.408,1-9,1S391.511,169.511,391,169Zm-2,15c-0.511-.511-0.616-3,1-3,1.143,0,4.364.56,10.03,0.493s8.787-.506,9.97-0.493c1.6,0.017,1.529,2.522,1,3s-4.408,1-11,1S389.511,184.511,389,184Zm-1,13c-0.511-.511-0.616-3,1-3,1.143,0,5.364.56,11.03,0.493s9.787-.506,10.97-0.493c1.6,0.017,1.529,2.522,1,3s-5.408,1-12,1S388.511,197.511,388,197Zm-1,15c-0.511-.511-0.616-3,1-3,1.143,0,6.364.56,12.03,0.493S410.817,208.987,412,209c1.6,0.017,1.529,2.522,1,3s-6.408,1-13,1S387.511,212.511,387,212Zm-1,16c-0.511-.511-0.616-3,1-3,1.143,0,7.364.56,13.03,0.493S411.817,224.987,413,225c1.6,0.017,1.529,2.522,1,3s-7.408,1-14,1S386.511,228.511,386,228Zm-1,15c-0.511-.511-0.616-3,1-3,1.143,0,8.364.56,14.03,0.493S412.817,239.987,414,240c1.6,0.017,1.529,2.522,1,3s-8.408,1-15,1S385.511,243.511,385,243Zm-1,14c-0.511-.511-0.616-3,1-3,1.143,0,9.364.56,15.03,0.493S413.817,253.987,415,254c1.6,0.017,1.529,2.522,1,3s-9.408,1-16,1S384.511,257.511,384,257Zm-80.866-27.491a34,34,0,1,0,.469,40.347c0.5-.567-16.834-12.788-17.372-12.164a13.5,13.5,0,1,1,.063-16.3C286.719,242,303.848,230.562,303.134,229.509Zm61,0a34,34,0,1,0,.469,40.347c0.5-.567-16.834-12.788-17.372-12.164a13.5,13.5,0,1,1,.062-16.3C347.719,242,364.848,230.562,364.134,229.509Zm126,0a34,34,0,1,0,.469,40.347c0.5-.567-16.834-12.788-17.372-12.164a13.5,13.5,0,1,1,.062-16.3C473.719,242,490.848,230.562,490.134,229.509ZM526,217c11.672,1.122,25.591,12.036,25.591,26.359,0,15.142-13.748,27.227-25.591,27.641-2.756.1-7.512,0-9.771,0.17,0.208,4.054.328,12.445-.229,12.83s-19.482.828-20,0-0.725-66.275,0-67S520.618,216.482,526,217Zm-11,39c1.831,1.083,10.284.516,11.67,0.047,6.088-2.057,8.415-5.293,8.33-11.047-0.084-5.7-4.621-9.126-9-10-2.236-.446-9.7-1.3-11,0S513.679,255.218,515,256Zm211.979,84.073A336.493,336.493,0,0,1,732,398c0.006,184.463-149.537,334-334,334S64,582.463,64,398a334.607,334.607,0,0,1,5.029-57.927h657.95ZM69,335l1-5H227V304H573v26H725l1,5H69Z"/>
</svg>
