<svg viewBox="0 0 800 800" xmlns="http://www.w3.org/2000/svg"><defs><linearGradient id="a" x1="40%" y1="25%" x2="80%" y2="15%"><stop offset="0%" stop-color="#cc9b47"/><stop offset="100%" stop-color="#bf8726"/></linearGradient></defs><path d="M400 0c220.914 0 400 179.086 400 400S620.914 800 400 800 0 620.914 0 400 179.086 0 400 0zm0 371a29 29 0 1 1-29 29 29 29 0 0 1 29-29z" fill="#910023" fill-rule="evenodd"/><path d="M516.51 361.5h6.666l1.8 4.372.976-5.814h-14.837s2.325.752 2.325 1.8v18.231c0 1.4-2.263 1.721-2.263 1.721h7.937s-2.573-.519-2.573-1.8-.031-18.51-.031-18.51zm21.223-.7c5.478 0 8.046 3.638 8.046 10.17 0 6.965-2.408 10.107-7.6 10.107-5.271 0-8.046-3.694-8.046-10.433.004-6.617 2.288-9.844 7.6-9.844zm.551-1.256c-7.23 0-11.542 4.46-11.542 11.612 0 6.862 3.956 11.177 10.875 11.177 7.292 0 11.558-4.739 11.558-11.891 0-6.742-3.951-10.9-10.891-10.9zm31.716.913a15.012 15.012 0 0 0-5.472-.76c-7.277 0-12.263 4.429-12.263 11.519 0 6.655 4.516 11.1 11.193 11.1 5.2 0 6.744-2.806 6.744-2.806a15.88 15.88 0 0 1-5.194.945c-5.85 0-9.348-3.886-9.348-9.922 0-11.9 10.556-9.474 11.627-9.053l1.752 3.984zm15.42 21.343s-2.728-.609-2.728-1.829-.031-18.48-.031-18.48h5.472l1.613 4.124.883-5.566h-18.774l.295 5.675 2-4.233h5.472s-.031 17.213-.031 18.48-2.635 1.829-2.635 1.829 6.87-.031 8.464 0zm32.78-20.77c-1.657 0-9.513-.157-9.513-.157l-1.7 7.366s8.915-1.679 8.915 6.372c0 3.6-2.243 6.325-6.419 6.325-4.795 0-4.123-.419-4.123-.419s-.522 1.458 4.418 1.458c-.269 0 8.449.273 8.449-7.643 0-1.6-1.928-8.549-10.216-7.318.117-1.083.976-4.465.976-4.465a31.313 31.313 0 0 0 7.8 1.008c.817 0 1.7-2.527 1.411-2.527zm5.361 18.774s8.883-4.38 8.883-13.41c0-3.307-2.015-5.457-5.364-5.457-3.667 0-5.926 1.958-6.315 3.415.48-1.04 9.617-4.928 9.617 3.22a13.373 13.373 0 0 1-9.148 12.327c-.688.195-.772 1.859-.371 1.859h11.705s1.78-2.248.837-2.248zm20.414-9.7c1.426-.706 3.55-1.81 3.55-4.852 0-2.17-1.664-4.418-5.178-4.418a5.768 5.768 0 0 0-6 6.108 4.89 4.89 0 0 0 2.806 4.186c-1.347.276-3.085 2.915-3.085 5.426 0 2.852 1.426 5.488 5.395 5.488 3.39 0 6.542-2.011 6.542-6.372.004-2.886-2.828-5.232-4.027-5.57zm-.8-.352c-1.065-.368-5.109-.848-5.109-4.112 0-1.9.992-3.473 2.852-3.473 3.369 0 4.777 1.871 4.728 3.814-.033 1.55-1.566 3.095-2.465 3.766zM642.893 381c-3.05.031-3.979-1.444-4.7-3.132-.754-1.769-.039-5.631 1.818-6.306 4.241 1.451 6.188 2.848 6.212 5.376a4.658 4.658 0 0 1-1.008 3.178s-.46.863-2.322.884zm13.9-20.138c-2.5 0-6.248 1.55-6.248 7.379 0 7.379 8.959 7.538 10.279 5.8-.3.78-1.712 4.856-5.488 6.387-3.452 1.4-4.729.183-4.729 1.086 0 .106 2.522 1.506 6.946-.869 3.431-1.819 5.937-6.744 5.937-11.766.003-5.069-2.829-8.019-6.69-8.019zm1.659 12.681c-5.292 0-6.139-3.674-6.139-7.085 0-4.651 2.878-4.449 3.147-4.449 3.452 0 6 3.007 6 7.968.002 2.107.095 3.564-3.005 3.564zm7.159 1.287h9.209v-1.907h-9.209v1.907zm32.989-14.063c1.592 0-7.069-1.732-7.069 11.084 0 1.716.351 10.093 7.069 10.093 4 0 6.806-2.5 6.806-10.7-.006-6.777-2.984-10.477-6.806-10.477zm.8 20.293c-.337 0-4.469 1.116-5.612-8.372.609 5.4-2.4-10.805 3.519-10.805.806 0 6.186-.532 6.186 11.022.007 8.227-3.055 8.155-4.093 8.155zm-10.2-20.03c-1.657 0-9.513-.157-9.513-.157l-1.7 7.366s8.915-1.679 8.915 6.372c0 3.6-2.243 6.325-6.419 6.325-4.795 0-4.123-.419-4.123-.419s-.522 1.458 4.418 1.458c-.269 0 8.449.273 8.449-7.643 0-1.6-1.928-8.549-10.216-7.318.117-1.083.976-4.465.976-4.465a31.313 31.313 0 0 0 7.8 1.008c.817 0 1.7-2.527 1.411-2.527zm-432.24-30.256h4.519l-7.17-20.6h-5.149l-7.17 20.6h4.489l1.2-3.708h8.074zm-8.044-7.5l2.8-8.594 2.8 8.594h-5.6zm29.914-13.1h-15.302v20.6h4.158v-16.717h6.99v16.717h4.157v-20.6zm11.777 0h-7.863v20.6h4.156v-6.916h3.706a6.849 6.849 0 1 0 .004-13.686zm0 9.889H286.9v-6.092h3.706a3.047 3.047 0 0 1 .004 6.09zm14.007 6.828v-4.621h7.441v-3.8h-7.441v-4.415h8.195v-3.885h-12.35v20.6h12.5v-3.885h-8.345zm9.668 3.944c3.917.353 7.864-1.177 7.864-8.594v-8.182h5.031v16.717h4.127v-20.6h-13.283v12.185c0 4.091-1.416 4.973-3.736 4.709v3.767zm25.094-3.944v-4.621h7.441v-3.8h-7.441v-4.415h8.194v-3.885h-12.349v20.6h12.5v-3.885h-8.345zm25.515-8.653a4.561 4.561 0 0 0 .784-2.5c0-3.179-2.621-5.563-6.237-5.563h-8.767v20.6h11.208a6.468 6.468 0 0 0 6.658-6.563 6.605 6.605 0 0 0-3.643-5.976zm-5.453-4.267a1.909 1.909 0 0 1 2.079 1.972 2.14 2.14 0 0 1-.633 1.5h-6.055v-3.473h4.609zm1.9 13.008h-6.507v-5.945h6.537a2.973 2.973 0 1 1-.029 5.943zm19.822 4.209a10.234 10.234 0 0 0 10.243-7.77h-4.368a5.914 5.914 0 0 1-5.875 3.8 6.755 6.755 0 1 1 0-13.509 5.937 5.937 0 0 1 5.875 3.826h4.365a10.229 10.229 0 0 0-10.243-7.77 10.716 10.716 0 1 0 .004 21.421zm29.13-.412l-8.1-10.566 7.8-10.036h-4.79l-7.23 9.094v-9.094h-4.158v20.6h4.158v-9.683l7.532 9.683h4.79zm13.434 0h4.128v-20.6h-3.164l-8.195 12.714v-12.718h-4.157v20.6h3.164l8.225-12.744v12.744zm11.747-22.485A9.592 9.592 0 0 0 440 310a7.388 7.388 0 0 0 4.209-1.711v-3.3S442.165 307 440 307c-2.2 0-4.528-2.008-4.528-2.008v3.3zm7.682 22.485h4.128v-20.6h-3.164l-8.194 12.714v-12.718h-4.158v20.6h3.164l8.224-12.744v12.744zm26.72-12.1a5.028 5.028 0 0 0 1.355-3.355c0-3.179-2.621-5.563-6.507-5.563-3.917 0-6.538 2.384-6.538 5.8h4.158c0-1.148.783-2 2.38-2 1.566 0 2.38.853 2.38 2 0 2.517-3.615 1.825-3.615 1.825v3.767s5.182-.752 5.182 3.12c0 1.765-1.206 3.09-3.676 3.09-2.5 0-3.706-1.56-3.706-3.326h-4.126c0 4.062 3.013 7.152 7.833 7.152 4.79 0 7.833-2.884 7.833-6.916a6.427 6.427 0 0 0-2.952-5.592zm18.375 12.1h4.519l-7.17-20.6h-5.152l-7.17 20.6h4.489l1.205-3.708h8.074zm-8.044-7.5l2.8-8.594 2.8 8.594h-5.6zm28.83-5.033a4.56 4.56 0 0 0 .783-2.5c0-3.179-2.621-5.563-6.237-5.563h-8.767v20.6h11.208a6.468 6.468 0 0 0 6.658-6.563 6.606 6.606 0 0 0-3.644-5.981zm-5.454-4.267a1.909 1.909 0 0 1 2.079 1.972c0 .543-.492 1.493-2.1 1.493-1.025 0-4.6.02-4.59.008v-3.473h4.609zm1.9 13.008h-6.507v-5.945h6.538a2.973 2.973 0 1 1-.032 5.938zm19.792 4.209a10.715 10.715 0 1 0-10.937-10.713 10.767 10.767 0 0 0 10.936 10.706zm0-3.973a6.755 6.755 0 1 1 6.809-6.74 6.6 6.6 0 0 1-6.81 6.733zm28.467-.236v-16.8h-13.227v9.742c0 3.708-.753 5.709-1.807 7.063h-1.989v6.035h4.158v-2.238h11v2.238H556v-6.035h-2.26zm-10.574 0c.813-1.324 1.506-3.414 1.506-7v-6h4.941v13.008h-6.447zM356.227 84a53.85 53.85 0 0 1 24.307-17.872C379.437 68.378 372 84 372 84s-15.466-.031-15.773 0zM420 141c.2 2.465 0 10 0 10l-2 2 20 12-10.654-33.8s-15.73-5-16.346-5.2c0 2.671 2.665 5.98 3 9 .232 2.089-14 1-14 1s-14.232 1.089-14-1c.335-3.02 3-6.329 3-9-.616.2-16.346 5.2-16.346 5.2L362 165l20-12-2-2s-.2-7.535 0-10 20-2 20-2 19.8-.465 20 2zm-39 24l-34 24 13-54 4.818-1.445L355 176l26-17v6zm26-72c0-2.874-4.745-4.038-7-4s-7 1.12-7 4c0 1.032 4.783 1 7 1s7-.076 7-1zm4 11c.694.694 1 10 1 10l36-7 7-9-41 1-14-40-14 40-41-1 7 9 36 7s-.533-8.577 1-10c.971-.555 21.306-.694 22 0zm8 61l34 24-13-54-4.818-1.445L445 176l-26-17v6zm-7.393-64.029c1.66 0-.467-4.55-.967-4.988S389.6 95.406 389 96c-.943.929-2.681 5-1 5 1.213 0 22.918-.029 23.607-.029zM392 156c-.511-.511-.616-3 1-3a33.371 33.371 0 0 0 7.03.493A52.878 52.878 0 0 0 407 153c1.6.017 1.529 2.522 1 3s-1.408 1-8 1-7.489-.489-8-1zm31.748 20.112q-1.8.759-3.651 1.409A19.516 19.516 0 0 1 420 174s3.021 1.788 3.748 2.112zm34.46-35.038a68.8 68.8 0 0 1-6.735 12.549c-.619-2.546-1.884-8.987-2.611-11.865.5-.987 1.069-2.177 1.419-3 1.456.413 6.712 2.035 7.927 2.316zm-13.056-57.1a57.911 57.911 0 0 0-27.263-21.417c-.4-.7-3.117-6.425-3.687-7.739a64.542 64.542 0 0 1 39.76 29.156c-1.149-.002-7.401-.026-8.81-.001zm-93.9 57.617l-1.461-2.953L352 138zM319 90l13.788 13.712 10.65 2.021L336 94h46l18-48 18 48h46l-7.438 11.733 10.65-2.021L481 90h-58l-23-54-23 54h-58zm25.805 81.694a77.584 77.584 0 0 1-17.458-26.258c1.342-.4 6.492-1.986 8.406-2.537a68.85 68.85 0 0 0 11.256 18.66c-.409 1.681-1.709 7.521-2.204 10.135zm34.627 19.8a76.49 76.49 0 0 1-16.977-6.706c1.217-.743 7.529-4.624 8.3-5.087a68.282 68.282 0 0 0 8.885 3.38c-.053 1.148-.197 7.252-.208 8.408zm79.839-107.5a68.907 68.907 0 0 0-47.289-33.846c-1.018-2.158-4.136-8.539-4.605-9.689A77.361 77.361 0 0 1 468.672 84a8191.9 8191.9 0 0 0-9.401-.015zm11.5 60.857a77.228 77.228 0 0 1-15.873 25.07c-.3-1.644-1.693-8.178-1.956-9.545a68.85 68.85 0 0 0 10.36-17.774c1.162.348 6.219 1.876 7.471 2.24zm-34.155 39.29a77.873 77.873 0 0 1-16.1 6.842c-.056-2.139-.2-6.455-.225-8.165a70.746 70.746 0 0 0 8.542-3.424c1.087.679 6.167 3.761 7.785 4.738zm-95.246 3.888a92.282 92.282 0 0 1-27.846-38.462c1.508-.367 8.23-2.57 9.782-2.931a82.316 82.316 0 0 0 20.456 30.234c-.405 2.454-2.098 9.467-2.39 11.15zm37.582 18.319a90.848 90.848 0 0 1-30.405-13.026c1.1-.628 8.379-5.084 9.426-5.72a80.559 80.559 0 0 0 21.3 8.874c.027 1.246-.339 8.324-.319 9.863zm105.759-57.3a93.368 93.368 0 0 1-26.393 37.426c-.339-2.068-1.788-9.562-2.008-10.57a81.7 81.7 0 0 0 19.452-29.528c.883.288 7.378 2.154 8.951 2.665zM450.5 192.586a92.012 92.012 0 0 1-29.5 13.279c0-2.372-.233-7.819-.339-9.657a82.333 82.333 0 0 0 21.06-9.032c.701.474 7.842 4.847 8.779 5.41zM313.828 83.944a92.21 92.21 0 0 1 85.714-58.323c-.137.307-4.166 9.208-4.835 10.524a81.976 81.976 0 0 0-69.559 47.9c-1.367-.004-9.242-.101-11.32-.101zm15.562.094a77.534 77.534 0 0 1 63.385-43.824c-.75 1.517-3.67 7.9-4.608 9.716a68.97 68.97 0 0 0-48.412 34.086c-.505 0-9.787.022-10.365.022zm49.22 137.906a106.927 106.927 0 0 1-79.262-68.123c.8-.368 8.018-2.425 10.519-3.168a96.707 96.707 0 0 0 30.5 41.777c-.373 1-1.365 6.57-1.365 6.57s5.4-3.088 5.729-3.317a95.149 95.149 0 0 0 34.144 15.072c.051 1.269-.247 9.393-.265 11.189zM488.9 83.964C477.125 47.167 440.405 22 399.5 22a95.509 95.509 0 0 0-89.371 61.985c-.47.033-2.129.015-2.129.015s1.18 1.83 1.3 2.039a98.915 98.915 0 0 0-3.418 12.53 1180.12 1180.12 0 0 0-10.82-2.017A106.624 106.624 0 0 1 399.5 11c51.686 0 94.645 36.884 104.53 85.686-.535.12-10.3 1.959-10.86 2.067a90.851 90.851 0 0 0-3.177-11.818C490.246 86.555 492 84 492 84s-2.322 0-3.1-.036zM428 84s-6.3-13.359-7.711-16.328a54.126 54.126 0 0 1 20.591 16.293c-1.242 0-12.88.035-12.88.035zm71.682 69.536a107.219 107.219 0 0 1-78.4 68.25c.109-1.768-.231-9.3-.256-11.218a96.772 96.772 0 0 0 33.947-15.308c.343.285 6.027 3.74 6.027 3.74s-1.355-6.5-1.494-7.182a96.21 96.21 0 0 0 29.714-41.431c.972.305 8.801 2.581 10.462 3.149zm-12.769-62.162c.774 2.577 1.462 5.441 2.009 8.216-1.835.316-8.964 1.7-8.964 1.7s6.731-9.484 6.955-9.916zm-12.96-7.369a82.426 82.426 0 0 0-68.616-47.8c-.689-1.449-4.805-10.376-4.93-10.615 38.181.547 70.593 24.82 83.987 58.42-1.546-.035-8.445.012-10.441-.005zM213 289v25s-137.846-.032-154.411-.032A352.731 352.731 0 0 0 48 400c0 194.4 157.6 352 352 352s352-157.6 352-352a352.725 352.725 0 0 0-10.582-86H587v-25H437l-15-43s-.38-18.817-.494-20.009a110.522 110.522 0 0 0 82.19-71.242C505.143 155.124 671 205 671 205l-2-6-100-30 95 24-3-5-108-29 105 25-2-5-85-21 81 17-2-4-98-21 95 17-2-5-83-15 107 15-7-7-155-22 152 15-14-16-137-8h127l-4-4-117-3 72-3-5-4-55 1 48-6-5-4-41 3 35-6-5-4-29 4 25-6-4-4s-41.512 7.744-42.212 7.94a110.061 110.061 0 0 0-215.634.017C289.62 95.619 250 88 250 88l-4 4 25 6-29-4-5 4 35 6-41-3-5 4 48 6-55-1-5 4 72 3-117 3-4 4h127l-137 8-14 16 152-15-155 22-7 7 107-15-83 15-2 5 95-17-98 21-2 4 81-17-85 21-2 5 105-25-108 29-3 5 95-24-100 30-2 6s166.137-49.878 167.273-50.24a110.47 110.47 0 0 0 82.22 71.13c0 1.384-.493 20.11-.493 20.11l-16 43H213zm157 0s.3-4.651 2-5h56c1.7.349 2 5 2 5h-60zm9.807-110.922c-1.35-.424-3.989-1.4-3.989-1.4L380 174s-.183 3.134-.193 4.078zM321 101s-9.041-1.307-11.657-1.781a97.8 97.8 0 0 1 2.455-9.546C312.268 90.272 321 101 321 101zm23.305-17.039a64.239 64.239 0 0 1 41.8-29.636c-.782 1.607-2.529 5.412-3.219 6.7a57.1 57.1 0 0 0-32 22.892l-.02.029c-.648.002-5.866-.046-6.561.015zm3.928 71.884a65.615 65.615 0 0 1-8.291-14.195c1.3-.369 4.18-1.315 6.228-1.859a60.267 60.267 0 0 0 3.928 7.173c-.25 1.507-1.265 6.273-1.865 8.881zM403 116a3 3 0 0 0-6 0h6zm0 7a3 3 0 0 1-6 0h6zm-12 46c-.511-.511-.616-3 1-3a51.715 51.715 0 0 0 8.03.493c5.671-.067 6.787-.506 7.97-.493 1.6.017 1.529 2.522 1 3s-2.408 1-9 1-8.489-.489-9-1zm-2 15c-.511-.511-.616-3 1-3 1.143 0 4.364.56 10.03.493s8.787-.506 9.97-.493c1.6.017 1.529 2.522 1 3s-4.408 1-11 1-10.489-.489-11-1zm-1 13c-.511-.511-.616-3 1-3 1.143 0 5.364.56 11.03.493s9.787-.506 10.97-.493c1.6.017 1.529 2.522 1 3s-5.408 1-12 1-11.489-.489-12-1zm-1 15c-.511-.511-.616-3 1-3 1.143 0 6.364.56 12.03.493s10.787-.506 11.97-.493c1.6.017 1.529 2.522 1 3s-6.408 1-13 1-12.489-.489-13-1zm-1 16c-.511-.511-.616-3 1-3 1.143 0 7.364.56 13.03.493s11.787-.506 12.97-.493c1.6.017 1.529 2.522 1 3s-7.408 1-14 1-13.489-.489-14-1zm-1 15c-.511-.511-.616-3 1-3 1.143 0 8.364.56 14.03.493s12.787-.506 13.97-.493c1.6.017 1.529 2.522 1 3s-8.408 1-15 1-14.489-.489-15-1zm-1 14c-.511-.511-.616-3 1-3 1.143 0 9.364.56 15.03.493s13.787-.506 14.97-.493c1.6.017 1.529 2.522 1 3s-9.408 1-16 1-15.489-.489-16-1zm-80.866-27.491a34 34 0 1 0 .469 40.347c.5-.567-16.834-12.788-17.372-12.164a13.5 13.5 0 1 1 .063-16.3c.425.608 17.554-10.83 16.84-11.883zm61 0a34 34 0 1 0 .469 40.347c.5-.567-16.834-12.788-17.372-12.164a13.5 13.5 0 1 1 .062-16.3c.426.608 17.555-10.83 16.841-11.883zm126 0a34 34 0 1 0 .469 40.347c.5-.567-16.834-12.788-17.372-12.164a13.5 13.5 0 1 1 .062-16.3c.426.608 17.555-10.83 16.841-11.883zM526 217c11.672 1.122 25.591 12.036 25.591 26.359 0 15.142-13.748 27.227-25.591 27.641-2.756.1-7.512 0-9.771.17.208 4.054.328 12.445-.229 12.83s-19.482.828-20 0-.725-66.275 0-67 24.618-.518 30 0zm-11 39c1.831 1.083 10.284.516 11.67.047 6.088-2.057 8.415-5.293 8.33-11.047-.084-5.7-4.621-9.126-9-10-2.236-.446-9.7-1.3-11 0s-1.321 20.218 0 21zm211.979 84.073A336.493 336.493 0 0 1 732 398c.006 184.463-149.537 334-334 334S64 582.463 64 398a334.607 334.607 0 0 1 5.029-57.927h657.95zM69 335l1-5h157v-26h346v26h152l1 5H69z" fill="url(#a)" fill-rule="evenodd"/></svg>