<svg viewBox="0 0 800 800" xmlns="http://www.w3.org/2000/svg"><defs><linearGradient id="a" x1="0%" y1="75%" x2="100%" y2="25%"><stop offset="0%" stop-color="#bf8726"/><stop offset="33%" stop-color="#dbac5a"/><stop offset="100%" stop-color="#ce9a40"/></linearGradient><linearGradient id="b" x1="-100%" y1="75%" x2="200%" y2="25%"><stop offset="0%" stop-color="#bf8726"/><stop offset="33%" stop-color="#dbac5a"/><stop offset="100%" stop-color="#ce9a40"/></linearGradient></defs><path d="M400 0c220.914 0 400 179.086 400 400S620.914 800 400 800 0 620.914 0 400 179.086 0 400 0zm0 371a29 29 0 1 1-29 29 29 29 0 0 1 29-29z" fill="#007d75" fill-rule="evenodd"/><path d="M147.5 307.5c-4.366-3.505 12.966-24.48 25-7 14.308 20.783-30 54-30 54s10.759 43.356-11 42c-17.482-1.09-3.67-32.35 6-42-20.36-20.683-45.598-54.833-54-76-3.232.485-26.774 54.277-24 73 1.227 8.281 8.095 28.358 22 23 16.547-6.376 1.323-24.223 1-26-.323-1.777 9.533-1.852 13 5 4.376 8.65 1.31 26.471-18 27-26.221.718-28.924-41.884-21-66 7.23-22.005 28.804-75.54 30-76 1.196-.46 5.291 22.425 20 19 5.684-1.323 7.167-14.749 1-24-10.025-15.038-4.226-24.304-1-31 11.036-22.908 36-2 36-2s-5-34 1-42 15-4 15-4-5.762-4.453-6-6c-.238-1.547 6.929-8.119 8-8 1.071.119 24.637 24.908 28 26 9.165 2.976 1.629-16.942 3-18 2.053-1.584 16.238 12.642 12-3-3.682-13.59-16.119-25.81-16-27 .119-1.19 8.405-7.238 9-7 .595.238 16.13 24.155 18 27 1.87 2.845 8 3 8-2s.476-15.929 0-17c-.476-1.071-10.894-16.943-11-18-.106-1.057 8.366-7.317 9-7 .634.317 18.955 29.586 20 31 1.797 2.431 2.923 2.196 3 0 .212-6.017 3-30 3-30s-5.845-10.762-6-12c-.155-1.238 8.881-5.698 10-5 .74.462 8 14 8 14s3.78-21.483 12-24c9.199-2.817 17.37 19.812 20 26 2.63 6.188 9.468 7.478 11-2 .988-6.11 1.596-5.404 5-2 3.55 3.55 6.5 9 9-4s5.072-29.834 6-32c.928-2.166 9.226-2.702 10-1 .774 1.702 6.401 27.236 7 30 2.309 10.664 11.07-5.112 11-6-.896-11.356 7.02-29.974 16-31 9.637-1.101 14 6 14 6s-1.083-4.917 0-6c1.083-1.083 11.845-1.011 12 1 .155 2.011 1.064 27.085 1 30-.357 16.269 11.661-3.698 12-5 3.95-15.174 15.5-28.5 29-25s9.702 21.072 8 22c-1.702.928-8.381-2.917-9-4-.619-1.083 4.975-9.355-2-12-10.321-3.914-20.036 24.482-5 31 7.095 3.076 27-17 27-17s3.298-15.226 5-16c1.702-.774 9.381 1.072 10 2 .619.928-3 18-3 18s14.749-17.691 23-15c8.935 2.914 4 21 4 21s14.191-15.572 26-11c7.112 2.753 1.787 21.71-2 29-10.366 19.957 18.657 3.521 21 2 1.592-1.034 8.917-17.381 10-18 1.083-.619 9.691 2.453 10 4 .309 1.547-8 16-8 16s17.236-10.68 29-5c8.373 4.042-1 18-1 18s15.439-11.211 25-4c14.694 11.083-15.182 34.53-12 39 1.038 1.459 30-7 30-7s13.512-7.426 24 2c23.205 20.855-1 38-1 38l27 3c.091.076 23.959 1.709 26 23 1.031 10.761-15.518 21.388-39 2-10.216 16.442 38 22 38 22s19.094-3.766 26 14c5.843 15.032-12.917 21.083-14 20-1.083-1.083-2.774-11.608-2-13 .774-1.392 14.097 1.325 9-9-2.604-5.274-34.654 5.812-30 18 3.336 8.735 42 18 42 18s5.608-3.464 7-3c1.392.464 3.619 9.762 3 11-.619 1.238-12 5-12 5s18.381 3.37 21 13c1.91 7.025-9 14-9 14s22.588 9.955 19 17c-13.59 26.684-60.303 16.202-81 32 9.966 7.235 6.265 28-5 28-21.549 0-7.252-32.806-3-35-10.047-13.297-30.624-36.755-33-56-1.858-15.049 6.826-26.969 20.184-23.503 20.521 5.326 9.205 27.213 7.816 25.503-1.389-1.71-3.293-5.899-10-6-6.184-.093-7.361 10.655-3 20 11.263 24.136 18.421 27.068 22 36 8.053-8.213 34.72-9.728 59-15 20.538-8.589 15.989-17.785-7-18-1.414-.013-13.326 4.877-15 4-1.674-.877-5.159-8.405-5-10 .159-1.595 15.344-6.487 24-9 17.749-5.153 6.579-13.028-12-12-1.215.067-14.485 5.877-16 5-1.515-.877-5.08-8.565-5-10 .08-1.435 26-10 26-10s-43.841-7.312-44-29c-.08-10.924 13-18 13-18s-42.684-4.509-43-27c-.184-13.052 10.27-17.757 11-18-1.011-.551-10.438-2.858-20-4-12.66 1.652-24.679-2.148-27-17-1.702 1.702-13.27 14.27-14 15-.73.73 3.081 1.946 3 3-.081 1.054-2.027 4-3 4-.973 0-15.486-10.784-15-12 .486-1.216 2.027-4.081 3-4 .973.081 3.351 3.486 4 3 .649-.486 25-29 25-29s-22.93 8.575-31 3c-8.989-6.21 5.358-21.102 9-26 12.581-16.919-2.139-14.491-17-6-1.033.59-10.297 17.162-12 17-1.703-.162-8.081-2.73-8-5 .081-2.27 9.937-17.539 14-24 6.432-10.23-4.511-12.512-22 1-.882.681-6.46 14.676-8 15-1.54.324-10-2.541-10-4s7-16 7-16-15.176 12.351-27 8c-8.195-3.016-1.226-22.118 2-28 5.513-10.054.999-18.953-18 0-1.273 1.27-5.865 18.514-7 19-1.135.486-8.595-2.027-9-3-.405-.973 5.164-19.62 8-27 4.689-12.203-9.175-8.945-19 5-.489.694-2.784 18.676-4 19-1.216.324-10.514.784-11-1-.486-1.784 4-24 4-24s-16.5 21.986-32 21c-12.485-.795-15-14-15-14s-8 13-14 13-10-8-10-8-5.495 9.6-14 10c-8.905.419-15-10-15-10s-8.483 14-18 14c-6.583 0-10-31-10-31s-1.689 36.73-11 38c-8.652 1.18-11-5-11-5s-1.85 9.301-11 11c-4.154.771-13.933-14.644-15-22-1.932-13.324-13.486-13.938-14 10-.055 2.545 8.757 17.378 9 19 .243 1.622-9.027 7.73-10 7-.973-.73-11-21-11-21s.716 27.284-9 33c-6.125 3.603-14-10-14-10s2.73 17.041-6 23c-5.556 3.793-13-3-13-3s3.387 10.96-2 16c-3.581 3.35-10 0-10 0s-.707 10.795-5 14c-3.563 2.66-10 0-10 0s1.343 7.833-4 13c-11.892 11.5-23.622 6.243-31-3-.811 1.703 1 21 1 21s5.04 14.757 0 22c-4.47 6.424-11 8-11 8s15.946 11.432 17 12c1.054.568 1.703-2.757 3-3 1.297-.243 3.757.703 4 2 .243 1.297-10.622 17.757-12 18-1.378.243-2.838-1.622-3-3-.162-1.378 1.973-3.351 1-4-.918-.612-31-21-31-21s3.722 10.322-1 18c-5 8.131-12.744 11.046-26-2-.21 2.735-1.606 12.253-4 16 12.415 13.046 55.477 63.597 57 80 28.061-32.432 20.805-45.793 12-47-3.408-.467-5.691 4.248-6 4zm-9 55c1.987 0 6.717 28.262-5 28-11.717-.262 3.013-28 5-28zm531 6c1.628.362 9.664 21.132-1 20-11.503-1.221-.628-20.362 1-20zm-10-165c5.415-9.592 22.537-15.198 27-4 4.693 11.775-18.182 13.437-27 4zm-42-29c-5.918-5.493-4.954-12.196 2-19 8.574-8.39 16.477-13.598 22-8 4.584 4.647 2.15 13.26-5 21-7.315 7.919-14.659 10.029-19 6zm-247-88c3.602-.192 9.862-4.981 10-12 .106-5.379.097-14.865 0-15-2.893-4.036-5.332-6.721-10-7-4.668-.279-7.525 7.953-8 15-.475 7.047 1.682 19.338 8 19zm-208 72c1.746 1.473 9.976 10.82 13 14 3.338 3.51 1.622 10.115-1 13-4.401 4.844-11.272-1.051-19-9s-8.528-14.407-5-17c2.986-2.195 9.434-3.166 12-1zm-53 49c3.286-4.376 9.586-6.152 20 1 8.753 6.011 15.064 14.695 11 21-4.164 6.46-13.875 1.506-24-6-8.784-6.512-10.357-11.53-7-16z" fill="url(#a)" fill-rule="evenodd"/><path d="M372.5 267.5c8.139-1.999 14.227-2.421 14-3-.615-1.565-8.93-6.551-15-10-.849 2.703-.457 13.358 1 13zm9.529-87.142c-6.285-1.662-11.917-3.287-16.529-4.858-54.833-18.679-94-34.572-94-33 0 6.247 79.013 35.206 115 50-1.909 2.048-10.189 12.507-16.436 20.245-9.856.038-18.762-.89-21.564-1.245-14.406-1.825-121-31-121-28 0 1.875 59.535 20.939 81 28 5.742 1.889 25 11.875 25 13 0 3-120 5.741-120 8 0 2.259 111.256 6.176 121 9 3.855 1.117 14.248 4.309 23 9-1.221 1.452-.666 16.724 1 19-33.881 4.116-87.27 9.17-94 10-10.049 1.239-40.954 3.171-41 4-.141 2.542 122.618-2 139-2 .707 1.884 7.352 26 43 26 .179 0 2.598 20.402-3 26-9.498 9.498-16-.517-16-5 0-6.431-13-6.233-13 1 0 7.835 4.269 18 18 18 31.051 0 20.994-40 23-40 15.462 0 27.26-12.598 31-17 .643-.756 18.995 3.524 41 2 23.358-1.618 37.103-13.682 40-14 15.036-1.649 14.506-6.433 21-7 9.365-.818 13.106-5.045 13-6-.106-.955-13.295-6.052-14-9-2.726-11.396-10.301-19.655-22.429-24.681C512.062 226.842 502 237.5 494.5 236.5s-19.177-3.47-19-8c.24-6.142 10.421-5.094 11-17 .364-7.475-46.775-17.184-85.207-26.347-2.1-.5 39.976-76.394 2.207-80.653-40.307-4.545-20.55 76.102-21.471 75.858zm10.023 2.555c-.908-.161-2.552-.636-3.531-.972-.978-.337-13.587-78.547 13.979-71.441 30.164 7.775-7.966 72.854-10.448 72.413zM395.5 206.5c2.752-1.509 7.798-5.296 8-6 .207-.719-5.234-1.983-11-5-.039 3.349 1.762 11.678 3 11zm142 66c-3.185-2.493-10.839-1.807-12-1-5.924 4.117-12.12 1.233-19-4-1.568-1.193-19.656 4.223-34.753.048-4.337-1.199-12.041-2.839-12.247-2.048-1.185 4.557-4.489 10.493-10 18 13.341 5.78 27.203 4.198 39 3 10.16-1.032 21.178-3.743 32-11 8.019-5.377 14.702.337 17-3zm-19-15c-2.724.272-2.631 5.613 2 6 4.871.407 4.941-3.053 4-4 .188 1.813-1.813 2.719-4 2-2.187-.719-2.261-2.132-2-4zm-120-14c-3.677-1.563-6.348-29.104 24-20 24.976 7.492 21.462 37.678 15 48-2.65 4.234 5.468 6.262 5 7 10.83-17.286 21.572-48.855-14-64-35.028-14.914-49.155 30.688-30 29zm-23 38c5.733 12.549 19.499 18 30 18 1.833 0-.667-15.167-1-16-.333-.833-29.163-2.357-29-2zm38 2c-.268-.123 1 14.33 1 16s16.877-3.722 21-11c-1.259-.784-7.748-3.539-9-5-.87-1.015-12.141.393-13 0zm-24-82s1.554 7.958 2 9c-2.53 1.042-8.396 4.604-11 2-.223-.446 9-11 9-11zm-17 44c.568-1.244 11.632 3.421 14 2 .447-.268-5.195 8.715-6 8-.805-.715-6.644-3.672-8-5-.974-.955-.672-3.527 0-5z" fill="url(#a)" fill-rule="evenodd"/><path d="M512.117 196.346c-.301 1.064-15.087 10.304-15.617 10.154-.835-.236 1.504 3.032 2 4 .296.578-3.448 2.905-4 2-.06-.098-.434-.773-.999-1.786-.854-1.53 1.306-1.738.999-2.214-.275-.427-3.542-8.802-4-9-.329-.142-2.836 1.13-3.164.552-.811-1.431-1.554-2.383-1.836-2.552-.835-.499 2.445-1.764 4-2 .711-.108 1.359 1.476 1.514 2.047-.039.033-.06.064-.047.09.096.195.103.118.047-.09.997-.859 18.58-4.023 19.723-3.67 1.21.374 1.681 1.405 1.38 2.469zM493.5 200.5c.419.749 1.76 2.579 2 3 .095.167 10.998-5.601 10.745-6.059-.464-.84-12.863 2.848-12.745 3.059zm5.19-9.21c-4.658 2.564-11.53 3.082-13.049-1.65-1.377-4.291 2.315-7.489 6.87-9.477 4.387-1.915 9.089-2.191 11.126 1.101 2.492 4.026-1.169 7.947-4.947 10.026zm1.238-7.967c-1.083-2.111-4.698-1.432-7.28-.001-2.583 1.432-4.846 3.221-3.573 5.22 1.149 1.801 5.464 2.171 7.006.962 1.541-1.209 4.97-3.99 3.847-6.181zm-7.039-8.525c-2.703 1.749-4.423.643-4.423.643s1.433 3.564-3.126 6.079c-4.178 2.303-10.406-5.919-10.114-6.738.259-.728 14.879-11.606 15.375-11.282.497.325 2.631 3.764 3.123 4.533.71 1.109 1.868 5.016-.835 6.765zm-9.216-2.116c-.542-.195-4.198 3.616-4.182 3.639.674.971 2.649 2.141 4.589.626 1.941-1.515.136-4.069-.407-4.265zm6.759-4.082c-.522-.247-4.532 3.193-4.518 3.217.578 1.031 2.432 2.384 4.511 1.063 2.08-1.321.528-4.034.007-4.28zm-17.808 4.003c-.865.061-3.128-1.696-3.205-2.781-.076-1.085 1.763-1.886 1.784-3.134.009-.555-.627-1.371-1.919-1.623-.955-.187-1.975 3.112-3.296 2.28-.83-.524-2.389-2.521-2.977-3.084-.563-.54 16.079-10.191 17.32-10.248 1.265-.059 2.058.75 2.136 1.853.078 1.104-9.294 16.698-9.843 16.737zm2.496-9.996c.147.125 2.589-3.372 2.196-3.717-.722-.633-4.444 1.756-4.261 1.914.648.563 1.697 1.489 2.065 1.803zm-8.62-9.107c.614 6.499-6.305 8.977-10 6-2.11-1.699-1.51-5.998 0-6 1.51-.002.551 1.854 2 3 2.263 1.79 6.196.02 3-4-.68-.855.364-2.124 1-2 2.888 2.286 7.384-1.097 4-4-1.877-1.61-4.553 1.585-5 0-1.153-4.091 4.82-4.086 7-2 4.248 4.064 1.941 8.232-2 9zm-3 184c-3.748 2.503-7.837-.167-11-4-3.047-3.692-4.605-8.137-2-11 3.186-3.503 7.962-1.061 11 2 3.746 3.774 6.132 10.24 2 13zm-3-10c-1.586-1.15-5.202-3.682-7-2-1.733 1.621-.086 4.91 2 7s4.429 3.774 6 2c1.417-1.599.586-5.85-1-7zm-18-177c-.901.131-2.439-.907-3.283-1.514-.244-.176 3.325-7.454 3.283-7.486-.527-.405-4.928 5.214-6 6-.316.232-3.55-.951-3.49-1.423.082-.634 4.584-14.95 5.49-15.577.26-.18 2.965.339 2.96 1.031-.009 1.411-2.492 6.607-2.28 7.099.203.473 6.803-5.252 7.32-5.13.606.143 3.066 1.619 3 2-.15.862-6.212 14.885-7 15zm3.408-21.033c-.718-.032-1.37-.735-1.41-1.428-.04-.686.976-1.533 1.475-1.502.892.055 1.696.706 1.541 1.477-.144.715-.663 1.496-1.606 1.453zM429.281 352.88c-1.264-1.165-5.888-13.9-5.781-14.38.126-.568 1.35-1.144 2-1 .65.144 6.505 13.062 6 14-.505.938-1.29 2.235-2.219 1.38zM425.5 143.5c-.266-1.314 1.317-6.579 1-7-.305-.405-5.435 6.023-6 6-.662-.028-2.995-.634-3-1-.012-.828 2.745-15.274 3.547-15.518.917-.278 2.39.471 3.392.89.289.121-1.65 6.492-1.599 6.515.631.285 4.992-4.679 5.96-5.597.285-.27 2.671.261 2.7.71.039.605-2.174 15.259-3 16-.237.213-2.869-.355-3-1zm-16-3c-.693-1.494-4.704-6.571-5-6-.262.508 1.024 5.473 0 6-1.024.527-2.797.473-3 0-.203-.473-.122-17.196 0-18 .044-.292 2.877-.404 3 0 .397 1.298.864 6.535.895 6.513.507-.352 4.149-5.361 5.105-6.513.413-.498 2.597.109 2.89.64.629 1.141-4.268 8.554-4.89 9.36.843.95 4.34 6.326 5 8 .22.558-3.908.199-4 0zm-15-1c-3.381 1.326-7.617-1.041-9-5-4.144-11.866 5.92-12.217 7-12 1.666.334 1.85 2.855 1 3-.728.124-5.86-1.242-5 6 .768 6.465 5.286 3.844 6 4 .63.137 2.227 3.127 0 4zm-24.47 5.044c-.649-.42-7.88-17.146-7.45-17.555.43-.409 4.267-1.696 5.129-1.999 1.242-.436 5.31-.666 6.392 2.366 1.081 3.033-.39 4.452-.39 4.452s3.798-.576 5.199 4.439c1.283 4.595-8.15 8.769-8.88 8.297zm1.639-15.23c-.809-2.328-3.805-1.44-4.165-.989-.36.451 2.068 5.143 2.094 5.136 1.136-.327 2.879-1.82 2.071-4.147zm2.501 7.109c-1.029-2.237-3.929-1.066-4.244-.583-.315.483 2.555 4.916 2.581 4.906 1.1-.434 2.692-2.086 1.663-4.323zM358.5 331.5c-.548.233-3.874-1.166-4-1-.413.543-5.249 12.064-6 13-.248.309-3.164-.692-3-1 .406-.761 5.984-12.574 6-13 .027-.716-2.562-2.452-3-3-.438-.548.606-2.212 1-2 .385.207 9.296 4.59 10 5 .548.319-.741 1.89-1 2zm-2-183c-4.397 2.059-6.728-.177-9.149-3.746-2.984-4.401-4.136-11.196.436-13.146 4.145-1.768 7.671 1.612 10.072 5.963 2.312 4.191 2.146 9.288-1.359 10.929zm-1.774-10.5c-1.665-2.439-3.303-4.085-5.528-3.074-1.945.884-1.293 5.37-.31 7.064 1.082 1.865 4.261 4.259 6.511 3.259 2.267-1.009.991-4.81-.673-7.249zm-8.378 15.268c.489.348-2.051 1.931-2.236 1.815-1.396-.875-7.676-3.223-7.612-2.583.057.569 3.571 4 3 5-.571 1-2.571 2.286-3 2-.429-.286-9.516-14.208-10-15-.601-.983 1.979-2.118 2.839-1.452 1.478 1.145 4.147 5.487 4.161 5.452.232-.571.827-7.513 1-9 .075-.643 1.963-.568 2.498-.283 1.15.613.583 7.269.502 8.283 1.225.336 7.382 4.725 8.848 5.768zm-19.023 6.64c.643-.05 5.315 2.489 4.175 4.592-1.73 3.193-6.138 6.549-13 2-10.476-6.945-1.579-14.899-.613-15.429 1.489-.818 4.17 2.77 3.613 3.429-.477.564-6.089 3.986 0 8 4.468 2.945 4.847-2.516 5.825-2.592zm-8.837 19.552c-1.936 4.321-7.235 3.489-11.075 1.527-4.736-2.419-9.018-7.819-5.952-11.729 2.781-3.547 7.499-2.283 11.699.373 4.045 2.558 6.911 6.297 5.328 9.829zm-7.867-7.944c-2.633-1.336-5.384-2.206-6.325-.031-.847 1.961 1.266 5.742 3.132 6.34 1.866.598 6.091 1.878 7.275-.281 1.141-2.08-1.449-4.692-4.082-6.028zm.423 17.486c-.69.946-.915 2.487-1.513 3.273-.367.482-6.446-3.34-6.78-2.884a5.634 5.634 0 0 0-.599 1c-.047.097 3.836 3.247 3.581 3.489a4.127 4.127 0 0 0-.834 1.142c-.217.47-5.136-1.281-5.273-1.134-.185.2-.51.593-.584.75-.259.548 5.573 3.894 5.486 4.491-.145.993-1.033 2.614-1.513 3.272-.248.339-15.016-10.611-14.85-10.839.136-.186.741-1.288 1.506-2.698.182-.336 4.072 1.147 4.268.784.22-.407.607-.723.834-1.142.416-.768-2.857-3.757-2.645-4.172.715-1.396 1.368-2.474 1.565-2.744.238-.325 17.59 7.085 17.351 7.412zM304.5 285.5c.394.477 5.803 7.411 6.109 8.009.183.358-14.245 12.505-14.437 12.148-.432-.806-.782-1.772-1.247-2.55-.312-.519 11.575-9.607 11.575-9.607-.087-.065-2.055-2.868-2.468-3.477-.228-.337-11.849 10.413-12.39 9.917-.74-.678-1.771-1.715-2.142-2.44-.191-.374 14.82-12.218 15-12zm12 15c1.266.031 2 .894 2 2 0 1.106-10.449 16-11 16-.867 0-3-1.912-3-3s1.891-1.757 2-3c.048-.553-.528-1.413-1.8-1.755-.939-.253-2.189 2.965-3.448 2.041-.791-.58-2.206-2.682-2.752-3.286-.523-.578 16.758-9.03 18-9zm-5.804 8.206c.137.134 2.82-3.182 2.452-3.554-.675-.682-4.556 1.438-4.385 1.609.607.607 1.587 1.605 1.933 1.945zM323.5 307.5c.163.163 1.158.931 2.433 1.904.304.232-1.761 3.846-1.433 4.096.368.28.621.711 1 1 .695.529 4.153-2.243 4.53-1.97 1.269.922 2.234 1.734 2.47 1.97.284.284-9.713 16.287-10 16-.828-.828-2.316-1.287-3-2-.419-.437 4.294-5.854 3.896-6.254a5.74 5.74 0 0 0-.896-.746c-.089-.061-3.8 3.29-4 3a4.123 4.123 0 0 0-1-1c-.43-.287 2.059-4.878 1.934-5.035-.169-.213-.507-.595-.651-.693-.502-.341-4.707 4.906-5.283 4.728-.959-.297-2.424-1.424-3-2-.297-.297 12.8-13.2 13-13zm9 19s-2.807-2.96 1-7c3.489-3.702 13 2.102 13 3 0 .799-8.364 16.141-9 16-.636-.141-3.246-2.36-3.229-2.592.046-.594 1.403-3.25 1.935-4.149.274-.464-2.141-1.542-2.706-1.259-.565.283-2.223 4-3 4-.777 0-2.576-1.576-3-2-.424-.424 5-6 5-6zm6 1c.636 0 3.025-4.983 3-5-1.06-.707-3.544-1.152-5 1s1.364 4 2 4zm25 4c.278-.155 3.015.342 3 1-.031 1.34-3.216 6.52-3 7 .208.463 5.584-5.616 6-6 .361-.333 3.125.623 3 1-.229.689-5.883 14.93-6 15-.212.127-2.86-.42-4-1-.279-.142 3.407-5.524 3-6-.408-.478-5.237 4.163-6.571 4.558-.377.111-3.365-1.112-3.429-1.558-.051-.357 7.031-13.46 8-14zm74-1c1.967-1.284 4.819-1.689 9 3s5.039 10.493 3 12c-4.094 3.026-8.754 2.502-9 2-.329-.672-.498-1.672 0-2 .504-.332 9.361-.164 6-6-1.275 3.462-7.312 2.587-10-1-1.483-1.979-1.178-6.578 1-8zm1.525 6.306c.37 1.138 3.328 1.552 4.475.694 1.121-.839.263-3.21-.782-4.267-1.084-1.096-2.49-1.353-3.572-.423-1.466 1.26-.355 3.279-.121 3.996zm30.748-28.399c.454.074 2.102 1.593 1.727 2.093-.375.5-3.562 3.562-4 4-.437.437 1.5 2.375 2 2s5.477-5.479 11 0-3.251 11.455-4.433 11.557c-2.151.184-4.349-1.972-4.657-3.009-.26-.873.465-1.548 1.09-1.548s2.312 1.687 3 1c.687-.688 3.858-2.991 2-5s-4.813-1.75-7 1c-2.188 2.75-6.94-4.832-7-6-.06-1.168 5.032-6.296 6.273-6.093zM487.5 300.5c1.016.131 1.683.884 1.28 1.409-.708.925-3.21 2.225-2.552 3.379.364.638 6.017 4.813 6.471 5.553.791 1.289-.255 2.338-1.155 2.311-.777-.023-9.039-7.49-9.044-8.652-.005-1.198 3.847-4.149 5-4zm9.473 2.037c.892.055 1.696.706 1.541 1.477-.144.715-.663 1.496-1.606 1.453-.718-.032-1.37-.735-1.41-1.428-.04-.686.976-1.533 1.475-1.502z" fill="url(#b)" fill-rule="evenodd" stroke-width="4" paint-order="stroke" stroke="#007d75"/></svg>