<?xml version="1.0" encoding="UTF-8"?>
<svg viewBox="0 0 800 800" xmlns="http://www.w3.org/2000/svg">
<defs><style>#background_yellow { fill: #fff6bf; fill-rule: evenodd;} #foreground, #label, #trademark, #factory, #speed { fill: #00554b; fill-rule: evenodd;} #logo { fill: #00554b; fill-rule: nonzero; }</style></defs>
<path id="background_yellow" class="cls-1" d="M400,0C620.914,0,800,179.086,800,400S620.914,800,400,800,0,620.914,0,400,179.086,0,400,0Zm0,371a29,29,0,1,1-29,29A29,29,0,0,1,400,371Z"/>
<path id="foreground" d="M21.936,266.489H777.064L780,276H20S21.841,266.487,21.936,266.489ZM164,121l45,45,1.718-1.282-30.011-30.436L231,144l-7-47,25,35,6-6L219,74l9,61Zm5.089,2.82L178,131l51,11-1-5ZM222,82l31.315,44.673-3.872,2.853L224.272,93.383Zm59-35,1,2L253.315,62,265,83l25-11,1,2L266,85l13.454,24.553,24.2-10.463L304,101l-33,14L243,65ZM245.57,65.8L251,63l27,48-5.323,2.357ZM321,45l-8.63,55.041L310,101l12-72,41,58-11,2Zm2-11,37,52-7,1L322,42Zm77-10c21.89,0,32,13.831,32,28,0,17.834-6.587,34-32,34s-33.758-15.88-34-33S376.281,24,400,24ZM368,53c-0.138,23.68,21,30,21,30s-13-7.424-13-29c0-18.2,11-27,11-27C387,27.029,368.122,32.032,368,53Zm43-26s18.271,6.362,18.511,25.485C429.852,79.62,410,84,410,84s12.315-9.3,12-31C421.731,34.477,413.333,28.9,411,27Zm-3.755.756c19.932,9.941,12.585,50.029,0,55.165-2.406.982-14.73,0.633-16.458-.951-17.426-15.979-15.877-45.274,0-54.214C393.925,25.989,403.35,25.813,407.245,27.756ZM430.48,83.872L430,86s10.487,0.543,31,5c18.72,4.067,37.216,12.136,37,12l0.247-2.008-6.776-2.853L485,34,443,85ZM445,85.774L477,47l5,48a160.973,160.973,0,0,0-22.313-6.465C451.25,86.789,444.462,85.718,445,85.774Zm33.884-40.9L483,39l7,59-5.306-1.763ZM561,88l-23,34,8,6,33-48L521.482,98.139,541,58l-9-4-26,51ZM533,57l4.94,2.143L519,98l-9,4Zm8,65,23-34,11-5-29,42Zm51,44,41-39-19-19c-15.95-15.95-40.272,5.431-19,23-8.955.476-37,4-37,4l7.047,7.842L605,140l-20,18Zm33-45s-1.04-1.691-10.579-10.5c-11-10.15-27.654,7.386-18.421,19.5,2.029,2.661,10,9,10,9Zm-63,15,34-3c0-.093,6.008,5.332,6.008,5.332L567,141Zm47-30c-11.266-7.6-27.589,7.376-17,19C588.184,114.937,601.108,104.543,609,106Zm18,16,3.879,4.673L592,163l-4-5Z"/>
<path id="label" d="M156.2,377.132c2.442,0,3.88,1.278,3.88,3.78,0,2.025-.629,4.4-6.146,3.725l0.082,1.616c5.77-.97,6.81,1.919,6.81,4.054,0,2.793-1.687,4.437-4.6,4.437a7.77,7.77,0,0,1-2.93-.562s-1.138-3.958-1.588-3.958-0.61,4.821-.61,4.821a15.328,15.328,0,0,0,4.979.863c4.739,0,7.719-2.059,7.719-5.93,0-2.465-1.429-4.282-4.341-4.793,2.242-.767,3.594-2.269,3.594-4.588,0-3.031-2.283-4.588-6.443-4.588a20.724,20.724,0,0,0-5.2.74l-0.081.1s0.264,4.327.814,4.327,1.451-3.547,1.451-3.547a7.478,7.478,0,0,1,2.605-.493h0ZM174.474,393.8c0.3-.141-4.912,2.054-4.912-1.9,0-1.862,1.133-2.574,4.938-2.574Zm-3.148-9.669c3.114,0,3.174,4.081,3.174,4.081-5.318,0-7.719,1.3-7.719,4.109,0,2.282,1.682,3.588,4.223,3.588a6.29,6.29,0,0,0,3.62-1.383,1.826,1.826,0,0,0,1.823,1.369,15.2,15.2,0,0,0,2.5-1.232s-1.763.09-1.893-1.069c0-2.3.034-6.82,0.034-6.82,0.018-2.757-1.712-4.259-4.49-4.259-1.357,0-4.93.615-4.68,1.164S169.3,384.13,171.326,384.13Zm14.694-.055h5.507s-0.027,8.209-.027,10.162c-0.078.906-1.492,1.328-1.492,1.328h6.01s-1.94-.544-1.94-1.506c0.068-2.318,0-7.911,0-9.778,0-.511,1.858-1.452,1.858-1.452H181.529s1.94,0.377,1.94,1.507v9.778c0,1.238-1.845,1.451-1.845,1.451h6.01s-1.524-.5-1.587-1.4q-0.027-.63-0.027-2.274v-7.82Zm17.352,8.943,6.295-6.477s-0.027,5.7-.027,7.641c0,1.067-1.642,1.383-1.642,1.383h6.159s-1.94-.51-1.94-1.506v-9.778c0-1.3,1.845-1.452,1.845-1.452h-6.145s1.736,0.568,1.736,1.438v0.671l-6.281,6.478s0.028-5.474.028-7.2c0-.668,1.641-1.383,1.641-1.383h-6.159s1.921,0.627,1.94,1.507v9.778c0,1.156-1.845,1.451-1.845,1.451h6.145s-1.75-.454-1.75-1.438v-1.109Zm16.634-4.163c0-5.658,4.439-5.058,5.711-4.971,0,0,1.128,3.2,1.628,3.2s0.8-3.127.8-3.752-2.537-.822-3.867-0.822a6.748,6.748,0,0,0-7.054,7.039,6.206,6.206,0,0,0,6.444,6.355c3.531,0,4.857-1.044,4.544-1.356S220.006,395.387,220.006,388.855Zm38.626-4.574c0-1.213,1.845-1.452,1.845-1.452h-6.145s1.723,0.352,1.723,1.438c0,0.86.027,3.985,0.027,3.985H250.14s0.027-3.179.027-4.04,1.642-1.383,1.642-1.383H245.65s1.856,0.377,1.94,1.507v9.778c0,0.829-1.845,1.451-1.845,1.451h6.145s-1.723-.48-1.723-1.438c-0.008-.188-0.027-4.7-0.027-4.7h5.942s-0.027,3.892-.027,4.752-1.642,1.383-1.642,1.383h6.159s-1.94-.523-1.94-1.506v-9.778Zm11.411-.685c2.434,0,3.744,2.141,3.744,5.629,0,3.706-1.243,5.615-3.568,5.615-2.487,0-3.757-2.365-3.757-5.78C266.462,385.39,267.737,383.6,270.043,383.6Zm0.251-1.082c-3.983,0-6.613,2.817-6.613,6.834,0,3.908,2.525,6.56,6.274,6.56,3.838,0,6.613-2.808,6.613-6.971C276.568,385.066,274.06,382.514,270.294,382.514Zm19.5-4.574v16.105c0,0.874-1.98,1.52-1.98,1.52s6.465,0.041,6.69.041c4.664,0,7.445-2.086,7.445-5.738,0-2.52-1.551-4.208-4.354-4.683q3.594-1.219,3.595-4.588c0-2.794-2.056-4.328-6.029-4.328-0.468,0-7.4.083-7.4,0.083S289.754,376.753,289.8,377.94Zm4.186,8.012c3.512,0,5,1.355,5,4.2s-1.589,4.382-4.579,4.382c-0.22,0-1.919-.233-1.919-0.233v-8.312s0.986-.041,1.5-0.041h0Zm-1.5-8.436s1.474-.1,1.675-0.1c2.628,0,4.064,1.059,4.064,3.67,0,2.483-1.373,3.821-4.037,3.821-0.576,0-1.7-.014-1.7-0.014v-7.381Zm28.653-.808-0.095-.11a20.585,20.585,0,0,0-4.693-.561c-6.367,0-10.731,3.912-10.731,10.175,0,5.879,3.952,9.805,9.795,9.805a10.326,10.326,0,0,0,6.05-1.862l-0.149-.616a13.763,13.763,0,0,1-4.545.835c-5.119,0-8.18-3.433-8.18-8.765,0-9.6,7.859-8.349,10.174-8,0,0,1.124,3.519,1.533,3.519S321.138,376.708,321.138,376.708Zm8.535,0.917h5.834s1.287,3.862,1.573,3.862,0.855-5.135.855-5.135H324.953s1.989,0.4,2.034,1.588v16.105c-0.052,1.208-1.98,1.52-1.98,1.52h6.946s-2.2-.282-2.252-1.588C329.7,391.564,329.673,377.625,329.673,377.625ZM480.506,393.9c3.925,0,6.283-1.442,6.283-4.008,0-1.775-1.172-2.952-3.429-3.3q3.082-.9,3.082-3.314c0-2.026-1.754-3.125-5.26-3.125,2.838,0-7.314.087-7.314,0.087s2.069,0.5,2.069,1.606V392.32c0,0.679-1.968,1.533-1.968,1.533S482.013,393.9,480.506,393.9Zm-0.578-6.642c2.747,0,3.895.888,3.895,2.778,0,1.814-1.224,2.822-3.556,2.822-0.3,0-1.609-.159-1.609-0.159v-5.4S479.818,387.255,479.928,387.255Zm-1.27-5.961s1.3-.058,1.479-0.058c2.141,0,3.339.743,3.339,2.518,0,1.717-1.132,2.619-3.311,2.619-0.134,0-1.507-.029-1.507-0.029v-5.05Zm11.676,0.391h3.126s-0.029,9.89-.029,10.606-2.055,1.562-2.055,1.562h6.945s-2.141-.762-2.141-1.62-0.029-10.548-.029-10.548h3.082s0.982,3.429,1.447,3.429c0.8,0,.839-4.717.839-4.717-3.626.055-12.534,0.012-13.326,0,0,0,.052,4.818.579,4.818C489.38,385.215,490.334,381.685,490.334,381.685Zm19.216-.478c2.595,0,3.993,2.262,3.993,5.947,0,3.916-1.326,5.932-3.806,5.932-2.652,0-4.007-2.5-4.007-6.106C505.73,383.1,507.09,381.207,509.55,381.207Zm0.268-1.143c-4.249,0-7.054,2.976-7.054,7.22,0,4.129,2.693,6.931,6.691,6.931,4.094,0,7.054-2.966,7.054-7.365C516.509,382.76,513.834,380.064,509.818,380.064Zm10.381,2.055c0,6.615.029,16.147,0.029,17.189,0,1.278-1.968,1.534-1.968,1.534h7.047s-2.33-.644-2.33-1.649c0-.059-0.029-5.195-0.029-5.195a13.182,13.182,0,0,0,2.332.217c5.032,0,7.884-2.942,7.884-7.669,0-3.839-2.288-6.482-5.9-6.482a7.692,7.692,0,0,0-4.314,1.519l-0.145-1.519q-2.168.55-4.6,1.013S520.2,381.448,520.2,382.119Zm2.749,0.332a5.884,5.884,0,0,1,2.773-.636c2.888,0,4.477,1.808,4.477,5.339,0,3.743-1.628,5.817-4.824,5.817a11.361,11.361,0,0,1-2.426-.275V382.451Zm20.186,9.536a5.783,5.783,0,0,1-2.5.506c-1.686,0-2.738-.685-2.738-2.517,0-1.968,1.209-2.721,5.267-2.721Zm-6.657-9.724c0.37,0.37,2.421-.492,3.3-0.492,4.326,0,3.386,4.312,3.386,4.312-5.672,0-8.233,1.37-8.233,4.341,0,2.412,1.794,3.791,4.5,3.791a6.748,6.748,0,0,0,3.861-1.461,3.028,3.028,0,0,0,4.686.709c0.266-.2-2.091-0.216-2.091-1.693s0.037-7.206.037-7.206c0.019-2.913-1.827-4.5-4.79-4.5C537.567,380.064,536.108,381.894,536.477,382.263Zm21.531,10.129c0,0.873-1.737,1.461-1.737,1.461h6.555s-2.069-.2-2.069-1.591V381.931c0-1.209,1.982-1.534,1.982-1.534s-5.948-.029-6.85-0.029c-3.332,0-5.507,1.394-5.507,3.805q0,2.575,2.981,3.5a24.549,24.549,0,0,1-3.1,4.862,5.656,5.656,0,0,1-1.737,1.3c0.022,0,3.012.387,3.864-.362a35.307,35.307,0,0,0,3.436-5.238c0.134-.336,2.207-0.188,2.207-0.188S558.008,391.519,558.008,392.392Zm0.029-5.3h-1.183c-2.451,0-3.5-.974-3.5-2.807s1.12-2.764,3.362-2.764c0.136,0,1.326.073,1.326,0.073v5.5Zm17.84-5.383h4.24s1.109,3.256,1.548,3.256,0.926-4.471.926-4.471l-11.5-.1s1.979,0.387,2.069,1.591V392.32c0,1.233-1.968,1.533-1.968,1.533h6.787s-2.07,0-2.07-1.591C575.906,389.883,575.877,381.713,575.877,381.713Zm10.042,0.406c0,1.772.029,13.773,0.029,17.189,0,1.331-1.968,1.534-1.968,1.534h7.047s-2.33-.382-2.33-1.649S588.668,394,588.668,394a13.182,13.182,0,0,0,2.332.217c5.032,0,7.884-2.942,7.884-7.669,0-3.839-2.288-6.482-5.9-6.482a7.692,7.692,0,0,0-4.314,1.519l-0.145-1.519c-1.445.367-4.6,0.428-4.6,1.013S585.919,381.241,585.919,382.119Zm2.749,0.332a5.884,5.884,0,0,1,2.773-.636c2.888,0,4.477,1.808,4.477,5.339,0,3.743-1.628,5.817-4.824,5.817a11.368,11.368,0,0,1-2.426-.275V382.451ZM238.474,393.8c0.3-.141-4.912,2.054-4.912-1.9,0-1.862,1.133-2.574,4.938-2.574Zm-3.148-9.669c3.114,0,3.174,4.081,3.174,4.081-5.318,0-7.719,1.3-7.719,4.109,0,2.282,1.682,3.588,4.223,3.588a6.29,6.29,0,0,0,3.62-1.383,1.826,1.826,0,0,0,1.823,1.369,15.2,15.2,0,0,0,2.5-1.232s-1.763.09-1.893-1.069c0-2.3.034-6.82,0.034-6.82,0.018-2.757-1.712-4.259-4.49-4.259-1.357,0-4.93.615-4.68,1.164S233.3,384.13,235.326,384.13Z"/>
<path id="trademark" d="M230.725,178.77c1.777-1.9,2.324-8.535-3.631-6.051,1.6-2.34-2.337-6.757-5.952-2.862-1.473,1.588-4.375,4.837-4.375,4.837l9.292,9.218S229.152,180.455,230.725,178.77Zm-10.74-4.88s1.57-1.812,2.42-2.645c1.88-1.842,4.142.771,2.553,2.576-0.791.9-2.426,2.652-2.426,2.652Zm3.861,3.915s1.756-1.82,2.561-2.8c1.882-2.283,5.353-.581,2.594,2.729-0.8.955-2.515,2.747-2.515,2.747l-2.64-2.679h0Zm9.265-10.95c-3.394-3.857.432-8.376,3.626-6.051q0.906-1.006,1.822-2c-2.3-1.95-5.035-1.7-7.4.566-3.024,2.908-2.919,6.771-.244,9.735,4.406,4.883,8.342,1.253,8.986.634,2.421-2.33,2.842-5.265,1.423-7.541q-1.049.8-2.091,1.608C241.224,166.747,236.549,170.762,233.111,166.855Zm18.958-10.97-5.545,4.719L244.25,157.7l4.451-3.813-1.145-1.535-4.485,3.842-2.2-2.815,5.668-4.827-1.165-1.58-7.905,6.812,8.238,10.283,7.58-6.529Zm0.907-6.639c-3-4.208,1.192-8.208,4.124-5.526q0.986-.883,1.978-1.755c-2.083-2.2-4.8-2.29-7.334-.339-3.243,2.5-3.492,6.318-1.13,9.567,0.08,0.111,3.858,5.526,8.786,1.724,2.6-2,3.282-4.851,2.093-7.268q-1.1.659-2.206,1.333C261.3,149.9,256.516,154.218,252.976,149.246ZM272.24,135.5c-1.946-3.376-5.539-4.576-8.977-2.233a6.8,6.8,0,0,0-1.9,9.624c2.116,3.265,5.66,4.349,8.934,2.113C273.482,142.828,274.289,139.059,272.24,135.5Zm-8.376,5.7c-1.762-2.782-1.649-4.886.365-6.263,2.044-1.394,3.925-.423,5.476,2.195q1.431,2.418,1.124,3.905a3.553,3.553,0,0,1-1.521,2.315C267.482,144.6,265.573,143.907,263.864,141.2Zm23.993-7.068c3.4-1.9,4.275-5.821,2.631-9.315-1.755-3.731-5.363-4.869-8.865-2.912a6.634,6.634,0,0,0-3.148,8.24c-0.775.461-2.319,1.4-2.319,1.4l-2.578-4.7-2.413,1.5,6.52,11.58,2.291-1.419-2.882-5.251s1.531-.931,2.3-1.389A5.959,5.959,0,0,0,287.857,134.131Zm-0.01-7.947c1.3,2.685.979,5.194-.934,6.264-1.722.963-3.88,0.236-5.34-2.566-1.381-2.649-1.112-5.117.928-6.258C284.381,122.574,286.456,123.316,287.847,126.184Zm11.888,1.76c3.179-1.538,4.477-4.027,3.563-6.259-0.643-1.575-2-2.115-4.078-1.573,1.461-1.226,1.925-2.5,1.37-3.857-0.768-1.865-3.269-2.416-6.33-.935-3.023,1.467-4.227,3.521-3.626,6.056q1.159-.416,2.319-0.816c-0.341-1.46.48-2.3,1.97-3.411,2.7-2.009,5.677,1.375.674,3.932l0.711,1.61c5.218-3.119,4.994,2.344,2.584,3.512-1.7.825-3.054,0.565-4.08-.807q-1.034.728-2.06,1.466C294.047,128.984,296.563,129.481,299.735,127.944Zm12.844-20.352L310,108.606l1.867,5.173-5.328,2.2-1.981-5.125L302,111.967l4.95,12.414,2.425-1.054-2.094-5.418,5.285-2.185,1.973,5.467,2.453-.962Zm9.663-3.494-3.219,1.113-0.464,14.419,2.1-.782,0.085-3.422,5.36-1.859,2.025,2.69,2.667-.855Zm-1.468,9.266,0.253-6.423,3.841,5s-2.733.934-4.094,1.421h0Zm19.292-.657,2.525-.662-3.036-13.076s-4.3,1.133-6.446,1.745c-4.952,1.415-4.72,7.455-.255,7.778-0.483,2.233-1.373,6.7-1.373,6.7l2.513-.765,1.155-6.139s2.4-.674,3.6-1C339.188,109.1,340.066,112.707,340.066,112.707Zm-1.766-7.261s-2.061.532-3.079,0.848c-3.575,1.111-4.964-2.824-1.194-3.808,1.114-.291,3.33-0.919,3.33-0.919Zm17.955,3.956q1.11-.213,2.22-0.415-0.135-.816-0.269-1.632c4.019-1.1,5.555-3.464,5.141-6.416-0.418-2.979-2.662-4.812-6.923-4.388l-0.267-1.623q-1.174.213-2.346,0.438l0.282,1.62c-4.057,1.115-5.654,3.651-5.062,6.626,0.584,2.934,2.834,4.589,6.94,4.159q0.142,0.816.284,1.63h0Zm-0.583-3.346c-2.29.094-3.631-.853-4.017-2.892-0.444-2.357.526-3.687,2.737-4.46q0.641,3.676,1.28,7.352h0Zm1.036-7.785c2.369-.081,3.7.93,4.011,2.98a3.773,3.773,0,0,1-.462,2.8,4.542,4.542,0,0,1-2.335,1.581q-0.606-3.683-1.214-7.365h0Zm17.625-1.485,0.836,9.4,2.569-.258-1.148-13.4-2.707.272,0.13,1.354-5.2,8.9-1.065-9.519-2.709.373,1.738,13.335,2.57-.355-0.145-1.213Zm8.815,3.343c1.22-.084,2.443-0.115,3.66-0.225,5.059-.456,6.324-8.457-0.7-8.1-2.065.106-6.189,0.42-6.189,0.42l0.979,13.42,2.584-.194-0.333-5.323h0Zm-0.382-6.1q1.477-.1,2.956-0.187c3.389-.193,3.723,3.747.445,4.014-1.048.085-3.149,0.2-3.149,0.2l-0.252-4.024h0Zm25.591-2.417-4.29-.122-3.175,8.626-3.112-8.668-4.269.065L393.8,104.97l2.115-.041-0.151-11.782,4.151,11.757,1.357,0.007L405.534,93.2l-0.287,11.78,2.64,0.083,0.47-13.451h0ZM418.478,92.2l-3.353-.243-5.576,13.171,2.208,0.109,1.3-3.135,5.584,0.4,0.9,3.293,2.758,0.261Zm-4.66,8,2.528-5.849,1.737,6.153Zm18.123,7.031,1.489-11.274,5.394,0.839,0.315-2.055L431,93.528l-1.624,13.353Zm10.172-3.723s2.409,0.458,3.611.7c5.278,1.068,7.252-6.816,1.173-8.04-2.034-.409-6.114-1.147-6.114-1.147L438.661,108.3l2.556,0.461s0.6-3.5.9-5.252h0Zm1.026-6.02q1.46,0.272,2.918.562c2.66,0.706,1.939,4.5-.488,4.009-1.034-.207-3.107-0.6-3.107-0.6l0.677-3.971h0Zm16.7,1.656-3.279-.825-7.6,12.022,2.167,0.492,1.781-2.867,5.463,1.368,0.368,3.405,2.689,0.74Zm-5.874,7.08,3.425-5.329,0.748,6.373Zm26.851-.612-4.1-1.431-5.439,7.29-0.607-9.25-4.127-1.237L463.1,113.962l2.047,0.6,3.1-11.329,0.754,12.525,1.306,0.421,7.339-9.911-3.525,11.193,2.523,0.889Zm19.608,10.5-0.98,11.841,2.552,1.262,1.126-14.306-3.2-1.5-9.38,10.443,2.1,0.926Zm11.467,3.2-10.1,9.8,2.022,1.025,2.379-2.344,5.074,2.718-0.382,3.415,2.486,1.408,1.564-14.386Zm-4.281,7.05c1.5-1.454,4.534-4.328,4.534-4.328l-0.657,6.4-3.877-2.076h0Zm11.869,4.788c2.436-3.734,6.769-2.522,6.362,1.708,0.59,0.3,1.529.788,2.292,1.189a5.663,5.663,0,0,0-2.588-7.187c-3.415-2.095-7.3.3-8.649,2.82a6.9,6.9,0,0,0,1.931,9.132c2.738,1.679,5.465,1.181,7.082-.944q-1.006-.8-2.019-1.58C521.838,139.2,517.04,134.891,519.476,131.157Zm16.407,5.159,3.416,2.417,1.113-1.721-9.466-6.487-1.038,1.773,3.47,2.3-5.829,9.6,2.4,1.641Zm11.173,10.672-5.418,7.526,2.132,1.709,7.766-10.705-2.247-1.8-0.773,1.092-9.708,2.72,5.325-7.785-2.307-1.707-7.271,11.085,2.189,1.621,0.671-1Zm16.249,8.705-2.166-1.972-3.393,4.228L553.2,153.96l3.3-4.313-2.22-1.875-7.9,10.589,2.106,1.78,3.484-4.559,4.511,3.957-3.586,4.469,2.056,1.871Zm7.42,16.49a6.818,6.818,0,0,0-.243-9.9c-3.031-3.016-6.931-2.656-9.39.277a6.928,6.928,0,0,0,.308,9.78C564.234,175.158,567.951,175.146,570.725,172.183Zm-7.436-7.424c2.129-2.482,4.1-2.86,5.893-1.082,1.817,1.808,1.4,4-.628,6.225-2.5,2.74-4.435,2.456-5.873,1.026C561.059,169.315,561.216,167.17,563.289,164.759Zm16.388,13.956,5.669,0.007-1.988-2.327-9.045.155,4.818-4.924-2.026-2.2-9.069,9.486L569.959,181l2.318-2.369,4.451-.065-2.521,7.233,2.08,2.445ZM482.121,120.4l3.8-10.777,5.036,2.021-4.024,10.689,2.429,1.023,4.845-12.469-10.219-4.1-4.324,12.678,2.455,0.936h0Z"/>
<path id="factory" d="M244.508,248.481l4.574,12.377h3.5l-5.714-14.872h-4.137l-5.741,14.872h2.837Zm22.674,10.067h-8.5v-4.162h6.736v-2.157h-6.736V248.2h8.38v-2.212H255.422v14.872h11.76v-2.31Zm17.464-12.562h-3.262V252.1h-6.908v-6.112h-3.261v14.872h3.261V254.4h6.908v6.461h3.262V245.986Zm15.912,3.445-0.079,11.427h3.248V245.986h-3.248l-7.465,11.59,0.093-11.59h-3.262v14.872h3.262Zm21.813-3.445h-3.262V252.1H312.2v-6.112H308.94v14.872H312.2V254.4h6.907v6.461h3.262V245.986Zm8.461,14.872V248.285H337.4v-2.3h-9.824v14.872h3.261Zm13.036-5.9h4.521c3.394,0,5.86-1.848,5.86-4.565,0-2.382-2.006-4.412-6.231-4.412h-7.412v14.872h3.262v-5.9Zm0-6.754h3.566c2.564,0,3.394,1,3.394,2.222,0,1.351-1.087,2.234-3.1,2.234h-3.858v-4.456Zm21.163-2.223h-4.018l-6.006,14.872h2.784l1.419-3.541h6.961l1.445,3.541H371.1Zm-5.012,9.184,2.638-6.635,2.639,6.635h-5.277Zm12.386,3.378,0.015,2.306,16.568,0,0-2.3h-1.326l-4.3-12.562H378.5l-4.774,12.562h-1.325Zm7.69-10.067h0.981l3.142,10.067h-7.7Zm13.316,4.75c0-2.8,4.664-7.1,8.785-2.038l3.12-.255c-0.639-3.3-3.247-5.127-6.951-5.127-4.725,0-7.594,3.047-7.594,7.462,0,0.085-.192,7.473,7.471,7.473,4.05,0,6.672-2.088,7.074-4.989l-3.12-.265C400.235,259.278,393.411,258.761,393.411,253.231Zm22.3-.431,7.434-6.766H419.74l-7.129,5.611v-5.611h-3.366v14.489h3.366v-5.662l7.553,5.662h3.762Zm23.048-3.435-0.082,11.158h3.352V246.034h-3.352l-7.7,11.317,0.1-11.317h-3.366v14.489h3.366Zm19.7,0-0.082,11.158h3.352V246.034h-3.352l-7.7,11.317,0.1-11.317H447.41v14.489h3.366Zm-3.79-4.689c2.463,0,4.1-1.281,4.187-2.908H457.07q-0.246,1.4-2.326,1.4-2.148,0-2.394-1.4h-1.793C450.63,243.522,452.323,244.676,454.676,244.676Zm26.385,16.07c4.652,0,7.21-2.006,7.21-4.511q0-2.771-3.926-3.408,3.378-.8,3.379-3.173c0-2.194-2.554-3.843-6.622-3.843q-6.048,0-7.006,4.129l2.983,0.351q0.534-2.377,3.872-2.378c1.97,0,3.311.786,3.311,2.059,0,1.984-4.488,2.1-4.488,2.1v1.91s4.858,0.064,4.858,2.272c0,1.358-1.1,2.388-3.667,2.388q-3.571,0-4.255-2.749l-3.093.4C473.964,258.987,476.573,260.746,481.061,260.746Zm19.691-14.712h-4.146l-6.2,14.489h2.874l1.464-3.45h7.183l1.491,3.45h3.6Zm-5.172,8.948,2.723-6.464,2.723,6.464H495.58Zm23.113,5.541c5.564,0,7.367-5.772,1.778-7.515,3.628,0,5.8-6.974-2.668-6.974h-7.279v14.489h8.169ZM513.712,248.1h4.036c3.824,0,3.97,4.012.069,4.012h-4.105V248.1Zm0,6.082h4.365c3.71,0,3.739,4.161-.014,4.161h-4.351v-4.161Zm30-.923c0-4.26-3.015-7.452-7.868-7.452-4.816,0-8.018,3.2-8.018,7.42,0,4.245,2.9,7.515,7.868,7.515C540.523,260.746,543.707,257.735,543.707,253.263Zm-11.145,4.028a6.179,6.179,0,0,1-1.1-3.975q0-5.4,4.323-5.4c2.92,0,4.27,2,4.27,5.328q0,3.067-1.259,4.235a4.36,4.36,0,0,1-3.079,1.168A3.833,3.833,0,0,1,532.562,257.291Zm13.035,0.982v2.495h17.117v-2.495h-1.368l-4.433-12.239h-5.022l-4.925,12.239H545.6Zm7.936-9.808h1.013l3.243,9.808h-7.95Z"/>
<path id="speed" d="M681,228.548c-0.17,4.824,4.636,6.464,6.5,6.464a6.288,6.288,0,0,0,6.5-6.464c0-3.849-1.322-5.656-3.609-5.656a5.831,5.831,0,0,0,2.166-4.04,5.056,5.056,0,0,0-10.1,0c0,1.519.4,3.259,1.443,4.04C682.958,222.892,681.137,224.672,681,228.548ZM670.863,216.9c-1.788,0-1.205-2.8-.108-2.8s10.451,0.129,10.451.129-7.122,18.143-7.55,19.228-3.261.99-2.793-.14,6.078-16.412,6.078-16.412h-6.078ZM665,209.216v30.568L666.216,241h30.568L698,239.784V209.216L696.784,208H666.216Zm30.176,2.215-0.607-.607H668.431l-0.607.607v26.138l0.607,0.607h26.138l0.607-.607V211.431Zm-7.679,5a2.592,2.592,0,0,1,2.165,2.423,2.449,2.449,0,0,1-2.165,2.424,2.173,2.173,0,0,1-2.166-2.424A2.263,2.263,0,0,1,687.5,216.429Zm-0.159,7.5c1.641,0,4.234,2.708,4.234,4.668s-2.281,4.085-4.234,4.085a3.959,3.959,0,0,1-3.63-4.085C683.708,226.407,685.7,223.925,687.338,223.925Z"/>
<path id="logo" d="M329,215c44.593,0,83.7-49.146,93-56-8.316,10.681-42.061,45.665-33.853,45.665,10.846,0,34.475-22.7,53.853-38.665-16.52,18.357-63.356,76.71-63.356,76.71H387.2S463.938,154.1,467.018,145.7c-9.8,5.325-66.961,53.264-69.369,53.264-1.806,0,57.817-69.245,62.717-79.9C437.966,131.816,378.806,216.679,332,213c-4.366-.585-9.421-6.292-9.421-11.188,0-22.749,150.14-19.578,150.14-.951,0,21.836-134.936,19.962-134.936,0,0-13.106,116.882-10.372,116.882,0,0,13.651-97.877,12.993-97.877,0,0-5.915,77.921-3.424,77.921,0,0,7.7-50.153,4.009-54.709,4.139a0.916,0.916,0,0,0-.406.617c2.879,0.8,65.568,5.071,65.568-4.756,0-5.632-96.926-7.985-96.926,0,0,14.706,114.981,15.409,114.981,0,0-12.85-133.986-14.55-133.986,0,0,22.994,151.09,22.579,151.09,0,0-19.392-166.294-24.295-166.294.951C314.027,211.268,324.457,215,329,215Zm134.217-72.158,9.5-5.707,2.851,5.707,1.9-5.707,7.6-1.9-6.652-.951v-5.707l-6.652,4.756-8.552-.951,4.751,4.755Z"/>
</svg>
