<?xml version="1.0" encoding="UTF-8"?>
<svg viewBox="0 0 800 800" xmlns="http://www.w3.org/2000/svg">
<defs><style>.cls-1 { fill: url(#background_flexy_gradient); } .cls-1, .cls-2, .cls-3, .cls-4, .cls-5, .cls-6 { fill-rule: evenodd; } .cls-2, .cls-3, .cls-4, .cls-5, .cls-6 { fill: none;  stroke-linecap: round; stroke-linejoin: round; } .cls-4, .cls-6 { stroke: #0492b3; } .cls-2, .cls-4 { stroke-width: 2px; } .cls-3, .cls-5 { stroke: #2cbbdb; } .cls-3, .cls-5, .cls-6 { stroke-width: 1.5px; } .cls-2 { stroke: #04a1c4; }</style><linearGradient id="background_flexy_gradient" X1="0%" y1="79%" x2="100%" y2="21%"><stop offset="0%" stop-color="#2bb3d9" stop-opacity="1"/><stop offset="22%" stop-color="#46c1e3" stop-opacity="0.9"/><stop offset="41%" stop-color="#2bb3d9" stop-opacity="0.9"/><stop offset="94%" stop-color="#46c1e3" stop-opacity="0.8"/><stop offset="100%" stop-color="#46c1e3" stop-opacity="1"/></linearGradient></defs>
<path id="background_flexy" class="cls-1" d="M400,0C620.914,0,800,179.086,800,400S620.914,800,400,800,0,620.914,0,400,179.086,0,400,0Zm0,371a29,29,0,1,1-29,29A29,29,0,0,1,400,371Z"/>
<path id="circle-shadow" class="cls-2" d="M399.85,119.7C554.573,119.7,680,245.128,680,399.85S554.573,680,399.85,680,119.7,554.573,119.7,399.85,245.128,119.7,399.85,119.7ZM400,349a51,51,0,1,1-51,51A51,51,0,0,1,400,349Z"/>
<path id="circle" class="cls-3" d="M400.15,121C554.872,121,680.3,246.427,680.3,401.15S554.872,681.3,400.15,681.3,120,555.872,120,401.15,245.427,121,400.15,121ZM400,350a51,51,0,1,1-51,51A51,51,0,0,1,400,350Z"/>
<path id="trademark-shadow" class="cls-4" d="M223.655,200.543l35.019,43.423,0.7-.7h0l-35.019-42.723,49.026,30.116,0.7-.7-14.707-56.731,30.116,44.124h0.7l-30.816-44.824-0.7.7,14.708,56.731-49.026-30.116ZM299.3,152.918l-18.91,9.805v1.4L304.2,208.247h1.4l17.51-10.505-0.7-.7L304.9,207.547l-10.506-18.91,16.109-9.1-0.7-.7-16.108,9.105-12.607-24.513,18.21-9.805v-0.7Zm39.921,44.123,0.7-.7,1.4-56.03,28.716,49.726,0.7-.7L341.318,138.91l-0.7.7Zm85.446-9.1,39.921,8.405v-0.7l-3.5-.7-5.6-58.131h-0.7l-26.614,51.127-2.8-.7ZM493.3,153.618H494l-16.809,46.225,46.925-36.42,0.7,0.7L502.4,211.749h-0.7l22.412-47.625-46.925,36.419h-0.7Zm44.824,81.944,32.217-41.322s-4.253-3.5-9.105-7.7c-16.941-14.692-41.073,9.255-24.513,22.412-0.9.5-17.51,9.1-17.51,9.1v0.7l18.21-9.1,11.907,9.805v0.7l-11.907,15.408h0.7ZM396.648,131.906c9.67,0,17.509,12.23,17.509,27.315s-7.839,27.315-17.509,27.315-17.509-12.23-17.509-27.315S386.978,131.906,396.648,131.906Zm0,0.7c9.283,0,16.809,11.915,16.809,26.614s-7.526,26.614-16.809,26.614-16.809-11.915-16.809-26.614S387.365,132.607,396.648,132.607Zm32.217,55.329,25.914-49.726,5.6,56.73Zm140.775,6.3-10.5-8.405c-15.265-11.726-37.5,10.194-21.712,23.113,4.591,3.757,12.607,10.5,12.607,10.5Z"/>
<path id="trademark" class="cls-5" d="M223.655,199.843l35.019,43.423,0.7-.7h0l-35.019-42.723,49.026,30.116,0.7-.7-14.707-56.73,30.116,44.124h0.7l-30.816-44.824-0.7.7,14.708,56.73-49.026-30.116ZM299.3,152.217l-18.91,9.8v1.4L304.2,207.547h1.4l17.51-10.506-0.7-.7-17.509,10.5-10.506-18.91,16.109-9.105-0.7-.7-16.108,9.1-12.607-24.513,18.21-9.805v-0.7Zm39.921,44.124,0.7-.7,1.4-56.03,28.716,49.727,0.7-.7L341.318,138.21l-0.7.7Zm85.446-9.105,39.921,8.4v-0.7l-3.5-.7-5.6-58.131h-0.7l-26.614,51.127-2.8-.7ZM493.3,152.918H494l-16.809,46.224,46.925-36.419,0.7,0.7L502.4,211.049h-0.7l22.412-47.626-46.925,36.42h-0.7Zm44.824,81.943,32.217-41.322s-4.253-3.5-9.105-7.7c-16.941-14.691-41.073,9.256-24.513,22.412-0.9.5-17.51,9.1-17.51,9.1v0.7l18.21-9.1,11.907,9.8v0.7l-11.907,15.408h0.7ZM396.648,131.206c9.67,0,17.509,12.229,17.509,27.315s-7.839,27.314-17.509,27.314-17.509-12.229-17.509-27.314S386.978,131.206,396.648,131.206Zm0,0.7c9.283,0,16.809,11.916,16.809,26.615s-7.526,26.614-16.809,26.614-16.809-11.916-16.809-26.614S387.365,131.906,396.648,131.906Zm32.217,55.33,25.914-49.727,5.6,56.731Zm140.775,6.3-10.5-8.4c-15.265-11.727-37.5,10.194-21.712,23.112,4.591,3.757,12.607,10.506,12.607,10.506Z"/>
<path id="song-shadow" class="cls-6" d="M311.2,247.468a3.5,3.5,0,0,1,3.5,3.5v17.509c0,3.275-3.5,3.5-3.5,3.5a3.5,3.5,0,0,1-3.5-3.5V250.97C307.7,247.7,311.2,247.468,311.2,247.468Zm67.236,25.914V246.067c12.229,0,11.282,12.607,2.179,12.607v0.7C389.74,259.375,391.788,273.382,378.438,273.382Zm-91.048-1.4h0.7V250.97l6.3,14.708,6.3-15.408v22.412h0.7V246.768l-7,16.809-7-16.809v25.213Zm86.146-25.213v-0.7H363.03v25.914h10.506v-0.7H363.73V259.375h7.7v-0.7h-7.7V246.768h9.806Zm18.91,25.914h0.7V247.468h8.4v25.214h0.7V246.768h-9.8v25.914Zm32.917-25.914h7.7v0.7h-3.5v25.214h-0.7V247.468h-3.5v-0.7Zm44.124,0v25.914h0.7v-7.7l7-13.308v21.012h0.7V246.768h-0.7v3.5l-7,13.307V246.768h-0.7Zm-15.408,0v25.914h0.7V259.375C466.862,259.375,466.847,246.768,454.079,246.768ZM491.2,272.682s0.088-25.914,0-25.914c-11.325-.173-13.294,11.643-3.5,13.307-0.274.694-5.6,12.607-5.6,12.607h0.7l5.6-12.607h2.1v12.607h0.7Zm-82.644,0h0.7l1.4-6.3h7.705l1.4,6.3h0.7l-5.6-25.914Zm6.3-23.813-4.2,16.809h7.705Zm-35.719,23.813V246.768c10.026,0,10.264,11.206.679,11.206v2.1C389.889,260.075,389.863,272.682,379.139,272.682Zm65.134-25.214a3.5,3.5,0,0,1,3.5,3.5v17.509c0,3.275-3.5,3.5-3.5,3.5a3.5,3.5,0,0,1-3.5-3.5V250.97C440.772,247.7,444.273,247.468,444.273,247.468Zm0-.7c1.934,0,4.2,1.568,4.2,3.5v18.91c0,3.274-4.2,3.5-4.2,3.5-1.934,0-4.2-1.568-4.2-3.5V250.27C440.071,247,444.273,246.768,444.273,246.768Zm10.506,0.7c10.878,0,11.138,11.206,0,11.206V247.468Zm35.719,0c-10.193-.169-12.139,12.541,0,11.907V247.468ZM330.813,272.682s0.087-25.914,0-25.914c-11.326-.173-13.3,11.643-3.5,13.307-0.274.694-5.6,12.607-5.6,12.607h0.7l5.6-12.607h2.1v12.607h0.7Zm-0.7-25.214c-10.193-.169-12.139,12.541,0,11.907V247.468Zm-18.91-.7c1.934,0,4.2,1.568,4.2,3.5v18.91c0,3.274-4.2,3.5-4.2,3.5-1.934,0-4.2-1.568-4.2-3.5V250.27C307,247,311.2,246.768,311.2,246.768Z"/>
<path id="song" class="cls-5" d="M311.9,246.768a3.5,3.5,0,0,1,3.5,3.5v17.509c0,3.274-3.5,3.5-3.5,3.5a3.5,3.5,0,0,1-3.5-3.5V250.27C308.4,247,311.9,246.768,311.9,246.768Zm67.236,25.914V245.367c12.863,0,11.643,12.607,2.179,12.607v0.7C391.26,258.674,392.442,272.594,379.139,272.682Zm-91.049-1.4h0.7V250.27l6.3,14.708,6.3-15.409v22.412h0.7V246.067l-7,16.809-7-16.809v25.214Zm86.146-25.214v-0.7H363.73v25.914h10.506v-0.7h-9.805V258.674h7.7v-0.7h-7.7V246.067h9.805Zm18.91,25.914h0.7V246.768h8.4v25.213h0.7V246.067h-9.805v25.914Zm32.918-25.914h7.7v0.7h-3.5v25.213h-0.7V246.768h-3.5v-0.7Zm44.123,0v25.914h0.7v-7.7l7-13.307v21.011h0.7V246.067h-0.7v3.5l-7,13.307V246.067h-0.7Zm-15.408,0v25.914h0.7V258.674C467.562,258.674,467.548,246.067,454.779,246.067Zm37.12,25.914s0.087-25.914,0-25.914c-11.326-.173-13.3,11.643-3.5,13.308-0.274.694-5.6,12.606-5.6,12.606h0.7l5.6-12.606h2.1v12.606h0.7Zm-82.644,0h0.7l1.4-6.3h7.7l1.4,6.3h0.7l-5.6-25.914Zm6.3-23.812-4.2,16.809h7.7Zm-35.719,23.812V246.067c9.883,0,10.692,11.206.679,11.206v2.1C390.835,259.375,390.524,271.981,379.839,271.981Zm65.135-25.213a3.5,3.5,0,0,1,3.5,3.5v17.509c0,3.274-3.5,3.5-3.5,3.5a3.5,3.5,0,0,1-3.5-3.5V250.27C441.472,247,444.974,246.768,444.974,246.768Zm0-.7c1.934,0,4.2,1.568,4.2,3.5v18.91c0,3.275-4.2,3.5-4.2,3.5-1.934,0-4.2-1.568-4.2-3.5v-18.91C440.772,246.3,444.974,246.067,444.974,246.067Zm10.5,0.7c10.878,0,11.139,11.206,0,11.206V246.768Zm35.72,0c-10.194-.169-12.14,12.541,0,11.906V246.768ZM331.513,271.981s0.087-25.914,0-25.914c-11.326-.173-13.294,11.643-3.5,13.308-0.273.694-5.6,12.606-5.6,12.606h0.7l5.6-12.606h2.1v12.606h0.7Zm-0.7-25.213c-10.194-.169-12.139,12.541,0,11.906V246.768Zm-18.91-.7c1.934,0,4.2,1.568,4.2,3.5v18.91c0,3.275-4.2,3.5-4.2,3.5-1.934,0-4.2-1.568-4.2-3.5v-18.91C307.7,246.3,311.9,246.067,311.9,246.067Z"/>
<path id="speed-shadow" class="cls-6" d="M183.034,314.7l9.805,14.008,9.1-14.008h-18.91Zm1.4,0.7,8.405,11.907,7.7-11.907H184.434Zm75.641-5.6h0.7v11.206h-0.7V309.8Zm-2.8,23.113v-0.7l17.51-17.509h0.7ZM217.352,314c3.6-11.971,17.018.321,5.6,4.9v1.4c15.769,8.308-2.036,21.442-7,9.1h-0.7c5.049,13.575,24.28-.98,8.4-9.1v-0.7c11.879-7.215-3.754-17.593-7-5.6h0.7Zm54.024,12.92c0.865-4.253,6.494-1.055,2.122,2.049v0.586c5.972,3.472-.784,8.726-2.652,3.8h-0.265c1.931,5.732,9.394-.368,3.182-4.1,4.645-3.192-1.5-7.545-2.652-2.342h0.265ZM239.064,314c3.6-11.971,17.017.321,5.6,4.9v1.4c15.768,8.308-2.036,21.442-7,9.1h-0.7c5.048,13.575,24.279-.98,8.4-9.1v-0.7c11.878-7.215-3.755-17.593-7-5.6h0.7Z"/>
<path id="speed" class="cls-5" d="M183.734,314l9.8,14.007L202.644,314h-18.91Zm1.4,0.7,8.4,11.906,7.7-11.906H185.135Zm75.64-5.6h0.7v11.206h-0.7V309.1Zm-2.8,23.112-0.7-.7,18.21-18.21,0.7,0.7ZM218.052,313.3c2.285-10.175,17.149-2.524,5.6,4.9v1.4c15.769,8.308-2.071,20.877-7,9.1h-0.7c5.1,13.712,24.808-.881,8.405-9.806,12.266-7.637-3.966-18.051-7-5.6h0.7Zm21.712,0c2.284-10.175,17.149-2.524,5.6,4.9v1.4c15.769,8.308-2.071,20.877-7,9.1h-0.7c5.1,13.712,24.808-.881,8.4-9.806,12.266-7.637-3.966-18.051-7-5.6h0.7Zm32.313,12.921c0.865-4.253,6.494-1.055,2.121,2.049v0.586c5.972,3.472-.784,8.725-2.652,3.805h-0.265c1.931,5.731,9.395-.368,3.183-4.1,4.645-3.192-1.5-7.545-2.653-2.342h0.266Z"/>
<path id="logo-shadow" class="cls-6" d="M553.532,334.315v-0.7s32.917,2.786,32.917-4.2c0-8.261-59.531-10.051-59.531-1.4,0,12.359,77.741,15.923,77.741,2.8,0-13.37-93.85-20.846-93.85-3.5,0,6.637,13.26,6.3,16.109,6.3,16.375,0,53.928-53.228,53.928-53.228h0.7s-31.341,48.326-26.614,48.326c2.951,0,31.516-30.817,31.516-30.817h0.7l-37.82,53.229h-0.7L585.049,300s-25.623,29.416-30.817,29.416c-5.894,0,25.914-47.626,25.914-47.626s-35.845,52.529-53.228,52.529c-2.927,0-16.809.291-16.809-7,0-18.112,95.251-10.8,95.251,3.5,0,14.349-79.143,10.3-79.143-2.8,0-9.32,60.933-7.515,60.933,1.4C587.15,337.081,553.532,334.315,553.532,334.315Zm35.719-42.023,4.2-4.2,1.4,2.8-1.4-2.8h0l1.4-4.2-1.4,4.2-4.2-1.4,4.2,1.4Zm-0.7.7,4.9-3.5,2.1,2.8-1.4-3.5,4.9-.7-4.9-.7,1.4-5.6-2.8,5.6-5.6-1.4,4.9,2.1Z"/>
<path id="logo" class="cls-5" d="M554.232,333.614v-0.7s32.918,2.785,32.918-4.2c0-8.262-59.532-10.051-59.532-1.4,0,12.359,77.742,15.923,77.742,2.8,0-13.369-93.851-20.845-93.851-3.5,0,6.637,13.261,6.3,16.109,6.3,16.375,0,53.929-53.229,53.929-53.229h0.7s-31.341,48.326-26.614,48.326c2.951,0,31.517-30.816,31.517-30.816h0.7l-37.82,53.228h-0.7L585.749,299.3s-25.622,29.416-30.816,29.416c-5.895,0,25.913-47.626,25.913-47.626S545,333.614,527.618,333.614c-2.927,0-16.809.291-16.809-7,0-18.111,95.251-10.8,95.251,3.5,0,14.35-79.142,10.3-79.142-2.8,0-9.32,60.932-7.515,60.932,1.4C587.85,336.38,554.232,333.614,554.232,333.614Zm35.719-42.022,4.2-4.2,1.4,2.8-1.4-2.8h0l1.4-4.2-1.4,4.2-4.2-1.4,4.2,1.4Zm-0.7.7,4.9-3.5,2.1,2.8-1.4-3.5,4.9-.7-4.9-.7,1.4-5.6-2.8,5.6-5.6-1.4,4.9,2.1Z"/>
</svg>
