<svg viewBox="0 0 800 800" xmlns="http://www.w3.org/2000/svg"><path d="M400 0c220.914 0 400 179.086 400 400S620.914 800 400 800 0 620.914 0 400 179.086 0 400 0zm0 371a29 29 0 1 1-29 29 29 29 0 0 1 29-29z" fill-rule="evenodd" fill="#f0a5b9"/><path d="M8.5 318.4h783.05l2.2 11.2H6.25zM141 151l51 52 3-3-32-32 55 12-7-50 26 37 7-9-41-59 9 68zm11 6l6 6 56 13-1-5zm57-44l31 45-3 4-27-39zm60-46l2 4-31 16 14 23 26-14 2 4-26 14 14 26 25-13 2 4-36 18-33-60zm-36 24l4-2 30 53-4 2zm82-22l-10 58-4 2 13-82 46 65-12 5zm1-13l38 54-4 3-34-49v-8zm83-15c24.5 0 37 16.25 37 35s-11.75 37-38 37-37.75-20-38-38 14.5-34 39-34zm-34 35c-.25 21.5 20 32 20 32s-14.5-9.5-14-33 11-27 11-27-16.75 6.5-17 28zm51-28s15 10 15 28-15 30-15 30 9-9.7 9-29c0-19.5-9-29-9-29zm-9-2c20.588 10.452 14 56.6 1 62-2.485 1.032-17.215 1.666-19 0-18-16.8-15.4-52.6 1-62 3.242-1.858 12.977-2.043 17 0zm26 62l-1 4 73 19 2-4-7-2-9-75-49 60zm15 3l34-43 5 53zm37-46l4-6 8 65-6-2zm89 48l-25 38 8 7 41-57-67 22 24-45-12-6-31 63zm-29-36l4 3-24 46-6 3zm9 74l25-39 9-4-31 46zm56 50l50-47s-4.856-4.687-25-23c-19.25-17.5-50.25 7-23 29-9.25.5-41 4-41 4l9 11 43-4-22 21zm37-53s-3.218-3.644-14-12c-10-7.75-27.75 11.5-18 22 3.25 3.5 11 11 11 11zm-69 19l37-4 4 4-37 5zm48-36c-11-8.5-29 9.5-17 21-3.942-10.58 8.1-22.627 17-21zm23 20l4 4-43 41-3-3zM210.557 214.415c1.98-2.122 2.591-9.522-4.049-6.752 1.785-2.609-2.607-7.537-6.637-3.192-1.643 1.772-4.879 5.4-4.879 5.4l10.362 10.284s3.446-3.861 5.203-5.74zm-11.976-5.444s1.75-2.023 2.7-2.952c2.1-2.055 4.618.86 2.846 2.875-.882 1-2.705 2.958-2.705 2.958zm4.3 4.367s1.958-2.031 2.856-3.12c2.1-2.547 5.97-.649 2.893 3.044-.887 1.065-2.8 3.064-2.8 3.064l-2.945-2.988zm10.332-12.216c-3.785-4.3.482-9.344 4.043-6.75q1.011-1.124 2.032-2.234c-2.562-2.175-5.614-1.9-8.247.631-3.372 3.244-3.255 7.554-.272 10.86 4.912 5.448 9.3 1.4 10.02.708 2.7-2.6 3.169-5.873 1.586-8.413q-1.168.889-2.331 1.794c2.22 3.282-2.993 7.763-6.827 3.404zm21.14-12.239l-6.183 5.265-2.536-3.241 4.963-4.254-1.277-1.712-5 4.286-2.456-3.14 6.32-5.385-1.3-1.764-8.815 7.6 9.186 11.472 8.453-7.284zm1.012-7.406c-3.341-4.695 1.329-9.157 4.6-6.165q1.1-.986 2.206-1.958c-2.324-2.457-5.354-2.555-8.178-.378-3.617 2.789-3.9 7.049-1.26 10.673.089.123 4.3 6.165 9.8 1.923 2.9-2.235 3.659-5.411 2.334-8.109q-1.233.737-2.46 1.489c2.248 3.248-3.091 8.072-7.038 2.525zm21.48-15.334c-2.169-3.766-6.177-5.106-10.009-2.491a7.584 7.584 0 0 0-2.123 10.736c2.36 3.643 6.312 4.852 9.962 2.357 3.559-2.428 4.459-6.633 2.174-10.602zm-9.34 6.357c-1.965-3.1-1.838-5.452.407-6.987 2.279-1.556 4.377-.473 6.106 2.448 1.065 1.8 1.479 3.251 1.254 4.356a3.96 3.96 0 0 1-1.7 2.583c-2.028 1.391-4.157.62-6.063-2.4zm26.755-7.885c3.788-2.117 4.767-6.494 2.933-10.393-1.957-4.163-5.979-5.432-9.884-3.248a7.4 7.4 0 0 0-3.511 9.192c-.864.515-2.586 1.561-2.586 1.561l-2.874-5.24-2.692 1.668 7.272 12.918 2.554-1.582-3.214-5.859s1.708-1.038 2.565-1.549a6.644 6.644 0 0 0 9.441 2.532zm-.011-8.866c1.451 2.994 1.092 5.794-1.042 6.988-1.921 1.074-4.327.262-5.955-2.863-1.539-2.955-1.239-5.709 1.036-6.981 2.1-1.172 4.412-.344 5.965 2.856zm13.256 1.963c3.544-1.716 4.992-4.492 3.973-6.983-.718-1.757-2.234-2.36-4.548-1.755 1.629-1.368 2.148-2.793 1.528-4.3-.856-2.081-3.645-2.7-7.058-1.043-3.371 1.636-4.714 3.928-4.043 6.755q1.291-.462 2.585-.91c-.38-1.628.536-2.569 2.2-3.8 3.015-2.242 6.331 1.534.751 4.386q.4.9.793 1.8c5.819-3.479 5.569 2.616 2.882 3.919-1.9.92-3.405.63-4.549-.9q-1.154.811-2.3 1.636c1.447 2.355 4.253 2.909 7.79 1.195zm14.322-22.7l-2.881 1.131 2.082 5.771-5.942 2.457-2.209-5.718-2.848 1.239 5.519 13.849 2.7-1.175-2.335-6.044 5.894-2.438 2.2 6.1 2.734-1.073zm10.776-3.9l-3.59 1.241-.513 16.084 2.347-.873.094-3.818 5.977-2.073 2.258 3 2.974-.954zm-1.638 10.337l.283-7.166 4.283 5.581s-3.048 1.042-4.566 1.585zm21.512-.733l2.816-.738-3.386-14.588s-4.8 1.264-7.187 1.947c-5.522 1.579-5.263 8.317-.284 8.677-.539 2.491-1.532 7.472-1.532 7.472l2.8-.853 1.296-6.852s2.673-.752 4.013-1.111a5521.97 5521.97 0 0 0 1.468 6.043zm-1.969-8.1s-2.3.593-3.433.945c-3.986 1.241-5.535-3.15-1.331-4.248 1.242-.324 3.712-1.025 3.712-1.025zm20.022 4.413q1.236-.237 2.475-.463l-.3-1.82c4.482-1.229 6.194-3.865 5.733-7.159-.466-3.323-2.968-5.368-7.719-4.894l-.3-1.811q-1.308.238-2.616.489l.315 1.807c-4.524 1.244-6.305 4.074-5.644 7.392.651 3.273 3.16 5.12 7.738 4.641l.317 1.818zm-.65-3.733c-2.554.1-4.049-.951-4.48-3.226-.5-2.63.587-4.114 3.052-4.976l1.428 8.2zm1.155-8.685c2.641-.091 4.13 1.038 4.472 3.325a4.213 4.213 0 0 1-.514 3.128 5.057 5.057 0 0 1-2.6 1.763l-1.354-8.216zm19.653-1.657l.933 10.482 2.865-.288-1.281-14.955-3.019.3.149 1.507-5.8 9.924-1.187-10.62-3.021.417 1.937 14.876 2.867-.4-.162-1.353zm9.83 3.73c1.36-.094 2.724-.128 4.081-.251 5.642-.508 7.052-9.434-.782-9.034-2.3.118-6.9.469-6.9.469l1.092 14.971 2.881-.216-.371-5.939zm-.426-6.8q1.649-.114 3.3-.208c3.778-.215 4.15 4.18.5 4.477-1.169.095-3.511.22-3.511.22l-.281-4.489zm28.536-2.7l-4.783-.136-3.541 9.624-3.47-9.67-4.761.073.32 15.012 2.358-.046-.169-13.145 4.629 13.117 1.514.008 4.755-13.066-.32 13.142 2.944.093.524-15.006zm11.286.659l-3.739-.271-6.218 14.694 2.462.122 1.45-3.5 6.227.444 1 3.674 3.075.291zm-5.2 8.927l2.819-6.525 1.938 6.864zm20.209 7.844l1.661-12.577 6.014.936.352-2.292-9.082-1.36-1.81 14.9zm11.343-4.153s2.686.51 4.027.782c5.885 1.192 8.087-7.6 1.308-8.969-2.268-.456-6.818-1.28-6.818-1.28l-2.359 14.806 2.85.513 1-5.859zm1.144-6.716q1.629.3 3.254.627c2.967.787 2.162 5.024-.544 4.472-1.153-.231-3.465-.669-3.465-.669l.755-4.43zm18.619 1.847l-3.657-.92-8.468 13.411 2.415.549 1.987-3.2 6.091 1.525.411 3.8 3 .826zm-6.55 7.9l3.818-5.945.835 7.11zm29.941-.683l-4.574-1.6-6.065 8.134-.676-10.32-4.6-1.38-3.83 14.473 2.282.674 3.46-12.639.841 13.973 1.456.47 8.185-11.057-3.931 12.487 2.813.992zm21.865 11.716l-1.093 13.21 2.846 1.408 1.256-15.961-3.572-1.672-10.46 11.65 2.344 1.033zm12.787 3.571l-11.26 10.934 2.255 1.144 2.652-2.616 5.659 3.033-.426 3.81 2.772 1.571 1.744-16.051zm-4.774 7.865c1.67-1.622 5.056-4.828 5.056-4.828l-.733 7.144-4.323-2.316zm13.242 5.339c2.716-4.166 7.547-2.813 7.093 1.906.659.339 1.706.879 2.557 1.327a6.321 6.321 0 0 0-2.886-8.019c-3.808-2.337-8.138.334-9.644 3.147s-1.836 7.327 2.153 10.187c3.052 1.873 6.094 1.318 7.9-1.053q-1.12-.888-2.251-1.763c-2.288 3.236-7.638-1.57-4.922-5.732zm18.294 5.756l3.811 2.7 1.241-1.921-10.556-7.237-1.158 1.978 3.87 2.569-6.5 10.7 2.671 1.831zm12.46 11.906l-6.042 8.4 2.378 1.906 8.659-11.942-2.5-2.008-.863 1.217-10.826 3.028 5.937-8.685-2.572-1.9-8.108 12.367 2.441 1.808.749-1.115zm18.12 9.711L579 186.47l-3.784 4.716-5.071-4.45 3.675-4.811-2.475-2.093-8.815 11.814 2.348 1.986 3.885-5.086 5.031 4.414-4 4.985 2.292 2.088zm8.273 18.4a7.61 7.61 0 0 0-.271-11.045c-3.38-3.364-7.728-2.963-10.47.309-2.773 3.307-2.9 7.686.343 10.911 3.16 3.136 7.305 3.124 10.398-.182zm-8.292-8.282c2.374-2.77 4.576-3.191 6.572-1.208 2.026 2.017 1.563 4.464-.7 6.945-2.789 3.057-4.945 2.74-6.549 1.144-1.809-1.806-1.635-4.199.682-6.888zm18.275 15.569l6.321.008-2.217-2.6-10.086.174 5.373-5.493-2.26-2.459-10.112 10.58 2.144 2.333 2.585-2.643 4.963-.073-2.812 8.069 2.32 2.728zM490.885 149.3l4.241-12.024 5.615 2.254-4.487 11.925 2.709 1.142 5.4-13.911-11.4-4.575-4.821 14.144 2.737 1.045zM259.252 293.61h-4.072l-6.086 15.519h2.822l1.437-3.695h7.054l1.465 3.695h3.528zm-5.079 9.584l2.674-6.923 2.673 6.923h-5.347zm17.979 5.935v-13.245h6.516v13.245h3.306V293.61h-13.127v15.519h3.305zm18.4-6.151h4.582c7.645 0 7.484-9.368-.377-9.368h-7.51v15.519h3.305v-6.151zm0-7.049h3.614c4.628 0 4.648 4.65.3 4.65h-3.91v-4.65zm26.336 10.789h-8.612v-4.342h6.824v-2.251h-6.825v-4.207h8.491v-2.308h-11.8v15.519h11.917v-2.411zm9.085-10.5h.188l4.636 12.915h3.547l-5.791-15.519h-4.192l-5.818 15.519h2.875zm23.166 10.5h-8.613v-4.342h6.826v-2.251h-6.826v-4.207h8.492v-2.308h-11.8v15.519h11.918v-2.411zm12.108 2.411c7.864 0 6.44-7.818 1.746-8.049 3.786-.464 3.775-7.47-2.62-7.47h-7.148v15.519h8.022zm-4.891-13.3h3.964c2.814 0 3.309 4.3.067 4.3h-4.031v-4.3zm0 6.514h4.286c4.731 0 4.192 4.457-.013 4.457h-4.273v-4.457zm17.428-1.023c0-5.478 5.818-7.3 7.645-2.183l3.064-.272c-.627-3.532-3.189-5.492-6.826-5.492-4.639 0-7.456 3.263-7.456 7.993 0 .091-.189 8 7.336 8 3.977 0 6.552-2.235 6.946-5.343l-3.064-.284c-1.253 4.619-7.649 3.503-7.649-2.421zm23.865-2.6l4.353-5.1h-3.346l-7 8.152v-8.162h-3.305v15.519h3.305v-3.923l3.547-3.979 3.87 7.9h3.695zm17.509 2.615a23.133 23.133 0 0 0 2.176-3.081q-.079.75-.08 2.842v8.038h3.292V293.61h-3.296v1.569l-5.4 6.389a19.943 19.943 0 0 0-2.164 3.093q.094-1.286.094-2.342v-8.709h-3.305v15.519h3.305v-1.41zm21.526-3.081l-.08 10.88h3.291V293.61H436.6v1.569l-7.565 9.482.094-11.051h-3.305v15.519h3.305v-1.41zm-3.721-6.094c2.418 0 4.021-1.372 4.111-3.115h-1.76q-.242 1.5-2.284 1.5-2.11 0-2.352-1.5h-1.76c.068 1.875 1.73 3.11 4.041 3.11zm25.908 17.212c4.568 0 7.081-2.148 7.081-4.831q0-2.969-3.856-3.65 3.318-.852 3.318-3.4c0-2.35-2.508-4.116-6.5-4.116q-5.939 0-6.879 4.423l2.929.375q.525-2.547 3.8-2.547c1.934 0 3.251.842 3.251 2.206 0 2.125-4.407 2.251-4.407 2.251v2.046s4.77.069 4.77 2.433c0 1.456-1.075 2.558-3.6 2.558q-3.507 0-4.178-2.944l-3.037.432c.337 2.876 2.897 4.759 7.304 4.759zM478.2 293.61h-4.072l-6.086 15.519h2.822l1.437-3.695h7.054l1.465 3.695h3.533zm-5.079 9.584l2.673-6.923 2.674 6.923h-5.347zm22.695 5.935c5.465 0 7.235-6.182 1.747-8.049 3.562 0 5.692-7.47-2.62-7.47H487.8v15.519h8.021zm-4.891-13.3h3.964c3.755 0 3.9 4.3.067 4.3h-4.031v-4.3zm0 6.514h4.286c3.643 0 3.672 4.457-.013 4.457h-4.273v-4.457zm29.454-.989c0-4.562-2.96-7.981-7.726-7.981a7.605 7.605 0 0 0-7.873 7.947c0 4.548 2.853 8.049 7.726 8.049 4.751-.002 7.877-3.227 7.877-8.017zm-10.944 4.315a7.059 7.059 0 0 1-1.081-4.258q0-5.787 4.246-5.787c2.866 0 4.192 2.145 4.192 5.708q0 3.285-1.236 4.536a4.089 4.089 0 0 1-3.024 1.25 3.633 3.633 0 0 1-3.093-1.451zm12.8 1.051v2.673h16.809v-2.673H537.7l-4.353-13.108h-4.927l-4.837 13.108h-1.344zm7.793-10.5h.994l3.185 10.5H526.4zM126.067 256.567c-.8 0-2.876.275-3.627 1.77 2.62 4.749-4.485 4.769-3 .59-.051.1 1.663-3.921 7.308-3.921 1.448 0 7.22.114 7.22 6.243s-5.243 6.815-5.243 6.815c2.447.4 6.267 1.71 6.267 6.719 0 4.873-4.078 8.2-9.515 8.2A9.232 9.232 0 0 1 118 279c-3.809-5.656 6.874-8.019 4 0 3.283 2.472 9.09 1.339 9.09-4.293 0-6.193-7.167-5.349-7.167-5.349v-2.189s6.143-.226 6.143-5.805c0-3.173-1.451-4.797-3.999-4.797zm31.058.206c1.957-.833 2.108-.621 2.108 2.129v7.731c0 1.635-.51 1.984-2.108 1.984v.662h6.718v-.662c-1.571 0-2.088-.436-2.088-1.984V254.4h-.723l-4.238 1.8zM172 255l-7 27h3l7-27h-3zm-26.933 1.567c-.8 0-2.876.275-3.627 1.77 2.62 4.749-4.485 4.769-3 .59-.051.1 1.663-3.921 7.308-3.921 1.448 0 7.22.114 7.22 6.243s-5.243 6.815-5.243 6.815c2.447.4 6.267 1.71 6.267 6.719 0 4.873-4.078 8.2-9.515 8.2A9.232 9.232 0 0 1 137 279c-3.809-5.656 6.874-8.019 4 0 3.283 2.472 9.09 1.339 9.09-4.293 0-6.193-7.167-5.349-7.167-5.349v-2.189s6.143-.226 6.143-5.805c0-3.173-1.451-4.797-3.999-4.797zm33.927 12.272a2.39 2.39 0 0 0-2.033.949c1.468 2.544-2.513 2.555-1.682.316a4.322 4.322 0 0 1 4.1-2.1c.811 0 4.046.061 4.046 3.345a3.48 3.48 0 0 1-2.942 3.651c1.371.213 3.512.916 3.512 3.6 0 2.611-2.285 4.395-5.332 4.395a5.245 5.245 0 0 1-4.19-2.136c-2.135-3.03 3.852-4.3 2.242 0 1.839 1.324 5.094.718 5.094-2.3 0-3.317-4.017-2.865-4.017-2.865v-1.173s3.443-.121 3.443-3.11c0-1.701-.813-2.572-2.241-2.572zm446.073-12.272c-.8 0-2.876.275-3.627 1.77 2.62 4.749-4.485 4.769-3 .59-.051.1 1.663-3.921 7.308-3.921 1.448 0 7.22.114 7.22 6.243s-5.243 6.815-5.243 6.815c2.447.4 6.267 1.71 6.267 6.719 0 4.873-4.078 8.2-9.515 8.2A9.232 9.232 0 0 1 617 279c-3.809-5.656 6.874-8.019 4 0 3.283 2.472 9.09 1.339 9.09-4.293 0-6.193-7.167-5.349-7.167-5.349v-2.189s6.143-.226 6.143-5.805c0-3.173-1.451-4.797-3.999-4.797zm31.058.206c1.957-.833 2.108-.621 2.108 2.129v7.731c0 1.635-.51 1.984-2.108 1.984v.662h6.718v-.662c-1.571 0-2.088-.436-2.088-1.984V254.4h-.723l-4.238 1.8zM671 255l-7 27h3l7-27h-3zm-26.933 1.567c-.8 0-2.876.275-3.627 1.77 2.62 4.749-4.485 4.769-3 .59-.051.1 1.663-3.921 7.308-3.921 1.448 0 7.22.114 7.22 6.243s-5.243 6.815-5.243 6.815c2.447.4 6.267 1.71 6.267 6.719 0 4.873-4.078 8.2-9.515 8.2A9.232 9.232 0 0 1 636 279c-3.809-5.656 6.874-8.019 4 0 3.283 2.472 9.09 1.339 9.09-4.293 0-6.193-7.167-5.349-7.167-5.349v-2.189s6.143-.226 6.143-5.805c0-3.173-1.451-4.797-3.999-4.797zm33.927 12.272a2.39 2.39 0 0 0-2.033.949c1.468 2.544-2.513 2.555-1.682.316a4.322 4.322 0 0 1 4.1-2.1c.811 0 4.046.061 4.046 3.345a3.48 3.48 0 0 1-2.942 3.651c1.371.213 3.512.916 3.512 3.6 0 2.611-2.285 4.395-5.332 4.395a5.245 5.245 0 0 1-4.19-2.136c-2.135-3.03 3.852-4.3 2.241 0 1.84 1.324 5.095.718 5.095-2.3 0-3.317-4.017-2.865-4.017-2.865v-1.173s3.443-.121 3.443-3.11c0-1.701-.813-2.572-2.241-2.572z" fill-rule="evenodd" fill="#0f0f14"/><path d="M331 257.769c52.726.9 91.241-57.141 98.583-63.538-10.853 11.582-49.44 51.692-40.083 51.692 13.567 0 38.189-16.445 56.333-35.538C427 231.169 378.667 289 378.667 289h9.75s87.488-100.326 91-109.846c-11.173 6.029-79.084 60.307-79.084 60.307s65.914-78.4 71.5-90.461c-25.537 14.438-90.2 110.222-145.166 104.462-4.978-.663-11.917-5.226-11.917-10.77 0-24.846 171.167-21.027 171.167-1.077 0 22.218-153.834 21.007-153.834 0 0-14.839 133.25-11.744 133.25 0 0 14.09-111.583 11.749-111.583 0 0-6.7 88.833-3.877 88.833 0 0 6.9-57.244 4.451-61.75 3.231-.3-.081-1.489.181-1.083 2.154 3.281.911 74.75 5.742 74.75-5.385 0-8.655-110.5-11.319-110.5 0 0 16.651 131.083 17.447 131.083 0 0-16.144-152.75-16.929-152.75 0 0 26.036 172.25 25.566 172.25 0 0-21.956-189.583-27.508-189.583 1.077 0 10.708 16.188 14.919 26 15.077zm144.083-81.846l10.834-6.461 3.25 6.461 2.166-6.461 8.667-2.154-7.583-1.077v-6.462l-7.584 5.385-9.75-1.077 5.417 5.385z" fill="#0f0f14"/></svg>