<?xml version="1.0" encoding="UTF-8"?>
<svg viewBox="0 0 800 800" xmlns="http://www.w3.org/2000/svg">
<defs><style>#background_aqua { fill: #007d75; fill-rule: evenodd;} #trademark, #logo { fill: url(#gold); fill-rule: evenodd;} #factory { fill: url(#gold_s); fill-rule: evenodd; stroke-width: 4px; paint-order: stroke; stroke: #007d75; }</style><linearGradient id="gold" x1="0%" y1="75%" x2="100%" y2="25%"><stop offset="0%" stop-color="#bf8726"/><stop offset="33%" stop-color="#dbac5a"/><stop offset="100%" stop-color="#ce9a40"/></linearGradient><linearGradient id="gold_s" x1="-100%" y1="75%" x2="200%" y2="25%"><stop offset="0%" stop-color="#bf8726"/><stop offset="33%" stop-color="#dbac5a"/><stop offset="100%" stop-color="#ce9a40"/></linearGradient></defs>
<path id="background_aqua" d="M400,0C620.914,0,800,179.086,800,400S620.914,800,400,800,0,620.914,0,400,179.086,0,400,0Zm0,371a29,29,0,1,1-29,29A29,29,0,0,1,400,371Z"/>
<path id="trademark" d="M147.500,307.500 C143.134,303.995 160.466,283.020 172.500,300.500 C186.808,321.283 142.500,354.500 142.500,354.500 C142.500,354.500 153.259,397.856 131.500,396.500 C114.018,395.410 127.830,364.150 137.500,354.500 C117.140,333.817 91.902,299.667 83.500,278.500 C80.268,278.985 56.726,332.777 59.500,351.500 C60.727,359.781 67.595,379.858 81.500,374.500 C98.047,368.124 82.823,350.277 82.500,348.500 C82.177,346.723 92.033,346.648 95.500,353.500 C99.876,362.150 96.810,379.971 77.500,380.500 C51.279,381.218 48.576,338.616 56.500,314.500 C63.730,292.495 85.304,238.960 86.500,238.500 C87.696,238.040 91.791,260.925 106.500,257.500 C112.184,256.177 113.667,242.751 107.500,233.500 C97.475,218.462 103.274,209.196 106.500,202.500 C117.536,179.592 142.500,200.500 142.500,200.500 C142.500,200.500 137.500,166.500 143.500,158.500 C149.500,150.500 158.500,154.500 158.500,154.500 C158.500,154.500 152.738,150.047 152.500,148.500 C152.262,146.953 159.429,140.381 160.500,140.500 C161.571,140.619 185.137,165.408 188.500,166.500 C197.665,169.476 190.129,149.558 191.500,148.500 C193.553,146.916 207.738,161.142 203.500,145.500 C199.818,131.910 187.381,119.690 187.500,118.500 C187.619,117.310 195.905,111.262 196.500,111.500 C197.095,111.738 212.630,135.655 214.500,138.500 C216.370,141.345 222.500,141.500 222.500,136.500 C222.500,131.500 222.976,120.571 222.500,119.500 C222.024,118.429 211.606,102.557 211.500,101.500 C211.394,100.443 219.866,94.183 220.500,94.500 C221.134,94.817 239.455,124.086 240.500,125.500 C242.297,127.931 243.423,127.696 243.500,125.500 C243.712,119.483 246.500,95.500 246.500,95.500 C246.500,95.500 240.655,84.738 240.500,83.500 C240.345,82.262 249.381,77.802 250.500,78.500 C251.240,78.962 258.500,92.500 258.500,92.500 C258.500,92.500 262.280,71.017 270.500,68.500 C279.699,65.683 287.870,88.312 290.500,94.500 C293.130,100.688 299.968,101.978 301.500,92.500 C302.488,86.390 303.096,87.096 306.500,90.500 C310.050,94.050 313.000,99.500 315.500,86.500 C318.000,73.500 320.572,56.666 321.500,54.500 C322.428,52.334 330.726,51.798 331.500,53.500 C332.274,55.202 337.901,80.736 338.500,83.500 C340.809,94.164 349.570,78.388 349.500,77.500 C348.604,66.144 356.520,47.526 365.500,46.500 C375.137,45.399 379.500,52.500 379.500,52.500 C379.500,52.500 378.417,47.583 379.500,46.500 C380.583,45.417 391.345,45.489 391.500,47.500 C391.655,49.511 392.564,74.585 392.500,77.500 C392.143,93.769 404.161,73.802 404.500,72.500 C408.450,57.326 420.000,44.000 433.500,47.500 C447.000,51.000 443.202,68.572 441.500,69.500 C439.798,70.428 433.119,66.583 432.500,65.500 C431.881,64.417 437.475,56.145 430.500,53.500 C420.179,49.586 410.464,77.982 425.500,84.500 C432.595,87.576 452.500,67.500 452.500,67.500 C452.500,67.500 455.798,52.274 457.500,51.500 C459.202,50.726 466.881,52.572 467.500,53.500 C468.119,54.428 464.500,71.500 464.500,71.500 C464.500,71.500 479.249,53.809 487.500,56.500 C496.435,59.414 491.500,77.500 491.500,77.500 C491.500,77.500 505.691,61.928 517.500,66.500 C524.612,69.253 519.287,88.210 515.500,95.500 C505.134,115.457 534.157,99.021 536.500,97.500 C538.092,96.466 545.417,80.119 546.500,79.500 C547.583,78.881 556.191,81.953 556.500,83.500 C556.809,85.047 548.500,99.500 548.500,99.500 C548.500,99.500 565.736,88.820 577.500,94.500 C585.873,98.542 576.500,112.500 576.500,112.500 C576.500,112.500 591.939,101.289 601.500,108.500 C616.194,119.583 586.318,143.030 589.500,147.500 C590.538,148.959 619.500,140.500 619.500,140.500 C619.500,140.500 633.012,133.074 643.500,142.500 C666.705,163.355 642.500,180.500 642.500,180.500 L669.500,183.500 C669.591,183.576 693.459,185.209 695.500,206.500 C696.531,217.261 679.982,227.888 656.500,208.500 C646.284,224.942 694.500,230.500 694.500,230.500 C694.500,230.500 713.594,226.734 720.500,244.500 C726.343,259.532 707.583,265.583 706.500,264.500 C705.417,263.417 703.726,252.892 704.500,251.500 C705.274,250.108 718.597,252.825 713.500,242.500 C710.896,237.226 678.846,248.312 683.500,260.500 C686.836,269.235 725.500,278.500 725.500,278.500 C725.500,278.500 731.108,275.036 732.500,275.500 C733.892,275.964 736.119,285.262 735.500,286.500 C734.881,287.738 723.500,291.500 723.500,291.500 C723.500,291.500 741.881,294.870 744.500,304.500 C746.410,311.525 735.500,318.500 735.500,318.500 C735.500,318.500 758.088,328.455 754.500,335.500 C740.910,362.184 694.197,351.702 673.500,367.500 C683.466,374.735 679.765,395.500 668.500,395.500 C646.951,395.500 661.248,362.694 665.500,360.500 C655.453,347.203 634.876,323.745 632.500,304.500 C630.642,289.451 639.326,277.531 652.684,280.997 C673.205,286.323 661.889,308.210 660.500,306.500 C659.111,304.790 657.207,300.601 650.500,300.500 C644.316,300.407 643.139,311.155 647.500,320.500 C658.763,344.636 665.921,347.568 669.500,356.500 C677.553,348.287 704.220,346.772 728.500,341.500 C749.038,332.911 744.489,323.715 721.500,323.500 C720.086,323.487 708.174,328.377 706.500,327.500 C704.826,326.623 701.341,319.095 701.500,317.500 C701.659,315.905 716.844,311.013 725.500,308.500 C743.249,303.347 732.079,295.472 713.500,296.500 C712.285,296.567 699.015,302.377 697.500,301.500 C695.985,300.623 692.420,292.935 692.500,291.500 C692.580,290.065 718.500,281.500 718.500,281.500 C718.500,281.500 674.659,274.188 674.500,252.500 C674.420,241.576 687.500,234.500 687.500,234.500 C687.500,234.500 644.816,229.991 644.500,207.500 C644.316,194.448 654.770,189.743 655.500,189.500 C654.489,188.949 645.062,186.642 635.500,185.500 C622.840,187.152 610.821,183.352 608.500,168.500 C606.798,170.202 595.230,182.770 594.500,183.500 C593.770,184.230 597.581,185.446 597.500,186.500 C597.419,187.554 595.473,190.500 594.500,190.500 C593.527,190.500 579.014,179.716 579.500,178.500 C579.986,177.284 581.527,174.419 582.500,174.500 C583.473,174.581 585.851,177.986 586.500,177.500 C587.149,177.014 611.500,148.500 611.500,148.500 C611.500,148.500 588.570,157.075 580.500,151.500 C571.511,145.290 585.858,130.398 589.500,125.500 C602.081,108.581 587.361,111.009 572.500,119.500 C571.467,120.090 562.203,136.662 560.500,136.500 C558.797,136.338 552.419,133.770 552.500,131.500 C552.581,129.230 562.437,113.961 566.500,107.500 C572.932,97.270 561.989,94.988 544.500,108.500 C543.618,109.181 538.040,123.176 536.500,123.500 C534.960,123.824 526.500,120.959 526.500,119.500 C526.500,118.041 533.500,103.500 533.500,103.500 C533.500,103.500 518.324,115.851 506.500,111.500 C498.305,108.484 505.274,89.382 508.500,83.500 C514.013,73.446 509.499,64.547 490.500,83.500 C489.227,84.770 484.635,102.014 483.500,102.500 C482.365,102.986 474.905,100.473 474.500,99.500 C474.095,98.527 479.664,79.880 482.500,72.500 C487.189,60.297 473.325,63.555 463.500,77.500 C463.011,78.194 460.716,96.176 459.500,96.500 C458.284,96.824 448.986,97.284 448.500,95.500 C448.014,93.716 452.500,71.500 452.500,71.500 C452.500,71.500 436.000,93.486 420.500,92.500 C408.015,91.705 405.500,78.500 405.500,78.500 C405.500,78.500 397.500,91.500 391.500,91.500 C385.500,91.500 381.500,83.500 381.500,83.500 C381.500,83.500 376.005,93.100 367.500,93.500 C358.595,93.919 352.500,83.500 352.500,83.500 C352.500,83.500 344.017,97.500 334.500,97.500 C327.917,97.500 324.500,66.500 324.500,66.500 C324.500,66.500 322.811,103.230 313.500,104.500 C304.848,105.680 302.500,99.500 302.500,99.500 C302.500,99.500 300.650,108.801 291.500,110.500 C287.346,111.271 277.567,95.856 276.500,88.500 C274.568,75.176 263.014,74.562 262.500,98.500 C262.445,101.045 271.257,115.878 271.500,117.500 C271.743,119.122 262.473,125.230 261.500,124.500 C260.527,123.770 250.500,103.500 250.500,103.500 C250.500,103.500 251.216,130.784 241.500,136.500 C235.375,140.103 227.500,126.500 227.500,126.500 C227.500,126.500 230.230,143.541 221.500,149.500 C215.944,153.293 208.500,146.500 208.500,146.500 C208.500,146.500 211.887,157.460 206.500,162.500 C202.919,165.850 196.500,162.500 196.500,162.500 C196.500,162.500 195.793,173.295 191.500,176.500 C187.937,179.160 181.500,176.500 181.500,176.500 C181.500,176.500 182.843,184.333 177.500,189.500 C165.608,201.000 153.878,195.743 146.500,186.500 C145.689,188.203 147.500,207.500 147.500,207.500 C147.500,207.500 152.540,222.257 147.500,229.500 C143.030,235.924 136.500,237.500 136.500,237.500 C136.500,237.500 152.446,248.932 153.500,249.500 C154.554,250.068 155.203,246.743 156.500,246.500 C157.797,246.257 160.257,247.203 160.500,248.500 C160.743,249.797 149.878,266.257 148.500,266.500 C147.122,266.743 145.662,264.878 145.500,263.500 C145.338,262.122 147.473,260.149 146.500,259.500 C145.582,258.888 115.500,238.500 115.500,238.500 C115.500,238.500 119.222,248.822 114.500,256.500 C109.500,264.631 101.756,267.546 88.500,254.500 C88.290,257.235 86.894,266.753 84.500,270.500 C96.915,283.546 139.977,334.097 141.500,350.500 C169.561,318.068 162.305,304.707 153.500,303.500 C150.092,303.033 147.809,307.748 147.500,307.500 ZM138.500,362.500 C140.487,362.500 145.217,390.762 133.500,390.500 C121.783,390.238 136.513,362.500 138.500,362.500 ZM669.500,368.500 C671.128,368.862 679.164,389.632 668.500,388.500 C656.997,387.279 667.872,368.138 669.500,368.500 ZM659.500,203.500 C664.915,193.908 682.037,188.302 686.500,199.500 C691.193,211.275 668.318,212.937 659.500,203.500 ZM617.500,174.500 C611.582,169.007 612.546,162.304 619.500,155.500 C628.074,147.110 635.977,141.902 641.500,147.500 C646.084,152.147 643.650,160.760 636.500,168.500 C629.185,176.419 621.841,178.529 617.500,174.500 ZM370.500,86.500 C374.102,86.308 380.362,81.519 380.500,74.500 C380.606,69.121 380.597,59.635 380.500,59.500 C377.607,55.464 375.168,52.779 370.500,52.500 C365.832,52.221 362.975,60.453 362.500,67.500 C362.025,74.547 364.182,86.838 370.500,86.500 ZM162.500,158.500 C164.246,159.973 172.476,169.320 175.500,172.500 C178.838,176.010 177.122,182.615 174.500,185.500 C170.099,190.344 163.228,184.449 155.500,176.500 C147.772,168.551 146.972,162.093 150.500,159.500 C153.486,157.305 159.934,156.334 162.500,158.500 ZM109.500,207.500 C112.786,203.124 119.086,201.348 129.500,208.500 C138.253,214.511 144.564,223.195 140.500,229.500 C136.336,235.960 126.625,231.006 116.500,223.500 C107.716,216.988 106.143,211.970 109.500,207.500 Z"/>
<path id="logo" d="M372.500,267.500 C380.639,265.501 386.727,265.079 386.500,264.500 C385.885,262.935 377.570,257.949 371.500,254.500 C370.651,257.203 371.043,267.858 372.500,267.500 ZM382.029,180.358 C375.744,178.696 370.112,177.071 365.500,175.500 C310.667,156.821 271.500,140.928 271.500,142.500 C271.500,148.747 350.513,177.706 386.500,192.500 C384.591,194.548 376.311,205.007 370.064,212.745 C360.208,212.783 351.302,211.855 348.500,211.500 C334.094,209.675 227.500,180.500 227.500,183.500 C227.500,185.375 287.035,204.439 308.500,211.500 C314.242,213.389 333.500,223.375 333.500,224.500 C333.500,227.500 213.500,230.241 213.500,232.500 C213.500,234.759 324.756,238.676 334.500,241.500 C338.355,242.617 348.748,245.809 357.500,250.500 C356.279,251.952 356.834,267.224 358.500,269.500 C324.619,273.616 271.230,278.670 264.500,279.500 C254.451,280.739 223.546,282.671 223.500,283.500 C223.359,286.042 346.118,281.500 362.500,281.500 C363.207,283.384 369.852,307.500 405.500,307.500 C405.679,307.500 408.098,327.902 402.500,333.500 C393.002,342.998 386.500,332.983 386.500,328.500 C386.500,322.069 373.500,322.267 373.500,329.500 C373.500,337.335 377.769,347.500 391.500,347.500 C422.551,347.500 412.494,307.500 414.500,307.500 C429.962,307.500 441.760,294.902 445.500,290.500 C446.143,289.744 464.495,294.024 486.500,292.500 C509.858,290.882 523.603,278.818 526.500,278.500 C541.536,276.851 541.006,272.067 547.500,271.500 C556.865,270.682 560.606,266.455 560.500,265.500 C560.394,264.545 547.205,259.448 546.500,256.500 C543.774,245.104 536.199,236.845 524.071,231.819 C512.062,226.842 502.000,237.500 494.500,236.500 C487.000,235.500 475.323,233.030 475.500,228.500 C475.740,222.358 485.921,223.406 486.500,211.500 C486.864,204.025 439.725,194.316 401.293,185.153 C399.193,184.653 441.269,108.759 403.500,104.500 C363.193,99.955 382.950,180.602 382.029,180.358 ZM392.052,182.913 C391.144,182.752 389.500,182.277 388.521,181.941 C387.543,181.604 374.934,103.394 402.500,110.500 C432.664,118.275 394.534,183.354 392.052,182.913 ZM395.500,206.500 C398.252,204.991 403.298,201.204 403.500,200.500 C403.707,199.781 398.266,198.517 392.500,195.500 C392.461,198.849 394.262,207.178 395.500,206.500 ZM537.500,272.500 C534.315,270.007 526.661,270.693 525.500,271.500 C519.576,275.617 513.380,272.733 506.500,267.500 C504.932,266.307 486.844,271.723 471.747,267.548 C467.410,266.349 459.706,264.709 459.500,265.500 C458.315,270.057 455.011,275.993 449.500,283.500 C462.841,289.280 476.703,287.698 488.500,286.500 C498.660,285.468 509.678,282.757 520.500,275.500 C528.519,270.123 535.202,275.837 537.500,272.500 ZM518.500,257.500 C515.776,257.772 515.869,263.113 520.500,263.500 C525.371,263.907 525.441,260.447 524.500,259.500 C524.688,261.313 522.687,262.219 520.500,261.500 C518.313,260.781 518.239,259.368 518.500,257.500 ZM398.500,243.500 C394.823,241.937 392.152,214.396 422.500,223.500 C447.476,230.992 443.962,261.178 437.500,271.500 C434.850,275.734 442.968,277.762 442.500,278.500 C453.330,261.214 464.072,229.645 428.500,214.500 C393.472,199.586 379.345,245.188 398.500,243.500 ZM375.500,281.500 C381.233,294.049 394.999,299.500 405.500,299.500 C407.333,299.500 404.833,284.333 404.500,283.500 C404.167,282.667 375.337,281.143 375.500,281.500 ZM413.500,283.500 C413.232,283.377 414.500,297.830 414.500,299.500 C414.500,301.170 431.377,295.778 435.500,288.500 C434.241,287.716 427.752,284.961 426.500,283.500 C425.630,282.485 414.359,283.893 413.500,283.500 ZM389.500,201.500 C389.500,201.500 391.054,209.458 391.500,210.500 C388.970,211.542 383.104,215.104 380.500,212.500 C380.277,212.054 389.500,201.500 389.500,201.500 ZM372.500,245.500 C373.068,244.256 384.132,248.921 386.500,247.500 C386.947,247.232 381.305,256.215 380.500,255.500 C379.695,254.785 373.856,251.828 372.500,250.500 C371.526,249.545 371.828,246.973 372.500,245.500 Z"/>
<path id="factory" d="M512.117,196.346 C511.816,197.410 497.030,206.650 496.500,206.500 C495.665,206.264 498.004,209.532 498.500,210.500 C498.796,211.078 495.052,213.405 494.500,212.500 C494.440,212.402 494.066,211.727 493.501,210.714 C492.647,209.184 494.807,208.976 494.500,208.500 C494.225,208.073 490.958,199.698 490.500,199.500 C490.171,199.358 487.664,200.630 487.336,200.052 C486.525,198.621 485.782,197.669 485.500,197.500 C484.665,197.001 487.945,195.736 489.500,195.500 C490.211,195.392 490.859,196.976 491.014,197.547 C490.975,197.580 490.954,197.611 490.967,197.637 C491.063,197.832 491.070,197.755 491.014,197.547 C492.011,196.688 509.594,193.524 510.737,193.877 C511.947,194.251 512.418,195.282 512.117,196.346 ZM493.500,200.500 C493.919,201.249 495.260,203.079 495.500,203.500 C495.595,203.667 506.498,197.899 506.245,197.441 C505.781,196.601 493.382,200.289 493.500,200.500 ZM498.690,191.290 C494.032,193.854 487.160,194.372 485.641,189.640 C484.264,185.349 487.956,182.151 492.511,180.163 C496.898,178.248 501.600,177.972 503.637,181.264 C506.129,185.290 502.468,189.211 498.690,191.290 ZM499.928,183.323 C498.845,181.212 495.230,181.891 492.648,183.322 C490.065,184.754 487.802,186.543 489.075,188.542 C490.224,190.343 494.539,190.713 496.081,189.504 C497.622,188.295 501.051,185.514 499.928,183.323 ZM492.889,174.798 C490.186,176.547 488.466,175.441 488.466,175.441 C488.466,175.441 489.899,179.005 485.340,181.520 C481.162,183.823 474.934,175.601 475.226,174.782 C475.485,174.054 490.105,163.176 490.601,163.500 C491.098,163.825 493.232,167.264 493.724,168.033 C494.434,169.142 495.592,173.049 492.889,174.798 ZM483.673,172.682 C483.131,172.487 479.475,176.298 479.491,176.321 C480.165,177.292 482.140,178.462 484.080,176.947 C486.021,175.432 484.216,172.878 483.673,172.682 ZM490.432,168.600 C489.910,168.353 485.900,171.793 485.914,171.817 C486.492,172.848 488.346,174.201 490.425,172.880 C492.505,171.559 490.953,168.846 490.432,168.600 ZM472.624,172.603 C471.759,172.664 469.496,170.907 469.419,169.822 C469.343,168.737 471.182,167.936 471.203,166.688 C471.212,166.133 470.576,165.317 469.284,165.065 C468.329,164.878 467.309,168.177 465.988,167.345 C465.158,166.821 463.599,164.824 463.011,164.261 C462.448,163.721 479.090,154.070 480.331,154.013 C481.596,153.954 482.389,154.763 482.467,155.866 C482.545,156.970 473.173,172.564 472.624,172.603 ZM475.120,162.607 C475.267,162.732 477.709,159.235 477.316,158.890 C476.594,158.257 472.872,160.646 473.055,160.804 C473.703,161.367 474.752,162.293 475.120,162.607 ZM466.500,153.500 C467.114,159.999 460.195,162.477 456.500,159.500 C454.390,157.801 454.990,153.502 456.500,153.500 C458.010,153.498 457.051,155.354 458.500,156.500 C460.763,158.290 464.696,156.520 461.500,152.500 C460.820,151.645 461.864,150.376 462.500,150.500 C465.388,152.786 469.884,149.403 466.500,146.500 C464.623,144.890 461.947,148.085 461.500,146.500 C460.347,142.409 466.320,142.414 468.500,144.500 C472.748,148.564 470.441,152.732 466.500,153.500 ZM463.500,337.500 C459.752,340.003 455.663,337.333 452.500,333.500 C449.453,329.808 447.895,325.363 450.500,322.500 C453.686,318.997 458.462,321.439 461.500,324.500 C465.246,328.274 467.632,334.740 463.500,337.500 ZM460.500,327.500 C458.914,326.350 455.298,323.818 453.500,325.500 C451.767,327.121 453.414,330.410 455.500,332.500 C457.586,334.590 459.929,336.274 461.500,334.500 C462.917,332.901 462.086,328.650 460.500,327.500 ZM442.500,150.500 C441.599,150.631 440.061,149.593 439.217,148.986 C438.973,148.810 442.542,141.532 442.500,141.500 C441.973,141.095 437.572,146.714 436.500,147.500 C436.184,147.732 432.950,146.549 433.010,146.077 C433.092,145.443 437.594,131.127 438.500,130.500 C438.760,130.320 441.465,130.839 441.460,131.531 C441.451,132.942 438.968,138.138 439.180,138.630 C439.383,139.103 445.983,133.378 446.500,133.500 C447.106,133.643 449.566,135.119 449.500,135.500 C449.350,136.362 443.288,150.385 442.500,150.500 ZM445.908,129.467 C445.190,129.435 444.538,128.732 444.498,128.039 C444.458,127.353 445.474,126.506 445.973,126.537 C446.865,126.592 447.669,127.243 447.514,128.014 C447.370,128.729 446.851,129.510 445.908,129.467 ZM429.281,352.880 C428.017,351.715 423.393,338.980 423.500,338.500 C423.626,337.932 424.850,337.356 425.500,337.500 C426.150,337.644 432.005,350.562 431.500,351.500 C430.995,352.438 430.210,353.735 429.281,352.880 ZM425.500,143.500 C425.234,142.186 426.817,136.921 426.500,136.500 C426.195,136.095 421.065,142.523 420.500,142.500 C419.838,142.472 417.505,141.866 417.500,141.500 C417.488,140.672 420.245,126.226 421.047,125.982 C421.964,125.704 423.437,126.453 424.439,126.872 C424.728,126.993 422.789,133.364 422.840,133.387 C423.471,133.672 427.832,128.708 428.800,127.790 C429.085,127.520 431.471,128.051 431.500,128.500 C431.539,129.105 429.326,143.759 428.500,144.500 C428.263,144.713 425.631,144.145 425.500,143.500 ZM409.500,140.500 C408.807,139.006 404.796,133.929 404.500,134.500 C404.238,135.008 405.524,139.973 404.500,140.500 C403.476,141.027 401.703,140.973 401.500,140.500 C401.297,140.027 401.378,123.304 401.500,122.500 C401.544,122.208 404.377,122.096 404.500,122.500 C404.897,123.798 405.364,129.035 405.395,129.013 C405.902,128.661 409.544,123.652 410.500,122.500 C410.913,122.002 413.097,122.609 413.390,123.140 C414.019,124.281 409.122,131.694 408.500,132.500 C409.343,133.450 412.840,138.826 413.500,140.500 C413.720,141.058 409.592,140.699 409.500,140.500 ZM394.500,139.500 C391.119,140.826 386.883,138.459 385.500,134.500 C381.356,122.634 391.420,122.283 392.500,122.500 C394.166,122.834 394.350,125.355 393.500,125.500 C392.772,125.624 387.640,124.258 388.500,131.500 C389.268,137.965 393.786,135.344 394.500,135.500 C395.130,135.637 396.727,138.627 394.500,139.500 ZM370.030,144.544 C369.381,144.124 362.150,127.398 362.580,126.989 C363.010,126.580 366.847,125.293 367.709,124.990 C368.951,124.554 373.019,124.324 374.101,127.356 C375.182,130.389 373.711,131.808 373.711,131.808 C373.711,131.808 377.509,131.232 378.910,136.247 C380.193,140.842 370.760,145.016 370.030,144.544 ZM371.669,129.314 C370.860,126.986 367.864,127.874 367.504,128.325 C367.144,128.776 369.572,133.468 369.598,133.461 C370.734,133.134 372.477,131.641 371.669,129.314 ZM374.170,136.423 C373.141,134.186 370.241,135.357 369.926,135.840 C369.611,136.323 372.481,140.756 372.507,140.746 C373.607,140.312 375.199,138.660 374.170,136.423 ZM358.500,331.500 C357.952,331.733 354.626,330.334 354.500,330.500 C354.087,331.043 349.251,342.564 348.500,343.500 C348.252,343.809 345.336,342.808 345.500,342.500 C345.906,341.739 351.484,329.926 351.500,329.500 C351.527,328.784 348.938,327.048 348.500,326.500 C348.062,325.952 349.106,324.288 349.500,324.500 C349.885,324.707 358.796,329.090 359.500,329.500 C360.048,329.819 358.759,331.390 358.500,331.500 ZM356.500,148.500 C352.103,150.559 349.772,148.323 347.351,144.754 C344.367,140.353 343.215,133.558 347.787,131.608 C351.932,129.840 355.458,133.220 357.859,137.571 C360.171,141.762 360.005,146.859 356.500,148.500 ZM354.726,138.000 C353.061,135.561 351.423,133.915 349.198,134.926 C347.253,135.810 347.905,140.296 348.888,141.990 C349.970,143.855 353.149,146.249 355.399,145.249 C357.666,144.240 356.390,140.439 354.726,138.000 ZM346.348,153.268 C346.837,153.616 344.297,155.199 344.112,155.083 C342.716,154.208 336.436,151.860 336.500,152.500 C336.557,153.069 340.071,156.500 339.500,157.500 C338.929,158.500 336.929,159.786 336.500,159.500 C336.071,159.214 326.984,145.292 326.500,144.500 C325.899,143.517 328.479,142.382 329.339,143.048 C330.817,144.193 333.486,148.535 333.500,148.500 C333.732,147.929 334.327,140.987 334.500,139.500 C334.575,138.857 336.463,138.932 336.998,139.217 C338.148,139.830 337.581,146.486 337.500,147.500 C338.725,147.836 344.882,152.225 346.348,153.268 ZM327.325,159.908 C327.968,159.858 332.640,162.397 331.500,164.500 C329.770,167.693 325.362,171.049 318.500,166.500 C308.024,159.555 316.921,151.601 317.887,151.071 C319.376,150.253 322.057,153.841 321.500,154.500 C321.023,155.064 315.411,158.486 321.500,162.500 C325.968,165.445 326.347,159.984 327.325,159.908 ZM318.488,179.460 C316.552,183.781 311.253,182.949 307.413,180.987 C302.677,178.568 298.395,173.168 301.461,169.258 C304.242,165.711 308.960,166.975 313.160,169.631 C317.205,172.189 320.071,175.928 318.488,179.460 ZM310.621,171.516 C307.988,170.180 305.237,169.310 304.296,171.485 C303.449,173.446 305.562,177.227 307.428,177.825 C309.294,178.423 313.519,179.703 314.703,177.544 C315.844,175.464 313.254,172.852 310.621,171.516 ZM311.044,189.002 C310.354,189.948 310.129,191.489 309.531,192.275 C309.164,192.757 303.085,188.935 302.751,189.391 C302.505,189.727 302.340,189.995 302.152,190.391 C302.105,190.488 305.988,193.638 305.733,193.880 C305.242,194.346 304.962,194.887 304.899,195.022 C304.682,195.492 299.763,193.741 299.626,193.888 C299.441,194.088 299.116,194.481 299.042,194.638 C298.783,195.186 304.615,198.532 304.528,199.129 C304.383,200.122 303.495,201.743 303.015,202.401 C302.767,202.740 287.999,191.790 288.165,191.562 C288.301,191.376 288.906,190.274 289.671,188.864 C289.853,188.528 293.743,190.011 293.939,189.648 C294.159,189.241 294.546,188.925 294.773,188.506 C295.189,187.738 291.916,184.749 292.128,184.334 C292.843,182.938 293.496,181.860 293.693,181.590 C293.931,181.265 311.283,188.675 311.044,189.002 ZM304.500,285.500 C304.894,285.977 310.303,292.911 310.609,293.509 C310.792,293.867 296.364,306.014 296.172,305.657 C295.740,304.851 295.390,303.885 294.925,303.107 C294.613,302.588 306.500,293.500 306.500,293.500 C306.413,293.435 304.445,290.632 304.032,290.023 C303.804,289.686 292.183,300.436 291.642,299.940 C290.902,299.262 289.871,298.225 289.500,297.500 C289.309,297.126 304.320,285.282 304.500,285.500 ZM316.500,300.500 C317.766,300.531 318.500,301.394 318.500,302.500 C318.500,303.606 308.051,318.500 307.500,318.500 C306.633,318.500 304.500,316.588 304.500,315.500 C304.500,314.412 306.391,313.743 306.500,312.500 C306.548,311.947 305.972,311.087 304.700,310.745 C303.761,310.492 302.511,313.710 301.252,312.786 C300.461,312.206 299.046,310.104 298.500,309.500 C297.977,308.922 315.258,300.470 316.500,300.500 ZM310.696,308.706 C310.833,308.840 313.516,305.524 313.148,305.152 C312.473,304.470 308.592,306.590 308.763,306.761 C309.370,307.368 310.350,308.366 310.696,308.706 ZM323.500,307.500 C323.663,307.663 324.658,308.431 325.933,309.404 C326.237,309.636 324.172,313.250 324.500,313.500 C324.868,313.780 325.121,314.211 325.500,314.500 C326.195,315.029 329.653,312.257 330.030,312.530 C331.299,313.452 332.264,314.264 332.500,314.500 C332.784,314.784 322.787,330.787 322.500,330.500 C321.672,329.672 320.184,329.213 319.500,328.500 C319.081,328.063 323.794,322.646 323.396,322.246 C323.101,321.951 322.861,321.747 322.500,321.500 C322.411,321.439 318.700,324.790 318.500,324.500 C318.115,323.943 317.624,323.583 317.500,323.500 C317.070,323.213 319.559,318.622 319.434,318.465 C319.265,318.252 318.927,317.870 318.783,317.772 C318.281,317.431 314.076,322.678 313.500,322.500 C312.541,322.203 311.076,321.076 310.500,320.500 C310.203,320.203 323.300,307.300 323.500,307.500 ZM332.500,326.500 C332.500,326.500 329.693,323.540 333.500,319.500 C336.989,315.798 346.500,321.602 346.500,322.500 C346.500,323.299 338.136,338.641 337.500,338.500 C336.864,338.359 334.254,336.140 334.271,335.908 C334.317,335.314 335.674,332.658 336.206,331.759 C336.480,331.295 334.065,330.217 333.500,330.500 C332.935,330.783 331.277,334.500 330.500,334.500 C329.723,334.500 327.924,332.924 327.500,332.500 C327.076,332.076 332.500,326.500 332.500,326.500 ZM338.500,327.500 C339.136,327.500 341.525,322.517 341.500,322.500 C340.440,321.793 337.956,321.348 336.500,323.500 C335.044,325.652 337.864,327.500 338.500,327.500 ZM363.500,331.500 C363.778,331.345 366.515,331.842 366.500,332.500 C366.469,333.840 363.284,339.020 363.500,339.500 C363.708,339.963 369.084,333.884 369.500,333.500 C369.861,333.167 372.625,334.123 372.500,334.500 C372.271,335.189 366.617,349.430 366.500,349.500 C366.288,349.627 363.640,349.080 362.500,348.500 C362.221,348.358 365.907,342.976 365.500,342.500 C365.092,342.022 360.263,346.663 358.929,347.058 C358.552,347.169 355.564,345.946 355.500,345.500 C355.449,345.143 362.531,332.040 363.500,331.500 ZM437.500,330.500 C439.467,329.216 442.319,328.811 446.500,333.500 C450.681,338.189 451.539,343.993 449.500,345.500 C445.406,348.526 440.746,348.002 440.500,347.500 C440.171,346.828 440.002,345.828 440.500,345.500 C441.004,345.168 449.861,345.336 446.500,339.500 C445.225,342.962 439.188,342.087 436.500,338.500 C435.017,336.521 435.322,331.922 437.500,330.500 ZM439.025,336.806 C439.395,337.944 442.353,338.358 443.500,337.500 C444.621,336.661 443.763,334.290 442.718,333.233 C441.634,332.137 440.228,331.880 439.146,332.810 C437.680,334.070 438.791,336.089 439.025,336.806 ZM469.773,308.407 C470.227,308.481 471.875,310.000 471.500,310.500 C471.125,311.000 467.938,314.062 467.500,314.500 C467.063,314.937 469.000,316.875 469.500,316.500 C470.000,316.125 474.977,311.021 480.500,316.500 C486.023,321.979 477.249,327.955 476.067,328.057 C473.916,328.241 471.718,326.085 471.410,325.048 C471.150,324.175 471.875,323.500 472.500,323.500 C473.125,323.500 474.812,325.187 475.500,324.500 C476.187,323.812 479.358,321.509 477.500,319.500 C475.642,317.491 472.687,317.750 470.500,320.500 C468.312,323.250 463.560,315.668 463.500,314.500 C463.440,313.332 468.532,308.204 469.773,308.407 ZM487.500,300.500 C488.516,300.631 489.183,301.384 488.780,301.909 C488.072,302.834 485.570,304.134 486.228,305.288 C486.592,305.926 492.245,310.101 492.699,310.841 C493.490,312.130 492.444,313.179 491.544,313.152 C490.767,313.129 482.505,305.662 482.500,304.500 C482.495,303.302 486.347,300.351 487.500,300.500 ZM496.973,302.537 C497.865,302.592 498.669,303.243 498.514,304.014 C498.370,304.729 497.851,305.510 496.908,305.467 C496.190,305.435 495.538,304.732 495.498,304.039 C495.458,303.353 496.474,302.506 496.973,302.537 Z"/>
</svg>