<svg viewBox="0 0 800 800" xmlns="http://www.w3.org/2000/svg"><path d="M400 0c220.914 0 400 179.086 400 400S620.914 800 400 800 0 620.914 0 400 179.086 0 400 0zm0 371a29 29 0 1 1-29 29 29 29 0 0 1 29-29z" fill="#00c6e0" fill-rule="evenodd"/><path d="M739 373C725.27 197.815 578.711 60 400 60S74.784 197.877 61.052 373.059C54.394 373.059 29 373 29 373s-1 15.208-1 27c0 205.45 166.55 372 372 372s372-166.55 372-372c0-11.873-1-27-1-27h-32zm25 3c.028 7.125 0 16.628 0 23.5C764 600.808 600.808 764 399.5 764S35 600.808 35 399.5c0-6.848-.373-15.745 0-22.5h30.518C76.544 202.291 221.858 64 399.5 64c177.316 0 323.156 137.751 334.654 312.006C740.01 376.006 757 376 764 376z" fill="#0f0f14" fill-rule="evenodd"/><path d="M38.784 340.365l12.133 7.51-13.59 4.158-.82 8.047 20.1 1.955.393-3.981-17.58-1.915 18.41-5.539.311-2.51L41.663 338l17.47 2.8.727-4.8-19.913-3.473zm16.226-32.673c-5.753-1.462-11.083 1.586-12.48 8.591-1.388 6.967 2.267 12.424 8.039 13.5 5.838 1.094 10.962-2.154 12.282-8.8 1.286-6.461-1.776-11.749-7.841-13.291zm-3.419 16.975c-4.926-.986-7.025-3.567-6.212-7.673.829-4.163 3.979-5.381 8.489-4.305 5.557 1.328 6.778 4.342 6.124 7.628-.737 3.71-3.613 5.32-8.401 4.35zM65.4 296.485c-.853 3.186-3.823 4.675-8.554 3.362-4.647-1.29-6.672-3.985-5.753-7.422.713-2.663 2.659-3.922 5.8-3.775q.415-2.122.852-4.231c-4.635-.58-8.115 2.124-9.476 7.213-1.744 6.527 1.484 11.581 7.438 13.142.214.057 9.917 2.807 12.556-7.084 1.387-5.195-.385-9.422-4.1-11.195q-.772 1.959-1.524 3.938a5.13 5.13 0 0 1 2.761 6.052zm2.851-33.446c-5.534-2.2-11.14-.085-13.287 6.314-2.133 6.364.889 12.016 6.483 13.863 5.657 1.869 11.08-.441 13.111-6.513 1.981-5.903-.47-11.34-6.303-13.664zM63.02 278.55c-4.766-1.638-6.562-4.366-5.309-8.117 1.275-3.8 4.524-4.5 8.869-2.84 5.353 2.049 6.232 5.068 5.227 8.07-1.134 3.388-4.156 4.488-8.787 2.887zm19.667-24.443c1.952-4.7.862-8.205-2.438-9.761-1.287-.606-5.548-2.571-9.076 6-.538 1.308-1.593 3.943-1.593 3.943l-4.88-2.073 4.258-10.248-2.678-1.238s-4.057 9.634-5.946 14.574l18.789 7.731s2.337-5.984 3.56-8.928zm-10.436 1.324q.826-2.082 1.676-4.142c1.4-3.387 2.921-3.671 4.448-2.975 1.862.853 2.258 2.507 1.226 5a635.983 635.983 0 0 0-1.815 4.477l-5.534-2.357zM74.948 230l17.805 2.193 2.04-3.972-21.375-2.875-2.45 5.064 15.1 15.846 1.516-3.348zm22.381-12.26c-1.483 2.627-4.658 3.166-8.956.735-4.222-2.389-5.621-5.334-4.024-8.168 1.239-2.2 3.38-2.811 6.378-1.849q.84-1.8 1.7-3.576c-4.357-1.746-8.279-.233-10.646 3.964-3.033 5.382-.957 10.743 4.471 13.722 1.586.871 9.381 4.481 13.588-2.991 2.414-4.285 1.577-8.557-1.645-11.133q-1.151 1.557-2.288 3.135a4.806 4.806 0 0 1 1.422 6.157zm9.7-29.429c-4.89-3.446-10.75-2.978-14.156 2.25-3.384 5.2-1.637 11.077 3.385 14.216 5.076 3.175 10.8 2.531 14.02-2.427 3.139-4.828 1.903-10.41-3.249-14.043zm-8.287 12.674c-4.265-2.732-5.434-5.664-3.443-8.728 2.023-3.107 5.309-2.893 9.162-.249 4.747 3.259 4.968 6.226 3.372 8.678-1.801 2.763-4.949 2.959-9.091.295zm24.558-17.666c2.8-3.68 2.307-6.889-.167-8.857-1.962-1.56-4.563-1.523-6.921.713a4.653 4.653 0 0 0-1-6.066c-4.7-3.722-8.713 2.61-8.8 2.718-1.836 2.429-5.422 7.383-5.422 7.383l16.549 11.925s3.805-5.248 5.76-7.816zm-17.61-5.637q1.488-2.034 3-4.039c1.126-1.49 2.789-2.232 4.271-1.086 1.34 1.038 1.517 2.8.28 4.433-1.012 1.338-3.008 4.044-3.008 4.044l-4.547-3.352zm10.067.818c1.316-1.737 3.155-2.116 4.507-1.066 1.418 1.1 1.473 2.873.146 4.625a612.939 612.939 0 0 0-3.113 4.181l-4.715-3.477s.9-1.263 3.173-4.263zm6.626-26.194l6.317 5.511-5.642 6.556-6.447-5.359-2.671 3.231 15.835 12.861 2.523-3.053-6.815-5.665 5.592-6.5 6.677 5.826 2.626-2.933L125.16 149.2zm13.387-14.265l-3.571 3.642 9.872 19.248 2.284-2.452-2.378-4.549 5.92-6.053 4.7 2.176 2.991-2.907zm.413 4.557l8.852 3.98s-3.03 3.068-4.525 4.628zm18.567-5.741s2.716-2.477 4.088-3.7c3.072-2.73 3.7-6.57 1.235-9.354-2.153-2.427-5.933-2.925-9.926.633-2.324 2.072-6.894 6.321-6.894 6.321l14.218 14.6 2.848-2.653zm-6.383-6.7s2.2-2.007 3.3-3c2.392-2.14 4.106-1.787 5.224-.555 1.246 1.371 1.042 3.14-.8 4.786a593.438 593.438 0 0 0-3.516 3.188zm22.685-22.9l-3.034 2.323.848 7.934-7.605-2.561L157.59 118l11.075 3.5 1.618 12.415 2.767-2.311-1.25-9.317 8.883 3.206 3.579-2.736-12.3-4.482zm22.663-3.679c-3.449-4.856-9.058-6.543-13.907-3.115-4.814 3.405-5.068 9.26-1.4 13.89 3.708 4.679 9.236 6.212 13.825 2.962 4.467-3.159 5.113-8.615 1.48-13.732zm-11.783 8.322c-3.095-3.99-3.246-7.024-.411-9.034 2.881-2.037 5.871-.659 8.612 3.1 3.376 4.635 2.628 7.372.357 8.979-2.562 1.814-5.555.835-8.558-3.045zm26.442-5.3c4.481-2.79 5.538-6.621 3.657-9.592-1.379-2.182-3.555-2.756-6.517-1.655 1.86-2 2.218-3.917 1.028-5.791-1.642-2.583-5.533-2.994-9.731-.381-4.145 2.585-5.4 5.736-3.822 9.3q1.626-.775 3.258-1.531c-.9-2.057-.225-3.815 2.043-5.23 2.012-1.254 3.985-1.16 4.958.332 1.476 2.108-1.015 4.392-2.9 5.25l1.494 2.219c2.447-1.307 4.814-2.852 6.577-.325 1.04 1.6.734 3.449-1.772 5.011-2.322 1.448-4.416 1.275-6.32-.552q-1.353 1.207-2.691 2.427c2.51 2.869 6.411 3.21 10.738.518zm16.186-18.92q2.4-1.274 4.829-2.509c3.618-1.844 5.144-5.36 3.42-8.628-1.5-2.851-5.039-4.252-9.745-1.846C220.325 76.095 214.9 79 214.9 79l10.269 17.45 3.381-1.815-3.991-6.958zm-4.575-7.98s2.6-1.366 3.906-2.037c2.82-1.449 4.392-.69 5.18.763.878 1.617.26 3.256-1.913 4.37a658.313 658.313 0 0 0-4.155 2.165zm28.021 2.39c-2.567 1.147-5.414-.3-7.623-4.672-2.171-4.294-1.772-7.355.995-8.593 2.147-.959 4.2-.188 6.126 2.3q1.617-.892 3.245-1.769c-2.617-3.875-6.587-4.978-10.688-3.144-5.253 2.351-6.355 7.628-3.515 13.081.09.173 4.6 9.227 12.534 5.674 4.185-1.874 5.743-5.662 4.48-9.517q-1.748.535-3.492 1.087a4.336 4.336 0 0 1-2.062 5.556zm18.668-4.124l3.116-1.182-.945-2.293c5.524-2.65 6.987-6.487 5.393-10.656-1.609-4.207-5.517-6.264-11.649-4.521l-.939-2.279-3.309 1.255.962 2.271c-5.6 2.685-7.091 6.767-5.207 10.915 1.857 4.089 5.732 5.9 11.611 4.205zm-1.986-4.691c-3.332.736-5.624-.284-6.884-3.133-1.453-3.3-.476-5.472 2.518-7.174l4.366 10.307zm-1.1-11.544c3.459-.744 5.759.366 6.9 3.256 1.317 3.333.263 5.462-2.633 7.09zm24.212 5.36c-2.687.837-5.332-.934-6.986-5.521-1.626-4.508-.854-7.493 2.044-8.4 2.247-.7 4.189.3 5.794 2.989q1.713-.7 3.436-1.376c-2.12-4.145-5.921-5.7-10.215-4.361-5.5 1.715-7.241 6.81-5.094 12.544.067.18 3.432 9.683 11.734 7.092 4.381-1.367 6.392-4.941 5.613-8.908q-1.8.327-3.6.672a4.35 4.35 0 0 1-2.726 5.269zm12.7-9.114s3.513-.927 5.274-1.372c3.943-1 6.239-4.078 5.317-7.627-.805-3.1-3.919-5.227-9.05-3.926-2.986.758-8.929 2.378-8.929 2.378l5.958 19.19 3.705-1.013-2.275-7.629zm-2.608-8.743s2.843-.752 4.267-1.117c3.077-.786 4.43.294 4.861 1.877.48 1.762-.5 3.219-2.868 3.822A602.826 602.826 0 0 0 299.611 55zm28.208-9.492l-2.809 20.99 3.217-.654.627-4.987 8.188-1.5 2.583 4.4 4.062-.656-10.931-18.49zm1.378 12.337l1.33-9.345 4.928 8.2zm20.839 4.321l-2.632-16.887 7.9-1.015 2.257 16.935 3.829-.433-2.422-19.868L341.2 37.2l3.306 19.754zm24.543-10.541c4.066-.291 6.916-2.922 6.7-6.571-.193-3.185-2.842-5.817-8.133-5.433-3.08.224-9.229.777-9.229.777l2.148 19.9 3.836-.348-.763-7.893c-.004-.004 1.581-.155 5.441-.432zm-6.32-8.618s2.937-.243 4.407-.353c3.174-.236 4.3 1.06 4.413 2.691.132 1.815-1.111 3.076-3.555 3.256a740.77 740.77 0 0 0-4.688.373zm20.689 12.676L387 44.325l8.155-.2-.049-2.9-8.223.207-.218-5.417 10.386-.235-.031-2.98-14.546.4 1.031 19.974 13.885-.374-.034-3.106zM406.8 36.178c-.058 0 5.361 16.762 5.361 16.762l4.132.142-6.258-20.2-5.171-.082-6.985 19.992 3.351-.013 5.57-16.6zm25.544 14.759l-10.105-.684.341-5.587 8.139.529.241-2.895-8.207-.533.33-5.412 10.364.7.267-2.963-14.522-.908-.992 19.978 13.862.869zm12.324 4.323c4.44.508 6.9-1.54 7.354-4.606.359-2.435-.937-4.593-3.955-5.448a4.625 4.625 0 0 0 4.607-3.9c.175-1.2.35-5.249-6.538-6.017-2.92-.326-8.77-.881-8.77-.881l-2 19.908s6.205.59 9.299.944zm-3.774-17.651q2.413.239 4.823.508c1.79.2 3.218 1.223 2.974 3.045-.222 1.648-1.611 2.684-3.579 2.464-1.609-.179-4.829-.509-4.829-.509l.611-5.507zm-.926 8.349q2.549.253 5.093.538c2.09.235 3.3 1.587 3.072 3.252-.237 1.745-1.7 2.685-3.805 2.449-1.663-.187-4.994-.528-4.994-.528l.634-5.711zm22.857 9.054c-2.785-.451-4.247-3.188-3.448-7.975.785-4.7 2.935-7 5.938-6.515 2.328.377 3.55 2.124 3.644 5.208q1.855.143 3.713.3c.169-4.6-2.424-7.657-6.873-8.376-5.7-.92-9.743 2.809-10.672 8.828-.029.186-1.74 10.083 6.864 11.468 4.541.732 8.079-1.539 9.345-5.39q-1.751-.507-3.508-1a4.624 4.624 0 0 1-5.006 3.451zm30.813-11.522l-4.013-.924-10.747 8.474 2.322-10.273-3.994-.786-4.192 19.6 3.774.743 1.115-4.943 5.293-4.15 2.03 10.9 4.187.972-2.576-14.4zm14.987 10.08l-4.313 13.413 3.676 1.06 6.233-19.107-3.891-1.122-.608 1.938-12.309 9.382 4.044-13.716-3.944-.994L492.2 63.78l3.727.939.5-1.753zm20.893 6.567l-5.133 13.149 3.606 1.27 7.4-18.727-3.816-1.344-.727 1.9-12.869 8.668 4.883-13.468-3.878-1.217-6.496 19.032 3.664 1.15.61-1.722zm-1.53-8.861c2.826.941 5.34-.059 6.258-2.135q-1.038-.361-2.078-.717c-.65 1.149-1.773 1.449-3.377.913-1.657-.552-2.364-1.461-2.117-2.744q-1.045-.34-2.094-.674c-.725 2.327.709 4.458 3.408 5.357zm17.725 30.5c4.857 2.041 8.756.767 10.3-2.377 1.134-2.308.437-4.364-2.135-6.123 2.744.384 4.6-.392 5.574-2.378 1.337-2.74-.44-6.076-4.99-7.988-4.5-1.885-7.9-1.152-10.118 2.083q1.552.873 3.094 1.76c1.286-1.857 3.172-2.287 5.633-1.256 2.181.915 3.18 2.544 2.421 4.146-1.012 2.206-3.78 1.371-6.123.582l-1.1 2.421c2.755 1.11 4.923 2.726 3.873 5.078a3.27 3.27 0 0 1-1.936 1.747 4.738 4.738 0 0 1-3.364-.394c-2.519-1.056-3.509-2.826-2.969-5.358q-1.777-.415-3.558-.812c-1.115 3.593.707 6.9 5.398 8.87zm28.8-9.385l-4.5-2.18-15.721 14.964 2.978 1.361 3.7-3.578 7.475 3.61-.772 4.994 3.652 1.868zm-4.268 1.771l-1.348 9.372-5.713-2.759zm11.526 24.919c3.88 2.19 6.991 1.267 8.675-1.382 1.336-2.1 1.034-4.6-1.393-6.557a4.767 4.767 0 0 0 5.855-1.8c.653-1.032 2.494-4.7-3.536-8.083-2.555-1.431-7.715-4.2-7.715-4.2l-10.06 17.557s5.465 2.939 8.17 4.465zm8.042-15.381c1.567.877 2.459 2.375 1.482 3.958a3.035 3.035 0 0 1-4.315.88c-1.407-.788-4.237-2.336-4.237-2.336l2.837-4.834s1.246.661 4.233 2.332zm-8.534 5s2.985 1.633 4.469 2.466c1.828 1.027 2.383 2.742 1.487 4.188-.939 1.515-2.673 1.813-4.517.777a632.845 632.845 0 0 0-4.382-2.418zm29.493 16.4c3.488-4.829 3.149-10.509-1.846-13.7-4.959-3.163-10.679-1.329-13.871 3.621-3.226 5-2.8 10.541 1.931 13.554 4.607 2.938 10.114 1.61 13.786-3.475zm-12.13-7.754c2.775-4.2 5.644-5.41 8.569-3.548 2.968 1.893 2.682 5.087 0 8.891-3.3 4.685-6.2 4.968-8.544 3.476-2.636-1.685-2.728-4.738-.025-8.821zm8.623 13.855l-4.357 6.01 2.179 1.495 2.919-3.17 10.766 7.806-2.3 3.62 2.1 1.611 4.695-5.765-1.255-.965 6.489-16.6-4.923-3.576-15.01 10.423zm15.861-5.666l.985.713-5.379 13.117-7.441-5.381zm20.536 15.707l6.185 5.359 2.137-2.311-9.382-8.031-13.309 15.4s1.985 1.647 2.971 2.481zm4.715 16.37s2.69 2.507 4.02 3.779c2.978 2.849 6.938 3.247 9.61.651 2.33-2.264 2.58-6.019-1.3-9.723-2.259-2.155-6.856-6.358-6.856-6.358l-13.93 14.859 2.869 2.619 5.587-5.829zm6.4-6.681q1.638 1.513 3.258 3.052c2.333 2.217 2.087 3.925.907 5.1-1.315 1.308-3.13 1.214-4.925-.494a596.84 596.84 0 0 0-3.464-3.249l4.224-4.407zm19.985 15.634l-3.5-3.715-19.928 8.791 2.349 2.366 4.712-2.122 5.824 6.158-2.43 4.536 2.811 3.121zm-4.63.171l-4.463 8.544-4.452-4.706zm26.043 25.357c-1.334-1.764-4.047-5.242-4.047-5.242l-13.217 4.507 7.127-12.006-4.243-4.97-15.47 13.3 2.1 2.439 13.657-11.521-9.735 16.2 1.31 1.61 17.9-6.169-14.111 10.948 2.47 3.224 16.263-12.318zm-11.008 19.48l14.142-10.156 4.736 6.834-14.367 9.832 2.234 3.358 16.963-11.324-9.617-13.878-16.433 12.09q1.181 1.612 2.342 3.244zm27.185 10.477l-11.489 13.884 2.183 3.82 13.816-16.831-2.827-4.682-21.056 4.839 1.9 2.969zM726.838 221l-2.5-4.785-21.461 3.235 1.707 3.067 5.085-.808 4.159 7.933-3.455 3.92 1.966 4zm-14.11.186c3.183-.478 9.577-1.344 9.577-1.344l-6.4 7.407-3.18-6.063zm6.509 24.684c-1.255-2.829.151-5.813 4.583-7.98 4.354-2.129 7.519-1.559 8.873 1.489 1.049 2.366.314 4.555-2.186 6.513q.963 1.8 1.909 3.626c3.912-2.64 4.939-6.91 2.932-11.43-2.569-5.784-8.045-7.184-13.569-4.393-9.1 4.594-6.023 11.939-5.466 13.191 2.05 4.613 5.984 6.525 9.914 5.36q-.6-1.935-1.215-3.857a4.671 4.671 0 0 1-5.775-2.523zm21.163 13.781l2.275 6.306 2.935-1.114-6.5-17.138-2.88 1.259 2.45 6.155-15.865 6.6 1.638 4.318zm4.994 24.272l-13.557 4.282 1.229 4.251 19.364-6.014-1.3-4.5-1.951.634-14.838-5.961 13.654-4.733-1.466-4.386-19.038 7.059 1.385 4.143 1.737-.619zm13.155 27.334c-.336-1.585-1.034-4.734-1.034-4.734l-8.073 2.017-2.307-9.667 8.02-2.241-1.195-4.608-19.448 5.707 1.129 4.353 8.477-2.369 2.287 9.583-8.534 2.132.977 4.473 19.7-4.646zm-5.123 29.049c5.856-.916 9.684-6.031 8.473-13.156-1.2-7.061-6.513-10.563-12.249-9.284-5.8 1.3-9.416 6.232-8.267 12.961 1.117 6.565 5.871 10.445 12.043 9.479zm-2.914-17.353c4.919-1.031 7.778.5 8.491 4.665.721 4.233-1.757 6.663-6.322 7.447-5.625.966-7.841-1.415-8.409-4.749-.642-3.758 1.456-6.368 6.24-7.363zm8.514 35.414l7.212 6.111-.454-5.23-11.664-9.448 10.525-1.364-.625-5.04-20 2.874.591 4.763 5.064-.656 5.73 4.64-9.662 6.842.464 5.465zM116.608 296.529c1.946-6 .591-10.2-2.646-11.389-2.371-.874-4.455.29-6.191 3.587.333-3.235-.489-5.218-2.53-5.966-2.812-1.026-6.192 1.618-8.033 7.289-1.814 5.609-.964 9.488 2.388 11.432q.84-2.012 1.7-4c-1.922-1.13-2.411-3.259-1.42-6.326.88-2.717 2.519-4.178 4.166-3.606 3.567 1.239 1.024 6.028.733 6.985l2.489.807c.383-1.1 1.091-6.85 5.073-5.455 1.764.616 2.589 2.5 1.5 5.859-1.009 3.12-2.776 4.633-5.363 4.509q-.371 2.162-.716 4.337c3.682.572 6.969-2.259 8.85-8.063zM106.574 265.4l-2.184 5.449 15.485 15.208 1.334-3.622-3.7-3.567 3.594-9 5.1.062 1.879-4.338zm8.676 11.35l-6.83-6.842 9.58-.048zm15.866-17.815l-15.238-7.447 3.972-8.141 15.024 7.884 1.974-3.838-17.472-9.493-8.076 16.551 17.976 8.46zm3.362-35.682l11.756 7.523 2.2-3.567-16.7-10.836-2.351 3.8 1.7 1.072 5.295 15.008-12.166-7.263-2.21 3.982 17.308 9.8 2.073-3.734-1.56-.913zm19.177-8.863c-1.735 2.5-4.915 2.8-8.89.064-3.9-2.691-4.972-5.734-3.088-8.449 1.46-2.1 3.637-2.555 6.484-1.365q1.023-1.727 2.068-3.434c-4.1-2.082-8.132-.876-10.924 3.149-3.581 5.163-2.091 10.673 2.944 14.031 8.284 5.528 12.941-.907 13.682-1.976 2.822-4.071 2.467-8.381-.42-11.2q-1.3 1.458-2.593 2.941a4.784 4.784 0 0 1 .737 6.238zm-.122-28.454a560.417 560.417 0 0 0-3.346 4.189l10.967 18.475 2.109-2.8-2.64-4.357 5.514-6.924 4.786 1.661 2.8-3.312-20.19-6.932zm5.47 12.9l-4.8-8.279 9.022 2.979s-2.83 3.512-4.219 5.3zm13.6-34.2l-2.974 3.064 5.892 5.7-6.019 6.482-6.051-5.53-2.859 3.219 14.9 13.256 2.68-3.018-6.4-5.846 5.96-6.419 6.228 6.027 2.789-2.873zm23.965-8.836c-3.829-4.424-9.55-5.359-14.08-1.171-4.5 4.162-4.215 10.15-.154 14.284 4.107 4.181 9.719 4.892 13.962.961 4.129-3.823 4.304-9.408.269-14.074zM185.6 165.892c-3.428-3.58-3.849-6.636-1.205-9.087 2.687-2.485 5.777-1.511 8.819 1.9 3.747 4.206 3.243 7.072 1.139 9.019-2.372 2.2-5.424 1.654-8.753-1.832zm34.187-15.9s5.562-5.069 2.265-8.365c-1.733-1.733-3.9-2.661-6.743-1.187a4.541 4.541 0 0 0 .727-5.978c-3.421-4.767-9.088.215-9.088.215l-7.164 5.52 12.456 15.588zM204.657 140s2.629-2.015 3.954-3.006c1.478-1.1 3.259-1.359 4.346.116.984 1.335.666 3.037-.953 4.246-1.324.989-3.951 3-3.951 3zm5.147 6.608s2.769-2.121 4.165-3.162c1.721-1.282 3.564-1.145 4.555.205 1.039 1.415.606 3.094-1.124 4.384-1.366 1.018-4.074 3.093-4.074 3.093l-3.522-4.52zM237.4 126.2c-3.058-4.984-8.509-6.89-13.59-3.61-5.046 3.259-5.694 9.126-2.363 13.867 3.367 4.8 8.742 6.489 13.5 3.41 4.631-2.996 5.672-8.416 2.453-13.667zm-12.288 7.9c-2.8-4.09-2.736-7.136.23-9.056 3.013-1.946 5.885-.457 8.33 3.4 3.011 4.756 2.073 7.461-.286 8.986-2.667 1.723-5.566.65-8.279-3.33zm35.929-9.575c3.993-2.024 4.894-5.039 3.529-7.808-1.083-2.195-3.4-3.264-6.42-2.3 2.036-1.513 2.762-3.835 1.647-5.731-2.626-4.464-8.935-1.331-8.935-1.331l-7.878 4.172 9.756 17.373 8.3-4.375zm-13.261-12.36l4.342-2.265s3.114-1.273 4.239.852-1.6 3.994-1.6 3.994l-4.338 2.263-2.644-4.844zm4.007 7.343l4.573-2.382s3.118-1.338 4.43.974-1.79 4.1-1.79 4.1l-4.474 2.331-2.742-5.024zm24.311-5.05c-2.59 1.121-5.368-.34-7.409-4.713-2.006-4.3-1.5-7.355 1.317-8.574 2.18-.944 4.2-.157 6.018 2.339q1.649-.874 3.307-1.73c-2.446-3.895-6.364-5.04-10.536-3.232-5.347 2.319-6.631 7.6-3.993 13.05.091.187 4.26 9.206 12.257 5.734 4.218-1.83 5.917-5.582 4.818-9.442q-1.76.511-3.516 1.045a4.445 4.445 0 0 1-2.261 5.523zm23.124-9.3l-9.525 3.4-2.023-5.188 7.68-2.768-.977-2.715-7.751 2.794-1.959-5.025 9.821-3.5-.983-2.79-13.742 5 7.467 18.447 13.018-4.736zm10.7-3c-2.7.8-5.272-.977-6.776-5.556-1.477-4.5-.612-7.468 2.316-8.342 2.269-.676 4.174.344 5.679 3.035q1.734-.672 3.478-1.325c-1.962-4.151-5.7-5.75-10.047-4.454-5.564 1.662-7.457 6.738-5.49 12.457 3.238 9.421 10.283 7.5 11.451 7.149 4.39-1.312 6.515-4.832 5.884-8.79q-1.8.3-3.6.619a4.437 4.437 0 0 1-2.891 5.205zM335.609 88.3c-1.2-5.7-5.652-9.314-11.459-7.967-5.766 1.338-8.294 6.59-6.757 12.155 1.553 5.626 5.988 9.048 11.428 7.782 5.298-1.236 8.057-5.97 6.788-11.97zm-14.037 3.236c-1.255-4.774-.2-7.6 3.195-8.389 3.444-.8 5.626 1.561 6.629 6 1.235 5.47-.53 7.687-3.227 8.313-3.042.707-5.384-1.284-6.597-5.927zm36.128 3.446c5.506-.739 8.541-5.657 7.912-11.371-.671-6.1-5.122-9.649-10.894-8.872-5.154.695-8.181 4.574-8.119 9.609-1.278.21-3.83.654-3.83.654l-1.461-7.866-4.019.736 3.878 19.476 3.768-.69-1.634-8.8s2.528-.439 3.794-.647c1.005 4.94 5.073 8.515 10.605 7.771zm3.637-10.938c.548 4.409-1.056 7.685-4.165 8.1-2.8.377-5.437-1.807-6.179-6.461-.7-4.4.793-7.647 4.146-8.1 3.094-.412 5.615 1.749 6.201 6.461zm15.494 8.965c5.24-.377 8.046-3.213 7.879-6.653-.119-2.524-1.726-4.018-4.844-4.415 2.6-.883 3.862-2.385 3.755-4.555-.151-2.992-3.339-5.13-8.294-4.774-4.891.356-7.533 2.525-7.9 6.344q1.794.066 3.586.151c.222-2.2 1.675-3.417 4.349-3.613 2.372-.172 4.045.811 4.155 2.55.172 2.688-5.107 3.235-5.107 3.235l.212 2.608s5.689-.281 5.872 2.719c.116 1.863-1.059 3.328-3.994 3.54-2.722.2-4.452-.9-5.215-3.359q-1.764.433-3.519.885c.792 3.634 4.008 5.703 9.068 5.337zm27.649-20.917l-4.083-.037-.024 8.154-8.426.083-.2-8.151-4.082.118.735 19.825 3.827-.111-.209-8.616 8.342-.082-.026 8.619 3.828.035zm22.149 11c.515-5.8-2.685-10.5-8.63-10.832-5.9-.328-9.851 3.994-10.009 9.756-.159 5.824 3.077 10.345 8.647 10.651 5.425.304 9.449-3.467 9.992-9.567zm-14.368-.818c.2-4.925 2.032-7.334 5.5-7.144 3.527.2 4.923 3.066 4.584 7.6-.418 5.585-2.755 7.217-5.516 7.065-3.11-.166-4.766-2.729-4.568-7.516zM443.77 81l-2.07 13.758 3.776.538 3.063-19.612-4.028-.574-.282 1.99-10.583 10.92 1.7-14.029-4.063-.414L429.3 93.32l3.809.388.2-1.791zm-3.481-8.309c2.972.364 5.206-1.09 5.638-3.283l-2.195-.3c-.377 1.242-1.407 1.749-3.1 1.541-1.745-.214-2.643-.957-2.693-2.251q-1.1-.125-2.2-.243c-.177 2.399 1.711 4.184 4.55 4.532zm25.791 23.615c-2.745-.594-4.089-3.383-3.1-8.092.973-4.628 3.213-6.8 6.195-6.154 2.311.5 3.457 2.3 3.415 5.37q1.846.247 3.691.516c.377-4.558-2.078-7.747-6.5-8.7-5.669-1.224-9.853 2.288-11.013 8.213-1.912 9.762 5.165 11.468 6.358 11.725 4.473.965 8.091-1.081 9.528-4.832q-1.719-.605-3.446-1.191a4.556 4.556 0 0 1-5.128 3.145zm22-9.052l5.741 1.667.919-2.932-15.876-4.335-.766 2.974 5.789 1.482-4.5 16.187 3.969 1.084zm8.664 16.462c-.669.233-3.485-.618-3.485-.618l-.96 2.935s3.282 1.379 5.4.673c1.075-.359 3.8-2.836 3.8-2.836L513.2 92.149l-3.618-1.305-7.682 7.994-1.969-11.238-4.225-1.315 3.1 15.76a6.4 6.4 0 0 1-2.067 1.671zm8.528 3.425l-2.547 6.811 2.473.9 1.94-3.742 12.33 4.9-1.252 4.014 2.422 1.043 2.99-6.636-1.451-.627 1.843-17.457-5.684-2.263-11.581 13.6s-.988-.36-1.483-.538zM518.93 97.9l1.135.45-1.679 13.858-8.53-3.375zm23.256 13.2l-6.445 12.391 3.431 1.732 9.3-17.622-3.659-1.847-.917 1.793-13.656 6.953 6.186-12.761-3.743-1.693-8.311 18.092 3.509 1.588.776-1.634zm19.479 10.579l-7.311 11.914 3.311 1.986 10.526-16.933-3.531-2.118-1.042 1.725-14.138 5.947 7.077-12.3-3.624-1.965-9.574 17.476 3.4 1.843.89-1.577zM571.7 144.69l9.689-13.8 6.754 4.813 1.837-2.477-10.252-7.2-11.25 16.474s2.149 1.455 3.217 2.195zm16.274 2.087q2.209 1.7 4.391 3.441c3.252 2.6 7.2 2.7 9.556-.085 2.05-2.428 1.885-6.2-2.38-9.6q-3.72-2.964-7.518-5.8l-12.012 15.928 3.12 2.363 4.843-6.25zm5.551-7.164q1.794 1.379 3.57 2.787c2.559 2.029 2.506 3.753 1.473 5.011-1.152 1.4-2.954 1.448-4.917-.112-1.256-1-3.788-2.96-3.788-2.96l3.662-4.726zm21.494 14.131c-1.28-1.17-3.865-3.471-3.865-3.471L592.437 160.5l2.563 2.173 4.417-2.463 6.386 5.718-1.931 4.69 3.08 2.921 8.06-19.795zm-12.954 4.956l8.391-4.463-3.5 8.837zm36.683 19.329l-4.5-5.042-12.625 5.281 5.865-12.446-4.7-4.715-13.932 14.284 2.31 2.294 12.334-12.374-8.026 16.789 1.444 1.526L634 176.415l-12.91 11.76 2.727 3.079zm-7.6 22.472c3.5 4.362 7.537 5.23 10.28 3.117 2.012-1.545 2.272-3.822.708-6.786 2.308 1.778 4.314 2.036 6.042.7 2.378-1.84 2.214-5.881-1.091-10-3.265-4.066-6.664-5.1-10.04-3.232q1.037 1.59 2.054 3.193c1.95-1.063 3.842-.5 5.627 1.72 1.583 1.972 1.786 4 .417 5.094-1.4 1.119-2.761 1.1-5.775-2.617l-2.026 1.676c1.458 1.763 3.939 4.761 1.32 6.689-1.51 1.115-3.391.97-5.351-1.473-1.817-2.261-1.957-4.392-.393-6.459q-1.429-1.283-2.87-2.539c-2.52 2.754-2.272 6.707 1.103 10.916zm29.927 6.475l-3.1-4.47-20.575 5.564 2.081 2.824 4.869-1.363 5.121 7.366-2.871 4.233 2.436 3.734zm-13.805 1.7c3.054-.821 9.2-2.367 9.2-2.367s-3.5 5.358-5.284 8c-1.289-1.9-3.92-5.637-3.92-5.637zm5.46 22.115l14.382-9.045 4.468 7.587-14.623 8.637 2.08 3.71 17.271-9.873-9.081-15.423-16.7 10.835 2.208 3.572zm27.639 22.06l-12.565 6.019 1.823 3.949 17.976-8.467-1.945-4.211-1.805.883-15.353-3.735 12.566-6.522-2.113-4.066-17.436 9.567 1.981 3.813 1.6-.846zm-.269 24.723a4.939 4.939 0 0 1-2.381-2.676c-1.211-3.033.208-6.027 4.621-7.95 4.336-1.887 7.474-1.058 8.791 2.233 1.02 2.553.267 4.784-2.236 6.627q.935 1.959 1.849 3.945c3.914-2.434 4.988-6.825 3.033-11.711-2.5-6.253-7.937-8.1-13.431-5.6-9.044 4.11-6.075 11.947-5.537 13.29 1.979 4.94 5.847 7.254 9.761 6.361q-.565-2.067-1.154-4.121c-2.268.62-3.316-.398-3.316-.398zm17.561 20.363l-13.323 4 1.314 4.424 19.041-5.569-1.4-4.719-1.917.593-14.856-6.6 13.389-4.518-1.586-4.577-18.644 6.806 1.487 4.292 1.7-.593zM399.5 115a98.5 98.5 0 1 1-98.5 98.5 98.5 98.5 0 0 1 98.5-98.5zm0 3a95.5 95.5 0 1 1-95.5 95.5 95.5 95.5 0 0 1 95.5-95.5zm0 4a91.5 91.5 0 1 1-91.5 91.5 91.5 91.5 0 0 1 91.5-91.5zm0 3a88.5 88.5 0 1 1-88.5 88.5 88.5 88.5 0 0 1 88.5-88.5zM382 215c-.749.5-8.5.5-9 0s-4.252-22.516-1-30 18.195-24.607 18-32c-.128-4.868-1.643-10.736-4-14s.643-3.813 3-2 17.492 11.547 19 22c2.7 18.7-6.1 33.426-5 39 1.44 7.269 4.624 16.5 4 17s-8.5.375-9 0-2.368-9.011-4-13-13.731-15.269-15-14 3.749 26.5 3 27zm0-33c3.225 1.561 12.275 8.192 13 12 2.539-3.083 8.89-30.84 2-39-1.088 9.066-10.531 23.584-15 27zm31-3c1.258 0 8.906-9 10-9s1 10.18 1 11-7.055 5.305-7 7 1.688 5.945 3 6 8.981-8.073 10-8 .582 6.835 0 8-12.636 15.054-13 16-.291 5.709 0 6 6.491.364 7 0 .44-4.087 2-5c1.68-.984 11.2-14.089 12-17s-.53-16.509-2-17c-1.549-.517-3.326 2-5 2s-.747-24.688-4-25c-1.432-.137-12.041 13.127-14 15-2.013 1.925-1.258 10 0 10zm-13 58c-.834.052-1.95-6.449 1-7 4.627-.864.33 6.917-1 7zm0 18l2 20s-12.945 4.416-15-8 8.941-20.4 10-20c1.023.382 2.026 3.2 1.586 4.351-.571 1.494-3.835 4.236-3.586 5.649s.252 2 1 2 4-4 4-4zm3-2l3 20s9.65-4.116 6-14c-2.728-7.388-9-6-9-6zm-37-32h67c.98 0 .7 7 0 7h-5c-.84 0-1.56 6-1 6h4c.7 0 .7 5 0 5h-5c-.84 0-7.46 56-9 56h-32c-1.54 0-10.16-55-11-55h-5c-.84 0-.56-6 0-6h4c.7 0-.02-6-1-6h-6c-.7 0-.84-7 0-7zm34 21c.416-.665 11.415-15 3-15-10.89 0-5.418 13.171-6 15s-18.281 8.676-13 27c3.951 13.709 17 11 17 11s.455 9.66-4 7c-5.832-3.481-7.328.42-5 2 11.984 8.132 14.748-4.513 14-10 1.164-.5 11.318-6.309 11-16s-7.935-16.079-16-14c-.665-1.58-1.416-6.335-1-7zm36.764-5.15c-.5-1 1.823-2.648 2.472-1.7.361.527 21.352 31.152 22 32s-1.873 2.448-2.472 1.7-21.501-31.002-22-32zM443 224.118c-.848-.948 1.2-2.984 2-2.236s18.3 16.5 19 17-1.252 3.034-2 2.236-18.152-16.052-19-17zm5.192-10.854c-1-.748.368-3.326 1.616-2.528s33.063 21.511 34.321 22.093c1.328.614.538 3.735-.984 2.633-1.303-.944-33.955-21.45-34.953-22.198zm6.24-11.876c-1.247-.5.088-3.225 1.136-2.776s20.952 8.5 22 9-.138 3.175-1.136 2.776-20.753-8.501-22-9zm3.473-10.91c-1.043 0-1.282-3.478.1-3.478h25c1.228 0 1.506 3.5-.058 3.5s-24.053-.022-25.042-.022zM456 179c-.912 0-.964-2.916 0-3s9.733-.609 10.956-.778c1.075-.149 1.275 3.035.042 3.117-1.398.094-10.086.661-10.998.661zm-1.6-8.555c-1.341.43-1.983-2.461-.8-2.89s16.385-5.217 17.4-5.555c.805-.268 2.073 2.678 1 3-1.746.524-16.257 5.016-17.6 5.445zm-2.69-8.124c-.912.536-2.227-2.051-1.422-2.642s12.078-6.424 13-7c.429-.268 2.442 2.159 1.422 2.642s-12.086 6.463-12.999 7zm-3.879-8.073c-1.234.644-2.469-1.959-1.664-2.5s4.819-3.249 6-4 2.63 1.745 1.664 2.5-4.765 3.352-5.999 4zm-5.611-6.376c-.805 1.073-3.247-.724-2.442-1.744s4.142-5.712 5-7 3.3.241 2.442 1.744-4.194 5.928-4.999 7zm-7.02-8.972c-1.127 1.288-3.151-.619-2.4-1.8s2.785-3.624 3-4 3.2.888 2.4 1.8-1.873 2.712-3 4zm-11.745-5.536c-.268.859-3.125-.03-2.91-.728s.678-3.141 1-4 3.179-.131 2.91.728-.731 3.141-1 4zM414 130c0 .751-3 .966-3 0v-3c0-1.449 3-.859 3 0v3zm-51.829 106.8c.5-1-1.829-2.649-2.479-1.7-.361.527-21.406 31.172-22.056 32.021s1.879 2.449 2.479 1.7S361.67 237.8 362.171 236.8zm-6.252-12.74c.85-.948-1.2-2.986-2.006-2.237s-18.348 16.512-19.048 17.011 1.255 3.036 2.006 2.237 18.198-16.065 19.048-17.014zm-5.206-10.86c1-.749-.369-3.328-1.619-2.53s-33.148 21.525-34.409 22.108c-1.331.615-.539 3.737.987 2.634 1.306-.948 34.041-21.467 35.041-22.212zm-6.255-11.883c1.25-.5-.089-3.228-1.139-2.779s-21.006 8.507-22.056 9.006.138 3.178 1.139 2.779 20.805-8.511 22.056-9.01zm-3.482-10.917c1.045 0 1.285-3.48-.1-3.48h-25.059c-1.231 0-1.509 3.5.058 3.5s24.109-.02 25.101-.02zm1.91-11.485c.914 0 .966-2.918 0-3s-9.759-.609-10.984-.779c-1.078-.149-1.278 3.037-.042 3.12 1.401.087 10.111.654 11.026.654zm1.6-8.561c1.345.43 1.989-2.463.805-2.892s-16.428-5.22-17.445-5.558c-.808-.269-2.079 2.679-1 3 1.754.52 16.297 5.016 17.642 5.445zm2.7-8.13c.915.537 2.233-2.052 1.426-2.643s-12.109-6.428-13.033-7c-.43-.269-2.448 2.16-1.426 2.643s12.118 6.458 13.032 6.995zm3.889-8.077c1.238.644 2.476-1.961 1.669-2.5s-4.832-3.251-6.016-4-2.636 1.746-1.668 2.5 4.777 3.353 6.014 3.995zm5.626-6.381c.807 1.074 3.255-.724 2.447-1.745s-4.151-5.715-5.012-7-3.309.241-2.448 1.745 4.205 5.921 5.012 6.995zm7.038-8.978c1.13 1.289 3.16-.619 2.407-1.8s-2.793-3.627-3.008-4-3.213.888-2.406 1.8 1.877 2.706 3.006 3.995zm11.775-5.539c.269.859 3.133-.03 2.918-.729s-.68-3.143-1-4-3.186-.131-2.917.728.729 3.136.998 3.996zm9.479-3.366c0 .752 3.008.967 3.008 0v-3c0-1.45-3.008-.86-3.008 0v3zm13-2c0 .752 3.008.967 3.008 0v-2c0-1.45-3.008-.86-3.008 0v2z" fill="#0f0f14" fill-rule="evenodd"/></svg>