<svg viewBox="0 0 800 800" xmlns="http://www.w3.org/2000/svg"><defs><style>.letters{stroke:#2cbbdb}.shadows{stroke:#0492b3}.letters,.shadows{fill:none;stroke-width:2px;stroke-linecap:round;stroke-linejoin:round}</style><linearGradient id="background_flexy_gradient" y1="79%" x2="100%" y2="21%"><stop offset="0%" stop-color="#2bb3d9"/><stop offset="22%" stop-color="#46c1e3" stop-opacity=".9"/><stop offset="41%" stop-color="#2bb3d9" stop-opacity=".9"/><stop offset="94%" stop-color="#46c1e3" stop-opacity=".8"/><stop offset="100%" stop-color="#46c1e3"/></linearGradient></defs><path id="background_flexy" d="M400 0c220.914 0 400 179.086 400 400S620.914 800 400 800 0 620.914 0 400 179.086 0 400 0zm0 371a29 29 0 1 1-29 29 29 29 0 0 1 29-29z" fill="url(#background_flexy_gradient)" fill-rule="evenodd"/><path id="circle-shadow" class="shadows" d="M399.85 119.7C554.573 119.7 680 245.128 680 399.85S554.573 680 399.85 680 119.7 554.573 119.7 399.85 245.128 119.7 399.85 119.7zM400 349a51 51 0 1 1-51 51 51 51 0 0 1 51-51z"/><path id="circle" class="letters" d="M400.15 121c154.722 0 280.15 125.427 280.15 280.15S554.872 681.3 400.15 681.3 120 555.872 120 401.15 245.427 121 400.15 121zM400 350a51 51 0 1 1-51 51 51 51 0 0 1 51-51z"/><path id="trademark-shadow" class="shadows" d="M223.655 200.543l35.019 43.423.7-.7-35.019-42.723 49.026 30.116.7-.7-14.707-56.731 30.116 44.124h.7l-30.816-44.824-.7.7 14.708 56.731-49.026-30.116zm75.645-47.625l-18.91 9.805v1.4l23.81 44.124h1.4l17.51-10.505-.7-.7-17.51 10.505-10.506-18.91 16.109-9.1-.7-.7-16.108 9.105-12.607-24.513 18.21-9.805v-.7zm39.921 44.123l.7-.7 1.4-56.03 28.716 49.726.7-.7-29.419-50.427-.7.7zm85.446-9.1l39.921 8.405v-.7l-3.5-.7-5.6-58.131h-.7l-26.614 51.127-2.8-.7zm68.633-34.323h.7l-16.809 46.225 46.925-36.42.7.7-22.416 47.626h-.7l22.412-47.625-46.925 36.419h-.7zm44.824 81.944l32.217-41.322s-4.253-3.5-9.105-7.7c-16.941-14.692-41.073 9.255-24.513 22.412-.9.5-17.51 9.1-17.51 9.1v.7l18.21-9.1 11.907 9.805v.7l-11.907 15.408h.7zM396.648 131.906c9.67 0 17.509 12.23 17.509 27.315s-7.839 27.315-17.509 27.315-17.509-12.23-17.509-27.315 7.839-27.315 17.509-27.315zm0 .7c9.283 0 16.809 11.915 16.809 26.614s-7.526 26.614-16.809 26.614-16.809-11.915-16.809-26.614 7.526-26.613 16.809-26.613zm32.217 55.329l25.914-49.726 5.6 56.73zm140.775 6.3l-10.5-8.405c-15.265-11.726-37.5 10.194-21.712 23.113 4.591 3.757 12.607 10.5 12.607 10.5z"/><path id="trademark" class="letters" d="M223.655 199.843l35.019 43.423.7-.7-35.019-42.723 49.026 30.116.7-.7-14.707-56.73 30.116 44.124h.7l-30.816-44.824-.7.7 14.708 56.73-49.026-30.116zm75.645-47.626l-18.91 9.8v1.4l23.81 44.13h1.4l17.51-10.506-.7-.7-17.509 10.5-10.506-18.91 16.109-9.105-.7-.7-16.108 9.1-12.607-24.513 18.21-9.805v-.7zm39.921 44.124l.7-.7 1.4-56.03 28.716 49.727.7-.7-29.419-50.428-.7.7zm85.446-9.105l39.921 8.4v-.7l-3.5-.7-5.6-58.131h-.7l-26.614 51.127-2.8-.7zm68.633-34.318h.7l-16.809 46.224 46.925-36.419.7.7-22.416 47.626h-.7l22.412-47.626-46.925 36.42h-.7zm44.824 81.943l32.217-41.322s-4.253-3.5-9.105-7.7c-16.941-14.691-41.073 9.256-24.513 22.412-.9.5-17.51 9.1-17.51 9.1v.7l18.21-9.1 11.907 9.8v.7l-11.907 15.408h.7zM396.648 131.206c9.67 0 17.509 12.229 17.509 27.315s-7.839 27.314-17.509 27.314-17.509-12.229-17.509-27.314 7.839-27.315 17.509-27.315zm0 .7c9.283 0 16.809 11.916 16.809 26.615s-7.526 26.614-16.809 26.614-16.809-11.916-16.809-26.614 7.526-26.615 16.809-26.615zm32.217 55.33l25.914-49.727 5.6 56.731zm140.775 6.3l-10.5-8.4c-15.265-11.727-37.5 10.194-21.712 23.112 4.591 3.757 12.607 10.506 12.607 10.506z"/><path id="song-shadow" class="shadows" d="M311.2 247.468a3.5 3.5 0 0 1 3.5 3.5v17.509c0 3.275-3.5 3.5-3.5 3.5a3.5 3.5 0 0 1-3.5-3.5V250.97c0-3.27 3.5-3.502 3.5-3.502zm67.236 25.914v-27.315c12.229 0 11.282 12.607 2.179 12.607v.7c9.125.001 11.173 14.008-2.177 14.008zm-91.048-1.4h.7V250.97l6.3 14.708 6.3-15.408v22.412h.7v-25.914l-7 16.809-7-16.809v25.213zm86.146-25.213v-.7H363.03v25.914h10.506v-.7h-9.806v-11.908h7.7v-.7h-7.7v-11.907h9.806zm18.91 25.914h.7v-25.215h8.4v25.214h.7v-25.914h-9.8v25.914zm32.917-25.914h7.7v.7h-3.5v25.214h-.7v-25.215h-3.5v-.7zm44.124 0v25.914h.7v-7.7l7-13.308v21.012h.7v-25.919h-.7v3.5l-7 13.307v-16.807h-.7zm-15.408 0v25.914h.7v-13.308c12.085 0 12.07-12.607-.698-12.607zm37.123 25.913s.088-25.914 0-25.914c-11.325-.173-13.294 11.643-3.5 13.307-.274.694-5.6 12.607-5.6 12.607h.7l5.6-12.607h2.1v12.607h.7zm-82.644 0h.7l1.4-6.3h7.705l1.4 6.3h.7l-5.6-25.914zm6.3-23.813l-4.2 16.809h7.705zm-35.719 23.813v-25.914c10.026 0 10.264 11.206.679 11.206v2.1c10.073.001 10.047 12.608-.677 12.608zm65.134-25.214a3.5 3.5 0 0 1 3.5 3.5v17.509c0 3.275-3.5 3.5-3.5 3.5a3.5 3.5 0 0 1-3.5-3.5V250.97c.001-3.27 3.502-3.502 3.502-3.502zm0-.7c1.934 0 4.2 1.568 4.2 3.5v18.91c0 3.274-4.2 3.5-4.2 3.5-1.934 0-4.2-1.568-4.2-3.5V250.27c0-3.27 4.202-3.502 4.202-3.502zm10.506.7c10.878 0 11.138 11.206 0 11.206v-11.206zm35.719 0c-10.193-.169-12.139 12.541 0 11.907v-11.907zm-159.683 25.214s.087-25.914 0-25.914c-11.326-.173-13.3 11.643-3.5 13.307-.274.694-5.6 12.607-5.6 12.607h.7l5.6-12.607h2.1v12.607h.7zm-.7-25.214c-10.193-.169-12.139 12.541 0 11.907v-11.907zm-18.91-.7c1.934 0 4.2 1.568 4.2 3.5v18.91c0 3.274-4.2 3.5-4.2 3.5-1.934 0-4.2-1.568-4.2-3.5V250.27c-.003-3.27 4.197-3.502 4.197-3.502z"/><path id="song" class="letters" d="M311.9 246.768a3.5 3.5 0 0 1 3.5 3.5v17.509c0 3.274-3.5 3.5-3.5 3.5a3.5 3.5 0 0 1-3.5-3.5V250.27c0-3.27 3.5-3.502 3.5-3.502zm67.236 25.914v-27.315c12.863 0 11.643 12.607 2.179 12.607v.7c9.945 0 11.127 13.92-2.176 14.008zm-91.049-1.4h.7V250.27l6.3 14.708 6.3-15.409v22.412h.7v-25.914l-7 16.809-7-16.809v25.214zm86.146-25.214v-.7H363.73v25.914h10.506v-.7h-9.805v-11.908h7.7v-.7h-7.7v-11.907h9.805zm18.91 25.914h.7v-25.214h8.4v25.213h.7v-25.914h-9.805v25.914zm32.918-25.914h7.7v.7h-3.5v25.213h-.7v-25.213h-3.5v-.7zm44.123 0v25.914h.7v-7.7l7-13.307v21.011h.7v-25.919h-.7v3.5l-7 13.307v-16.807h-.7zm-15.408 0v25.914h.7v-13.308c12.086 0 12.072-12.607-.697-12.607zm37.12 25.914s.087-25.914 0-25.914c-11.326-.173-13.3 11.643-3.5 13.308-.274.694-5.6 12.606-5.6 12.606h.7l5.6-12.606h2.1v12.606h.7zm-82.644 0h.7l1.4-6.3h7.7l1.4 6.3h.7l-5.6-25.914zm6.3-23.812l-4.2 16.809h7.7zm-35.719 23.812v-25.915c9.883 0 10.692 11.206.679 11.206v2.1c10.323.002 10.012 12.608-.673 12.608zm65.135-25.213a3.5 3.5 0 0 1 3.5 3.5v17.509c0 3.274-3.5 3.5-3.5 3.5a3.5 3.5 0 0 1-3.5-3.5V250.27c.004-3.27 3.506-3.502 3.506-3.502zm0-.7c1.934 0 4.2 1.568 4.2 3.5v18.91c0 3.275-4.2 3.5-4.2 3.5-1.934 0-4.2-1.568-4.2-3.5v-18.91c.004-3.269 4.206-3.502 4.206-3.502zm10.5.7c10.878 0 11.139 11.206 0 11.206v-11.207zm35.72 0c-10.194-.169-12.14 12.541 0 11.906v-11.907zm-159.675 25.212s.087-25.914 0-25.914c-11.326-.173-13.294 11.643-3.5 13.308-.273.694-5.6 12.606-5.6 12.606h.7l5.6-12.606h2.1v12.606h.7zm-.7-25.213c-10.194-.169-12.139 12.541 0 11.906v-11.906zm-18.91-.7c1.934 0 4.2 1.568 4.2 3.5v18.91c0 3.275-4.2 3.5-4.2 3.5-1.934 0-4.2-1.568-4.2-3.5v-18.91c-.003-3.268 4.197-3.501 4.197-3.501z"/><path id="speed-shadow" class="shadows" d="M183.034 314.7l9.805 14.008 9.1-14.008h-18.91zm1.4.7l8.405 11.907 7.7-11.907h-16.105zm75.641-5.6h.7v11.206h-.7V309.8zm-2.8 23.113v-.7l17.51-17.509h.7zM217.352 314c3.6-11.971 17.018.321 5.6 4.9v1.4c15.769 8.308-2.036 21.442-7 9.1h-.7c5.049 13.575 24.28-.98 8.4-9.1v-.7c11.879-7.215-3.754-17.593-7-5.6h.7zm54.024 12.92c.865-4.253 6.494-1.055 2.122 2.049v.586c5.972 3.472-.784 8.726-2.652 3.8h-.265c1.931 5.732 9.394-.368 3.182-4.1 4.645-3.192-1.5-7.545-2.652-2.342h.265zM239.064 314c3.6-11.971 17.017.321 5.6 4.9v1.4c15.768 8.308-2.036 21.442-7 9.1h-.7c5.048 13.575 24.279-.98 8.4-9.1v-.7c11.878-7.215-3.755-17.593-7-5.6h.7z"/><path id="speed" class="letters" d="M183.734 314l9.8 14.007 9.11-14.007h-18.91zm1.4.7l8.4 11.906 7.7-11.906h-16.099zm75.64-5.6h.7v11.206h-.7V309.1zm-2.8 23.112l-.7-.7 18.21-18.21.7.7zM218.052 313.3c2.285-10.175 17.149-2.524 5.6 4.9v1.4c15.769 8.308-2.071 20.877-7 9.1h-.7c5.1 13.712 24.808-.881 8.405-9.806 12.266-7.637-3.966-18.051-7-5.6h.7zm21.712 0c2.284-10.175 17.149-2.524 5.6 4.9v1.4c15.769 8.308-2.071 20.877-7 9.1h-.7c5.1 13.712 24.808-.881 8.4-9.806 12.266-7.637-3.966-18.051-7-5.6h.7zm32.313 12.921c.865-4.253 6.494-1.055 2.121 2.049v.586c5.972 3.472-.784 8.725-2.652 3.805h-.265c1.931 5.731 9.395-.368 3.183-4.1 4.645-3.192-1.5-7.545-2.653-2.342h.266z"/><path id="logo-shadow" class="shadows" d="M553.532 334.315v-.7s32.917 2.786 32.917-4.2c0-8.261-59.531-10.051-59.531-1.4 0 12.359 77.741 15.923 77.741 2.8 0-13.37-93.85-20.846-93.85-3.5 0 6.637 13.26 6.3 16.109 6.3 16.375 0 53.928-53.228 53.928-53.228h.7s-31.341 48.326-26.614 48.326c2.951 0 31.516-30.817 31.516-30.817h.7l-37.82 53.229h-.7L585.049 300s-25.623 29.416-30.817 29.416c-5.894 0 25.914-47.626 25.914-47.626s-35.845 52.529-53.228 52.529c-2.927 0-16.809.291-16.809-7 0-18.112 95.251-10.8 95.251 3.5 0 14.349-79.143 10.3-79.143-2.8 0-9.32 60.933-7.515 60.933 1.4 0 7.662-33.618 4.896-33.618 4.896zm35.719-42.023l4.2-4.2 1.4 2.8-1.4-2.8 1.4-4.2-1.4 4.2-4.2-1.4 4.2 1.4zm-.7.7l4.9-3.5 2.1 2.8-1.4-3.5 4.9-.7-4.9-.7 1.4-5.6-2.8 5.6-5.6-1.4 4.9 2.1z"/><path id="logo" class="letters" d="M554.232 333.614v-.7s32.918 2.785 32.918-4.2c0-8.262-59.532-10.051-59.532-1.4 0 12.359 77.742 15.923 77.742 2.8 0-13.369-93.851-20.845-93.851-3.5 0 6.637 13.261 6.3 16.109 6.3 16.375 0 53.929-53.229 53.929-53.229h.7s-31.341 48.326-26.614 48.326c2.951 0 31.517-30.816 31.517-30.816h.7l-37.82 53.228h-.7l36.419-51.123s-25.622 29.416-30.816 29.416c-5.895 0 25.913-47.626 25.913-47.626S545 333.614 527.618 333.614c-2.927 0-16.809.291-16.809-7 0-18.111 95.251-10.8 95.251 3.5 0 14.35-79.142 10.3-79.142-2.8 0-9.32 60.932-7.515 60.932 1.4 0 7.666-33.618 4.9-33.618 4.9zm35.719-42.022l4.2-4.2 1.4 2.8-1.4-2.8 1.4-4.2-1.4 4.2-4.2-1.4 4.2 1.4zm-.7.7l4.9-3.5 2.1 2.8-1.4-3.5 4.9-.7-4.9-.7 1.4-5.6-2.8 5.6-5.6-1.4 4.9 2.1z"/></svg>