<svg viewBox="0 0 800 800" xmlns="http://www.w3.org/2000/svg"><path d="M400 0c220.914 0 400 179.086 400 400S620.914 800 400 800 0 620.914 0 400 179.086 0 400 0zm0 371a29 29 0 1 1-29 29 29 29 0 0 1 29-29z" fill="#fdf5ef" fill-rule="evenodd"/><path d="M91 387l-6-6 6-4v-7l-11 7-10-8-1 7 7 5-7 3-.263 6.74L80 386l10 6zm3-33l1-4s-17.281.288-23-2a20.535 20.535 0 0 0-2 4 8.852 8.852 0 0 0 3 1c-8.317 20.192 24.106 22.824 19 1a3.942 3.942 0 0 1 2 0zm-17 0c1.739.581 7.3.893 10 1 1.1 11.123-13.064 10.45-10-1zm19-13c-2.469-.772-4.531-1.228-7-2 1.721-6.436.133-10.787-4-12-4.089-1.2-10.574-1.987-12.644 14.912C78.447 343.743 88.909 345.17 95 347c.3-1.158.69-4.851 1-6zm-18-4s1.088-6.86 5-6c4.163.916 2 7 2 7zm20-8l2-5-9-3s.22-3.428 1-4c.367-.269 7.345-.744 10-1 .519-1.316 1.466-3.7 2-5-5.66 1.638-12.164-.989-14 2 .7-4-5.672-7.284-7-9-.905 2.709-2 6-2 6s4.17 1.476 5 5c.187.792-1 4-1 4l-6-2-1 6zm8.545-26.029L85 294l-2 5 21 9s2.1-4 2.545-5.029zM109 279c-2.808-1.017-4.962-.44-7 2 .333-2.572-.624-5.168-3-6-2.116-.74-6.819-1.751-12 13 5.727 2.859 15.273 7.141 21 10-.43.936 9.008-16.1 1-19zm-17 7c.855-8.38 7.331-9.2 6-2-.458 2.478 3.812 3.481 4 3 2.837-7.24 9.8-4.252 3 5-.891-.457-13-6-13-6zm22-21c-.324-1.791 4.2-3.7 5 0 4.762 22.024-37.453 7.038-15-9 1.8-1.284 4.594 3.1 3 4-13.023 7.365 9.384 18.2 7 5zm9-20c-6.215-3.107-8.365 1.37-11 5-.4.268-5-3-5-3l-3 5s18.465 9.732 19 10c4.147-5.753 7.6-13.2 0-17zm-2 11l-5-3s1.656-5.873 5-4 0 7 0 7zm23-32l-6-4-1-8 10 8 3-5-16-13-3 4v9l-4-3-4 6 17 11zm12-17l-4-3-2-9 10 7 3-4-16-13-3 4 3 10-7-5-4 6 16 12zm-20.924-16.229q-.635.845-1.264 1.692c3.945 2.855 10.3-4.642 6.174-8.043q-.654.825-1.3 1.655c1.446 2.194-1.949 5.092-3.61 4.696zm71-35.469c1.7 2.069 4.571 5.4 4.571 5.4l2.158-1.829-1.828-2.158 12.865-9.974 2.825 2.24 3.155-1.746-5.486-6.473-2.158 1.828-12.8-15.105-8.632 7.314s9.411 13.485 5.334 20.501zm10.954-11.136s-4.184 3.422-6.473 5.486c.543-7.05-2.9-9.5-4.909-13.45.325-.407 3.237-2.743 3.237-2.743zM229 130l5-4 6 8 4-3-13-18-4 3 4 6-6 4-4-6-4 3 13 19 5-4zm80.427-25.682c.149-.083 9.387-4.953 4.69-15.709-4.741-10.854-14.015-5.883-14.659-5.524-5.871 3.268-7.749 9.726-4.367 16.417.009.007 4.961 10.036 14.336 4.816zM301.6 87.539c.472-.262 5.432-1.922 8.035 3.93a6.78 6.78 0 0 1-2.524 8.253c-2.836 1.674-6.1.771-7.362-1.619-2.02-3.817-2.018-8.412 1.851-10.564zM492 94c9.88-11.953-10.475-17.946-14.824-7.015-.565 1.42 1.5 2.075 2.9 1.137 9.285-6.23 14.3 3.735 2.926 3.878-1.934.122-1.827 3.173 0 4 12.3 4.351-7.058 12.284-6 1 .121-1.293-4.888-1.91-5 0-.942 16.1 27.638 15.186 19.998-3zm90.477 54.158s-.08-.769-.122-1.154a4.414 4.414 0 0 0-2.769.159 4.706 4.706 0 0 0-1.839 1.854l-1.175 1.813q1.361.825 2.714 1.664l1.511-2.282zM655 230l17-5-12 12 4 5 17-18-6-7-23 9zm68.089 151.321c.026 1.437 1.729 2.74 2.548 3.25a5.148 5.148 0 0 0 2.834.468l2.388-.1-.268-3.716s-5.974.099-7.502.098zm-592.325-134.31L133 242l-7.768-4.066a23.871 23.871 0 0 1 1.668-3.771c.73-1.094 9.492.688 10.1-.163s2.251-3.808 3-5c-5.857.648-11.681-3.632-14-1 1.368-3.824-2.984-7.083-4-9-.746 2.432-3 5.27-3 6s3.784 3.386 4 7c.049.813-2 3-2 3l-6-4-3 5zm50-64.251c-1.649-1.994-3.129-3.5-4.777-5.494 4.952-4.456 5.993-8.969 3.19-12.24-2.773-3.235-7.781-7.432-18.73 5.606 4.108 4.856 12.1 11.756 16.207 16.612.879-.808 3.221-3.69 4.107-4.484zm-12.908-13.168s4.653-5.157 7.463-2.3c2.991 3.038-2.14 6.958-2.14 6.958zm20.318-24.226l3.323-2.637 14.066 17.724-3.438 3.631s-1.462-1.47-2.148-2.115c-11.789 18.382-31.739-7.181-10.924-15.5a13.994 13.994 0 0 1-.882-1.103zm9.556 13.179a63.445 63.445 0 0 1-7.148-7.868c-12.831 5.18-2.57 20.132 7.145 7.868zm52.141-56.39l3.867-1.888 10.2 20.518-4.192 2.843s-1.14-1.765-1.685-2.549c-15.645 15.6-30.017-13.916-7.549-17.642a14.118 14.118 0 0 1-.644-1.282zm6.685 15.062a64.3 64.3 0 0 1-5.424-9.3c-13.862 2.349-6.856 19.311 5.421 9.3zm16.261.255c-.916-2.5-1.833-4.462-2.75-6.959 6.245-2.763 8.753-6.859 7.155-10.988C275.639 95.44 273.87 89.762 259 99c2.32 6.113 6.68 13.887 9 20 1.116-.506 3.7-1.038 4.814-1.528zm-7.989-17.157s6.19-3.549 7.934.174c1.856 3.962-4.381 6.139-4.381 6.139zM283 93l7-3-1-4-12 5 8 21 4.605-1.955zm50-12c2.045.475-.69-5.933-2-6-27.223-1.383-9.149 41.5 7 18 .355-.517-3.727-2.369-4-2-9.9 13.367-20.926-14.631-1-10zm18 14h5l-2-23-18 1 2.877 23.454L344 96l-2-19h7zm19.773-5.4l.02-.886.887.02.3-13.3-.887-.02.02-.886 15.071.343-.02.886-.887-.02-.3 13.3.887.02-.021.886-5.319-.121.021-.886.886.02.3-13.3-6.2-.141-.3 13.3.886.02-.02.886zm-3.559-28.749c-1.247 1.184 2.15 4.968 4.671 5.114-.5 2.45 3.978 4.691 5.516 4.188.027 2.513 5.349 1.966 6.281 1.49-1.833-5.986.234-6.224 2.376-6.321 5.618-.255 3.012 6.878 8.294 6.724-2.816 1-1.783 7.009-.564 7.127-1.345.928-.874 5.56.282 6.2-1.958.783-2.139 5.357-1.49 6.281-4.672.212-1.943 7.1-7.65 7.449-3.719.225-5-5.573-2.979-6.966-1.77-.787-4.239.581-4.349 1.973-2.407-1.451-7.813.05-7.892 2.134-3.8.346-5.83 6.065-4.993 7.328 9.113-5.53 13.4 2.942 22.307 2.537s13.021-5.46 14.7-8.657c1.094 3.072 6.392 9.387 14.616 9.1s15.084-5.674 22.226.765c.5-2.364-1.773-6.674-3.865-6.926.185-1.655-4.043-5.662-6.442-5.033-.531-2.144-5.091-3.906-6.322-2.376 2.356 4.142-.841 6.2-3.261 6.362-4.409.287-1.758-8.8-6.6-8.576 2.356-1.494 1.5-5.675.6-6.241.9-1.255.446-5.453-.282-6.2 1.326-1.361.938-6.083-.281-6.2 5.793-.35 1.7-6.291 6.8-6.523s4.481 4.21 2.094 7.006a4.4 4.4 0 0 0 5.234-2.013c2.47.928 6.2-.67 7.006-2.094 1.92.26 6.353-3.121 6.805-6.523-10.749 3.87-12.887-3.679-21.461-3.463a21.815 21.815 0 0 0-16.508 7.851c-2.163-3.717-5.771-8.614-15.462-8.174s-14.221 4.237-19.407 2.652zM418.1 75.593l5.319.121 3.425 5.4 3.667-5.238 5.319.124-.02.886-.887-.02-.3 13.3.887.02-.02.886-6.206-.141.02-.886.887.02.2-8.865-3.647 4.352-3.444-4.519-.2 8.867.886.02-.02.886-6.205-.141.02-.887.886.02.3-13.3-.886-.02zm17.972-10.235a4.656 4.656 0 0 1-3.586 1.692c-.657.894-5.084 2.476-6.246 1.632a10.44 10.44 0 0 1-1.814 1.733c1.272-7.967-9.607-8.1-10.617-1.128-.409 2.832-13.009 2.067-8.809-2.861 3.267-3.833 7.081-6.048 13.439-5.9s7.827 4.518 17.633 4.832zm-27.663 7.354c4.818.109 2.577 4.653 1.652 5.359 1.53.671 1.692 5.52-.141 6.206 2.512 1.606 2.443 6.355-1.914 6.165-2.36-.1-4.235-4.811-1.652-5.359.761-.161.933-6.565.161-7.092-1.789-1.222-2.105-5.37 1.894-5.279zm-11.948 18.355c-4.515-.1-1.633-4.632-.765-5.339-1.433-.669-1.578-5.518.141-6.206-2.352-1.6-2.15-7.235 1.934-7.052 2.211.1 2.746 3.415 1.292 5.351-.439.585-.811 7.182.179 7.987 1.607 1.308.968 5.344-2.781 5.259zm-25.97-28.086c.8 1.02 1.856 2.628 3.491 2.756-.478 1.082 3.165 3.537 4.367 2.744.6 1.651 3.327 1.667 3.5 1.854-.909-8.038 10.023-8.534 10.717-1.507.282 2.855 11.093 2.6 7.114-2.522-3.1-3.988-4.984-6.322-11.353-6.467s-8.009 3.274-17.836 3.142zm-3.526 38.059c.841-.983 1.988-3.412 3.627-3.466.309-1.54 5.794-2.735 7.132-1.612 1.237-2.427 2.494-.648 2.68-.826-1.273 7.989 8.539 7.877 10.617 1.128 1.65-5.356 14.029-5.055 7.032 2.821-3.351 3.773-5.534 5.2-12.532 5.037-5.363-.122-10.273-7.346-18.556-3.082zm69.127 2.458c-.8-1.023-1.85-2.612-3.486-2.74.121-1.367-3.849-4.731-5.238-3.667a4.933 4.933 0 0 0-3.486-2.74c1.917 7.72-8.916 9.461-9.811 2.438-.912-7.148-12.1-5.914-8.906 1.572 1.987 4.65 4.379 6.308 11.384 6.468 5.368.121 8.593-4.215 19.543-1.329zm81.381-10.933l4 1.6-8.347 21.335-4.924-1.195s.542-2.03.757-2.96c-27.043 1.9-9.346-33.344 7.992-17.446.197-.614.522-1.334.522-1.334zm-6.663 15.072a64.214 64.214 0 0 1 3.245-10.269c-12.402-10.134-20.255 10.598-3.245 10.269zm24.361 9.78c.914-2.844.26-4.975-2.252-6.923 2.583.239 5.143-.811 5.888-3.215.664-2.141 1.5-6.878-13.425-11.523-2.651 5.826-6.584 15.521-9.235 21.347-.947-.395 16.415 8.421 19.024.314zm-7.61-16.736c8.406.551 9.589 8.192 2.439 6.319-2.437-.638-3.284 3.07-2.078 3.674 7.63 3.82.929 10.385-5.887 3.215.424-.908 5.526-13.208 5.526-13.208zm18.078 28.5c.165.032 10.238 2.247 12.923-8.588 2.709-10.934-7.451-13.1-8.165-13.239-6.5-1.281-11.777 2.28-13.089 9.308-.001.005-2.054 10.47 8.331 12.516zm3.8-17.218c.523.1 5.368 1.993 3.943 7.918a6.181 6.181 0 0 1-6.835 4.474c-3.2-.55-5.208-3.256-4.783-5.8.678-4.069 3.39-7.439 7.673-6.595zm4.1 16.925c-1.059 2.033-2.721 5.414-2.721 5.414l2.047 1.4 1.088-2.165 11.487 8.563-.848 3.056 2.286 2.287 3.264-6.5-2.046-1.4 7.617-15.156-8.185-5.587s-7.417 11.78-13.995 10.085zm11.8 6.6s-3.873-2.741-6.139-4.19c5.531-1.394 6.354-5.043 8.75-7.841.408.176 3.069 2.1 3.069 2.1zm21.146 15.673s-.08-.769-.122-1.154a4.414 4.414 0 0 0-2.769.159 4.706 4.706 0 0 0-1.839 1.854l-1.175 1.813q1.361.825 2.714 1.664l1.511-2.282zm6.074 9.616L599 158v9l5.066 2.814 1.444-12.214L618 153l-6.008-3.656L606 151l1-7-4.742-2.616-3.225 11.133L588 157zM634 165l3.819 4.126-16.763 15.619-3.92-3.209A5.658 5.658 0 0 1 618 180c-22.035-4.9 1.546-35.407 14-13 .444-.468 2-2 2-2zm-13 12c.987-1.577 4.961-5.181 7-7-6.478-14.684-23.681 1.256-7 7zm6 17c2.567-1.592 3.433-2.408 6-4 4.526 6.168 10.756 8.068 14.982 5.346 4.181-2.694 7.756-7.286-5.982-21.346-5.666 4.583-12.094 10.057-18 15 .822 1.1 2.194 3.9 3 5zm15-13s7.612 6.914 3.873 9.7c-3.98 2.966-8.873-5.7-8.873-5.7zm5 35l4 5 18-13-12-15-17 13 4 5 13-10 4 5zm47 31l2 4-23 11-3-4s2.917-1.462 4-2c-19.59-11.214 11.755-33.093 17-8a26.784 26.784 0 0 1 3-1zm-15 6c1.8-.822 4.669-1.925 6.666-2.763.91-17.609-22.946-4.443-6.666 2.763zm17 18c-.218.678 4.854 3.489 5 3 9.936-33.317-42.782-9.656-14 6 .551.3 2.722-6.712 2-7-13.8-5.51 12.24-18.286 7-2zm11 17l2 7 5.341-1.862-5.243-18.48L703 276l1 6-17 5 2 6zm-6 42l-2-5 11-7-14-2-1-5 11-7-13-1-1-5h22l1 7-7 5v1l9 2 3 5zm26.958 14.09l.443 4.87-23.762 4.161-1.376-4.765s3.035-.593 4.16-.809c-18.065-22.441 22.973-33.31 17.522-2.948a10.463 10.463 0 0 1 3.013-.509zm-15.176 1.958c1.849-.286 4.725-.543 6.752-.791 5.566-20.82-21.759-14.318-6.752.791zM723.1 389.3c.017 1.437 1.712 2.751 2.528 3.267a5.15 5.15 0 0 0 2.83.485l2.389-.09-.244-3.717s-5.976.062-7.503.055zm-10.815-17.574c.391.6-3.427 4.948-3.707 4.519-20.924-32.1 40.272-28.035 11.423.759-.445.444-.911-5.111-.438-5.73 11.166-14.605-17.263-14.884-7.279.448zM177 362a22.23 22.23 0 0 0 6 2c4.55-.11 12.925-3.378 14-10 1.021-6.294-1-8-1-8 4.917-6.375 1.272-11-4-11s-8.955 2.695-13 8c-4.357 5.715-5.385 12.075-5 14-1.232.539-4.1 1.555-6.1.477 4.236-5.007 6.488-16.683 2.1-18.477-8.786-3.592-14.97 3.665-16.9 8.086s-6.659 8.432-8.453 7.416A27.753 27.753 0 0 0 147 348c3.2-13.375-2.882-22.067-10-22-11.57.109-15.822 9.108-17 12s5.653 3.824 7.335-.149c1.7-4.015 6.031-5.425 9.665-4.851 4.149.655 5.883 6.273 5 10-3.038 12.81-10.875 15.294-16 15 4.783-6.895 11-17 11-17 2.426-5.015-3.708-5.473-6-1 0 0-9 16-8.959 15.907-2.833-1.562-6.774-1.385-8.041.093s-1.95 6.416-1 8 8.781 2.337 9 0c9.027.805 13.609-.35 18.154-3.967 5.552.722 9.849-5.089 9.695-3.841.025-.206-1.625 4.321 2.151 6.808 2.29 1.508 5.718 1.391 9.233-.289 1.932.789 13.667-.053 15.767-.711zm-19.092-5.109a5.026 5.026 0 0 0 3.7-1.346c1.424-1.145 7.447-9.739 2.161-10.4q-1.748-.219-4.03 1.61c-1.892 1.512-6.631 9.533-1.831 10.136zM191 339c-3.731 0-5.431 2.674-9 9s-.1 7.91 1 8c2 .162 5.6-.54 6-3 .411-2.532-2.54-3-4-3s-1.623-4 3-4 6.731-7 3-7zm230 17c-3.488 2.575-17.268 8.966-21 5-1.329-1.412 0-6 0-6-4.982.637-9.732-.256-12-2a28.443 28.443 0 0 0-3 1c-3.917 4.514-12.006 10-16 10-5.6 0-9.965-3.5-8-12-.3-.529-3.943-.529-5 0-.3.453-4.305 7.7-5 9-2.2 4.12-9.1 3.529-5-2-5.153 3.233-16.257 4.583-21 1-1.8 1.109-2.97 2-5 2s-6.653-2.785-7-4c-2 1.649-7.352 2.22-10 2-6.236 2.659-13.408 1.375-15-2-3.048 4.572-5.823 9.408-8 13-2.6 4.283-7.742.613-6-2a67.274 67.274 0 0 0 4-7 79.549 79.549 0 0 1-14 2c-2.673.089-7.155-1.768-7-4 .446-6.437 3.012-6.269 7-10 4.057-3.794-3.2-7.828-6-4-3.757 5.14-12.6 11.913-16 13-3.616 3.111-8.638 4-12 4-2.068 0-3.973-1.766-5-3-2.472 1.6-10.457 2.781-14 3s-7.788-1.768-7-4c2.146-6.085 4.012-7.269 8-11 4.057-3.794-3.069-7.726-6-4-1.661 2.111-5.3 1.875-5 0 .375-2.315 6.607-7 11-7 3.993 0 9.086 2.16 9 7-.061 3.469-.04 5.987-6 10-4.772 3.678 7.039 2.956 8 2 .5-10.492 6.522-16.059 13-16 9.215.085 10.286 5.648 10 11-.062 1.149 5.69-3.344 6-6 .271-2.33 5.607-6 10-6 3.993 0 10.086 2.16 10 7-.061 3.469-.04 4.987-6 9-1.556 1.049-1.865 3.774 5 3 2.176-.245 9.367-.932 11-3s4.238-7.456 5-8-1.823-.327-4 0-.068-5.565 2-6 10.557-.327 16 0 8.614 9.58 6 14c1.066.639 4.479-.7 5-2-.781-5.9 3.873-12.081 16-13 3.525-.247 5.42 5-3 5-7.524 0-8.742 10-3 10 5.135 0 6.888-1.314 11-10 2.349-4.962 9.17-3.774 7 1s-5.868 8.524-5 10c1.259 2.14 11.264.562 13-1s6.347-8.653 6-9c-.552-.552-2.83 0-5 0s.453-5.779 2-6a66.517 66.517 0 0 1 11 0c2.447.386-1.622 6.4-2 7 1.057-.6 3.4-.529 4 0a16.873 16.873 0 0 1 14-7c3.83 0 7.8 3.427 7.371 8.951A8.628 8.628 0 0 0 388 348a26.759 26.759 0 0 1 2-5c2.159-4.236 10.712-4.227 9-1-.6 1.122-3.223 5-4 6-2.575 3.322 6.924 2.824 9 0a53.4 53.4 0 0 0 3-5c2.159-4.153 11.072-4.016 9 0-.558 1.081-5.844 7.485-8 11-4.184 6.824 13-2 13-2s2.045-12 17-12c6.217 0 1.815 6-2 6-7.81 0-12.819 10 1 10 1.365 0 4.876-8.854 6-11 1.31-2.5 8-3.045 6 1-1.5 3.046-6.556 12.057-4 13 4.935 1.822-2.42 7.753-8 2-9.389 2.515-14.484-1.047-16-5zm-51 1c-1 .019-3.236-1.955-3-4 .33-2.857 3.53-7 8-7 4.065 0 4.417 4.329 3 7-1.283 2.418-3.968 3.924-8 4zm114 6c-1.856-4.433 6.209-8.775 9-3 1.518 3.141 2.813 6 9 6 7.507 0 9.127-12.946-3-9-3.854 1.254-7.8-6.815 0-8 12.69-1.928 2.951-15.876-6-5-3.038 3.692-9.462-.284-6.9-5.4 4.523-9.048 33.3-11.642 26.9 12.4 6.384 0 8.316 24-11 24-13.479 0-16.268-7.861-18-12zm108.17-4.237c.331 4.2 4.467 6.237 6.83 6.237 2.485 0 11.043-3.485 13-9 2.056-5.794 3.2-14.375-10-13 0 0 1.395-6.614 3-6 3.177 1.215 7.052-1.011 8-1 2.732.031 6.121-3.058 2.6-2.965-2.174.058-5.979-2.409-8.6-2.035s-5.608 2.964-8 6c-1.632 2.072-7.025 15.262-8 18a4.97 4.97 0 0 1-4 0c2.633-11.112 2.4-16-5-16s-14.627 6.269-16 14c-1.416 7.973 4.775 10 6.739 10 5.858 0 8.579-.7 12.261-4 1.247 1.157 5.852.879 7.17-.237zM583 351c-.934 2.492-5.571 8.181-8.219 8.181-2.492 0-4.338-3.209-2.781-7.181s5.574-8 9-8 2.934 4.508 2 7zm15 1a6.784 6.784 0 0 1 7-5c3.6.049 4.581 3.752 3 7-1.878 3.858-3.242 4.919-6 5-3.2.093-5.537-2.058-4-7zm13.267 20.136c1.165-2.043 15-32.877 15.994-35.168s-1.869-3.219-2.75-1.2-15.318 33.862-16 35.167c-.99 1.923 1.262 3.82 2.756 1.201zM665 337c9.086 0 6.329 11 2 11 4.329 0 6.883 17-10 17-7.164 0-8.865-3.971-9-6-2.029 3.924-9.347 7.871-13 3-2.571 5.277-13.441 2.774-14-4-.61-7.391 6.741-4.017 7-2 1.707 13.31 17.053-20.551 1.583-8.7-2.279 1.745-5.057-.987-1.583-4.3 5-4.766 10.7-4.818 13 1 1.759-2.3 5.961-6.083 9-3 3.1 3.144-.585 7.744-2 6-5.96-7.344-14.071 21.447 0 9 5.512-17.573 12.74-19 17-19zm-426 14c-1.482 4.313-4.487 6-7 6-1.816 0-3.354-1.462-2.6-3.934 1.4-4.573 4.312-8.066 7.6-8.066 3.133 0 2.833 3.576 2 6zm54-1c1.8-1.689 3.554-3 5-3 2.832 0 3.312 3.34 2 5a9.5 9.5 0 0 1-7 3c-2.986 0-1.278-3.792 0-5zm228 13c-1.856-4.433 6.209-8.775 9-3 1.518 3.141 2.813 6 9 6 7.507 0 9.127-12.946-3-9-3.854 1.254-7.8-6.815 0-8 12.69-1.928 2.951-15.876-6-5-3.038 3.692-9.462-.284-6.9-5.4 4.523-9.048 33.3-11.642 26.9 12.4 6.384 0 8.316 24-11 24-13.479 0-16.268-7.861-18-12zm143-22c-6 0-16.156 20-6 20 9.224 0 8.129-10 5-10-3.2 0-4.293-5 1-5 2.839 0 4.2-5 0-5z" fill="#548c7c" fill-rule="evenodd"/><path d="M171 328h429v-13c-.919-1.283-7.457-.588-8 0-2.026 2.195-5.875-4.816-7-4a4.638 4.638 0 0 1-6 0c-1.876-.853-7.9 5.839-8 6-.857 1.372-4-4-4-4v-61l-20-15h-6v-3h-4v3h-16v5h-14v19h-31v-37l-19-18-6-16-1-17-2-43h4c3.515 0 3.772-6 0-6h-4v-20s-1.425-4-4-4-4 4-4 4v20h-5c-3.086 0-2.572 6 0 6h5l-2 43-2 17-5 16h-9v39s-10 .931-10 3v29h-38v-32c-4.553-3.173-17-3-17-3v-32h-31v-3h-4v3h-7l-2 1v-2h-4v4l-12 7v45h-26v-10h-7v-12h-25v-10h-3v2h-15l-12 4v29h-3v-25h-3v25h-15l-10 7v48h-7v5zm65-69h30v55s-4.93-1.161-6 1c-.946 1.909-3.068 6.126-5 2-1.582-3.379-2.34-8.444-6-8s-9.562 9.22-13 8v-10h6v-3h-6v-3h6v-3h-6v-4h6v-3h-6v-3h6v-3h-6v-6h6v-3h-6v-3h6v-3h-6v-3h23v-2h-23v-6zm-13 0l12-4h26v-8h-38v12zm10 0l-10 3v50c3.833.083 7.833 3.75 10 0v-53zm-16 58c-.667-1.917 1.75-4 3-5v-73l-9 3 1 75h5zm-9-44v41h-2v-6h-8v-3h8v-3h-8v-3h8v-3h-8v-3h8v-3h-8v-3h8v-3h-8v-3h8v-3h-12v33l-4 3v-41h18zm-25 1l3-2v40l-3 2v-40zm62 49h9l-4-7zm-10 0l-6-6-4 6h10zm39-17h4v8h8v-8h10v15h5v-23l14-10v30s-10.067-1.368-11 1 4 2 4 2v2h-27s.479-2.96-2-3a17 17 0 0 1-5-1v-13zm1-4h21v-7h-21v7zm26-38v-42l14-8v50h-14zm-28 4v7h52v38s5.756-2.513 8-2 8.919 5.878 9 4-3.277-2.491-2-5 5.092-8.452 6-9 0-40 0-40h-13v9h-14v-2h-46zm47-54h34v55l-5-11h-20v7h-9v-51zm37 34h8v63c-4.6 7.092-4.742-3.342-8-2v-6h4v-3h-4v-4h4v-3h-4v-5h8v-6h-3v3h-5v-3h4v-4h-4v-6h4v-2h-4v-5h4v-2h-4v-3h4v-2h-4v-3h4v-2h-4v-5zm21 33h34v9h-34v-9zm0 12h34v20s-4.446-.334-4 1a45.3 45.3 0 0 0 3 7c1.267 2.177 19 1 19 1s2.2-3.949 4-4 1.98 4.225 4 4 7.947-2.742 8-4 2.718-1.748 4-1 2.9-4.323 4-4 4.26 8.035 6 8 5.222-1.954 7-2 3.395 3.23 5 3 1.976-6.139 3-6v-14h6v12h5v-12h3v12h3v-12h9v16s-3.655-.133-5 1a3.392 3.392 0 0 0-1 3s7.218-1.971 9-1 8.565 1.845 10 0 5.906-3.574 9-1 5.454 2.655 9 0 8.611-1.737 10-3-1.546-7.318-4-6-8.686 7.655-11 7-2.3-3.535-1-3 2-1 2-1v-53h-17v-15h36v69s-4.4 4.426-3 6 5.763 1.655 7-1 4.126-4.362 6-2 4.093 1.861 6 0 4.473-1.368 5 1 2.043 4.046 4 2 3.82-5.742 5-5 3.39 1.671 5 0 3.765.23 5 3 3.324 5.241 6 3 6.3-4.362 7-3v4H312s3.013-4.77 8-3 9.751-4.34 13-4 6.081 4.828 11 5 5.238-11.731 9-9 3.612 7.437 6 8 3.791-3.155 5-2 4.546 4.442 7 3-1.247-5.53 0-6 .932 5.632 3 6 8.469 1.241 11 0 5.234 2.024 7 2 2.8-2.759 5-3 6.162 2.23 8 2-3.2-2.541-4-4-5.336-2.15-9-1-8.7 2.068-9 0-5-2-5-2v-22zm39 24v-67h5v4.128l-3-.128v2h3v4h-3v2h3v4h-3v2h3v4h-3v2h3v4h-3v2h3v4h-3v2h3v4h-3v2h3v4h-3v2h3v4h-3v2h3v12zm8 1V217h36v47h60v8h-75l-3 4h17v38s-4.478-4.3-7-5-3.646 2.883-6 3-7 3-7 3v-8h15v-3h-15v-4h15v-3h-15v-4h15v-3h-14v-4h14v-3h-15v-21h-3v52h-5v-59h13v-3h-13v-3h13v-3h-13v-3h13v-3h-13v-3h13v-3h-13v-3h13v-3h-16v84s-1.959 3.236-1 6-3 0-3 0zm1-104h29v-5h-29v5zm15-9l3-7 4 7h-7zm-7 0l7-8-3 8h-4zm20 1l-4-1-4-9h3zm-18-16l5-4 2 3 1-9 4-4v-3l-5 5-1-4-1 4h-2v-5h-1l-.839 6.992L440 181v3c-.143-.016-3.657 2.926-3.657 2.926zm6-18l1-2 2 1-2-5 3-3-5-1-1-3h2l-3.28-1.71s-.491 9.97-.442 9.919L440 165l1 2-1 3-2 2 1 1 1-1h2zm7-11l-3 2 1-5 1-1v-4zm-3-6h-3l-4-4 .723-14 3.277 4 4 3v4l-2 2-1-6-3-1v6zm-3-19l1-6 2 6h-3zm0-18h3l-1-4h-2v4zm-1-8l4 1v-4h-3zm2-7h2v2l-2 1v-3zm20 116l8 7v35h-8v-42zm61 23v-2h13v2h-13zm-309 81h-38v-5a10.291 10.291 0 0 0 4 1c1.75-.083 3.667-2.917 6-2a4.5 4.5 0 0 0 5-1c.667-.833 4.036-2.478 5 0 .718 1.846 1.449 5.987 3 5 .917-.583 3-5.25 5-5s1.583 4.167 4 4 3.917.083 5 1a2.564 2.564 0 0 1 1 2zm10-73h32v2h-32v-2zm24 20v3h10v-3h-10zm0 6v3h10v-3h-10zm0 9v3h10v-3h-10zm0 6v3h10v-3h-10zm0 6v3h10v-3h-10zm0 7v3h10v-3h-10zm81-26v2h10v-2h-10zm0 6v2h10v-2h-10zm0 6v2h10v-2h-10zm0 11v2h10v-2h-10zm-8-80v3h28v-3h-28zm0 8v3h28v-3h-28zm0 8v3h28v-3h-28zm0 8v3h28v-3h-28zm0 8v3h28v-3h-28zm13 55v2h2v-2h-2zm-2-36v2h7v-2h-7zm2-9v2h5v-2h-5zm45 40h2v-3h-2v3zm0 10h2v-7h-2v7zm8-10h2v-6h-2v6zm0 10h2v-7h-2v7zm5-10h2v-6h-2v6zm0 10h2v-7h-2v7zm8-10h2v-6h-2v6zm0 10h2v-7h-2v7zm-19-30v2h24v-2h-24zm47-62v3h27v-3h-27zm18 7v3h9v-3h-9zm0 6v3h9v-3h-9zm0 6v3h9v-3h-9zm0 6v3h9v-3h-9zm0 6v3h9v-3h-9zm67-3v2h6v-2h-6zm15 0v2h11v-2h-11zm0 6v2h11v-2h-11zm0 6v2h11v-2h-11zm0 6v2h11v-2h-11zm0 6v2h11v-2h-11zm0 6v2h11v-2h-11zm4 24v2h7v-2h-7zm-19-48v2h6v-2h-6zm15 30v2h11v-2h-11zm0 6v2h11v-2h-11zm0 6v2h11v-2h-11zm-55-5v5h26v-5h-26zm38-16v8h10v-8h-10zm0 10v8h10v-8h-10zm0 10v8h10v-8h-10zm0 10v9c0 5 4.333-4.75 10 0v-9h-10zm-5-27v40l2-1v-39h-2z" fill="#548c7c" fill-rule="evenodd"/></svg>