<svg viewBox="0 0 800 800" xmlns="http://www.w3.org/2000/svg"><path class="cls-1" d="M400 0c220.914 0 400 179.086 400 400S620.914 800 400 800 0 620.914 0 400 179.086 0 400 0zm0 371a29 29 0 1 1-29 29 29 29 0 0 1 29-29z" fill="#fff6bf" fill-rule="evenodd"/><path d="M21.936 266.489h755.128L780 276H20s1.841-9.513 1.936-9.511zM164 121l45 45 1.718-1.282-30.011-30.436L231 144l-7-47 25 35 6-6-36-52 9 61zm5.089 2.82L178 131l51 11-1-5zM222 82l31.315 44.673-3.872 2.853-25.171-36.143zm59-35l1 2-28.685 13L265 83l25-11 1 2-25 11 13.454 24.553 24.2-10.463L304 101l-33 14-28-50zm-35.43 18.8L251 63l27 48-5.323 2.357zM321 45l-8.63 55.041L310 101l12-72 41 58-11 2zm2-11l37 52-7 1-31-45zm77-10c21.89 0 32 13.831 32 28 0 17.834-6.587 34-32 34s-33.758-15.88-34-33 10.281-29 34-29zm-32 29c-.138 23.68 21 30 21 30s-13-7.424-13-29c0-18.2 11-27 11-27 0 .029-18.878 5.032-19 26zm43-26s18.271 6.362 18.511 25.485C429.852 79.62 410 84 410 84s12.315-9.3 12-31c-.269-18.523-8.667-24.1-11-26zm-3.755.756c19.932 9.941 12.585 50.029 0 55.165-2.406.982-14.73.633-16.458-.951-17.426-15.979-15.877-45.274 0-54.214 3.138-1.767 12.563-1.943 16.458 0zm23.235 56.116L430 86s10.487.543 31 5c18.72 4.067 37.216 12.136 37 12l.247-2.008-6.776-2.853L485 34l-42 51zM445 85.774L477 47l5 48a160.973 160.973 0 0 0-22.313-6.465c-8.437-1.746-15.225-2.817-14.687-2.761zm33.884-40.9L483 39l7 59-5.306-1.763zM561 88l-23 34 8 6 33-48-57.518 18.139L541 58l-9-4-26 51zm-28-31l4.94 2.143L519 98l-9 4zm8 65l23-34 11-5-29 42zm51 44l41-39-19-19c-15.95-15.95-40.272 5.431-19 23-8.955.476-37 4-37 4l7.047 7.842L605 140l-20 18zm33-45s-1.04-1.691-10.579-10.5c-11-10.15-27.654 7.386-18.421 19.5 2.029 2.661 10 9 10 9zm-63 15l34-3c0-.093 6.008 5.332 6.008 5.332L567 141zm47-30c-11.266-7.6-27.589 7.376-17 19-3.816-10.063 9.108-20.457 17-19zm18 16l3.879 4.673L592 163l-4-5zM156.2 377.132c2.442 0 3.88 1.278 3.88 3.78 0 2.025-.629 4.4-6.146 3.725l.082 1.616c5.77-.97 6.81 1.919 6.81 4.054 0 2.793-1.687 4.437-4.6 4.437a7.77 7.77 0 0 1-2.93-.562s-1.138-3.958-1.588-3.958-.61 4.821-.61 4.821a15.328 15.328 0 0 0 4.979.863c4.739 0 7.719-2.059 7.719-5.93 0-2.465-1.429-4.282-4.341-4.793 2.242-.767 3.594-2.269 3.594-4.588 0-3.031-2.283-4.588-6.443-4.588a20.724 20.724 0 0 0-5.2.74l-.081.1s.264 4.327.814 4.327 1.451-3.547 1.451-3.547a7.478 7.478 0 0 1 2.605-.493zm18.274 16.668c.3-.141-4.912 2.054-4.912-1.9 0-1.862 1.133-2.574 4.938-2.574zm-3.148-9.669c3.114 0 3.174 4.081 3.174 4.081-5.318 0-7.719 1.3-7.719 4.109 0 2.282 1.682 3.588 4.223 3.588a6.29 6.29 0 0 0 3.62-1.383 1.826 1.826 0 0 0 1.823 1.369 15.2 15.2 0 0 0 2.5-1.232s-1.763.09-1.893-1.069c0-2.3.034-6.82.034-6.82.018-2.757-1.712-4.259-4.49-4.259-1.357 0-4.93.615-4.68 1.164s1.382.451 3.408.451zm14.694-.055h5.507s-.027 8.209-.027 10.162c-.078.906-1.492 1.328-1.492 1.328h6.01s-1.94-.544-1.94-1.506c.068-2.318 0-7.911 0-9.778 0-.511 1.858-1.452 1.858-1.452h-14.407s1.94.377 1.94 1.507v9.778c0 1.238-1.845 1.451-1.845 1.451h6.01s-1.524-.5-1.587-1.4q-.027-.63-.027-2.274v-7.82zm17.352 8.943l6.295-6.477s-.027 5.7-.027 7.641c0 1.067-1.642 1.383-1.642 1.383h6.159s-1.94-.51-1.94-1.506v-9.778c0-1.3 1.845-1.452 1.845-1.452h-6.145s1.736.568 1.736 1.438v.671l-6.281 6.478s.028-5.474.028-7.2c0-.668 1.641-1.383 1.641-1.383h-6.159s1.921.627 1.94 1.507v9.778c0 1.156-1.845 1.451-1.845 1.451h6.145s-1.75-.454-1.75-1.438v-1.109zm16.634-4.163c0-5.658 4.439-5.058 5.711-4.971 0 0 1.128 3.2 1.628 3.2s.8-3.127.8-3.752-2.537-.822-3.867-.822a6.748 6.748 0 0 0-7.054 7.039 6.206 6.206 0 0 0 6.444 6.355c3.531 0 4.857-1.044 4.544-1.356s-8.206.838-8.206-5.694zm38.626-4.574c0-1.213 1.845-1.452 1.845-1.452h-6.145s1.723.352 1.723 1.438c0 .86.027 3.985.027 3.985h-5.942s.027-3.179.027-4.04 1.642-1.383 1.642-1.383h-6.159s1.856.377 1.94 1.507v9.778c0 .829-1.845 1.451-1.845 1.451h6.145s-1.723-.48-1.723-1.438c-.008-.188-.027-4.7-.027-4.7h5.942s-.027 3.892-.027 4.752-1.642 1.383-1.642 1.383h6.159s-1.94-.523-1.94-1.506v-9.778zm11.411-.685c2.434 0 3.744 2.141 3.744 5.629 0 3.706-1.243 5.615-3.568 5.615-2.487 0-3.757-2.365-3.757-5.78 0-3.671 1.275-5.461 3.581-5.461zm.251-1.082c-3.983 0-6.613 2.817-6.613 6.834 0 3.908 2.525 6.56 6.274 6.56 3.838 0 6.613-2.808 6.613-6.971 0-3.872-2.508-6.424-6.274-6.424zm19.5-4.574v16.105c0 .874-1.98 1.52-1.98 1.52s6.465.041 6.69.041c4.664 0 7.445-2.086 7.445-5.738 0-2.52-1.551-4.208-4.354-4.683q3.594-1.219 3.595-4.588c0-2.794-2.056-4.328-6.029-4.328-.468 0-7.4.083-7.4.083s1.993.4 2.039 1.587zm4.186 8.012c3.512 0 5 1.355 5 4.2s-1.589 4.382-4.579 4.382c-.22 0-1.919-.233-1.919-.233v-8.312s.986-.041 1.5-.041zm-1.5-8.436s1.474-.1 1.675-.1c2.628 0 4.064 1.059 4.064 3.67 0 2.483-1.373 3.821-4.037 3.821-.576 0-1.7-.014-1.7-.014v-7.381zm28.653-.808l-.095-.11a20.585 20.585 0 0 0-4.693-.561c-6.367 0-10.731 3.912-10.731 10.175 0 5.879 3.952 9.805 9.795 9.805a10.326 10.326 0 0 0 6.05-1.862l-.149-.616a13.763 13.763 0 0 1-4.545.835c-5.119 0-8.18-3.433-8.18-8.765 0-9.6 7.859-8.349 10.174-8 0 0 1.124 3.519 1.533 3.519s.846-4.421.846-4.421zm8.535.917h5.834s1.287 3.862 1.573 3.862.855-5.135.855-5.135h-12.977s1.989.4 2.034 1.588v16.105c-.052 1.208-1.98 1.52-1.98 1.52h6.946s-2.2-.282-2.252-1.588c-.001-2.414-.028-16.353-.028-16.353zM480.506 393.9c3.925 0 6.283-1.442 6.283-4.008 0-1.775-1.172-2.952-3.429-3.3q3.082-.9 3.082-3.314c0-2.026-1.754-3.125-5.26-3.125 2.838 0-7.314.087-7.314.087s2.069.5 2.069 1.606v10.474c0 .679-1.968 1.533-1.968 1.533s8.044.047 6.537.047zm-.578-6.642c2.747 0 3.895.888 3.895 2.778 0 1.814-1.224 2.822-3.556 2.822-.3 0-1.609-.159-1.609-.159v-5.4s1.16-.044 1.27-.044zm-1.27-5.961s1.3-.058 1.479-.058c2.141 0 3.339.743 3.339 2.518 0 1.717-1.132 2.619-3.311 2.619-.134 0-1.507-.029-1.507-.029v-5.05zm11.676.391h3.126s-.029 9.89-.029 10.606-2.055 1.562-2.055 1.562h6.945s-2.141-.762-2.141-1.62-.029-10.548-.029-10.548h3.082s.982 3.429 1.447 3.429c.8 0 .839-4.717.839-4.717-3.626.055-12.534.012-13.326 0 0 0 .052 4.818.579 4.818.608-.003 1.562-3.533 1.562-3.533zm19.216-.478c2.595 0 3.993 2.262 3.993 5.947 0 3.916-1.326 5.932-3.806 5.932-2.652 0-4.007-2.5-4.007-6.106 0-3.883 1.36-5.776 3.82-5.776zm.268-1.143c-4.249 0-7.054 2.976-7.054 7.22 0 4.129 2.693 6.931 6.691 6.931 4.094 0 7.054-2.966 7.054-7.365 0-4.093-2.675-6.789-6.691-6.789zm10.381 2.055c0 6.615.029 16.147.029 17.189 0 1.278-1.968 1.534-1.968 1.534h7.047s-2.33-.644-2.33-1.649l-.029-5.195a13.182 13.182 0 0 0 2.332.217c5.032 0 7.884-2.942 7.884-7.669 0-3.839-2.288-6.482-5.9-6.482a7.692 7.692 0 0 0-4.314 1.519l-.145-1.519q-2.168.55-4.6 1.013s1.995.368 1.995 1.039zm2.749.332a5.884 5.884 0 0 1 2.773-.636c2.888 0 4.477 1.808 4.477 5.339 0 3.743-1.628 5.817-4.824 5.817a11.361 11.361 0 0 1-2.426-.275v-10.248zm20.186 9.536a5.783 5.783 0 0 1-2.5.506c-1.686 0-2.738-.685-2.738-2.517 0-1.968 1.209-2.721 5.267-2.721zm-6.657-9.724c.37.37 2.421-.492 3.3-.492 4.326 0 3.386 4.312 3.386 4.312-5.672 0-8.233 1.37-8.233 4.341 0 2.412 1.794 3.791 4.5 3.791a6.748 6.748 0 0 0 3.861-1.461 3.028 3.028 0 0 0 4.686.709c.266-.2-2.091-.216-2.091-1.693s.037-7.206.037-7.206c.019-2.913-1.827-4.5-4.79-4.5-3.566-.003-5.025 1.827-4.656 2.196zm21.531 10.129c0 .873-1.737 1.461-1.737 1.461h6.555s-2.069-.2-2.069-1.591v-10.334c0-1.209 1.982-1.534 1.982-1.534s-5.948-.029-6.85-.029c-3.332 0-5.507 1.394-5.507 3.805q0 2.575 2.981 3.5a24.549 24.549 0 0 1-3.1 4.862 5.656 5.656 0 0 1-1.737 1.3c.022 0 3.012.387 3.864-.362a35.307 35.307 0 0 0 3.436-5.238c.134-.336 2.207-.188 2.207-.188s-.025 3.472-.025 4.345zm.029-5.3h-1.183c-2.451 0-3.5-.974-3.5-2.807s1.12-2.764 3.362-2.764c.136 0 1.326.073 1.326.073v5.5zm17.84-5.383h4.24s1.109 3.256 1.548 3.256.926-4.471.926-4.471l-11.5-.1s1.979.387 2.069 1.591v10.332c0 1.233-1.968 1.533-1.968 1.533h6.787s-2.07 0-2.07-1.591c-.003-2.379-.032-10.549-.032-10.549zm10.042.406c0 1.772.029 13.773.029 17.189 0 1.331-1.968 1.534-1.968 1.534h7.047s-2.33-.382-2.33-1.649-.029-5.192-.029-5.192a13.182 13.182 0 0 0 2.332.217c5.032 0 7.884-2.942 7.884-7.669 0-3.839-2.288-6.482-5.9-6.482a7.692 7.692 0 0 0-4.314 1.519l-.145-1.519c-1.445.367-4.6.428-4.6 1.013s1.994.162 1.994 1.04zm2.749.332a5.884 5.884 0 0 1 2.773-.636c2.888 0 4.477 1.808 4.477 5.339 0 3.743-1.628 5.817-4.824 5.817a11.368 11.368 0 0 1-2.426-.275v-10.244zM238.474 393.8c.3-.141-4.912 2.054-4.912-1.9 0-1.862 1.133-2.574 4.938-2.574zm-3.148-9.669c3.114 0 3.174 4.081 3.174 4.081-5.318 0-7.719 1.3-7.719 4.109 0 2.282 1.682 3.588 4.223 3.588a6.29 6.29 0 0 0 3.62-1.383 1.826 1.826 0 0 0 1.823 1.369 15.2 15.2 0 0 0 2.5-1.232s-1.763.09-1.893-1.069c0-2.3.034-6.82.034-6.82.018-2.757-1.712-4.259-4.49-4.259-1.357 0-4.93.615-4.68 1.164s1.382.451 3.408.451zM230.725 178.77c1.777-1.9 2.324-8.535-3.631-6.051 1.6-2.34-2.337-6.757-5.952-2.862-1.473 1.588-4.375 4.837-4.375 4.837l9.292 9.218s3.093-3.457 4.666-5.142zm-10.74-4.88s1.57-1.812 2.42-2.645c1.88-1.842 4.142.771 2.553 2.576-.791.9-2.426 2.652-2.426 2.652zm3.861 3.915s1.756-1.82 2.561-2.8c1.882-2.283 5.353-.581 2.594 2.729-.8.955-2.515 2.747-2.515 2.747l-2.64-2.679zm9.265-10.95c-3.394-3.857.432-8.376 3.626-6.051q.906-1.006 1.822-2c-2.3-1.95-5.035-1.7-7.4.566-3.024 2.908-2.919 6.771-.244 9.735 4.406 4.883 8.342 1.253 8.986.634 2.421-2.33 2.842-5.265 1.423-7.541q-1.049.8-2.091 1.608c1.991 2.941-2.684 6.956-6.122 3.049zm18.958-10.97l-5.545 4.719-2.274-2.904 4.451-3.813-1.145-1.535-4.485 3.842-2.2-2.815 5.668-4.827-1.165-1.58-7.905 6.812 8.238 10.283 7.58-6.529zm.907-6.639c-3-4.208 1.192-8.208 4.124-5.526q.986-.883 1.978-1.755c-2.083-2.2-4.8-2.29-7.334-.339-3.243 2.5-3.492 6.318-1.13 9.567.08.111 3.858 5.526 8.786 1.724 2.6-2 3.282-4.851 2.093-7.268q-1.1.659-2.206 1.333c2.013 2.918-2.771 7.236-6.311 2.264zM272.24 135.5c-1.946-3.376-5.539-4.576-8.977-2.233a6.8 6.8 0 0 0-1.9 9.624c2.116 3.265 5.66 4.349 8.934 2.113 3.185-2.176 3.992-5.945 1.943-9.504zm-8.376 5.7c-1.762-2.782-1.649-4.886.365-6.263 2.044-1.394 3.925-.423 5.476 2.195q1.431 2.418 1.124 3.905a3.553 3.553 0 0 1-1.521 2.315c-1.826 1.248-3.735.555-5.444-2.152zm23.993-7.068c3.4-1.9 4.275-5.821 2.631-9.315-1.755-3.731-5.363-4.869-8.865-2.912a6.634 6.634 0 0 0-3.148 8.24c-.775.461-2.319 1.4-2.319 1.4l-2.578-4.7-2.413 1.5 6.52 11.58 2.291-1.419-2.882-5.251s1.531-.931 2.3-1.389a5.959 5.959 0 0 0 8.463 2.265zm-.01-7.947c1.3 2.685.979 5.194-.934 6.264-1.722.963-3.88.236-5.34-2.566-1.381-2.649-1.112-5.117.928-6.258 1.88-1.051 3.955-.309 5.346 2.559zm11.888 1.76c3.179-1.538 4.477-4.027 3.563-6.259-.643-1.575-2-2.115-4.078-1.573 1.461-1.226 1.925-2.5 1.37-3.857-.768-1.865-3.269-2.416-6.33-.935-3.023 1.467-4.227 3.521-3.626 6.056q1.159-.416 2.319-.816c-.341-1.46.48-2.3 1.97-3.411 2.7-2.009 5.677 1.375.674 3.932l.711 1.61c5.218-3.119 4.994 2.344 2.584 3.512-1.7.825-3.054.565-4.08-.807q-1.034.728-2.06 1.466c1.295 2.121 3.811 2.618 6.983 1.081zm12.844-20.352L310 108.606l1.867 5.173-5.328 2.2-1.981-5.125-2.558 1.113 4.95 12.414 2.425-1.054-2.094-5.418 5.285-2.185 1.973 5.467 2.453-.962zm9.663-3.494l-3.219 1.113-.464 14.419 2.1-.782.085-3.422 5.36-1.859 2.025 2.69 2.667-.855zm-1.468 9.266l.253-6.423 3.841 5s-2.733.934-4.094 1.421zm19.292-.657l2.525-.662-3.036-13.076s-4.3 1.133-6.446 1.745c-4.952 1.415-4.72 7.455-.255 7.778-.483 2.233-1.373 6.7-1.373 6.7l2.513-.765 1.155-6.139s2.4-.674 3.6-1c.439 1.811 1.317 5.418 1.317 5.418zm-1.766-7.261s-2.061.532-3.079.848c-3.575 1.111-4.964-2.824-1.194-3.808 1.114-.291 3.33-.919 3.33-.919zm17.955 3.956q1.11-.213 2.22-.415l-.269-1.632c4.019-1.1 5.555-3.464 5.141-6.416-.418-2.979-2.662-4.812-6.923-4.388l-.267-1.623q-1.174.213-2.346.438l.282 1.62c-4.057 1.115-5.654 3.651-5.062 6.626.584 2.934 2.834 4.589 6.94 4.159l.284 1.63zm-.583-3.346c-2.29.094-3.631-.853-4.017-2.892-.444-2.357.526-3.687 2.737-4.46l1.28 7.352zm1.036-7.785c2.369-.081 3.7.93 4.011 2.98a3.773 3.773 0 0 1-.462 2.8 4.542 4.542 0 0 1-2.335 1.581q-.606-3.683-1.214-7.365zm17.625-1.485l.836 9.4 2.569-.258-1.148-13.4-2.707.272.13 1.354-5.2 8.9-1.065-9.519-2.709.373 1.738 13.335 2.57-.355-.145-1.213zm8.815 3.343c1.22-.084 2.443-.115 3.66-.225 5.059-.456 6.324-8.457-.7-8.1-2.065.106-6.189.42-6.189.42l.979 13.42 2.584-.194-.333-5.323zm-.382-6.1q1.477-.1 2.956-.187c3.389-.193 3.723 3.747.445 4.014-1.048.085-3.149.2-3.149.2l-.252-4.024zm25.591-2.417l-4.29-.122-3.175 8.626-3.112-8.668-4.269.065.289 13.456 2.115-.041-.151-11.782 4.151 11.757 1.357.007 4.262-11.711-.287 11.78 2.64.083.47-13.451zm10.121.587l-3.353-.243-5.576 13.171 2.208.109 1.3-3.135 5.584.4.9 3.293 2.758.261zm-4.66 8l2.528-5.849 1.737 6.153zm18.123 7.031l1.489-11.274 5.394.839.315-2.055L431 93.528l-1.624 13.353zm10.172-3.723s2.409.458 3.611.7c5.278 1.068 7.252-6.816 1.173-8.04-2.034-.409-6.114-1.147-6.114-1.147l-2.122 13.279 2.556.461.9-5.252zm1.026-6.02q1.46.272 2.918.562c2.66.706 1.939 4.5-.488 4.009-1.034-.207-3.107-.6-3.107-.6l.677-3.971zm16.7 1.656l-3.279-.825-7.6 12.022 2.167.492 1.781-2.867 5.463 1.368.368 3.405 2.689.74zm-5.874 7.08l3.425-5.329.748 6.373zm26.851-.612l-4.1-1.431-5.439 7.29-.607-9.25-4.127-1.237-3.443 12.978 2.047.6 3.1-11.329.754 12.525 1.306.421 7.339-9.911-3.525 11.193 2.523.889zm19.608 10.5l-.98 11.841 2.552 1.262 1.126-14.306-3.2-1.5-9.38 10.443 2.1.926zm11.467 3.2l-10.1 9.8 2.022 1.025 2.379-2.344 5.074 2.718-.382 3.415 2.486 1.408 1.564-14.386zm-4.281 7.05c1.5-1.454 4.534-4.328 4.534-4.328l-.657 6.4-3.877-2.076zm11.869 4.788c2.436-3.734 6.769-2.522 6.362 1.708.59.3 1.529.788 2.292 1.189a5.663 5.663 0 0 0-2.588-7.187c-3.415-2.095-7.3.3-8.649 2.82a6.9 6.9 0 0 0 1.931 9.132c2.738 1.679 5.465 1.181 7.082-.944q-1.006-.8-2.019-1.58c-2.052 2.912-6.85-1.397-4.414-5.131zm16.407 5.159l3.416 2.417 1.113-1.721-9.466-6.487-1.038 1.773 3.47 2.3-5.829 9.6 2.4 1.641zm11.173 10.672l-5.418 7.526 2.132 1.709 7.766-10.705-2.247-1.8-.773 1.092-9.708 2.72 5.325-7.785-2.307-1.707-7.271 11.085 2.189 1.621.671-1zm16.249 8.705l-2.166-1.972-3.393 4.228-4.549-3.982 3.3-4.313-2.22-1.875-7.9 10.589 2.106 1.78 3.484-4.559 4.511 3.957-3.586 4.469 2.056 1.871zm7.42 16.49a6.818 6.818 0 0 0-.243-9.9c-3.031-3.016-6.931-2.656-9.39.277a6.928 6.928 0 0 0 .308 9.78c2.831 2.825 6.548 2.813 9.322-.15zm-7.436-7.424c2.129-2.482 4.1-2.86 5.893-1.082 1.817 1.808 1.4 4-.628 6.225-2.5 2.74-4.435 2.456-5.873 1.026-1.625-1.606-1.468-3.751.605-6.162zm16.388 13.956l5.669.007-1.988-2.327-9.045.155 4.818-4.924-2.026-2.2-9.069 9.486 1.92 2.095 2.318-2.369 4.451-.065-2.521 7.233 2.08 2.445zM482.121 120.4l3.8-10.777 5.036 2.021-4.024 10.689 2.429 1.023 4.845-12.469-10.219-4.1-4.324 12.678 2.455.936zM244.508 248.481l4.574 12.377h3.5l-5.714-14.872h-4.137l-5.741 14.872h2.837zm22.674 10.067h-8.5v-4.162h6.736v-2.157h-6.736V248.2h8.38v-2.212h-11.64v14.872h11.76v-2.31zm17.464-12.562h-3.262v6.114h-6.908v-6.112h-3.261v14.872h3.261v-6.46h6.908v6.461h3.262v-14.875zm15.912 3.445l-.079 11.427h3.248v-14.872h-3.248l-7.465 11.59.093-11.59h-3.262v14.872h3.262zm21.813-3.445h-3.262v6.114H312.2v-6.112h-3.26v14.872h3.26v-6.46h6.907v6.461h3.262v-14.875zm8.461 14.872v-12.573h6.568v-2.3h-9.824v14.872h3.261zm13.036-5.9h4.521c3.394 0 5.86-1.848 5.86-4.565 0-2.382-2.006-4.412-6.231-4.412h-7.412v14.872h3.262v-5.9zm0-6.754h3.566c2.564 0 3.394 1 3.394 2.222 0 1.351-1.087 2.234-3.1 2.234h-3.858v-4.456zm21.163-2.223h-4.018l-6.006 14.872h2.784l1.419-3.541h6.961l1.445 3.541h3.484zm-5.012 9.184l2.638-6.635 2.639 6.635h-5.277zm12.386 3.378l.015 2.306h16.568v-2.3h-1.326l-4.3-12.562H378.5l-4.774 12.562h-1.325zm7.69-10.067h.981l3.142 10.067h-7.7zm13.316 4.75c0-2.8 4.664-7.1 8.785-2.038l3.12-.255c-.639-3.3-3.247-5.127-6.951-5.127-4.725 0-7.594 3.047-7.594 7.462 0 .085-.192 7.473 7.471 7.473 4.05 0 6.672-2.088 7.074-4.989l-3.12-.265c-1.961 3.791-8.785 3.274-8.785-2.256zm22.3-.431l7.434-6.766h-3.405l-7.129 5.611v-5.611h-3.366v14.489h3.366v-5.662l7.553 5.662h3.762zm23.048-3.435l-.082 11.158h3.352v-14.484h-3.352l-7.7 11.317.1-11.317h-3.366v14.489h3.366zm19.7 0l-.082 11.158h3.352v-14.484h-3.352l-7.7 11.317.1-11.317h-3.367v14.489h3.366zm-3.79-4.689c2.463 0 4.1-1.281 4.187-2.908h-1.786q-.246 1.4-2.326 1.4-2.148 0-2.394-1.4h-1.793c.073 1.759 1.766 2.913 4.119 2.913zm26.385 16.07c4.652 0 7.21-2.006 7.21-4.511q0-2.771-3.926-3.408 3.378-.8 3.379-3.173c0-2.194-2.554-3.843-6.622-3.843q-6.048 0-7.006 4.129l2.983.351q.534-2.377 3.872-2.378c1.97 0 3.311.786 3.311 2.059 0 1.984-4.488 2.1-4.488 2.1v1.91s4.858.064 4.858 2.272c0 1.358-1.1 2.388-3.667 2.388q-3.571 0-4.255-2.749l-3.093.4c.354 2.699 2.963 4.458 7.451 4.458zm19.691-14.712h-4.146l-6.2 14.489h2.874l1.464-3.45h7.183l1.491 3.45h3.6zm-5.172 8.948l2.723-6.464 2.723 6.464h-5.439zm23.113 5.541c5.564 0 7.367-5.772 1.778-7.515 3.628 0 5.8-6.974-2.668-6.974h-7.279v14.489h8.169zm-4.974-12.418h4.036c3.824 0 3.97 4.012.069 4.012h-4.105V248.1zm0 6.082h4.365c3.71 0 3.739 4.161-.014 4.161h-4.351v-4.161zm30-.923c0-4.26-3.015-7.452-7.868-7.452-4.816 0-8.018 3.2-8.018 7.42 0 4.245 2.9 7.515 7.868 7.515 4.829.004 8.013-3.007 8.013-7.479zm-11.145 4.028a6.179 6.179 0 0 1-1.1-3.975q0-5.4 4.323-5.4c2.92 0 4.27 2 4.27 5.328q0 3.067-1.259 4.235a4.36 4.36 0 0 1-3.079 1.168 3.833 3.833 0 0 1-3.16-1.352zm13.035.982v2.495h17.117v-2.495h-1.368l-4.433-12.239h-5.022l-4.925 12.239H545.6zm7.936-9.808h1.013l3.243 9.808h-7.95zM681 228.548c-.17 4.824 4.636 6.464 6.5 6.464a6.288 6.288 0 0 0 6.5-6.464c0-3.849-1.322-5.656-3.609-5.656a5.831 5.831 0 0 0 2.166-4.04 5.056 5.056 0 0 0-10.1 0c0 1.519.4 3.259 1.443 4.04-.942 0-2.763 1.78-2.9 5.656zM670.863 216.9c-1.788 0-1.205-2.8-.108-2.8s10.451.129 10.451.129-7.122 18.143-7.55 19.228-3.261.99-2.793-.14 6.078-16.412 6.078-16.412h-6.078zM665 209.216v30.568l1.216 1.216h30.568l1.216-1.216v-30.568L696.784 208h-30.568zm30.176 2.215l-.607-.607h-26.138l-.607.607v26.138l.607.607h26.138l.607-.607v-26.138zm-7.679 5a2.592 2.592 0 0 1 2.165 2.423 2.449 2.449 0 0 1-2.165 2.424 2.173 2.173 0 0 1-2.166-2.424 2.263 2.263 0 0 1 2.169-2.425zm-.159 7.5c1.641 0 4.234 2.708 4.234 4.668s-2.281 4.085-4.234 4.085a3.959 3.959 0 0 1-3.63-4.085c0-2.192 1.992-4.674 3.63-4.674z" fill="#00554b" fill-rule="evenodd"/><path d="M329 215c44.593 0 83.7-49.146 93-56-8.316 10.681-42.061 45.665-33.853 45.665 10.846 0 34.475-22.7 53.853-38.665-16.52 18.357-63.356 76.71-63.356 76.71h8.556s76.738-88.61 79.818-97.01c-9.8 5.325-66.961 53.264-69.369 53.264-1.806 0 57.817-69.245 62.717-79.9-22.4 12.752-81.56 97.615-128.366 93.936-4.366-.585-9.421-6.292-9.421-11.188 0-22.749 150.14-19.578 150.14-.951 0 21.836-134.936 19.962-134.936 0 0-13.106 116.882-10.372 116.882 0 0 13.651-97.877 12.993-97.877 0 0-5.915 77.921-3.424 77.921 0 0 7.7-50.153 4.009-54.709 4.139a.916.916 0 0 0-.406.617c2.879.8 65.568 5.071 65.568-4.756 0-5.632-96.926-7.985-96.926 0 0 14.706 114.981 15.409 114.981 0 0-12.85-133.986-14.55-133.986 0 0 22.994 151.09 22.579 151.09 0 0-19.392-166.294-24.295-166.294.951 0 9.456 10.43 13.188 14.973 13.188zm134.217-72.158l9.5-5.707 2.851 5.707 1.9-5.707 7.6-1.9-6.652-.951v-5.707l-6.652 4.756-8.552-.951 4.751 4.755z" fill="#00554b"/></svg>