<?xml version="1.0" encoding="UTF-8"?>
<svg viewBox="0 0 800 800" xmlns="http://www.w3.org/2000/svg">
<defs><style>.cls-1 { fill-rule: evenodd; fill: #f0f0a5; } .cls-2 { fill-rule: evenodd; fill: #0f0f14; } .cls-3 { fill-rule: nonzero; fill: #0f0f14; }</style></defs>
<path id="background_yellow" class="cls-1" d="M400,0C620.914,0,800,179.086,800,400S620.914,800,400,800,0,620.914,0,400,179.086,0,400,0Zm0,371a29,29,0,1,1-29,29A29,29,0,0,1,400,371Z"/>
<path id="foreground" class="cls-2" d="M10,311H790l2,10H8S9.9,311,10,311ZM153,156l49,50,3-2-31-32,53,12-7-48,24,35,9-7-41-59,10,67Zm9,5,7,6,54,13-1-5Zm56-42,31,45-4,3-26-38Zm59-39,2,3L249,96l12,21,26-12,2,4-26,12,13,25,25-11,1,3-35,16L237,98Zm-36,20,4-2,28,50-4,2Zm78-20-9,56-4,2,13-78,45,63-14,2Zm2-12,37,52-6,1L321,76V68Zm80-13c22.611,0,35,15.1,35,30,0,18.75-9.75,37-36,37s-36.75-18-37-36S376.5,55,401,55ZM367.141,86.3C366.871,107.8,387,117,387,117s-14-7.5-14-31c0-19.135,11-25,11-25C384,61.03,367.408,64.961,367.141,86.3ZM418,64s13,4,13,22-13,29-13,29,8.027-8.7,8-28C425.973,67.561,418,64.012,418,64Zm-10-4c20.588,10.452,13,52.6,0,58-2.485,1.032-15.215.666-17-1-18-16.8-16.4-47.6,0-57C394.242,58.142,403.977,57.958,408,60Zm24,59v4s9.811,0.314,31,5c19.336,4.276,38.223,13.143,38,13l1-4-7-3-7-69-45,55Zm15,2,31-39,4.909,47.27c-3.341-1.2-9.634-3.027-20.74-5.367C453.454,122.066,446.443,120.94,447,121Zm35-43,3-3,6,58-3-1Zm85,46-24,36,8,6,38-54-63,22,21-43-10-4-30,58ZM539,91l4,2-23,43-6,3Zm9,69,25-39,7-3-30,44Zm51,47,45-44s-0.981-1.187-21-20c-18.958-17.816-45.375,4.625-22,25-9.25.5-38,4-38,4l8,9,41-2-21,19Zm34-49s-1.562-1.519-11-11c-8.926-8.966-26.75,9.5-17,20a131.33,131.33,0,0,0,10,9Zm-64,16,35-3,4,4-35,3Zm47-32c-11-8.5-29,8.5-17,20C595.058,151.42,607.1,140.373,616,142Zm20,19,3,3-40,38-3-3Z"/>
<path id="trademark" class="cls-2" d="M221.338,218.774c1.869-2,2.445-8.974-3.821-6.362,1.684-2.46-2.46-7.1-6.264-3.009-1.551,1.67-4.6,5.086-4.6,5.086l9.78,9.691S219.682,220.546,221.338,218.774Zm-11.3-5.13s1.652-1.906,2.546-2.782c1.978-1.937,4.359.81,2.686,2.709-0.832.945-2.553,2.788-2.553,2.788Zm4.062,4.116s1.848-1.914,2.695-2.941c1.981-2.4,5.634-.611,2.73,2.869-0.837,1-2.646,2.888-2.646,2.888L214.1,217.76h0Zm9.75-11.513c-3.572-4.055.455-8.806,3.816-6.362q0.954-1.057,1.917-2.1c-2.418-2.05-5.3-1.792-7.783.595-3.182,3.058-3.071,7.119-.256,10.235,4.636,5.134,8.779,1.318,9.456.667,2.548-2.45,2.99-5.535,1.5-7.929q-1.1.839-2.2,1.691C232.387,206.133,227.467,210.355,223.848,206.247Zm19.95-11.534-5.834,4.962-2.393-3.055,4.683-4.009-1.2-1.613-4.719,4.038-2.318-2.959L237.977,187l-1.226-1.662-8.319,7.162,8.669,10.811,7.977-6.864Zm0.955-6.98c-3.152-4.424,1.255-8.63,4.34-5.81q1.037-.928,2.082-1.846c-2.193-2.315-5.053-2.407-7.718-.356-3.413,2.629-3.675,6.643-1.189,10.059,0.084,0.116,4.06,5.81,9.246,1.812,2.734-2.106,3.453-5.1,2.2-7.641q-1.164.693-2.322,1.4C253.517,188.417,248.478,192.961,244.753,187.733Zm20.272-14.451c-2.047-3.549-5.829-4.812-9.446-2.348a7.143,7.143,0,0,0-2,10.119c2.227,3.432,5.957,4.572,9.4,2.221C266.333,180.985,267.182,177.022,265.025,173.282Zm-8.814,5.991c-1.854-2.925-1.735-5.138.384-6.585,2.151-1.466,4.131-.445,5.763,2.307q1.506,2.542,1.183,4.106a3.734,3.734,0,0,1-1.6,2.434C260.019,182.846,258.009,182.119,256.211,179.273Zm25.249-7.431c3.576-2,4.5-6.12,2.769-9.794-1.847-3.923-5.643-5.12-9.329-3.062a6.971,6.971,0,0,0-3.313,8.663c-0.816.485-2.44,1.471-2.44,1.471l-2.713-4.938-2.54,1.572,6.862,12.175,2.411-1.492-3.034-5.521s1.612-.979,2.422-1.46A6.274,6.274,0,0,0,281.46,171.842Zm-0.01-8.356c1.37,2.823,1.03,5.461-.983,6.586-1.813,1.012-4.084.247-5.62-2.7-1.453-2.785-1.17-5.38.977-6.579C277.8,159.69,279.986,160.47,281.45,163.486Zm12.51,1.851c3.345-1.618,4.712-4.234,3.75-6.582-0.678-1.656-2.108-2.223-4.292-1.653,1.537-1.289,2.026-2.632,1.441-4.055-0.807-1.961-3.44-2.54-6.66-.983-3.182,1.542-4.449,3.7-3.816,6.367q1.22-.437,2.44-0.858c-0.359-1.535.5-2.421,2.073-3.586,2.846-2.113,5.975,1.446.709,4.134q0.375,0.846.748,1.692c5.492-3.279,5.256,2.465,2.72,3.693-1.79.868-3.214,0.594-4.293-.849q-1.089.765-2.169,1.542C287.974,166.43,290.622,166.952,293.96,165.337Zm13.517-21.4-2.72,1.066,1.965,5.438-5.607,2.316-2.085-5.389-2.688,1.168,5.209,13.052,2.551-1.108-2.2-5.7,5.562-2.3,2.076,5.749,2.581-1.012Zm10.169-3.673-3.388,1.169-0.489,15.16,2.215-.822,0.089-3.6,5.641-1.954,2.13,2.828,2.807-.9Zm-1.546,9.741,0.267-6.753,4.042,5.259s-2.876.982-4.309,1.494h0Zm20.3-.691,2.657-.695-3.2-13.748s-4.528,1.191-6.783,1.834c-5.211,1.488-4.967,7.838-.268,8.178-0.508,2.348-1.446,7.042-1.446,7.042l2.646-.8,1.215-6.455s2.523-.708,3.788-1.047Zm-1.858-7.634s-2.169.559-3.24,0.892c-3.762,1.168-5.224-2.969-1.256-4,1.172-.306,3.5-0.966,3.5-0.966Zm18.9,4.16q1.167-.225,2.336-0.436-0.141-.858-0.283-1.716c4.229-1.158,5.846-3.642,5.41-6.747-0.44-3.131-2.8-5.059-7.285-4.612q-0.141-.853-0.281-1.706-1.236.224-2.47,0.461l0.3,1.7c-4.268,1.172-5.949,3.839-5.326,6.966,0.615,3.084,2.982,4.825,7.3,4.373q0.15,0.857.3,1.714h0Zm-0.613-3.519c-2.41.1-3.822-.9-4.228-3.04-0.467-2.478.554-3.877,2.88-4.689q0.674,3.864,1.348,7.729h0Zm1.09-8.184c2.492-.086,3.9.978,4.22,3.133a3.964,3.964,0,0,1-.485,2.948,4.778,4.778,0,0,1-2.458,1.662q-0.639-3.872-1.277-7.743h0Zm18.547-1.562,0.88,9.878,2.7-.271-1.209-14.094-2.849.286,0.137,1.424-5.471,9.352-1.12-10.008-2.851.392,1.828,14.02,2.706-.372-0.153-1.275Zm9.277,3.516c1.283-.089,2.57-0.122,3.852-0.237,5.323-.479,6.654-8.891-0.739-8.514-2.172.112-6.512,0.441-6.512,0.441l1.03,14.11,2.719-.2-0.35-5.6h0Zm-0.4-6.414q1.555-.108,3.111-0.2c3.565-.2,3.917,3.939.468,4.22-1.1.089-3.314,0.207-3.314,0.207l-0.265-4.231h0Zm26.93-2.542-4.514-.128-3.342,9.07-3.275-9.113-4.492.068,0.3,14.148,2.226-.043-0.159-12.388,4.368,12.361,1.428,0.008,4.489-12.313L405,141.192l2.779,0.088,0.494-14.143h0Zm10.651,0.622-3.529-.256-5.868,13.848,2.324,0.115,1.368-3.3,5.877,0.419,0.944,3.462,2.9,0.275Zm-4.9,8.413,2.66-6.15,1.829,6.469Zm19.072,7.392,1.567-11.853,5.676,0.882,0.332-2.16-8.571-1.282-1.708,14.04Zm10.7-3.914s2.535,0.481,3.8.737c5.555,1.123,7.633-7.167,1.235-8.453-2.14-.43-6.434-1.206-6.434-1.206l-2.233,13.96,2.69,0.484,0.942-5.522h0Zm1.08-6.329q1.536,0.285,3.07.59c2.8,0.742,2.042,4.735-.512,4.215-1.089-.217-3.27-0.63-3.27-0.63l0.712-4.175h0Zm17.571,1.74-3.451-.867L451,146.833l2.28,0.517,1.874-3.014,5.749,1.438,0.388,3.58,2.83,0.779Zm-6.181,7.444,3.6-5.6,0.787,6.7Zm28.256-.643-4.317-1.5-5.723,7.665-0.639-9.725L469.5,137l-3.614,13.64,2.154,0.635L471.3,139.36l0.793,13.168,1.374,0.443,7.724-10.42-3.71,11.768,2.656,0.935ZM505.152,152.9l-1.031,12.45,2.685,1.326,1.186-15.041-3.371-1.577-9.872,10.98,2.212,0.974Zm12.068,3.366-10.627,10.3,2.128,1.078,2.5-2.465,5.341,2.858-0.4,3.59,2.615,1.481,1.647-15.126Zm-4.506,7.412c1.576-1.529,4.771-4.551,4.771-4.551l-0.691,6.734-4.08-2.183h0Zm12.49,5.033c2.563-3.926,7.123-2.651,6.7,1.8,0.621,0.32,1.61.829,2.412,1.251a5.953,5.953,0,0,0-2.724-7.557c-3.593-2.2-7.679.314-9.1,2.965s-1.732,6.906,2.032,9.6c2.881,1.765,5.751,1.242,7.452-.993q-1.058-.835-2.124-1.661C527.69,177.169,522.641,172.64,525.2,168.714Zm17.266,5.425,3.6,2.541,1.171-1.81-9.961-6.82-1.093,1.864,3.652,2.421L533.7,182.423l2.521,1.726Zm11.759,11.22-5.7,7.913,2.244,1.8,8.172-11.254-2.364-1.893-0.814,1.148-10.215,2.86,5.6-8.185-2.428-1.795L541.073,187.6l2.3,1.7,0.707-1.051Zm17.1,9.152-2.28-2.073-3.57,4.445-4.786-4.193,3.468-4.535-2.336-1.972-8.319,11.134,2.217,1.871,3.665-4.793,4.748,4.16-3.774,4.7,2.164,1.967Zm7.808,17.338a7.164,7.164,0,0,0-.256-10.409c-3.189-3.171-7.293-2.792-9.881.291-2.616,3.117-2.736,7.243.324,10.282C572.3,214.976,576.217,214.964,579.136,211.849Zm-7.826-7.806c2.241-2.61,4.319-3.007,6.2-1.138,1.911,1.9,1.475,4.207-.662,6.545-2.632,2.881-4.666,2.582-6.18,1.079C568.964,208.833,569.129,206.578,571.31,204.043Zm17.247,14.673,5.966,0.008-2.093-2.447-9.518.163,5.07-5.177-2.132-2.317-9.544,9.974,2.024,2.2,2.44-2.491,4.684-.068-2.654,7.6,2.189,2.571ZM485.893,157.4l4-11.331,5.3,2.124-4.234,11.239,2.556,1.076,5.1-13.11-10.755-4.312-4.55,13.329,2.583,0.985h0Z"/>
<path id="factory" class="cls-2" d="M303.306,294.048l-0.087,10.679h3.528V289.5h-3.528v1.54l-8.106,9.307,0.1-10.847h-3.543v15.232h3.543v-1.383Zm29.2-4.553h-3.484l-6.206,6.539V289.5h-3.37v6.539l-6.206-6.539H309.35l6.278,7.3-6.8,7.934h3.485l7.127-6.885v6.885h3.37v-6.885l7.127,6.885h3.96l-7.257-8.693Zm-54.969,9.195h4.91c8.193,0,8.021-9.195-.4-9.195h-8.049v15.232h3.542V298.69Zm0-6.919h3.874c4.96,0,4.981,4.565.317,4.565h-4.191v-4.565Zm61.336,5.29c0-2.944,3.457-6.723,8.193-2.143l3.283-.268c-0.673-3.467-3.417-5.39-7.315-5.39-4.973,0-7.992,3.2-7.992,7.846,0,0.089-.2,7.856,7.862,7.856,4.263,0,7.022-2.195,7.445-5.245l-3.283-.279C345,303.418,338.87,302.875,338.87,297.061Zm25.575-2.556,4.665-5.01h-3.585l-7.5,8v-8h-3.542v15.232h3.542v-3.85l3.8-3.905,4.147,7.755h3.96Zm18.764,2.567a22.761,22.761,0,0,0,2.332-3.024q-0.086.736-.086,2.79v7.889h3.528V289.5h-3.528v1.54l-5.788,6.271a19.679,19.679,0,0,0-2.319,3.036q0.1-1.262.1-2.3V289.5h-3.542v15.232h3.542v-1.383Zm23.069-3.024-0.086,10.679h3.528V289.5h-3.528v1.54l-8.107,9.307,0.1-10.847h-3.542v15.232h3.542v-1.383Zm-3.988-5.982c2.592,0,4.31-1.346,4.406-3.057H404.81q-0.26,1.473-2.448,1.473-2.261,0-2.52-1.473h-1.886C398.032,286.854,399.814,288.066,402.29,288.066Zm27.766,16.9c4.9,0,7.588-2.109,7.588-4.743q0-2.913-4.132-3.582,3.555-.837,3.556-3.337c0-2.306-2.688-4.04-6.969-4.04q-6.364,0-7.372,4.341l3.139,0.369q0.561-2.5,4.075-2.5c2.073,0,3.484.826,3.484,2.165,0,2.086-4.723,2.209-4.723,2.209v2.009s5.112,0.067,5.112,2.388c0,1.429-1.152,2.511-3.859,2.511q-3.757,0-4.478-2.89l-3.254.424C422.587,303.113,425.333,304.962,430.056,304.962ZM450.778,289.5h-4.363l-6.522,15.232h3.023l1.541-3.626h7.56l1.569,3.626h3.787Zm-5.443,9.407,2.866-6.8,2.865,6.8h-5.731Zm24.323,5.825c5.856,0,7.753-6.068,1.872-7.9,3.817,0,6.1-7.332-2.808-7.332h-7.661v15.232h8.6Zm-5.242-13.056h4.248c4.024,0,4.178,4.218.072,4.218h-4.32v-4.218Zm0,6.394h4.594c3.9,0,3.934,4.375-.015,4.375h-4.579v-4.375Zm31.565-.971c0-4.478-3.172-7.834-8.279-7.834-5.069,0-8.438,3.367-8.438,7.8,0,4.464,3.058,7.9,8.28,7.9C492.631,304.962,495.981,301.8,495.981,297.094Zm-11.728,4.235a6.493,6.493,0,0,1-1.159-4.179q0-5.68,4.55-5.68c3.072,0,4.493,2.1,4.493,5.6q0,3.225-1.325,4.453a4.592,4.592,0,0,1-3.24,1.227A4.034,4.034,0,0,1,484.253,301.329Zm13.718,1.033v2.623h18.013v-2.623h-1.44L509.879,289.5h-5.285l-5.183,12.867h-1.44Zm8.351-10.312h1.066l3.412,10.312h-8.366Z"/>
<path id="standart" class="cls-2" d="M97.86,253v15.027h2.108L100,255l6.284,0v-2H97.86Zm17.263,4.988c-7.563.063-7.313,11.007,0,11.007S122.685,257.926,115.123,257.988Zm0,2c3.812,0,4,6.945,0,7.008S110.885,259.988,115.123,259.988Zm18.1,7.327-1.759-1.463c-7.228,5.25-6.7-10.353,0-4.793l1.759-1.36a5.78,5.78,0,0,0-4.5-1.711c-6.7,0-6.817,11.043,0,11.007A4.828,4.828,0,0,0,133.222,267.315Zm7.184-7.276H144v-1.9h-9.642v1.9L138,260l-0.041,8.84H140.4ZM108,289c0-5.242-3.082-6.844-7-6,0.2-.489,1-4,1-4h5v-2h-7l-2,8,1.8,0.317c0.927-.752,6.293-0.716,6.2,3.683-0.528,4.087-5.68,2.1-5.68,2.1l-2.031.749a4.8,4.8,0,0,0,3.457,1.736C103.79,293.538,108,293.931,108,289Zm2,4h10v-2h-6s5-7.835,5-9c0-4.479-2.048-4.755-4-4.755-0.406,0-3.741-.079-4.34,4.082v0.011h2.18v-0.011c1.4-3.517,5.3-1.38,3.954,1.039C116.089,283.637,111,291,111,291h-1v2Zm17.5-.012c4.571,0,4.5-4.612,4.5-4.612a4.38,4.38,0,0,0-2.07-3.772c1.754-.736,1.764-3.492,1.764-3.492a4.19,4.19,0,0,0-8.379,0s-0.181,2.574,1.733,3.492c-2.2.749-2.039,4.03-2.039,4.03,0,4.369,4.183,4.354,4.495,4.354h0Zm0-2.112a2.348,2.348,0,0,1-2.426-2.544,2.426,2.426,0,0,1,4.852-.01,2.388,2.388,0,0,1-2.426,2.554h0Zm-2.11-9.538a2.15,2.15,0,0,1,2.11-2.231,2.271,2.271,0,0,1,2.11,2.371,2.135,2.135,0,0,1-2.11,2.317A2.254,2.254,0,0,1,125.4,281.338Zm12.06,11.089h2.274s3.692-7.582,4.051-8.8c0.3-1.7.7-6.288-3.979-6.382-0.455,0-4.2-.1-4.2,4.6v0.01c0,0.29,0,4.4,3.607,4.4a3,3,0,0,0,2.026-1.292Zm2.346-8.092c-1.337,0-2.088-.927-2.088-2.553v-0.01c0-1.6.751-2.5,2.088-2.5s2.078,0.906,2.078,2.49v0.011c0,1.626-.755,2.563-2.078,2.563h0Zm7.08,0.705v2h6.945v-2h-6.945Zm26.581,7.948c4.528,0,4.454-4.612,4.454-4.612a4.392,4.392,0,0,0-2.05-3.772c1.737-.736,1.747-3.492,1.747-3.492a4.151,4.151,0,0,0-8.3,0s-0.179,2.574,1.717,3.492c-2.179.749-2.02,4.03-2.02,4.03,0,4.369,4.144,4.354,4.453,4.354h0Zm0-2.112a2.342,2.342,0,0,1-2.4-2.544,2.4,2.4,0,1,1,4.807-.01,2.384,2.384,0,0,1-2.4,2.554h0Zm-2.09-9.538a2.142,2.142,0,0,1,2.09-2.231,2.264,2.264,0,0,1,2.091,2.371,2.129,2.129,0,0,1-2.091,2.317A2.248,2.248,0,0,1,171.372,281.338Zm-7.9-3.766h-2.26s-3.67,7.582-4.028,8.8c-0.3,1.7-.7,6.288,3.956,6.382,0.452,0,4.171.1,4.171-4.6v-0.011c0-.289,0-4.4-3.586-4.4a2.977,2.977,0,0,0-2.013,1.292Zm-2.332,8.093c1.329,0,2.075.927,2.075,2.553v0.01c0,1.6-.746,2.5-2.075,2.5s-2.065-.906-2.065-2.491v-0.01c0-1.626.75-2.563,2.065-2.563h0Z"/>
<path id="speed" class="cls-2" d="M630,239c-2.539,5.108-5,2.32-5,1s3-4,3-4h15l-6,10a7.518,7.518,0,0,1,5.991,7.783c0,4.873-4.078,8.2-9.515,8.2A9.97,9.97,0,0,1,626,258c-2.309-2.9,2.275-4.32,3-2,1.183,3.012,10.09,3.339,10.09-2.293,0-6.193-7.167-5.349-7.167-5.349v-2.189L636,239h-6Zm-31-12v2l44,65h3l40-65v-2l-1-1H600Zm50,12c-2.539,5.108-5,2.32-5,1s3-4,3-4h15l-6,10a7.518,7.518,0,0,1,5.991,7.783c0,4.873-4.078,8.2-9.515,8.2A9.97,9.97,0,0,1,645,258c-2.309-2.9,2.275-4.32,3-2,1.183,3.012,10.09,3.339,10.09-2.293,0-6.193-7.167-5.349-7.167-5.349v-2.189L655,239h-6Zm30-9H606l38,59Z"/>
<path id="logo" class="cls-3" d="M333,257c48.67,0.835,84.223-53.06,91-59-10.018,10.755-45.637,48-37,48,12.523,0,35.251-15.27,52-33-17.385,19.3-62,73-62,73h9s80.759-93.16,84-102c-10.313,5.6-73,56-73,56s60.843-72.8,66-84c-23.573,13.407-83.261,102.349-134,97-4.6-.615-11-4.853-11-10,0-23.072,158-19.526,158-1,0,20.631-142,19.506-142,0,0-13.779,123-10.9,123,0,0,13.083-103,10.91-103,0,0-6.219,82-3.6,82,0,0,6.4-52.841,4.133-57,3-0.278-.076-1.375.168-1,2,3.029,0.846,69,5.332,69-5,0-8.037-102-10.511-102,0,0,15.461,121,16.2,121,0,0-14.991-141-15.72-141,0,0,24.176,159,23.739,159,0,0-20.388-175-25.543-175,1C309,252.942,323.942,256.853,333,257Zm133-76,10-6,3,6,2-6,8-2-7-1v-6l-7,5-9-1,5,5Z"/>
</svg>
