<?xml version="1.0" encoding="UTF-8"?>
<svg viewBox="0 0 800 800" xmlns="http://www.w3.org/2000/svg">
<defs><style>.cls-1 { fill: #5578fa; } .cls-1, .cls-2, .cls-3 { fill-rule: evenodd; } .cls-2 { fill: #0f0f14; } .cls-3 { fill: none; } .text { font: Arial, sans-serif; color: #0f0f14; font-size: 22pt; }</style></defs>
<path id="background_blue" class="cls-1" d="M400,0C620.914,0,800,179.086,800,400S620.914,800,400,800,0,620.914,0,400,179.086,0,400,0Zm0,371a29,29,0,1,1-29,29A29,29,0,0,1,400,371Z"/>
<path id="foreground" class="cls-2" d="M739,373C725.27,197.815,578.711,60,400,60S74.784,197.877,61.052,373.059C54.394,373.059,29,373,29,373s-1,15.208-1,27c0,205.45,166.55,372,372,372S772,605.45,772,400c0-11.873-1-27-1-27H739Zm25,3c0.028,7.125,0,16.628,0,23.5C764,600.808,600.808,764,399.5,764S35,600.808,35,399.5c0-6.848-.373-15.745,0-22.5H65.518C76.544,202.291,221.858,64,399.5,64c177.316,0,323.156,137.751,334.654,312.006C740.01,376.006,757,376,764,376Z"/>
<path id="arcInner" class="cls-3" d="M56,289.267S106.106,309.9,111.591,309.9C147.3,195.058,252.922,94.245,400.147,94.245S658.133,202.6,690.144,313c5.59,0,64.856-21.669,64.856-21.669L727.205,54H82.766Z"/>
<path id="arcOuter" class="cls-3" d="M8,373l46.259,0C68.267,194.512,217.719,54.037,400.02,54.037S731.776,194.515,745.782,373C752.7,373,795,372,795,372L794,1H9Z"/>
<path id="logo" class="cls-2" d="M399.5,115A98.5,98.5,0,1,1,301,213.5,98.5,98.5,0,0,1,399.5,115Zm0,3A95.5,95.5,0,1,1,304,213.5,95.5,95.5,0,0,1,399.5,118Zm0,4A91.5,91.5,0,1,1,308,213.5,91.5,91.5,0,0,1,399.5,122Zm0,3A88.5,88.5,0,1,1,311,213.5,88.5,88.5,0,0,1,399.5,125ZM382,215c-0.749.5-8.5,0.5-9,0s-4.252-22.516-1-30,18.195-24.607,18-32c-0.128-4.868-1.643-10.736-4-14s0.643-3.813,3-2,17.492,11.547,19,22c2.7,18.7-6.1,33.426-5,39,1.44,7.269,4.624,16.5,4,17s-8.5.375-9,0-2.368-9.011-4-13-13.731-15.269-15-14S382.749,214.5,382,215Zm0-33c3.225,1.561,12.275,8.192,13,12,2.539-3.083,8.89-30.84,2-39C395.912,164.066,386.469,178.584,382,182Zm31-3c1.258,0,8.906-9,10-9s1,10.18,1,11-7.055,5.305-7,7,1.688,5.945,3,6,8.981-8.073,10-8,0.582,6.836,0,8-12.636,15.054-13,16-0.291,5.709,0,6,6.491,0.364,7,0,0.44-4.087,2-5c1.68-.984,11.2-14.089,12-17s-0.53-16.509-2-17c-1.549-.517-3.326,2-5,2s-0.747-24.688-4-25c-1.432-.137-12.041,13.127-14,15C410.987,170.925,411.742,179,413,179Zm-13,58c-0.834.052-1.95-6.449,1-7C405.627,229.136,401.33,236.917,400,237Zm0,18,2,20s-12.945,4.416-15-8,8.941-20.4,10-20c1.023,0.382,2.026,3.2,1.586,4.351-0.571,1.494-3.835,4.236-3.586,5.649s0.252,2,1,2S400,255,400,255Zm3-2,3,20s9.65-4.116,6-14C409.272,251.612,403,253,403,253Zm-37-32h67c0.98,0,.7,7,0,7h-5c-0.84,0-1.56,6-1,6h4c0.7,0,.7,5,0,5h-5c-0.84,0-7.46,56-9,56H385c-1.54,0-10.16-55-11-55h-5c-0.84,0-.56-6,0-6h4c0.7,0-.02-6-1-6h-6C365.3,228,365.16,221,366,221Zm34,21c0.416-.665,11.415-15,3-15-10.89,0-5.418,13.171-6,15s-18.281,8.676-13,27c3.951,13.709,17,11,17,11s0.455,9.66-4,7c-5.832-3.481-7.328.42-5,2,11.984,8.132,14.748-4.513,14-10,1.164-.5,11.318-6.309,11-16s-7.935-16.079-16-14C400.335,247.42,399.584,242.665,400,242Zm36.764-5.15c-0.5-1,1.824-2.648,2.472-1.7,0.361,0.527,21.352,31.152,22,32s-1.873,2.448-2.472,1.7S437.263,237.848,436.764,236.85ZM443,224.118c-0.848-.948,1.2-2.984,2-2.236s18.3,16.5,19,17-1.252,3.034-2,2.236S443.848,225.066,443,224.118Zm5.192-10.854c-1-.748.368-3.326,1.616-2.528s33.063,21.511,34.321,22.093c1.328,0.615.538,3.735-.984,2.633C481.842,234.518,449.19,214.012,448.192,213.264Zm6.24-11.876c-1.247-.5.088-3.225,1.136-2.776s20.952,8.5,22,9-0.138,3.175-1.136,2.776S455.679,201.887,454.432,201.388Zm3.473-10.91c-1.043,0-1.282-3.478.1-3.478h25c1.228,0,1.506,3.5-.058,3.5S458.894,190.478,457.905,190.478ZM456,179c-0.912,0-.964-2.916,0-3s9.733-.609,10.956-0.778c1.075-.149,1.275,3.035.042,3.117C465.6,178.433,456.912,179,456,179Zm-1.6-8.555c-1.341.43-1.983-2.461-.8-2.89S469.986,162.338,471,162c0.805-.268,2.073,2.678,1,3C470.254,165.524,455.743,170.016,454.4,170.445Zm-2.69-8.124c-0.912.536-2.227-2.051-1.422-2.642s12.078-6.424,13-7c0.429-.268,2.442,2.159,1.422,2.642S452.624,161.784,451.711,162.321Zm-3.879-8.073c-1.234.644-2.469-1.959-1.664-2.5s4.819-3.249,6-4,2.63,1.745,1.664,2.5S449.066,153.6,447.832,154.248Zm-5.611-6.376c-0.805,1.073-3.247-.724-2.442-1.744s4.142-5.712,5-7,3.3,0.241,2.442,1.744S443.026,146.8,442.221,147.872ZM435.2,138.9c-1.127,1.288-3.151-.619-2.4-1.8s2.785-3.624,3-4,3.2,0.888,2.4,1.8S436.327,137.612,435.2,138.9Zm-11.745-5.536c-0.268.859-3.125-.03-2.91-0.728s0.678-3.141,1-4,3.179-.131,2.91.728S423.724,132.505,423.455,133.364ZM414,130c0,0.751-3,.966-3,0v-3c0-1.449,3-.859,3,0v3ZM362.171,236.8c0.5-1-1.829-2.649-2.479-1.7-0.361.527-21.405,31.172-22.056,32.021s1.879,2.449,2.479,1.7S361.67,237.8,362.171,236.8Zm-6.252-12.74c0.85-.948-1.2-2.986-2.006-2.237s-18.348,16.512-19.048,17.011,1.255,3.036,2.006,2.237S355.069,225.006,355.919,224.057ZM350.713,213.2c1-.749-0.369-3.328-1.619-2.53s-33.148,21.525-34.409,22.108c-1.331.615-.539,3.737,0.987,2.635C316.978,234.464,349.713,213.945,350.713,213.2Zm-6.255-11.883c1.25-.5-0.089-3.228-1.139-2.779s-21.006,8.507-22.056,9.006,0.138,3.178,1.139,2.779S343.207,201.812,344.458,201.313ZM340.976,190.4c1.045,0,1.285-3.48-.1-3.48H315.817c-1.231,0-1.509,3.5.058,3.5S339.984,190.4,340.976,190.4Zm1.91-11.485c0.914,0,.966-2.918,0-3s-9.758-.609-10.984-0.779c-1.078-.149-1.278,3.037-0.042,3.12C333.261,178.343,341.971,178.91,342.886,178.91Zm1.6-8.561c1.345,0.43,1.989-2.462.805-2.892s-16.428-5.22-17.445-5.558c-0.808-.269-2.079,2.679-1,3C328.6,165.425,343.143,169.92,344.488,170.349Zm2.7-8.13c0.915,0.538,2.233-2.052,1.426-2.643s-12.109-6.428-13.033-7c-0.43-.269-2.448,2.16-1.426,2.643S346.271,161.682,347.185,162.219Zm3.889-8.077c1.238,0.644,2.476-1.961,1.669-2.5s-4.832-3.251-6.016-4-2.636,1.746-1.668,2.5S349.837,153.5,351.074,154.142Zm5.626-6.381c0.807,1.074,3.255-.724,2.447-1.745s-4.151-5.715-5.012-7-3.309.241-2.448,1.745S355.893,146.687,356.7,147.761Zm7.039-8.978c1.129,1.289,3.159-.619,2.406-1.8s-2.793-3.626-3.008-4-3.213.888-2.406,1.8S362.609,137.494,363.739,138.783Zm11.774-5.539c0.269,0.859,3.133-.03,2.918-0.729s-0.68-3.143-1-4-3.186-.131-2.917.728S375.244,132.384,375.513,133.244Zm9.479-3.366c0,0.752,3.008.967,3.008,0v-3c0-1.45-3.008-.86-3.008,0v3Zm13-2c0,0.752,3.008.967,3.008,0v-2c0-1.45-3.008-.86-3.008,0v2Z"/>
<text x="7%"><textPath class="text" id="innerText" href="#arcInner">ЗАПИСАНО ВО ВСЕСОЮЗНОЙ СТУДИИ ГРАМЗАПИСИ</textPath></text>
<text x="7%"><textPath class="text" id="outerText" href="#arcOuter">МОСОБЛСОВНАРХОЗ РСФСР АПРЕЛЕВСКИЙ ЗАВОД ГРАМПЛАСТИНОК</textPath></text>
</svg>
