<?xml version="1.0" encoding="UTF-8"?>
<svg viewBox="0 0 800 800" xmlns="http://www.w3.org/2000/svg">
<defs><style>.cls-1 { fill: #00aad2; fill-rule: evenodd; } .cls-2, .cls-3 { fill: none; stroke-linecap: round; stroke-linejoin: round; stroke-width: 3px; } .cls-2 { stroke: #0a8ba8; } .cls-3 { stroke: #00afd6; }</style></defs>
<path id="background_flexy" class="cls-1" d="M400,0C620.914,0,800,179.086,800,400S620.914,800,400,800,0,620.914,0,400,179.086,0,400,0Zm0,371a29,29,0,1,1-29,29A29,29,0,0,1,400,371Z"/>
<path id="trademark-shadow" class="cls-2" d="M148,115l51,61h0l-51-61,71,41L199,76l42,61h0L199,76l20,80ZM261,45L229,61l36,68,28-17-28,17L248,96l29-16L248,96,229,61Zm52,65,3-83,42,73L316,27Zm82-93c13.807,0,25,17.461,25,39s-11.193,39-25,39-25-17.461-25-39S381.193,17,395,17Zm40,80,57,12-5-1-8-84L440,98Zm98-49-24,67,68-52-32,68,32-68-68,52Zm64,117,46-59s-6.073-4.992-13-11c-24.188-20.977-54.644,15.215-31,34,12.825,10.189,16,13,16,13l-19-16-26,15,26-15,19,16Z"/>
<path id="trademark" class="cls-3" d="M148,114l51,61h0l-51-61,71,41L199,75l42,61h0L199,75l20,80ZM261,44L229,60l36,68,28-17-28,17L248,95l29-16L248,95,229,60Zm52,65,3-83,42,73L316,26Zm82-93c13.807,0,25,17.461,25,39s-11.193,39-25,39-25-17.461-25-39S381.193,16,395,16Zm40,80,57,12-5-1-8-84L440,97Zm98-49-24,67,68-52-32,68,32-68-68,52Zm64,117,46-59s-6.073-4.992-13-11c-24.188-20.977-54.644,15.215-31,34,12.825,10.189,16,13,16,13l-19-16-26,15,26-15,19,16Z"/>
<path id="song-shadow" class="cls-2" d="M241,216l-1-31,11,22,8-23,2,33-2-33-8,23-11-22Zm34-34c2.761,0,6,2.239,6,5v24c0,4.675-6,5-6,5-2.761,0-6-2.239-6-5V187C269,182.325,275,182,275,182Zm28,34s0.124-35,0-35c-16.776-.856-14.53,18.2,0,20a15.192,15.192,0,0,1-6-2l-7,16,7-16s3.531,2,6,2v15Zm61-36H350v36h0V198h0V180h14Zm7,0v37c17.148,0,16.718-19,3-19C387.267,198,389.231,180,371,180Zm20,37V180h14v0H391v37Zm32-37-9,37,2.546-11.025,12.206,0.032L431,217Zm15,0h6v0h-6Zm63,0v25l12-20v0l-12,20V180Zm-36,0c2.761,0,6,2.239,6,5v27c0,4.675-6,5-6,5-2.761,0-6-2.239-6-5V185C459,180.325,465,180,465,180Zm15,0v18C497.252,198,498.231,180,480,180Zm52,37s0.124-37,0-37c-16.776,0-14.53,19.2,0,21a15.192,15.192,0,0,1-6-2l-7,18,7-18s3.531,2,6,2v16Z"/>
<path id="song" class="cls-3" d="M241,215l-1-31,11,22,8-23,2,33-2-33-8,23-11-22Zm34-34c2.761,0,6,2.239,6,5v24c0,4.675-6,5-6,5-2.761,0-6-2.239-6-5V186C269,181.325,275,181,275,181Zm28,34s0.124-35,0-35c-16.776-.856-14.53,18.2,0,20a15.192,15.192,0,0,1-6-2l-7,16,7-16s3.531,2,6,2v15Zm61-36H350v36h0V197h0V179h14Zm7,0v37c17.148,0,16.718-19,3-19C387.267,197,389.231,179,371,179Zm20,37V179h14v0H391v37Zm32-37-9,37,2.546-11.025,12.206,0.032L431,216Zm15,0h6v0h-6Zm63,0v25l12-20v0l-12,20V179Zm-36,0c2.761,0,6,2.239,6,5v27c0,4.675-6,5-6,5-2.761,0-6-2.239-6-5V184C459,179.325,465,179,465,179Zm15,0v18C497.252,197,498.231,179,480,179Zm52,37s0.124-37,0-37c-16.776,0-14.53,19.2,0,21a15.192,15.192,0,0,1-6-2l-7,18,7-18s3.531,2,6,2v16Z"/>
<path id="speed-shadow" class="cls-2" d="M202,269v0Zm-5,33,26-26Zm-58-28c2.633-14.034,26.107-4.67,10,9,23.375,12.375-4.718,33.741-12,14,7.282,19.579,35.421-1.257,12-14C165.147,269.314,141.452,260.052,139,274Zm-48,2,14,20,13-20H91Zm79-2c2.633-13.141,26.107-4.67,10,9,23.375,12.375-4.718,33.741-12,14,7.282,19.579,35.421-1.257,12-14C196.147,269.314,172.579,261.072,170,274ZM217.136,292.7c2.407-7.928,14.83-2.605,5.681,5.019,13.278,6.9-2.681,18.816-6.817,7.807,4.136,10.919,20.121-.7,6.817-7.807C231.989,290.081,219.512,284.815,217.136,292.7Z"/>
<path id="speed" class="cls-3" d="M202,268v0Zm-5,33,26-26Zm-58-28c2.633-14.034,26.107-4.67,10,9,23.375,12.375-4.718,33.741-12,14,7.282,19.579,35.421-1.257,12-14C165.147,268.314,141.452,259.052,139,273Zm-48,2,14,20,13-20H91Zm79-2c2.633-13.141,26.107-4.67,10,9,23.375,12.375-4.718,33.741-12,14,7.282,19.579,35.421-1.257,12-14C196.147,268.314,172.579,260.072,170,273ZM217.136,291.7c2.407-7.928,14.83-2.605,5.681,5.019,13.278,6.9-2.681,18.816-6.817,7.807,4.136,10.919,20.121-.7,6.817-7.807C231.989,289.081,219.512,283.815,217.136,291.7Z"/>
<path id="logo-shadow" class="cls-2" d="M620,305s48,5.123,48-6c0-13.124-87-14.738-87-2,0,18.921,113,24.491,113,4,0-19.923-136-31.1-136-5,0,10.56,19.933,10,24,10,24.88,0,76-75,76-75s-44.3,68-37,68c7.536,0,47-45,47-45l-54,76,54-76s-39.584,45-47,45,37-68,37-68-51.179,75-76,75c-4.179,0-24,.416-24-10,0-25.86,136-15.421,136,5,0,20.489-113,14.711-113-4,0-13.307,87-10.73,87,2C668,309.949,620,305,620,305Zm51-59,6-5,1,4v-4l7-1-7-1,1-5-2,5-8-1,7,2Z"/>
<path id="logo" class="cls-3" d="M620,304s48,5.123,48-6c0-13.124-87-14.738-87-2,0,18.921,113,24.491,113,4,0-19.923-136-31.1-136-5,0,10.56,19.933,10,24,10,24.88,0,76-75,76-75s-44.3,68-37,68c7.536,0,47-45,47-45l-54,76,54-76s-39.584,45-47,45,37-68,37-68-51.179,75-76,75c-4.179,0-24,.416-24-10,0-25.86,136-15.421,136,5,0,20.489-113,14.711-113-4,0-13.307,87-10.73,87,2C668,308.949,620,304,620,304Zm51-59,6-5,1,4v-4l7-1-7-1,1-5-2,5-8-1,7,2Z"/>
</svg>
