<?xml version="1.0" encoding="UTF-8"?>
<svg viewBox="0 0 500 500" xmlns="http://www.w3.org/2000/svg">
<defs><style>.cls-1 { fill: #f0f060; fill-rule: evenodd; }</style></defs>
<path id="logo" class="cls-1" d="M360,177a109.584,109.584,0,0,1,73.126,27.825c-3.894,3.893-13.1,17.686-21.126,25.175-20.862-16.047-62.788-22.582-89-6,6.954,15.513,23,51,23,51l14-18,55,7-8,35-36-4,11,11s-24.957,41.005-29,47c4.138,7.336,47.464-4.234,72-31,4.879,3.346,15.8,10.551,30.28,20.006A110.008,110.008,0,1,1,360,177Zm-66,82c5.206,8.677,27,46,27,46h17s-14.556,31.1-18,38C287.2,328.842,284.586,273.056,294,259Z"/>
</svg>
