<?xml version="1.0" encoding="UTF-8"?>
<svg viewBox="0 0 725 718" xmlns="http://www.w3.org/2000/svg">
<defs><style>@keyframes hideshow { 0% { fill: black; } 100% { fill: #c22; } } .cls-1 { fill-rule: evenodd; fill: black; } .highlight { -webkit-animation: hideshow .3s ease-out infinite alternate; animation: hideshow .3s ease-out infinite alternate; }</style></defs>
<path id="case" class="cls-1" d="M177,382c-13.3,0-41-25.633-41-49V99c0-36,13.75-44.75,28-59C205.913-1.913,224.5,0,250,0H643c53.75,0,82,33.25,82,74V322c0,24.75-31,43-62,59,15.25,6.5,15,12.75,15,33V521c0,3.75-68,106.258-90,138-32.75,47.25-118.361,59-179,59-25.35,0-312.4-4.5-345-4.5S2,692.288,2,663V579c0-.818-2-1.25-2-3,0-25.451,6.5-33.75,18-46S121.25,413.75,131,404,155.353,382,177,382Zm545-63a31.866,31.866,0,0,1-6,18s2-5,2-18V72c0-41.4-33.216-67-76-67H234c-17.4,0-25,4-25,4a57.641,57.641,0,0,1,25-6H638c55.943,0,84,31,84,73C722,114.8,722.2,308.2,722,319ZM170,41c28.933-28.933,42.531-33,69-33H632c45.81,0,83,19.107,83,67V321c0,22.677-20.593,44-57,57,13.58-10.978,21-20.289,21-33V223c1.375,0.072,2.164,2.062,3,2,1.835,0,1.584,2,7,2,9.416,0,6.471-9,12-9,5.129,0,4-7.74,4-11s0.4-11-4-11c-9.4,0-4.4-7-12-7s-4.813,5-7,5-1.208,2-3,2V84c0-13.8-10.259-51-53-51H218C199.013,33,182.884,34.4,170,41ZM680,200c5.187,0,2.125-6,9-6,5,0,2.75,6,9,6,5.183,0,0,4.7,0,7,0,3.5,5.82,7,1,7-5.75,0-4.5,8-9,8-8.125,0-2.313-3-10-3V200Zm8.5-1a3.5,3.5,0,1,1-3.5,3.5A3.5,3.5,0,0,1,688.5,199Zm0,11a3.5,3.5,0,1,1-3.5,3.5A3.5,3.5,0,0,1,688.5,210ZM188,382c-15.909,0-47-26.242-47-49V94c0-48.333,43.25-58,73-58H624c31.333,0,52,24,52,50V344c0,20.191-26,33.25-27,36,8.75,2,35.667,7.667,20,32s-84.3,126.486-87,130c-31.15,40.507-74.426,56-147,56-18.412,0-330.94-4.5-382-4.5-54.241,0-54.2-34.591-38-54.5,15.63-19.2,116.9-130.36,122-135C148.077,393.916,166.614,382,188,382Zm17,0c-25.3,0-60-25.044-60-54V90c0-31.107,28.79-50.011,59.255-50.011L625,40c29.535,0,46,23.137,46,45V346c0,18.377-33.5,35.75-36,36,10,0,50.645-.73,30,32s-70.363,105.282-87,129c-29.984,42.745-82.1,51-153,51-65.7,0-354.276-4.5-374-4.5-24.655,0-53.144-25.491-30-50.5,22.508-24.321,105.367-118.367,122-135C158.25,388.75,185.961,382,205,382ZM6,582a58.567,58.567,0,0,0,5,4v83a2.016,2.016,0,1,0,4,0V589a29.875,29.875,0,0,0,4,2v58a2.014,2.014,0,1,0,4,0V593a26.551,26.551,0,0,0,4,2v31a2.009,2.009,0,1,0,4,0V596a23.378,23.378,0,0,0,4,1v13c0,3.062,3,3,3,0V598.5S442.009,603,446,603v10c0,3.026,3,3.19,3,0V603h4v26a2.013,2.013,0,1,0,4,0V603c1.465-.282,3.761-0.887,5-1v45a2.01,2.01,0,1,0,4,0V602c1.634-.225,3.366-0.718,5-1v51c0,2.945,5,3.026,5,0V600c1.634-.394,3.817-0.549,5-1v93c0,3.926,5,4.008,5,0V599c1.183-.169,3.648-0.775,5-1v98c0,3.108,5,3.026,5,0V597c1.465-.225,3.873-0.775,5-1v92c0,2.945,5,2.945,5,0V595c1.239-.338,3.93-1.718,5-2v66c0,3.026,5,2.945,5,0V592c1.183-.282,3.1-0.718,4-1v43a2.016,2.016,0,1,0,4,0V590c1.183-.507,3.1-1.662,4-2v30c0,2.945,3,3.108,3,0V587c17.991-6.927,43.363-27.291,52-41,4.85-7.7,15-21,15-21s-0.571,51,2,51,3.048-.242,6-5c5.958-9.6,12.857-22.143,14-24s1-7,1-7,14.714,0.286,17-2,13.286-14.286,14-15,0.714-6.286,0-7-5,0-5,0,0.714-.286,0-1-4.429-.571-5,0a0.622,0.622,0,0,0,0,1s-21,1.857-21,1V491l28-43v8c0,2.873,3,2.873,3,0V445l2-3v18c0,2.873,3,3.16,3,0V437l3-4v40a2.01,2.01,0,1,0,4,0V428l3-5v66c0,2.873,4,3.16,4,0V418l3-5v98c0,2.768-83.273,124.355-99,145-19.852,26.06-85.544,50-151,50-74.944,0-332.939-4.5-351-4.5S6,692.756,6,656V582Zm596-49V521l15-23s-0.429,25.571,1,27,15.211,0.211,16,1c0.394,0.394-.882,1.882-2,3-1,1-12.286,1-17,1s-8,4-8,4S602,534.857,602,533Zm45-11c4.112-4.113-17.888-2-26-2C616.6,524.4,638.887,522,647,522Zm-38,15c0-5.714,24.857-5,30-5C639.033,536.476,616.3,537,609,537Zm-6,30V541h14C618.571,542.571,604.286,567,603,567Zm68-43c-3.133,7.047-6,12-6,12s-74.277,110.912-80,119c-35.047,49.528-120.749,59-161,59-5.708,0-346.245-4.5-353-4.5-25.99,0-56.318-11.546-64-35,14.8,26.017,56.078,31,69,31S416.062,710,420,710c42.1,0,129.088-9.98,161-55,4.9-6.91,81-119,81-119S667.076,529.686,671,524ZM169,619v26c19.14,11.321,148.315,11.818,181,7V623C316.488,631.7,219.045,638.416,169,619Zm-38-2c0.729,1.895,10.561,3,34,3v27c-16.367.182-32.536-2.606-34-7C129.688,636.065,130.271,619.332,131,617Zm223,5s31.179,3.491,36,0v24c0,5.984-21.2,9-36,9V622Zm-188-6v-2H132C132,616.826,149.377,616,166,616Zm190,3v-1h32C388,619.828,374.452,620.5,356,619Zm-228-7c2.03-2.03,38.543-1.749,40,0s1,2.214,1,4c20.056,11.288,139.7,16.789,183,3,0-2.2-.66-4,2-4s37.169,0.169,38,1,1,32,0,33c-5.319,5.319-14.564,9-39,9-2.494,0-3-1.213-3-2-40.175,2.9-147.74,5.062-181-7a3.506,3.506,0,0,1-3,3c-1.626,0-33.879-3.423-38-8C126.345,642.162,125.97,614.03,128,612ZM668,327V87c0-20.141-14.253-43-45-43H202c-30.422,0-52,24.611-52,42V329c0,22.7,32.142,53.036,71,53,30.71-.028,287,0,287,0l-3,4s-255.364.488-285,0c-46.468-.765-62.953,9.187-75,22-8.434,8.97-116.274,127.572-123,135-20.205,22.313,11.277,42.5,28,42.5,14.157,0,382.579,4.5,398,4.5,49.551,0,96.638-12.828,124-45,6.076-7.144,86.246-126.335,89-131,15.515-26.284-6.454-28-30-28H592c1.1,1.619,1,3.9,1,7,0,3.468-5.413,10-16,10-8.951,0-13-5.619-13-10a13.358,13.358,0,0,1,2-7H549v-4h20c-2.452-5.21,1.453-20.072,7-25-3.83-12.393-14-21-14-21H496v-9h59c-12.9-23.959-55.953-54.5-66-45-1.278,2.92-3.342,4.817-9,5s-10-3.691-10-13,5.072-12,10-12,7.817,1.532,8,5c37.236,1.278,71.953,43.025,84,60h33c3.833-2.738,16-13,16-13v-7H610v11c0,2.373-7,2.3-7,0V307s-11,.206-11-6,5-7,5-7V279a8.356,8.356,0,0,1-2-6c0.287-4.212,6.984-7,11-7-2.008-13.324,10.611-38.421,17-47h-4c-1.278,0-4-17.715-4-21s3.175-6,5-6C590.778,72.5,608.8,67.25,629,67c8.213-.1,30,14.687,30,72v24l-2,28s2,11.786,2,20c0,6.023-1.9,7-3,7,2.92,20.99,7.206,60.128,1,74a114.161,114.161,0,0,1,.033,34.924C659.311,326.924,668,327,668,327Zm0,9s-0.051,10.061,0,11c0.527,9.659-26.835,35-46,35H590s1.643-15.889,0-21c2.008-2.19,9.889-9.8,15-14-2.008,7.118.849,20.437,14,21,17.519,0.75,30.258-12.245,36-32C657.415,335.954,668,336,668,336Zm-99,53c4.2,7.849,15.984,7.118,20,0,0.73,4.746-2.368,10-11,10S565.532,394.111,569,389Zm9-53h14s-3.8,3.427-8,7C581.163,340.11,578,336,578,336Zm-95-54c-2.369,0-3-5.631-3-8s1.377-7,4-7c0-3.977-10-3.322-10,7S483,284.792,483,282Zm5-4c-2.3,0-4-.433-4-3a3.619,3.619,0,0,1,4-4c44.322,0,77.749,54.819,92,72,6.673,8.045,11.27,38.568,1,46,0.811-7.567,6.342-25.924-9-46-12.7-16.621-43.705-60.811-76-65A72.127,72.127,0,0,0,488,278Zm89,110c2-8.082,1.574-23.105,0-26C574.962,364.191,566.882,383.622,577,388Zm13-31-3-9s31.559-27.067,35-31c0,2.487,7,2.318,7,0V307c5.9-.656,10.56-6.011,15-16,7.21-16.223,2.408-66.676-3-77,11.963,0,11,5.968,16,53,2.458,23.106-16.106,49.168-28,56C617.035,329.873,590,357,590,357Zm16-50h2v9a1,1,0,1,1-2,0v-9Zm21,8c0,1.767-2,1.767-2,0v-8h2v8Zm-30-17c4.138,4.137,26.187,3.2,39-2C642.074,303.676,589.862,310.192,597,298Zm2-19c3.2,2.536,30.731.47,33-3,0.133,3.87.866,12.195,1,17s-33.6,7.4-34,3S599.4,283,599,279Zm7-10s-7,1.125-7,4,6.75,4,13,4,19-2,19-5-9-4-9-4,1.25,7-8,7S606,269,606,269Zm15-5c3.875-.375,11.875,2.125,13,5,3.375-4.125,4-33.34,2-37C633.172,232.5,622.871,252.038,621,264Zm-11,6c0.93,0.558,2.07.186,3,0,2.712-35.352,20.761-54.616,20-54-1.986,5.193-15.323,26.6-17,53a7.169,7.169,0,0,1,2,0c0.372-18.976,15.395-40.954,18-43-0.2-3.258,1.186-11.954,1-14C612.067,223.162,606.651,267.4,610,270Zm30-45c1.218,2.639,5.543,69.729-2,67C632.713,290.087,642.436,262.147,640,225Zm-1,111s-1.9,12-16,12c-8.12,0-3-12-3-12h19Zm15-36a92.233,92.233,0,0,0-5,8c-5.333,32.667-12.635,42.973-24,44-12.924,1.168-9-17-8-18-1.333.333-7.333,8.667-8,11s-2.335,17.757,13,18C643,363.333,657.667,335,654,300Zm-51-14c0,3.75,21.75,3.25,22-1S603,282,603,286Zm47-95s5.25-8,5-10-1,10-1,10h-4Zm-22,20c1.963-3.286,1.992-11.031,1-16C621.25,196,622.5,211.25,628,211Zm18-24c13.5-36.25,11.06-113.506-17-116-32.164-2.859-17.25,60.5-6,116-11.25-72-17.079-112.6,7-110C653.026,79.485,650.25,154.5,646,187Zm-18-3c-9.5-53-19.5-103.4,1-103,20.248,0.4,16.25,101.75,13,109-0.957-.98-2.145.762-4-1,1.75-21.25,11.027-96-9-96C611.25,93,629.75,159.5,628,184Zm6-6c-3-20.75-13.137-78.321-5-78C641.251,100.483,637.5,160,634,178ZM207,389c-21.5.5-34.5,11-46,24S65.512,524.488,55,535c-16,16-3.5,26,24,26H404c19,0,53.936,3.628,71-19,21.656-28.717,86.981-116.946,95-128,6.324-8.718-11.5-25.5-21-25v4s22.854,7.247,13,21c-9.929,13.857-85.863,116.291-95,126-12.6,13.388-26.942,13-48,13H85c-26.5,0-37-6-23-20,6.519-6.519,97-113.5,104-120s23.5-21,43-21H501l2-3S228.5,388.5,207,389ZM53,542c-7.979,15.6,16.158,16,29,16H433c13.85,0,30.856-5.457,44-23,14.356-19.161,86-116,86-116s6.792-7.967,5-12c-0.448,5.228-6,11-6,11s-79.773,108.329-85,115c-5.05,6.445-16.32,23-44,23H82C72.207,556,50.642,554.331,53,542Zm521-43c2.667,0,4-5,2-5H533c-3,0-6.333,5-3,5h44Zm8-9c2.667,0,4-5,2-5H541c-3,0-6.333,5-3,5h44Zm8-9c2.667,0,4-5,2-5H549c-3,0-6.333,5-3,5h44Zm8-9c2.667,0,4-5,2-5H557c-3,0-6.333,5-3,5h44Zm7-9c2.667,0,4-5,2-5H564c-3,0-6.333,5-3,5h44Zm7-9c2.667,0,4-5,2-5H571c-3,0-6.333,5-3,5h44Zm8-9c2.667,0,4-5,2-5H579c-3,0-6.333,5-3,5h44Zm26-135c0.253,5.062-4,17-4,17H628S640.685,318.605,646,310Z"/>
<path id="speaker" class="cls-1" d="M172,51V284c0,43.02,30.2,73,71,73H468c18,0,28-13.053,28-21V279h-3v53c0,5.6-6.044,21-28,21H244c-38.787,0-68-29.891-68-69V50Zm9-6s-1,224.482-1,231c0,43.02,22.2,73,63,73H468c18,0,24-13.053,24-21V279h-3v42c0,8.291-2.044,24-24,24H244c-38.787,0-59-28.891-59-68V44ZM489,268V44h3V268h-3Zm4,0h3V44h-3V268ZM460,44h3V345h-3V44ZM235,153a4,4,0,1,1-4,4A4,4,0,0,1,235,153Zm10,10a4,4,0,1,1-4,4A4,4,0,0,1,245,163Zm0-20a4,4,0,1,1-4,4A4,4,0,0,1,245,143Zm10,10a4,4,0,1,1-4,4A4,4,0,0,1,255,153Zm10,10a4,4,0,1,1-4,4A4,4,0,0,1,265,163Zm0-20a4,4,0,1,1-4,4A4,4,0,0,1,265,143Zm10,10a4,4,0,1,1-4,4A4,4,0,0,1,275,153Zm10,10a4,4,0,1,1-4,4A4,4,0,0,1,285,163Zm0-20a4,4,0,1,1-4,4A4,4,0,0,1,285,143Zm10,10a4,4,0,1,1-4,4A4,4,0,0,1,295,153Zm10,10a4,4,0,1,1-4,4A4,4,0,0,1,305,163Zm0-20a4,4,0,1,1-4,4A4,4,0,0,1,305,143Zm10,10a4,4,0,1,1-4,4A4,4,0,0,1,315,153Zm10,10a4,4,0,1,1-4,4A4,4,0,0,1,325,163Zm0-20a4,4,0,1,1-4,4A4,4,0,0,1,325,143Zm10,10a4,4,0,1,1-4,4A4,4,0,0,1,335,153Zm10,10a4,4,0,1,1-4,4A4,4,0,0,1,345,163Zm0-20a4,4,0,1,1-4,4A4,4,0,0,1,345,143Zm10,10a4,4,0,1,1-4,4A4,4,0,0,1,355,153Zm10,10a4,4,0,1,1-4,4A4,4,0,0,1,365,163Zm0-20a4,4,0,1,1-4,4A4,4,0,0,1,365,143Zm10,10a4,4,0,1,1-4,4A4,4,0,0,1,375,153Zm10,10a4,4,0,1,1-4,4A4,4,0,0,1,385,163Zm0-20a4,4,0,1,1-4,4A4,4,0,0,1,385,143Zm10,10a4,4,0,1,1-4,4A4,4,0,0,1,395,153ZM235,173a4,4,0,1,1-4,4A4,4,0,0,1,235,173Zm10,10a4,4,0,1,1-4,4A4,4,0,0,1,245,183Zm10-10a4,4,0,1,1-4,4A4,4,0,0,1,255,173Zm10,10a4,4,0,1,1-4,4A4,4,0,0,1,265,183Zm10-10a4,4,0,1,1-4,4A4,4,0,0,1,275,173Zm10,10a4,4,0,1,1-4,4A4,4,0,0,1,285,183Zm10-10a4,4,0,1,1-4,4A4,4,0,0,1,295,173Zm10,10a4,4,0,1,1-4,4A4,4,0,0,1,305,183Zm10-10a4,4,0,1,1-4,4A4,4,0,0,1,315,173Zm10,10a4,4,0,1,1-4,4A4,4,0,0,1,325,183Zm10-10a4,4,0,1,1-4,4A4,4,0,0,1,335,173Zm10,10a4,4,0,1,1-4,4A4,4,0,0,1,345,183Zm10-10a4,4,0,1,1-4,4A4,4,0,0,1,355,173Zm10,10a4,4,0,1,1-4,4A4,4,0,0,1,365,183Zm10-10a4,4,0,1,1-4,4A4,4,0,0,1,375,173Zm10,10a4,4,0,1,1-4,4A4,4,0,0,1,385,183Zm10-10a4,4,0,1,1-4,4A4,4,0,0,1,395,173ZM235,193a4,4,0,1,1-4,4A4,4,0,0,1,235,193Zm10,10a4,4,0,1,1-4,4A4,4,0,0,1,245,203Zm10-10a4,4,0,1,1-4,4A4,4,0,0,1,255,193Zm10,10a4,4,0,1,1-4,4A4,4,0,0,1,265,203Zm10-10a4,4,0,1,1-4,4A4,4,0,0,1,275,193Zm10,10a4,4,0,1,1-4,4A4,4,0,0,1,285,203Zm10-10a4,4,0,1,1-4,4A4,4,0,0,1,295,193Zm10,10a4,4,0,1,1-4,4A4,4,0,0,1,305,203Zm10-10a4,4,0,1,1-4,4A4,4,0,0,1,315,193Zm10,10a4,4,0,1,1-4,4A4,4,0,0,1,325,203Zm10-10a4,4,0,1,1-4,4A4,4,0,0,1,335,193Zm10,10a4,4,0,1,1-4,4A4,4,0,0,1,345,203Zm10-10a4,4,0,1,1-4,4A4,4,0,0,1,355,193Zm10,10a4,4,0,1,1-4,4A4,4,0,0,1,365,203Zm10-10a4,4,0,1,1-4,4A4,4,0,0,1,375,193Zm10,10a4,4,0,1,1-4,4A4,4,0,0,1,385,203Zm10-10a4,4,0,1,1-4,4A4,4,0,0,1,395,193ZM235,213a4,4,0,1,1-4,4A4,4,0,0,1,235,213Zm10,10a4,4,0,1,1-4,4A4,4,0,0,1,245,223Zm10-10a4,4,0,1,1-4,4A4,4,0,0,1,255,213Zm10,10a4,4,0,1,1-4,4A4,4,0,0,1,265,223Zm10-10a4,4,0,1,1-4,4A4,4,0,0,1,275,213Zm10,10a4,4,0,1,1-4,4A4,4,0,0,1,285,223Zm10-10a4,4,0,1,1-4,4A4,4,0,0,1,295,213Zm10,10a4,4,0,1,1-4,4A4,4,0,0,1,305,223Zm10-10a4,4,0,1,1-4,4A4,4,0,0,1,315,213Zm10,10a4,4,0,1,1-4,4A4,4,0,0,1,325,223Zm10-10a4,4,0,1,1-4,4A4,4,0,0,1,335,213Zm10,10a4,4,0,1,1-4,4A4,4,0,0,1,345,223Zm10-10a4,4,0,1,1-4,4A4,4,0,0,1,355,213Zm10,10a4,4,0,1,1-4,4A4,4,0,0,1,365,223Zm10-10a4,4,0,1,1-4,4A4,4,0,0,1,375,213Zm10,10a4,4,0,1,1-4,4A4,4,0,0,1,385,223Zm10-10a4,4,0,1,1-4,4A4,4,0,0,1,395,213ZM235,233a4,4,0,1,1-4,4A4,4,0,0,1,235,233Zm10,10a4,4,0,1,1-4,4A4,4,0,0,1,245,243Zm10-10a4,4,0,1,1-4,4A4,4,0,0,1,255,233Zm10,10a4,4,0,1,1-4,4A4,4,0,0,1,265,243Zm10-10a4,4,0,1,1-4,4A4,4,0,0,1,275,233Zm10,10a4,4,0,1,1-4,4A4,4,0,0,1,285,243Zm10-10a4,4,0,1,1-4,4A4,4,0,0,1,295,233Zm10,10a4,4,0,1,1-4,4A4,4,0,0,1,305,243Zm10-10a4,4,0,1,1-4,4A4,4,0,0,1,315,233Zm10,10a4,4,0,1,1-4,4A4,4,0,0,1,325,243Zm10-10a4,4,0,1,1-4,4A4,4,0,0,1,335,233Zm10,10a4,4,0,1,1-4,4A4,4,0,0,1,345,243Zm10-10a4,4,0,1,1-4,4A4,4,0,0,1,355,233Zm10,10a4,4,0,1,1-4,4A4,4,0,0,1,365,243Zm10-10a4,4,0,1,1-4,4A4,4,0,0,1,375,233Zm10,10a4,4,0,1,1-4,4A4,4,0,0,1,385,243Zm10-10a4,4,0,1,1-4,4A4,4,0,0,1,395,233ZM245.989,123.508l3.96-3.906s1.089,3.125,3.564,3.125,3.762-3.125,3.762-3.125a3.874,3.874,0,0,0,3.96,3.125c3.366-.1,4.158-2.149,4.158-2.149s0.1,2.93,4.356,2.93,4.357-3.516,4.357-3.516,1.93,2.735,4.752,2.735,3.96-2.93,3.96-2.93,0.247,2.93,3.96,2.93,4.158-2.735,4.158-2.735-0.4,3.516,3.96,3.516a3.981,3.981,0,0,0,4.356-3.906H305s-0.875,3.906,3.168,3.906,4.752-2.93,4.752-2.93h4.158s-0.3,2.93,7.326,2.93,10.693-3.906,10.693-3.906-2.782,5.84-2.97,6.25c-0.567,1.229-.116,2.148,1.188,2.148a3.451,3.451,0,0,0,2.97-1.172l2.376-7.226a2.6,2.6,0,0,0,2.772,3.125c1.3,0,2.574-.324,2.574-1.368,0-1.379-1.98-.379-1.98-1.757h8.91a5.762,5.762,0,0,0-.594,2.148,1.769,1.769,0,0,0,1.386.977,2.565,2.565,0,0,0,1.584-.782,12.841,12.841,0,0,0,.99-2.343h1.386a8.03,8.03,0,0,0-.4,2.343,1.607,1.607,0,0,0,1.386.782,2.186,2.186,0,0,0,1.584-.782,13.623,13.623,0,0,0,.792-2.343h5.941s-0.693,2.929,3.96,2.929,2.97-4.3,2.97-4.3h1.188s-0.792,3.516,3.96,3.516,5.544-2.148,5.544-2.148-0.2,2.734,2.178,2.734,4.158-3.32,4.158-3.32-2.079,3.515.4,3.515,3.664-6.054,1.585-6.054c-2.031,0-2.931,1.719-3.763,2.539a0.783,0.783,0,0,1-.99,0c-0.68-.671-0.134-1.357,1.188-1.954s2.769-.488,2.772-2.929c0-1.526-2.178-1.367-2.178-1.367H320.043s3.43-9.766-3.564-9.766c-6.352,0-8.514,4.216-8.514,7.617,0,5.935,7.128,3.906,7.128,3.906s-5.107,8.048-6.732,6.446a0.936,0.936,0,0,1,0-1.563c0.7-.7,1.328.252,1.782-0.2a0.9,0.9,0,0,0,.2-1.172,3.45,3.45,0,0,0-4.356-.391h-7.129a1.049,1.049,0,0,0-.792.391c-0.445.439-.445,2.539-2.178,2.539-2.425,0-1.633-3.125,0-3.125,0.99,0,1.683.488,2.178,0s0.441-1.953-1.98-1.953c-3.762,0-5.346,2-5.346,3.125-0.425,0-1.782.977-2.574,0.977-1.782,0-3.267-4.834-4.752-4.883s-3.812,4.883-5.94,4.883c-1.884,0-1.337-.928-1.98-1.563a2.649,2.649,0,0,0-3.168.195c-0.793.782-.347,2.344-1.783,2.344-2.279,0-1.881-3.125,0-3.125,0.594,0,1.56.415,1.981,0,1.485-1.465-.594-2.344-1.585-2.344-4.356,0-5.544,2.5-5.544,3.711-0.6,0-2.277.782-3.168,0.2s-1.811-3.711-3.168-3.711c-1.584,0-4.356,3.515-4.356,3.515s-1.584-3.515-3.564-3.515c-1.41,0-6.93,6.445-7.92,7.422S244.9,124.582,245.989,123.508Zm70.094-10.938s2.671-7.226,0-7.226-4.551,4.4-3.762,5.664S316.083,112.57,316.083,112.57Zm5.544,5.469c0.741,0.044,1.657-1.7.594-1.758S320.887,118,321.627,118.039Zm-6.336.391h1.782s0.448-3.516,5.346-3.516,4.554,2.021,4.554,2.539-0.79,2.158-6.93,2.158c0,1.3.776,1.553,4.554,1.553s7.723-2.165,7.723-3.32c-0.945,0-1.981-.24-1.981-1.172s0.725-1.563,2.971-1.563a2.307,2.307,0,0,1,2.574,2.344s0.859-1.758,2.178-1.758c1.432,0,1.386,1.758,1.386,1.758a3.458,3.458,0,0,1,3.366-1.953c2.017,0,1.188,1.953,1.188,1.953h7.722a9.081,9.081,0,0,1,.792-1.758,2.14,2.14,0,0,1,1.782-.586,1.021,1.021,0,0,1,1.188.977,9.021,9.021,0,0,1-.594,1.367h1.782a7.365,7.365,0,0,1,.4-1.367,1.9,1.9,0,0,1,1.584-.781,1.215,1.215,0,0,1,1.386.781c-0.037.261-.4,1.367-0.4,1.367h5.149s1.294-1.953,2.574-1.953a1.281,1.281,0,0,1,1.386.977,3.371,3.371,0,0,1-.792,2.148c-0.357.612-.2,1.953,0.594,1.953a1.754,1.754,0,0,0,1.386-2.539c-0.427-.421.225-1.367,0.792-1.367h4.158c0.453,0,1.386.226,1.386,0.781s-0.729,2.158,0,2.158,4.5,0.272,5.544-1.572a3.774,3.774,0,0,1,2.376-1.953c1.109,0,.815.781,0.99,0.781a1.923,1.923,0,0,0,1.035-.361c0.585-.658.837-1.983-0.639-1.983h-67.52A33.545,33.545,0,0,1,315.291,118.43Z"/>
<path id="autostop" class="cls-1" d="M520,447l-3-22,7-4,12,12v14l-5,5Zm0-19,10,8v13l-8-5Zm12,8,3-2v12l-3,3V436Zm-8-12,10,9-3,1-10-8Z"/>
<path id="speed" class="cls-1" d="M436,536V511l12-2,9,14v17l-10,7Zm2-22,9,14v15l-9-9V514Zm12,15,5-2v11l-5,3V529Zm-3-17,8,12-5,2-10-13Z"/>
<path id="clamp" class="cls-1" d="M485,459l5,4h9l2-20,8-11s1.833-9.5,0-15-22.167,2.5-25,0-10.333-6.5-13-9-8.5,5.667-8,9,5.6,4.22,8,5c13.333,4.333,25-.167,28,2s-2,18-2,18Zm17-35a22.508,22.508,0,0,1,4-4c0.667-.5,2.667,6.833,2,8s-5.333,5.833-6,5S501.167,425.333,502,424Zm-1-3c2,0,4-1.5,4-3s-22,3-22,3h18Zm-22-3c-1.244-1.866-7.5-7-9-7s-2.833,3-3,5,8.463,4,10,4C477.667,420,479.333,418.5,479,418Z"/>
<path id="disk" class="cls-1" d="M284.024,394.372c79.984-7.542,147.947,17.068,151.8,54.968,1.356,13.336-5.408,26.541-18.229,38.384C417.154,488.037,415,490,415,490l-26,15a13.6,13.6,0,0,0,0,2c-24.166,12.417-55.532,22.272-91.025,25.618-79.984,7.542-147.946-18.068-151.8-55.967S204.041,401.914,284.024,394.372Zm4.488,2.4c76.687-5.409,140.911,18.306,143.38,53.246s-57.7,67.649-134.382,73.058-144.979-13.317-147.448-48.257S211.826,402.18,288.512,396.772ZM151,488c14.827,30.242,74.147,43,121,43,24.4,0,64.255-2.823,115-25a10.947,10.947,0,0,0-1-1c-51.781,22.227-91.191,22-114,22C233.418,527,169.089,519.427,151,488Zm136-25V452c0-4.356,8-4.337,8,0v11C295,465,287,465,287,463Zm2-11c0-1.857,3.912-2.034,4,0S289,453.857,289,452Zm0,3c0.044-1.99.049,4.848,0,6s4,1.192,4,0v-6C293,456.989,288.956,456.989,289,455Zm0.686-21.937c28.925-2.022,53.184,7.95,54.186,22.275s-21.634,27.576-50.558,29.6-53.184-7.95-54.186-22.275S260.762,435.086,289.686,433.063Zm-0.243,4.168c24.836-1.658,45.668,6.52,46.528,18.266s-18.577,22.613-43.414,24.272-45.668-6.52-46.528-18.266S264.606,438.89,289.443,437.231Z"/>
<path id="tonearm" class="cls-1" d="M534,416c0.572-.572,15-19,15-19s0.482-40.518,0-41c-0.783-.783-22.517-0.483-23,0s-44,61-44,61l2,2,20-3,4,2,1,7v6l11-15S533.428,416.572,534,416Zm-56,7h22v17l-30,41,9,2v9l-11,5v14l-15,7-6-7-11,2v12s-27.438,16.867-40,12c-7.094-2.749-7-3-7-3V504l53-31Zm6-4s43.517-60.518,44-61,15.614-.386,16,0-40,58-40,58Zm24-1s37.614-57.386,38-57,0.579,34.421,0,35-9.131,12-10,12,0.579-18.421,0-19-27,36-27,36Zm-26,5h15l-40,57,15,4-65,27-15-6,52-30Zm-5,62-68,29v18l27-11v-8l11-2,3,4,4-1V502l5-2v2l3-1v7l-3,1v3l6-3V496l12-6v-5Zm-71,49,1-19-16-7v23l5,1,1-14,2,1,1,13Zm94-109-38,54,5,1,33-44V425Zm-40,79v2l-4,1v-2Z"/>
<path id="volume" class="cls-1" d="M516.5,531c7.967,0,14.629,3.509,15.5,8v23c-0.852,4.5-7.518,8-15.5,8-8.053,0-14.744-3.439-15.5-8V539C501.736,534.427,508.432,531,516.5,531Zm0.5,3c6.075,0,11,2.239,11,5s-4.925,5-11,5-11-2.239-11-5S510.925,534,517,534Zm-1,33c5.894-.109,14-3.743,14-8V541c0,3.314-6.044,6-13.5,6s-13.5-2.686-13.5-6v18C503,562.274,510.106,567.109,516,567Zm0.5-30c3.038,0,5.5.895,5.5,2s-2.462,2-5.5,2-5.5-.895-5.5-2S513.462,537,516.5,537Z"/>
<path id="tone" class="cls-1" d="M543.5,501c7.967,0,14.629,3.509,15.5,8v23c-0.852,4.5-7.518,8-15.5,8-8.053,0-14.744-3.439-15.5-8V509C528.736,504.427,535.432,501,543.5,501Zm0.5,3c6.075,0,11,2.239,11,5s-4.925,5-11,5-11-2.239-11-5S537.925,504,544,504Zm-1,33c5.894-.109,14-3.743,14-8V511c0,3.314-6.044,6-13.5,6s-13.5-2.686-13.5-6v18C530,532.274,537.106,537.109,543,537Zm0.5-30c3.038,0,5.5.895,5.5,2s-2.462,2-5.5,2-5.5-.895-5.5-2S540.462,507,543.5,507Z"/>
<path id="fusebox" class="cls-1" d="M612.6,401.271c16-1.524,29.6,3.449,30.37,11.108,0.271,2.695-.839,5.658-1.974,6.621,1.774,7.325-9.735,16-31,16-24.162,0-24.539-9.987-23-13-1.276-.441-1.852-2.889-1.974-4.1C584.255,410.239,596.6,402.8,612.6,401.271Zm0.949,2.93c14.05-.99,24.006,1.562,24.458,7.959s-7.854,10.6-21.9,11.586S590.45,423.1,590,416.7,599.5,405.192,613.553,404.2ZM589,423c0.162,2.307.956,9,22,9,9.1,0,28.65-4.889,28-11-4.161,3.64-13.549,6.09-22,7S592.619,429.351,589,423Zm24.737-13.91c5.787-.409,10.64,1.606,10.841,4.5s-4.328,5.572-10.115,5.981-10.64-1.607-10.841-4.5S607.95,409.5,613.737,409.09Z"/>
</svg>
