<svg xmlns="http://www.w3.org/2000/svg" viewBox="-0.5 -0.5 107 100"><path fill="#fffeed" d="M93.5 62.461s3.46.4 3.46 4.625v13.873s.085 2.224-.712 2.815-10.457 6.754-16.485 10.456c-4.916 3.019-13.831 3.45-23 1.81-5.5-.985-50.326-9.2-52.407-9.651A4.286 4.286 0 0 1 1 82.065V69c0-2.692.327-4.163 3.155-5.027S20.5 58.5 24.405 57.234 35.6 55.625 35.6 55.625s-7.522-3.767-8.344-8.947-4.622-26.952-5.393-30.964.271-6.714 3.458-9.048 7.37-5.272 8.141-5.831a8.2 8.2 0 0 1 4.783-.8c2.21.152 44.27 2.324 49.151 2.513a14.473 14.473 0 0 1 14.144 11.859c.367 2.693 3.46 28.37 3.46 30.964s-.3 5.977-1.323 7.238c-1.469 1.8-3.075 3.688-4.884 5.831a22.109 22.109 0 0 1-5.293 4.021z"/><g stroke="#630" fill="none" stroke-linecap="round"><path stroke-width=".1" d="M36 1zm4 0zm38 2zM48 7zm1 0zm1 0zm1 0zm13 1zm1 0zm1 0zm5 0zm11 1zm13 11zm7 7zm-6 6zm7 3zm-6 2zm0 2zm-62 6zm41 10zm-18 9zm1 0zm1 0zm1 0zm29 0zm-55 1zm14 0zm1 0zm3 0zm1 0zm1 0zm1 0zm1 0zm1 0zm1 0zm1 0zm1 0zm-7 1zm9 0zm-1 2zm9 3zm-48 2zm0 1zm4 1zm50 0zm-53 1zm8 0zm7 0zm-10 1zm11 0zm-10 1zm6 1zm9 1zM4 84zm3 1zm0 1zm6 1zm5 0zm6 2zm11 1zm50 0zm-44 2zm5 0zm-3 1zm9 0zm0 1zm6 1zm6 1z"/><path stroke-width=".23" d="M37 1zm1 0zm-8 5zm9 0zm18 2zm28 2zm-41 8zm-15 1zm21 0zm3 0zm49 9zm-70 4zm64 3zm7 2zm-69 6zm48 7zm16 1zm-53 1zm7 0zm1 1zm6 0zm39 0zm-36 1zm1 0zm1 0zm1 0zm1 0zm1 0zm1 0zm5 1zm7 0zm-14 4zm-3 3zm18 0zm1 0zm4 0zm-76 1zm68 0zm-23 1zm39 0zm1 1zm-9 1zm8 0zm1 0zM5 67zm31 0zm30 0zm18 0zm1 0zm1 0zm1 0zm1 0zm1 0zm1 0zm1 0zm1 0zm1 0zM3 68zm1 0zm4 0zm1 0zm70 0zm3 0zm1 0zm1 0zm1 0zm1 0zm1 0zm1 0zm1 0zm1 0zM6 69zm3 0zm1 0zm1 0zm2 0zm22 0zm19 0zm27 0zm1 0zm1 0zm1 0zm1 0zm1 0zm1 0zm1 0zm4 0zm-79 1zm1 0zm2 0zm1 0zm1 0zm1 0zm1 0zm1 0zm1 0zm1 0zm1 0zm15 0zm5 0zm17 0zm20 0zm1 0zm1 0zm1 0zm1 0zm1 0zm4 0zm-72 1zm2 0zm3 0zm1 0zm1 0zm1 0zm1 0zm1 0zm1 0zm1 0zm1 0zm13 0zm37 0zm1 0zm1 0zm1 0zm-59 1zm1 0zm25 0zm28 0zm1 0zm1 0zm1 0zm-51 1zm7 0zm8 0zm1 0zm11 0zm17 0zm4 0zm1 0zm-42 1zm15 0zm22 0zm1 0zm1 0zm1 0zm-34 1zm10 0zm5 0zm1 0zm8 0zm1 0zm1 0zm5 0zm1 0zm-17 1zm1 0zm5 0zm1 0zm1 0zm1 0zm1 0zm1 0zm1 0zm1 0zm1 0zm1 0zm1 0zm-17 1zm-36 1zm27 0zm1 0zm16 0zm1 0zm1 0zm1 0zm1 0zm-30 3zm52 3zm-82 1zm17 3zm17 3zm37 0zm-20 3z"/><path stroke-width=".18" d="M39 1zm-7 5zm3 0zm2 0zm19 1zm3 1zm16 0zm22 0zm-9 2zm-59 6zm0 1zm2 11zm4 19zm2 2zm3 1zm2 1zm39 2zm-4 2zm-2 1zm-8 4zm-3 2zm21 0zm-62 2zm70 1zm-48 1zm-1 1zm17 1zm10 2zm8 0zm9 0zm-9 1zm7 0zm-33 1zm1 0zm3 0zm1 0zm17 0zm-54 1zm40 0zm1 0zm22 0zm-13 1zm-5 1zm-32 1zm11 1zm27 0zm-49 1zm3 10zm17 3zm17 3zm8 1zm1 0z"/><path stroke-width=".04" d="M41 1zm-9 2zm54 7zm-63 6zm70 0zm2 5zm1 9zm0 1zm-70 2zm2 11zm52 10zm-2 1zm-1 1zm-9 4zm-1 1zm9 0zm-2 3zm17 0zm-39 2zm7 1zm-6 1zm23 2zm1 1zm-5 1zm2 1zm-53 2zm0 1zm1 1zm72 7zM5 85zm86 0zm-8 6zm-8 4zm-16 1z"/><path stroke-width=".39" d="M34 2zm6 0zm1 0zm1 0zm2 0zm3 0zm1 0zm1 0zm8 1zm2 0zm1 0zm1 0zm1 0zm2 0zm2 0zm2 0zm1 0zM32 4zm43 0zm1 0zm2 0zm3 0zm1 0zm2 0zm3 0zM44 5zm2 0zm44 0zm2 0zM63 6zm1 0zm29 0zM31 7zm2 0zm33 0zm16 0zm1 0zM26 8zm26 0zm18 1zm23 0zm-56 1zm52 0zm3 0zm-33 1zm40 0zm-28 1zm-41 1zm41 2zm-21 1zm-8 1zm6 0zm7 0zm1 0zm-32 1zm6 0zm1 1zm23 1zm-3 1zm4 0zm1 0zm16 0zm-33 1zm33 0zm-22 1zm2 0zm3 0zm41 2zm-56 2zm20 0zm-28 2zm8 0zm21 1zm-20 1zm33 3zm0 1zm-33 1zm-7 1zm28 1zm-21 1zm10 0zm3 0zm2 0zm1 0zm2 0zm2 0zm-26 3zm40 0zm6 0zm-44 4zm1 1zm45 1zm-27 3zm8 1zm-26 1zm1 1zm1 0zm9 0zm-10 2zm17 0zm1 0zm26 0zm-54 1zm34 0zm7 0zm7 0zm6 0zm-13 1zm13 0zm-6 3zm-45 4zm-3 2zm1 0zm20 0zm14 1zm-4 1zM4 70zm48 0zm1 0zM5 71zm4 0zm1 0zm1 1zm1 0zm4 0zm2 0zm8 1zm39 1zm-25 2zm17 2zm-37 1zm40 0zm3 0zM3 80zm32 1zm0 1zM8 83zm36 0zm8 0zm2 0zm-5 1zm1 0zm1 0zm-37 1zm5 0zm46 0zm-45 1zm5 0zm6 2zm5 0zm1 1zm5 1zm6 1zm5 0zm12 2z"/><path stroke-width=".4" d="M35 2zm8 0zm37 2zm6 0zM40 5zm1 0zm1 0zm1 0zm48 0zM48 6zm12 0zm1 0zm1 0zm32 0zM67 7zm1 0zm12 0zm1 0zm14 1zm-8 1zm2 0zm5 0zm-56 1zm46 0zm3 1zm-57 3zm41 0zm21 1zm-40 2zm1 0zm1 0zm-13 1zm-10 2zm17 0zm2 0zm2 0zm1 0zm-14 3zm9 0zm3 0zm-19 2zm8 0zm-8 1zm8 0zm15 0zm2 0zm-1 1zm17 0zm-31 1zm15 0zm2 0zm14 0zm7 0zm-39 1zm-8 2zm12 0zm16 0zm-11 1zm-19 1zm16 0zm2 0zm2 0zm23 0zm7 1zm-19 1zm-7 2zm-10 1zm13 1zm-24 1zm41 0zm-39 5zm40 0zm0 1zm7 3zm-36 1zm-8 1zm11 0zm4 0zm1 0zm3 1zm5 0zm14 0zm-40 1zm6 0zm4 0zm20 0zm4 0zm1 0zm-17 1zm44 0zm-41 1zm1 0zm4 0zm-14 1zm18 0zm1 0zm-3 2zm17 1zm3 2zm0 2zM3 70zm67 0zM6 71zm1 0zm1 0zm5 1zm11 1zm7 1zm-15 1zm2 0zm63 0zm-65 1zm2 0zm23 0zm1 0zm2 0zm1 0zm11 2zm3 1zm2 0zm1 0zm2 0zm1 0zm1 0zm-42 1zm23 0zm-18 1zm37 0zm-24 1zm24 0zM7 83zm39 0zM9 84zm4 0zm5 1zm48 0zm-42 1zm42 0zm-36 1zm5 1zm31 0zm-25 1zm25 0zm-19 1zm5 1zm2 1zm4 0zm6 1zm2 1z"/><path stroke-width=".38" d="M36 2zm1 0zm1 0zm1 0zm6 0zm1 0zm5 0zM34 3zm19 0zm1 0zm1 0zm1 0zm2 0zm5 0zm2 0zm2 0zm5 1zm1 0zm1 0zm3 0zm2 0zm6 0zm3 0zM45 5zm2 0zm0 1zm18 0zm1 0zm17 2zm4 0zm7 0zm-3 2zm-33 1zm-28 1zm41 4zm-30 3zm1 1zm16 0zm-4 1zm3 0zm-15 1zm2 0zm9 1zm1 0zm2 0zm2 0zm14 0zm6 0zm-18 2zm1 2zm-21 1zm33 1zm29 0zm-69 1zm29 3zm-29 2zm1 1zm28 0zm-19 2zm60 0zm-51 1zm1 0zm2 0zm20 2zm-42 3zm-4 2zm47 1zm0 1zm-34 1zm6 1zm1 1zm50 0zm-57 2zm24 0zm7 0zm1 0zm1 0zm1 0zm23 0zm-58 1zm7 0zm9 1zm7 0zm1 1zm1 0zm-8 1zm6 0zm11 3zm-11 1zm-45 1zm2 1zm60 2zm-58 1zm56 0zm-51 1zm8 1zm1 0zm17 2zm-44 2zm9 0zm-2 4zm62 0zm-27 1zm-5 1zm11 1zm7 1zM4 81zm61 0zm-22 1zm22 0zm-22 1zm4 0zm-33 1zm34 0zm4 0zm3 0zm10 0zm0 2zm-40 1zm6 0zm34 0zm-23 2zm23 0zm-17 1zm17 0zm0 1zm-6 1zm6 0zm-6 1zm6 1z"/><path stroke-width=".37" d="M50 2zm2 0zm1 0zM35 3zm1 0zm1 0zm1 0zm1 0zm1 0zm1 0zm1 0zm1 0zm1 0zm1 0zm1 0zm1 0zm1 0zm1 0zm1 0zm1 0zm1 0zm18 0zm1 0zm1 0zm1 0zM33 4zm1 0zm1 0zm1 0zm1 0zm1 0zm1 0zm1 0zm1 0zm1 0zm1 0zm1 0zm1 0zm1 0zm1 0zm1 0zm1 0zm1 0zm1 0zm1 0zm1 0zm1 0zm1 0zm1 0zm1 0zm1 0zm1 0zm1 0zm1 0zm1 0zm1 0zm1 0zm1 0zm1 0zm1 0zm1 0zm1 0zm1 0zm1 0zm12 0zm6 0zM48 5zm1 0zm1 0zm1 0zm1 0zm1 0zm1 0zm1 0zm1 0zm1 0zm1 0zm1 0zm1 0zm1 0zm1 0zm1 0zm1 0zm1 0zm1 0zm1 0zm1 0zm1 0zm1 0zm1 0zm1 0zm1 0zm1 0zm1 0zm1 0zm1 0zm1 0zm1 0zm1 0zm1 0zm1 0zm1 0zm1 0zm1 0zm1 0zm1 0zm1 0zm1 0zM67 6zm1 0zm1 0zm1 0zm1 0zm1 0zm1 0zm1 0zm1 0zm1 0zm1 0zm1 0zm1 0zm1 0zm1 0zm1 0zm1 0zm1 0zm1 0zm1 0zm1 0zm1 0zm1 0zm1 0zm1 0zm1 0zM30 7zm54 0zm1 0zm1 0zm1 0zm1 0zm1 0zm1 0zm1 0zm1 0zm1 0zm1 0zm-5 1zm1 0zm1 0zm1 0zm1 0zm-2 1zm1 0zm-56 1zm21 1zm-26 1zm1 0zm1 0zm1 0zm1 0zm1 0zm1 0zm1 0zm1 0zm1 0zm1 0zm1 0zm1 0zm1 0zm1 0zm1 0zm1 0zm1 0zm1 0zm1 0zm1 0zm-20 1zm1 0zm1 0zm1 0zm1 0zm1 0zm1 0zm1 0zm1 0zm1 0zm1 0zm1 0zm1 0zm1 0zm1 0zm1 0zm1 0zm1 0zm1 0zm1 0zm1 0zm1 0zm1 0zm1 0zm1 0zm1 0zm1 0zm1 0zm1 0zm1 0zm1 0zm1 0zm1 0zm1 0zm1 0zm1 0zm1 0zm1 0zm1 0zm-38 1zm1 0zm1 0zm1 0zm1 0zm1 0zm1 0zm1 0zm1 0zm1 0zm1 0zm1 0zm1 0zm1 0zm1 0zm1 0zm1 0zm1 0zm1 0zm1 0zm1 0zm1 0zm1 0zm1 0zm1 0zm1 0zm1 0zm1 0zm1 0zm1 0zm1 0zm1 0zm1 0zm1 0zm1 0zm1 0zm1 0zm1 0zm1 0zm-38 1zm1 0zm1 0zm1 0zm1 0zm1 0zm1 0zm1 0zm1 0zm1 0zm1 0zm1 0zm1 0zm1 0zm1 0zm1 0zm1 0zm1 0zm1 0zm1 0zm1 0zm1 0zm1 0zm1 0zm1 0zm1 0zm1 0zm1 0zm1 0zm1 0zm1 0zm1 0zm1 0zm1 0zm1 0zm1 0zm1 0zm1 0zm1 0zm-38 1zm1 0zm1 0zm1 0zm1 0zm1 0zm1 0zm1 0zm1 0zm1 0zm1 0zm1 0zm1 0zm1 0zm1 0zm1 0zm1 0zm1 0zm4 0zm1 0zm1 0zm1 0zm1 0zm1 0zm1 0zm1 0zm1 0zm1 0zm1 0zm1 0zm1 0zm1 0zm1 0zm1 0zm1 0zm1 0zm-38 1zm1 0zm1 0zm1 0zm1 0zm1 0zm1 0zm1 0zm1 0zm1 0zm17 0zm1 0zm1 0zm1 0zm1 0zm1 0zm1 0zm1 0zm1 0zm1 0zm1 0zm1 0zm1 0zm2 0zm22 0zm-62 1zm1 0zm1 0zm1 0zm1 0zm1 0zm1 0zm1 0zm1 0zm1 0zm17 0zm1 0zm1 0zm1 0zm1 0zm1 0zm1 0zm1 0zm1 0zm1 0zm1 0zm1 0zm1 0zm2 0zm-39 1zm1 0zm1 0zm1 0zm1 0zm1 0zm1 0zm1 0zm1 0zm19 0zm1 0zm1 0zm1 0zm1 0zm1 0zm1 0zm1 0zm1 0zm1 0zm1 0zm2 0zm-39 1zm1 0zm1 0zm1 0zm1 0zm1 0zm1 0zm1 0zm1 0zm19 0zm1 0zm1 0zm1 0zm1 0zm1 0zm1 0zm1 0zm1 0zm1 0zm1 0zm1 0zm-38 1zm1 0zm1 0zm1 0zm1 0zm1 0zm1 0zm3 0zm2 0zm1 0zm1 0zm1 0zm1 0zm1 0zm1 0zm1 0zm2 0zm1 0zm5 0zm1 0zm1 0zm1 0zm1 0zm1 0zm1 0zm1 0zm1 0zm1 0zm1 0zm1 0zm1 0zm-38 1zm1 0zm1 0zm1 0zm1 0zm1 0zm4 0zm16 0zm1 0zm1 0zm1 0zm1 0zm1 0zm1 0zm1 0zm1 0zm1 0zm1 0zm1 0zm1 0zm1 0zm-38 1zm1 0zm1 0zm1 0zm1 0zm1 0zm20 0zm3 0zm1 0zm1 0zm1 0zm1 0zm1 0zm1 0zm1 0zm1 0zm1 0zm1 0zm-45 1zm7 0zm1 0zm1 0zm1 0zm1 0zm1 0zm1 0zm24 0zm1 0zm1 0zm1 0zm1 0zm1 0zm1 0zm1 0zm1 0zm2 0zm-39 1zm1 0zm1 0zm1 0zm1 0zm1 0zm1 0zm23 0zm1 0zm1 0zm1 0zm1 0zm1 0zm1 0zm1 0zm1 0zm2 0zm-39 1zm1 0zm1 0zm1 0zm1 0zm1 0zm24 0zm1 0zm1 0zm1 0zm1 0zm1 0zm1 0zm1 0zm1 0zm1 0zm-38 1zm1 0zm1 0zm1 0zm1 0zm1 0zm24 0zm1 0zm1 0zm1 0zm1 0zm1 0zm1 0zm1 0zm1 0zm1 0zm-38 1zm1 0zm1 0zm1 0zm1 0zm1 0zm24 0zm1 0zm1 0zm1 0zm1 0zm1 0zm1 0zm1 0zm1 0zm1 0zm-38 1zm1 0zm1 0zm1 0zm1 0zm1 0zm25 0zm1 0zm1 0zm1 0zm1 0zm1 0zm1 0zm1 0zm1 0zm8 0zm-45 1zm1 0zm1 0zm1 0zm1 0zm1 0zm24 0zm1 0zm1 0zm1 0zm1 0zm1 0zm1 0zm1 0zm1 0zm2 0zm-39 1zm1 0zm1 0zm1 0zm1 0zm1 0zm1 0zm23 0zm1 0zm1 0zm1 0zm1 0zm1 0zm1 0zm1 0zm1 0zm2 0zm-39 1zm1 0zm1 0zm1 0zm1 0zm1 0zm24 0zm1 0zm1 0zm1 0zm1 0zm1 0zm1 0zm1 0zm1 0zm1 0zm-38 1zm1 0zm1 0zm1 0zm1 0zm1 0zm2 0zm22 0zm1 0zm1 0zm1 0zm1 0zm1 0zm1 0zm1 0zm1 0zm1 0zm-38 1zm1 0zm1 0zm1 0zm1 0zm1 0zm24 0zm1 0zm1 0zm1 0zm1 0zm1 0zm1 0zm1 0zm1 0zm1 0zm-45 1zm7 0zm1 0zm1 0zm1 0zm1 0zm1 0zm1 0zm24 0zm1 0zm1 0zm1 0zm1 0zm1 0zm1 0zm1 0zm1 0zm-37 1zm1 0zm1 0zm1 0zm1 0zm25 0zm1 0zm1 0zm1 0zm1 0zm1 0zm1 0zm1 0zm1 0zm-37 1zm1 0zm1 0zm1 0zm1 0zm1 0zm24 0zm1 0zm1 0zm1 0zm1 0zm1 0zm1 0zm1 0zm1 0zm2 0zm-39 1zm1 0zm1 0zm1 0zm1 0zm1 0zm24 0zm1 0zm1 0zm1 0zm1 0zm1 0zm1 0zm1 0zm1 0zm1 0zm-38 1zm1 0zm1 0zm1 0zm1 0zm1 0zm9 0zm15 0zm1 0zm1 0zm1 0zm1 0zm1 0zm1 0zm1 0zm1 0zm1 0zm-38 1zm1 0zm1 0zm1 0zm1 0zm1 0zm1 0zm1 0zm1 0zm1 0zm1 0zm1 0zm1 0zm1 0zm1 0zm1 0zm1 0zm1 0zm11 0zm1 0zm1 0zm1 0zm1 0zm1 0zm1 0zm1 0zm1 0zm1 0zm1 0zm-38 1zm1 0zm1 0zm1 0zm1 0zm1 0zm1 0zm1 0zm1 0zm1 0zm1 0zm1 0zm1 0zm1 0zm1 0zm1 0zm1 0zm1 0zm1 0zm1 0zm1 0zm1 0zm1 0zm1 0zm1 0zm1 0zm1 0zm1 0zm1 0zm1 0zm1 0zm1 0zm1 0zm1 0zm1 0zm1 0zm1 0zm1 0zm1 0zm-37 1zm1 0zm1 0zm1 0zm1 0zm1 0zm1 0zm1 0zm1 0zm1 0zm1 0zm1 0zm1 0zm1 0zm1 0zm1 0zm1 0zm1 0zm1 0zm1 0zm1 0zm1 0zm1 0zm1 0zm1 0zm1 0zm1 0zm1 0zm1 0zm1 0zm1 0zm1 0zm1 0zm1 0zm1 0zm1 0zm1 0zm1 0zm-37 1zm1 0zm1 0zm1 0zm1 0zm1 0zm1 0zm1 0zm1 0zm1 0zm1 0zm1 0zm1 0zm1 0zm1 0zm1 0zm1 0zm1 0zm1 0zm1 0zm1 0zm1 0zm1 0zm1 0zm1 0zm1 0zm1 0zm1 0zm1 0zm1 0zm1 0zm1 0zm1 0zm1 0zm1 0zm1 0zm1 0zm1 0zm2 0zm-38 1zm1 0zm1 0zm1 0zm1 0zm1 0zm1 0zm1 0zm1 0zm1 0zm1 0zm1 0zm1 0zm1 0zm1 0zm1 0zm1 0zm1 0zm1 0zm1 0zm1 0zm1 0zm1 0zm1 0zm1 0zm1 0zm1 0zm1 0zm1 0zm1 0zm1 0zm1 0zm1 0zm1 0zm1 0zm1 0zm1 0zm2 0zm-38 1zm1 0zm1 0zm1 0zm1 0zm1 0zm1 0zm1 0zm1 0zm1 0zm1 0zm1 0zm1 0zm1 0zm1 0zm1 0zm1 0zm1 0zm1 0zm1 0zm1 0zm1 0zm1 0zm1 0zm1 0zm1 0zm1 0zm1 0zm1 0zm1 0zm1 0zm1 0zm1 0zm1 0zm1 0zm1 0zm1 0zm1 0zm-36 1zm1 0zm1 0zm1 0zm1 0zm1 0zm1 0zm1 0zm1 0zm1 0zm1 0zm1 0zm1 0zm1 0zm1 0zm1 0zm1 0zm1 0zm1 0zm1 0zm1 0zm1 0zm1 0zm1 0zm1 0zm1 0zm1 0zm1 0zm1 0zm1 0zm1 0zm1 0zm1 0zm1 0zm1 0zm1 0zm1 0zm-34 1zm1 0zm1 0zm1 0zm1 0zm1 0zm1 0zm1 0zm1 0zm1 0zm1 0zm1 0zm1 0zm1 0zm1 0zm1 0zm1 0zm1 0zm1 0zm1 0zm1 0zm1 0zm1 0zm1 0zm1 0zm1 0zm1 0zm1 0zm1 0zm1 0zm1 0zm1 0zm1 0zm1 0zm1 0zm-33 1zm1 0zm1 0zm1 0zm1 0zm1 0zm1 0zm1 0zm1 0zm1 0zm1 0zm1 0zm1 0zm1 0zm1 0zm1 0zm1 0zm1 0zm1 0zm1 0zm1 0zm1 0zm1 0zm1 0zm1 0zm1 0zm1 0zm1 0zm1 0zm1 0zm1 0zm1 0zm1 0zm1 0zm-31 1zm1 0zm1 0zm1 0zm1 0zm1 0zm1 0zm1 0zm1 0zm1 0zm1 0zm1 0zm1 0zm1 0zm1 0zm1 0zm1 0zm1 0zm1 0zm1 0zm1 0zm1 0zm1 0zm1 0zm1 0zm1 0zm1 0zm1 0zm1 0zm1 0zm1 0zm1 0zm2 0zm-34 1zm7 0zm1 0zm1 0zm1 0zm1 0zm1 0zm1 0zm1 0zm1 0zm1 0zm1 0zm1 0zm1 0zm1 0zm1 0zm1 0zm1 0zm1 0zm1 0zm1 0zm1 0zm1 0zm1 0zm1 0zm1 0zm1 0zm2 0zm-19 1zm1 0zm1 0zm1 0zm1 0zm1 0zm1 0zm1 0zm1 0zm1 0zm1 0zm1 0zm1 0zm1 0zm1 0zm1 0zm1 0zm1 0zm1 0zm-37 1zm1 0zm18 0zm8 0zm1 0zm1 0zm1 0zm1 0zm1 0zm1 0zm1 0zm1 0zm1 0zm1 0zm-35 1zm1 0zm1 1zm1 0zm1 0zm1 0zm1 0zm1 0zm9 0zm-4 1zm1 0zm1 0zm1 0zm1 0zm-6 1zm8 0zm1 0zm1 0zm1 0zm1 0zm1 0zm1 0zm1 1zm1 0zm1 0zm1 0zm-11 1zm7 0zm20 7zm-2 1zM3 71zm1 0zm-1 1zm1 0zm1 0zm1 0zm1 0zm1 0zm1 0zm8 0zm49 0zM3 73zm1 0zm1 0zm1 0zm1 0zm1 0zm1 0zm1 0zm1 0zm1 0zm-9 1zm1 0zm1 0zm1 0zm1 0zm1 0zm1 0zm1 0zm1 0zm1 0zm20 0zm34 0zM3 75zm1 0zm1 0zm1 0zm1 0zm1 0zm1 0zm1 0zm1 0zm1 0zm5 0zm15 0zm7 0zM3 76zm1 0zm1 0zm1 0zm1 0zm1 0zm1 0zm1 0zm1 0zm1 0zm-9 1zm1 0zm1 0zm1 0zm1 0zm1 0zm1 0zm1 0zm1 0zm1 0zm6 0zM3 78zm1 0zm1 0zm1 0zm1 0zm1 0zm1 0zm1 0zm1 0zm1 0zm1 0zm3 0zm39 0zm3 0zM3 79zm1 0zm1 0zm1 0zm1 0zm1 0zm1 0zm1 0zm1 0zm1 0zm1 0zm1 0zm1 0zm1 0zm1 0zm1 0zm38 0zm1 0zM4 80zm1 0zm1 0zm1 0zm1 0zm1 0zm1 0zm1 0zm1 0zm1 0zm1 0zm1 0zm1 0zm1 0zm1 0zm1 0zm1 0zm1 0zm2 0zm33 0zm1 0zm1 0zm1 0zm1 0zm1 0zm1 0zm1 0zm1 0zM5 81zm1 0zm1 0zm1 0zm1 0zm1 0zm1 0zm1 0zm1 0zm1 0zm1 0zm1 0zm1 0zm1 0zm1 0zm1 0zm1 0zm1 0zm1 0zm1 0zm1 0zm1 0zm1 0zm1 0zm28 0zm1 0zm1 0zm1 0zm1 0zm1 0zm1 0zm1 0zm1 0zM6 82zm1 0zm1 0zm1 0zm1 0zm1 0zm1 0zm1 0zm1 0zm1 0zm1 0zm1 0zm1 0zm1 0zm1 0zm1 0zm1 0zm1 0zm1 0zm1 0zm1 0zm1 0zm1 0zm1 0zm1 0zm1 0zm1 0zm1 0zm1 0zm22 0zm1 0zm1 0zm1 0zm1 0zm1 0zm1 0zm1 0zm1 0zM9 83zm1 0zm1 0zm1 0zm1 0zm1 0zm1 0zm1 0zm1 0zm1 0zm1 0zm1 0zm1 0zm1 0zm1 0zm1 0zm1 0zm1 0zm1 0zm1 0zm1 0zm1 0zm1 0zm1 0zm1 0zm1 0zm1 0zm1 0zm1 0zm1 0zm1 0zm1 0zm1 0zm1 0zm14 0zm1 0zm1 0zm1 0zm1 0zm1 0zm1 0zm1 0zm1 0zM8 84zm7 0zm1 0zm1 0zm1 0zm1 0zm1 0zm1 0zm1 0zm1 0zm1 0zm1 0zm1 0zm1 0zm1 0zm1 0zm1 0zm1 0zm1 0zm1 0zm1 0zm1 0zm1 0zm1 0zm1 0zm1 0zm1 0zm1 0zm1 0zm1 0zm1 0zm1 0zm1 0zm1 0zm9 0zm1 0zm1 0zm1 0zm1 0zm1 0zm1 0zm1 0zm1 0zm-44 1zm1 0zm1 0zm1 0zm1 0zm1 0zm1 0zm1 0zm1 0zm1 0zm1 0zm1 0zm1 0zm1 0zm1 0zm1 0zm1 0zm1 0zm1 0zm1 0zm1 0zm1 0zm1 0zm1 0zm1 0zm1 0zm1 0zm1 0zm1 0zm1 0zm1 0zm1 0zm1 0zm1 0zm1 0zm1 0zm1 0zm1 0zm1 0zm1 0zm1 0zm1 0zm1 0zm1 0zm1 0zm-45 1zm7 0zm1 0zm1 0zm1 0zm1 0zm1 0zm1 0zm1 0zm1 0zm1 0zm1 0zm1 0zm1 0zm1 0zm1 0zm1 0zm1 0zm1 0zm1 0zm1 0zm1 0zm1 0zm1 0zm1 0zm1 0zm1 0zm1 0zm1 0zm1 0zm1 0zm1 0zm1 0zm1 0zm1 0zm1 0zm1 0zm1 0zm1 0zm1 0zm-32 1zm1 0zm1 0zm1 0zm1 0zm1 0zm1 0zm1 0zm1 0zm1 0zm1 0zm1 0zm1 0zm1 0zm1 0zm1 0zm1 0zm1 0zm1 0zm1 0zm1 0zm1 0zm1 0zm1 0zm1 0zm1 0zm1 0zm1 0zm1 0zm1 0zm1 0zm1 0zm1 0zm-27 1zm1 0zm1 0zm1 0zm1 0zm1 0zm1 0zm1 0zm1 0zm1 0zm1 0zm1 0zm1 0zm1 0zm1 0zm1 0zm1 0zm1 0zm1 0zm1 0zm1 0zm1 0zm1 0zm1 0zm1 0zm1 0zm1 0zm1 0zm1 0zm-29 1zm7 0zm1 0zm1 0zm1 0zm1 0zm1 0zm1 0zm1 0zm1 0zm1 0zm1 0zm1 0zm1 0zm1 0zm1 0zm1 0zm1 0zm1 0zm1 0zm1 0zm1 0zm1 0zm-15 1zm1 0zm1 0zm1 0zm1 0zm1 0zm1 0zm1 0zm1 0zm1 0zm1 0zm1 0zm1 0zm1 0zm1 0zm1 0zm-10 1zm1 0zm1 0zm1 0zm1 0zm1 0zm1 0zm1 0zm1 0zm1 0zm1 0zm-11 1zm7 0zm1 0zm1 0zm1 0zm1 0z"/><path stroke-width=".35" d="M54 2zm-9 4zm19 1zM53 8zm18 1zm-37 1zm-1 1zm1 0zm2 0zm1 0zm18 0zm1 0zm-1 1zm2 0zm1 0zm-2 6zm-5 2zm6 0zm-28 1zm11 0zm8 1zm1 0zm1 0zm1 0zm1 0zm1 0zm1 0zm-15 2zm22 0zm-22 2zm22 0zm-22 1zm23 2zm18 0zm-18 2zm0 1zm1 3zm0 2zm-31 1zm9 0zm1 1zm3 0zm3 0zm15 0zm-7 1zm3 0zM42 52zm32 2zm7 0zm-39 1zm-4 1zm37 2zm9 3zm-9 1zm15 0zm-73 1zm1 1zm7 0zm47 0zm11 0zM6 65zm66 0zm5 1zm-46 1zm49 0zm-40 1zm1 0zm1 0zm1 0zm1 0zm6 0zm15 0zm1 0zm-23 1zm1 0zm14 0zm1 0zm-9 1zm1 0zm4 0zm4 1zm9 0zm-47 1zm49 0zm-52 1zm34 0zm7 1zm1 0zm1 0zm1 0zm-23 2zm7 0zm5 1zm-37 1zm5 0zm10 2zm18 1zm-2 1zM4 83zm44 0zm7 0zm-42 2zm17 3zm17 3zm32 1zm-15 2z"/><path stroke-width=".32" d="M55 2zM28 7zm1 4zm16 0zm1 0zm1 0zm1 0zm3 0zm15 1zm1 0zm1 0zm21 0zm-35 6zm24 0zm-48 1zm48 2zm-52 9zm54 4zm16 2zm-68 5zm54 11zm-30 4zm10 2zm6 1zm-5 1zm0 1zm2 0zm9 0zm-58 1zm51 0zm7 0zm-63 1zm2 0zm70 0zm1 0zm-7 1zm1 0zm-64 1zm17 0zM7 66zm13 0zm5 0zm-12 1zm35 1zm23 0zm-30 1zm6 0zm18 0zm6 0zM7 70zm24 0zm26 0zm8 0zm-52 1zm1 0zm23 0zm3 0zm4 1zm6 1zm-24 1zm32 0zm-17 1zm-3 1zm23 2zm-36 1zm21 0zm9 0zm-4 1zm-14 1zm13 2zm-21 5zm17 3zm31 2zm-14 1z"/><path stroke-width=".27" d="M56 2zM41 6zm-3 1zm18 1zm24 0zm-6 1zm19 5zm-49 5zm1 0zm1 0zm-21 6zm55 6zm0 1zm1 4zm0 3zm-48 3zm65 1zm-57 7zm5 1zm14 3zm-22 1zm-21 6zm63 0zm2 0zm-31 4zM5 66zm21 0zm47 0zm2 1zm-61 1zm11 0zm1 0zm3 0zm1 0zm30 0zM4 69zm26 0zm1 0zm7 0zm14 0zm3 0zm-28 1zm10 0zm9 0zm-3 1zm11 0zm9 0zm-6 2zm-14 2zm13 2zm7 1zm-52 7zm17 3zm11 2zm6 1z"/><path stroke-width=".21" d="M57 2zM40 7zm36 2zM30 21zm65 6zm-69 4zm7 7zm0 2zm65 4zm0 6zm-44 3zm1 0zm2 0zm1 0zm-21 2zm21 3zm2 0zm0 1zm4 0zm1 0zm-47 3zm65 0zm9 0zm-6 1zM7 64zm22 1zm17 2zm29 2zm-35 1zm3 0zm53 0zm-51 1zm1 0zm5 0zm37 0zm8 0zm-69 1zm1 0zm1 0zm7 0zm16 0zm8 0zm36 0zm-62 1zm8 0zm1 0zm1 0zm1 0zm51 0zm-51 1zm1 0zm1 0zm49 0zm-45 1zm1 0zm1 0zm2 0zm1 0zm1 0zm1 0zm7 0zm13 0zm18 0zm-76 1zm15 0zm21 0zm2 0zm4 0zm1 0zm33 0zm-29 1zm1 0zm28 0zm0 1zm0 1zm-75 8z"/><path stroke-width=".15" d="M58 2zM44 7zm11 0zm19 1zm6 1zm11 3zm1 1zm5 23zM36 47zm62 0zm-61 1zm61 0zm-19 6zm-3 1zm22 3zm-35 6zm0 4zm16 1zm-3 3zm-13 1zm17 2zm-47 1zm10 5zm-29 5zm17 3zm17 3zm18 3zm4 0z"/><path stroke-width=".09" d="M59 2zM28 6zm39 2zm2 0zm1 0zM25 27zm2 11zm70 1zM65 62zm-3 2zm28 0zm-64 1zm4 1zm3 0zm1 0zm28 0zm-7 1zm23 1zm-3 3zm-1 1zm5 3zm-38 3zm-6 1zm2 1zM3 83zm13 5zm14 2zm17 3zm6 1z"/><path stroke-width=".03" d="M60 2zm35 22zM61 63zm1 0zm1 0zM4 65zm52 0zm-5 1zm1 1zm0 1zm20 2zm4 1zm2 0zm-6 2zm1 0zm20 12zm-72 4zm59 3z"/><path stroke-width=".41" d="M33 3zm-1 2zm6 0zm1 0zm10 1zm1 0zm6 0zm2 0zm1 0zM32 7zm37 0zm6 0zm1 0zm1 0zm1 0zm1 0zm16 0zM51 8zm35 0zm-47 2zm54 0zm-33 1zm11 2zm-41 2zm-2 1zm21 0zm-19 1zm13 0zm2 0zm1 0zm1 0zm30 0zm-19 2zm-15 1zm1 0zm1 0zm1 0zm1 0zm2 0zm23 0zm-41 1zm63 0zm-65 1zm11 0zm39 0zm-48 1zm9 0zm2 0zm2 0zm2 0zm3 0zm-4 1zm6 0zm2 0zm7 0zm-14 1zm2 0zm2 0zm2 0zm2 0zm2 0zm-14 1zm4 0zm1 0zm2 0zm2 0zm2 0zm20 0zm-32 1zm2 0zm2 0zm3 0zm4 0zm2 0zm4 0zm-14 1zm2 0zm5 0zm2 0zm2 0zm-12 1zm2 0zm2 0zm3 0zm2 0zm2 0zm2 0zm2 0zm2 0zm1 0zm34 0zm-53 1zm2 0zm2 0zm2 0zm4 0zm1 0zm2 0zm2 0zm2 0zm-16 1zm4 0zm2 0zm2 0zm3 0zm2 0zm2 0zm-25 1zm11 0zm2 0zm2 0zm4 0zm7 0zm2 0zm13 0zm-31 1zm10 0zm3 0zm2 0zm3 0zm36 0zm-64 1zm8 0zm1 0zm2 0zm2 0zm2 0zm2 0zm2 0zm2 0zm4 0zm1 0zm-16 1zm2 0zm2 0zm2 0zm2 0zm2 0zm2 0zm2 0zm3 0zm-18 1zm2 0zm2 0zm2 0zm2 0zm2 0zm2 0zm2 0zm24 0zm-38 1zm9 0zm2 0zm4 0zm2 0zm3 0zm34 0zm-52 1zm2 0zm1 0zm1 0zm1 0zm3 0zm2 0zm2 0zm4 1zm15 0zm7 1zm-47 3zm48 4zm-53 2zm13 1zm2 0zm1 0zm53 0zm-62 1zm15 0zm1 0zm24 0zm-40 1zm24 0zm1 0zm-28 1zm10 0zm26 0zm7 0zm-27 1zm1 0zm1 0zm1 0zm7 1zm9 1zm1 0zm1 0zm-11 1zm1 0zm1 0zm4 1zm2 0zm-6 3zm11 0zM25 73zm-9 1zm12 0zm5 1zm5 0zm5 1zm-28 1zm8 2zm24 0zm20 0zm-39 1zm38 0zm-36 1zm3 0zm1 0zm33 0zm-31 1zm1 0zm1 0zm2 0zm1 0zM6 83zm39 0zm21 0zm-56 1zm2 0zm54 0zm-51 1zm2 0zm4 1zm5 1zm3 0zm37 0zm-34 1zm2 0zm4 1zm5 1zm1 0zm2 0zm20 0zm1 0zm-16 1zm15 0zm-11 1zm11 0zm1 0zm-7 1zm2 0zm1 0zm3 0zm7 1z"/><path stroke-width=".34" d="M74 3zM35 7zm28 0zm19 1zm-52 2zm2 0zm1 0zm5 1zm1 0zm1 0zm13 0zm1 0zm5 1zm1 0zm1 0zm-33 3zm14 3zm13 0zm-13 1zm14 1zm22 2zm-46 8zm9 5zm40 0zm-40 2zm3 2zm-10 2zm48 0zm15 3zm-49 7zm8 1zm-7 1zm8 1zm16 0zm-32 1zm2 0zm1 0zm4 0zm1 0zm17 0zm-15 1zm4 1zm17 0zm9 3zm-66 2zm61 0zm-64 1zm57 0zm12 0zm1 0zm7 0zM9 64zm54 1zm13 0zm1 0zm-56 1zm47 0zm4 0zm6 0zm-46 1zm2 1zm11 0zm1 0zm1 0zm25 0zm1 0zm-31 1zm3 0zM6 70zm43 0zm-37 1zm45 0zm1 0zm-38 1zm2 0zm23 0zm-29 1zm11 0zm26 0zm-20 1zm7 1zm-23 2zm30 0zm30 0zm-18 1zm-4 2zm-19 1zm19 0zm0 1zm-4 1zM7 84zm46 0zm-29 3zm17 3zm17 3z"/><path stroke-width=".28" d="M75 3zM42 6zm-5 1zm24 0zm-6 1zm31 1zm-58 1zm21 7zm-4 1zm2 0zm5 0zm-23 2zm50 6zm17 0zm-65 5zm1 0zm48 2zm-46 9zm48 0zm0 4zm-53 1zm53 0zm0 2zm-39 3zm11 0zm49 0zm-41 1zm8 1zm-31 1zm29 0zm1 0zm-13 2zm11 2zm-3 1zm-48 1zm57 1zm15 0zm3 0zm-20 1zm3 0zm-50 1zm42 0zm1 0zm2 0zm12 0zm-2 1zm-12 1zM8 67zm11 0zm1 0zm1 0zm1 0zm1 0zm1 0zm10 0zm42 0zm-53 1zm1 0zm7 0zm-11 1zm1 0zm8 0zm10 0zm33 0zM9 70zm19 0zm7 0zm1 0zm27 0zm5 0zm-52 1zm19 0zm7 0zm24 0zm-24 1zm7 0zm14 0zm-43 1zm9 0zm20 0zm27 0zm-40 1zm20 0zm8 0zm-14 2zm-4 1zm4 2zm-1 1zm1 0zm0 1zm45 1zM62 94z"/><path stroke-width=".22" d="M76 3zM58 7zm19 1zm-54 4zm6 3zm14 3zm52 1zm-65 5zm1 6zm1 5zm-4 7zm16 9zm7 1zm-16 2zm38 3zm-11 5zm-42 1zm2 2zM7 69zm1 0zm7 1zm26 0zm1 0zm-21 1zm1 0zm30 0zm-22 1zm1 0zm1 0zm1 0zm1 0zm1 0zm2 0zm1 0zm-6 1zm1 0zm4 0zm2 0zm1 0zm1 0zm18 0zm-20 1zm13 0zm-23 1zm16 0zm16 1zm3 0zm-5 1zM38 90zm17 3z"/><path stroke-width=".17" d="M77 3zM33 6zm1 0zm2 0zm6 1zm1 0zm17 1zm18 1zm22 4zm1 6zm-76 7zm2 11zm7 7zm64 1zm6 1zm-6 3zm-57 2zm41 0zm-1 1zm-3 4zm-50 1zm48 0zm-2 1zm23 0zm-59 8zm1 0zm7 0zm38 0zm-46 1zm1 0zm1 0zm1 0zm1 0zm1 0zm8 0zm14 0zm17 0zm-24 1zm34 0zm-29 1zm27 0zm-35 3zm1 0zm22 0zm-54 2zm44 0zm6 0zm8 0zm-54 1zm16 2zm29 0zm3 0zm-48 2zm6 1zm8 1zM9 85zm11 2zm17 3zm17 3zm21 1zm-8 1z"/><path stroke-width=".06" d="M79 3zm5 6zm4 2zm3 52zm-34 1zm36 0zm-18 1zm0 1zm-17 1zm2 0zm-6 1zm23 0zm-4 2zm5 0zm-5 1zm1 0zm-49 4zm4 1zm6 1zm1 0zm-10 1zm1 0zm5 1zm7 1zm1 0zm-30 6zm1 0zm80 0zm-76 1zm1 0zm5 1zm1 0zm5 1zm5 1zm1 0zm5 1zm1 0zm5 1zm6 1zm5 1zm1 0zm5 1zm7 1zm1 0z"/><path stroke-width=".33" d="M31 4zm13 2zM29 7zm43 2zm-41 1zm10 1zm1 0zm1 0zm1 0zm5 0zm1 0zm2 0zm-23 1zm33 0zm1 0zm1 0zm1 0zm5 0zm-19 6zm28 10zm-48 4zm66 2zm-16 7zm-46 4zm-1 1zm30 7zm-19 2zm1 0zm1 0zm7 1zm9 2zm10 1zm21 2zm-77 1zm72 0zm-14 1zm1 0zM8 64zm2 0zm69 0zM7 65zm8 0zm1 0zm3 0zm2 0zm46 0zM8 66zm1 0zm17 1zm23 0zm19 0zm5 0zm-27 2zm5 0zm6 0zm16 0zm-41 1zm24 0zm4 0zm-22 1zm1 0zm17 0zm-10 1zm1 0zm18 0zm-48 1zm34 0zm3 0zm9 1zm-32 1zm16 1zm3 1zm3 0zm7 1zm-9 1zm-21 1zm16 0zm5 1zm-5 1zm3 1zm-31 3zm17 3zm17 3z"/><path stroke-width=".25" d="M90 4zM75 9zm-47 4zm2 12zm3 12zm12 14zm-1 1zm8 1zm9 1zm10 4zm-31 2zm-27 2zm75 4zm3 0zM4 67zm2 1zm22 0zm66 0zm2 0zM5 69zm13 0zm-7 1zm15 0zm19 0zm35 0zm-27 1zm9 0zm18 0zm-19 1zm-31 1zm39 0zm-49 1zm6 5zm6 1zm7 1zM5 84z"/><path stroke-width=".42" d="M30 5zm3 0zm1 0zm1 0zm1 0zm1 0zm14 1zm2 0zm1 0zm1 0zm2 0zm13 1zm2 0zm1 0zm1 0zm10 1zm1 0zM69 9zm-29 1zm21 1zm1 0zm30 0zm1 0zm-49 6zm7 0zm21 2zm-29 4zm2 0zm2 0zm-7 1zm1 0zm1 0zm1 0zm1 0zm3 0zm2 0zm6 0zm2 0zm1 0zm1 0zm-17 1zm1 0zm1 0zm1 0zm2 0zm4 0zm2 0zm2 0zm3 0zm15 0zm-30 1zm1 0zm1 0zm3 0zm6 0zm2 0zm3 0zm-27 1zm10 0zm2 0zm2 0zm1 0zm2 0zm1 0zm5 0zm-23 1zm11 0zm2 0zm2 0zm1 0zm1 0zm1 0zm8 0zm-32 1zm18 0zm2 0zm3 0zm2 0zm8 0zm-14 1zm2 0zm2 0zm1 0zm1 0zm28 0zm-35 1zm2 0zm6 0zm1 0zm2 0zm5 0zm-19 1zm1 0zm5 0zm4 0zm2 0zm1 0zm1 0zm1 0zm1 0zm-12 1zm5 0zm2 0zm2 0zm1 0zm2 0zm3 0zm-17 1zm8 0zm4 0zm1 0zm1 0zm3 0zm1 0zm-17 1zm8 0zm4 0zm2 0zm1 0zm2 0zm-18 1zm2 0zm2 0zm6 0zm2 0zm3 0zm1 0zm1 0zm-13 1zm2 0zm5 0zm2 0zm2 0zm2 0zm1 0zm-27 1zm8 0zm8 0zm1 0zm7 0zm2 0zm15 0zm-41 1zm42 5zm21 1zm-58 3zm2 1zm3 1zm33 0zm-39 1zm13 0zm-11 1zm1 0zm18 0zm1 0zm-15 1zm1 0zm22 0zm1 0zm-15 1zm7 1zm1 0zm21 0zm-43 1zm33 0zm-19 1zm5 0zm12 0zm-4 1zm16 1zm-6 1zm3 0zM30 74zm53 0zm-46 1zm-23 2zm7 2zm31 0zm-27 1zm1 0zm1 0zM3 81zm28 0zm1 0zm7 1zm13 0zm15 0zm0 1zm-56 1zm56 0zm-51 1zm51 0zm23 0zm-68 1zm1 0zm44 0zm-40 1zm1 0zm39 0zm-34 1zm34 0zm-28 1zm1 0zm27 0zm-22 1zm4 1zm1 0zm17 0zm-11 1zm1 0zm4 1zm6 0z"/><path stroke-width=".43" d="M31 5zm21 1zm19 1zm17 2zm7 0zm-54 1zm49 0zm4 0zm-31 1zm-33 5zm42 2zm23 0zm-64 4zm10 1zm5 1zm6 0zm4 0zm17 0zm5 0zm-37 1zm8 0zm8 0zm-16 1zm9 0zm2 0zm6 0zm2 0zm-9 1zm2 0zm4 0zm2 0zm-29 1zm11 0zm11 0zm2 0zm2 0zm-14 1zm11 0zm2 0zm2 0zm-16 1zm2 0zm13 0zm2 0zm2 0zm-12 1zm9 0zm2 0zm15 0zm-25 1zm9 0zm-25 1zm15 0zm11 0zm-14 1zm2 0zm2 0zm4 0zm-7 1zm2 0zm2 0zm4 0zm-5 1zm2 0zm6 0zm4 0zm-16 1zm1 0zm2 0zm2 0zm2 0zm23 0zm-20 1zm-23 1zm30 0zm-34 1zm70 1zm-22 2zm-36 6zm37 0zm6 4zm-45 1zm44 0zm-34 2zm24 0zm7 0zm18 1zm-28 1zm-10 1zm25 0zm-65 1zm20 0zm-21 1zm52 1zm-2 1zm10 4zm-4 1zm-59 4zm0 1zm70 0zm-33 5zm-30 1zm46 0zm-16 1zm15 0zm-15 1zm2 0zm0 1z"/><path stroke-width=".13" d="M93 5zM45 7zm40 2zm10 17zm1 2zm-70 4zm2 11zm70 14zm-26 2zm-2 1zm-50 4zm3 1zm68 0zm-55 1zm27 0zm1 1zm-7 1zm14 3zm1 3zm-50 1zm0 1zm1 0zm1 0zm1 0zm1 0zm6 0zm-7 1zm1 0zm1 0zm1 0zm1 0zm1 0zm1 0zm9 0zm34 0zm-43 1zm1 0zm1 0zm1 0zm1 0zm1 0zm1 0zm1 0zm-1 1zm1 0zm1 0zm1 0zm1 0zm1 0zm1 0zm1 0zm0 2zM6 86zm11 2zm69 0zm-64 1zm6 1zm5 1zm1 0zm4 1zm1 0zm5 1zm1 0zm4 1zm1 0zm4 1zm1 0zm9 0zm7 0zm-11 1zm1 0zm1 0z"/><path stroke-width=".29" d="M29 6zm44 3zm-44 4zm-1 1zm18 4zm-22 1zm19 0zm5 0zm31 6zm-49 1zm50 4zm-48 7zm49 3zM59 54zm12 0zm-14 3zm-33 1zm37 0zm-40 1zm48 0zm-7 1zm7 1zm8 2zm5 1zm-14 1zM9 67zm9 0zm30 0zm26 0zm-59 1zm7 1zm48 0zM8 70zm39 0zm8 1zm-32 1zm33 1zm-21 1zm7 1zm-5 1zm18 1zm-4 1zm11 0zm-13 1zm-18 1zm17 0zm-10 1zm11 0zm2 1zM6 84zm11 2zm17 3zm17 3z"/><path stroke-width=".19" d="M31 6zm46 3zM30 22zm0 1zm2 11zm43 27zm6 0zm-15 2zm9 1zm-35 2zm19 2zm-6 1zm-6 2zm2 0zm1 0zm34 1zm-43 2zm1 0zm6 1zm1 0zm-29 2zm69 9z"/><path stroke-width=".2" d="M38 6zm3 1zm16 0zm1 1zm18 0zm-47 2zm-6 4zm71 2zm-65 2zm21 0zm2 1zm2 0zm2 0zm-32 1zm7 7zm65 0zm-65 2zm1 4zm1 6zm64 3zm-54 9zm3 1zm1 0zm1 0zm1 0zm1 0zm6 1zm24 0zm18 1zm-23 1zm-13 4zm1 0zm21 3zm2 2zm0 1zm-59 1zm14 0zm1 0zm1 0zm1 0zm41 0zm-48 1zm8 0zm38 0zm-32 1zm29 0zm1 0zm-62 3zm29 0zm11 1zm27 0zm-51 1zm1 0zm24 0zm4 0zm6 0zm12 0zm-42 1zm3 0zm1 0zm4 0zm1 0zm1 0zm1 0zm18 0zm11 0zm-34 1zm1 0zm3 0zm17 0zm-15 1zm1 0zm1 0zm1 0zm2 0zm19 0zm-16 1zm1 0zm1 0zm1 0zm1 0zm1 0zm1 0zm3 0zm1 0zm1 0zm-44 2zm6 1zm8 1zm-26 5zm17 3zm17 3z"/><path stroke-width=".24" d="M40 6zM27 7zm12 0zm20 0zm19 1zm-55 5zm32 6zm-24 7zm66 9zm-64 6zm64 2zm-15 1zm-22 9zm11 2zm1 0zm4 5zm-58 3zm42 0zm19 0zm-6 1zm0 1zm21 0zM3 66zm80 0zm6 0zm1 0zm3 0zM6 67zm75 0zM5 68zm2 0zm3 0zm1 0zm80 0zm-79 1zm2 0zm1 0zm1 0zm1 0zm16 0zm1 0zm2 0zm53 0zm7 0zm-84 1zm13 0zm13 0zm24 0zm25 0zm-55 1zm1 0zm52 0zm-46 1zm1 0zm43 0zm-2 1zm-56 1zm12 0zm17 0zm16 0zm9 0zm-18 1zm10 0zm3 0zm3 0zm-26 1zm6 1zm-9 1zm17 0zm6 0zm-22 4zm-33 4zm17 3zm17 3z"/><path stroke-width=".3" d="M43 6zm19 1zm19 1zM53 18zm25 1zm0 1zm23 0zm-70 5zm48 2zm16 1zM33 43zm49 5zm-32 5zm13 0zm-26 3zm28 4zm1 0zm6 2zm8 0zm-10 1zm2 0zm1 0zm-56 1zm2 0zm46 0zm15 0zM5 65zm3 0zm70 0zm2 0zM6 66zm6 0zm1 0zm1 0zm1 0zm1 0zm1 0zm1 0zm-8 1zm5 0zm1 0zm1 0zm8 0zm8 0zm-17 1zm1 0zm3 0zm1 0zm1 0zm10 0zM3 69zm24 0zm1 0zm12 0zm16 0zm8 0zm5 0zm-40 1zm5 0zm30 0zm3 0zm2 0zm-54 1zm21 0zm5 0zm20 0zm6 0zm-24 1zm5 0zm16 0zm-36 1zm29 1zm-8 2zm-1 1zm1 0zm5 0zm-33 1zm52 0zm-25 3zM3 82zm20 5zm61 2zm-44 1zm17 3zm17 1z"/><path stroke-width=".36" d="M46 6zM34 7zm31 0zm23 1zm2 1zm-55 1zm-5 1zm1 0zm1 0zm3 0zm17 1zm1 0zm1 0zm2 0zm14 1zm0 1zm0 1zm-19 1zm19 0zm-29 1zm9 0zm20 0zm8 0zm-8 1zm0 1zm-29 1zm14 0zm16 0zm-32 1zm3 0zm29 0zm-33 1zm5 0zm2 0zm1 0zm1 0zm8 0zm1 0zm15 0zm-33 1zm21 0zm12 0zm8 0zm-48 1zm40 0zm-10 1zm10 0zm1 1zm-42 1zm42 0zm-33 1zm22 0zm11 0zm-33 1zm33 0zm-32 1zm22 0zm10 0zm0 1zm-32 1zm33 0zm-33 1zm33 0zm-33 1zm22 0zm11 0zm0 1zm7 0zm-40 1zm23 0zm10 0zm1 0zm-1 1zm-10 1zm11 0zm-31 1zm3 0zm1 0zm3 0zm24 0zm-21 1zm1 0zm1 0zm2 0zm1 0zm2 0zm1 0zm1 0zm12 0zm0 1zm0 1zm24 0zm-24 1zm-38 1zm38 0zm1 1zm0 1zm-36 1zm36 0zm-35 1zm35 0zm0 1zm0 1zm1 1zm0 1zm23 0zm-60 1zm9 0zm17 0zm10 1zm1 0zm1 0zm1 0zm-28 1zm1 0zm14 0zm-10 1zm14 1zm2 5zm6 0zm-18 1zm-5 1zm-34 1zm2 1zm2 0zm52 0zm-49 1zm8 1zm3 0zm1 0zM5 70zm6 1zm49 0zm-47 2zm10 0zm45 0zm-55 1zm4 0zm1 0zm9 0zm-14 1zm0 1zm0 1zm3 0zm-1 1zm2 0zm1 0zm2 0zm54 0zm-55 1zm5 0zm-2 1zM5 82zm39 0zm21 1zm-11 1zm33 3z"/><path stroke-width=".31" d="M36 7zm18 1zm15 4zm-21 6zm9 1zm37 1zm-15 4zM33 36zm6 13zm8 2zm8 1zm3 2zm14 0zm-32 1zm27 0zm-31 1zm17 0zm21 0zm-3 4zm12 1zm-69 1zm0 1zm1 0zm1 0zm64 0zm-69 1zm1 0zm1 0zm1 0zm1 0zm1 0zm52 0zm2 0zm1 0zm5 0zM9 65zm1 0zm1 0zm1 0zm1 0zm4 0zm1 0zm51 0zm1 0zm1 0zm-61 1zm1 0zm8 0zm50 0zm1 0zm1 0zm-60 1zm1 0zm2 0zm53 0zm2 0zm1 0zm1 0zm1 0zm5 0zm-59 1zm1 0zm14 0zm16 0zm18 0zm1 0zm1 0zm1 0zm-47 1zm1 0zm1 0zm1 0zm22 0zm1 0zm1 0zm16 0zm1 0zm1 0zm-38 1zm3 0zm15 0zm10 0zm1 0zm7 0zm-2 1zm1 0zm-43 2zm33 0zm-21 1zm14 2zm0 3zm48 1zm-50 1zm1 1zm-35 3z"/><path stroke-width=".11" d="M46 7zm1 0zm5 0zm20 1zm32 39zm-75 1zm32 11zm-32 7zm19 0zm5 1zm9 0zm33 0zm-39 1zM30 78zm9 0zm-3 1zm-24 8zm6 1zm6 0zm-1 1zm6 1zm6 1zm6 0zm-1 1zm6 1zm30 2zm-13 1zm9 0z"/><path stroke-width=".12" d="M53 7zm10 1zm10 0zm21 11zm-70 2zm73 16zM38 49zm1 1zm31 9zm-2 2zm-46 3zm5 1zm62 0zM27 75zm48 2zm-51 1zm5 1zm-16 7zm-2 1zm19 2zm-3 1zm20 2zm4 2zm7 0zm-2 1zm1 0z"/><path stroke-width=".14" d="M54 7zm42 0zM61 8zm1 0zm19 1zm-58 6zm28 4zm45 15zm1 7zm-63 4zm64 1zm-62 2zm62 7zm-32 7zm-10 2zm31 1zm1 0zm4 0zm-55 1zm10 0zm17 0zm10 4zm3 2zm-4 2zm5 2zm-37 1zm1 0zm-7 3zM8 85zm11 2zm6 1zm11 2zm6 1zm11 2zm6 1zm6 1z"/><path stroke-width=".26" d="M60 7zm19 1zm-51 3zm62 0zm-62 1zm1 2zm18 5zm2 0zm-19 1zm-3 16zm5 0zm49 1zm0 1zm1 5zm0 2zm-44 5zm2 1zm13 1zm45 0zm-47 1zm10 0zm8 1zm1 1zm4 0zm26 1zm-13 6zm-23 2zm-34 1zm55 0zM4 66zm83 0zm5 0zM3 67zm4 0zm28 0zm12 0zm-35 1zm1 0zm14 0zm48 0zm-56 1zm13 0zm5 0zm24 0zm19 0zm-70 1zm7 1zm17 0zm-10 1zm17 0zm9 0zm12 0zm-14 1zm29 0zm1 0zm-23 1zm12 0zm-47 1zm10 0zm32 0zm1 0zm1 0zm8 0zm1 0zm-37 1zm10 2zm18 0zm8 0zm-24 4zm2 0zm-28 5zm34 6z"/><path stroke-width=".59" d="M27 8zm1 1zm2 0zm23 1zm43 4zm-8 4zm0 2zm0 3zm-59 1zm46 1zm13 1zm1 2zm0 2zm0 1zm-62 2zm63 0zm0 6zm6 0zm-6 1zm1 1zm-62 3zm49 0zm13 0zm0 2zm0 1zm-58 1zm59 4zm0 1zm0 2zm1 3zm-49 1zm49 0zm-51 1zm1 0zm-1 1zm-2 2zm-2 1zm1 0zm14 18zm20 0zm0 5zm0 3zm0 2z"/><path stroke-width=".76" d="M28 8zm14 1zm20 1zm15 0zm11 3zm-61 4zm73 0zm-7 2zm-68 1zm1 1zm2 0zm48 0zm-48 1zm65 0zm4 0zm4 3zm-24 2zm17 3zm4 7zm4 0zm-7 1zm-16 1zm17 6zm7 4zm-6 1zm0 3zm0 1zm-3 6zm-8 14zm-2 1zm2 11z"/><path stroke-width=".84" d="M29 8zm7 0zm12 1zm7 0zm12 1zm17 1zM31 49zm53 39z"/><path stroke-width=".85" d="M30 8zm5 0zm-9 1zm46 1zm15 2zm6 70zm-6 4zm-5 3zm-3 2z"/><path stroke-width=".88" d="M31 8zm20 1zm1 0zm18 1z"/><path stroke-width=".87" d="M32 8zm1 0zm38 2z"/><path stroke-width=".86" d="M34 8zm15 1zm1 0zm3 0zm1 0zm14 1zm1 0zm20 3zm1 1zm0 70z"/><path stroke-width=".83" d="M37 8zm10 1zm9 0zm10 1zm7 0zm-48 8zm1 5zm71 2zm0 1zm-70 3zm1 5zm70 0zm1 8zm-19 1zm19 0zm-8 28zm-2 1zm-4 15z"/><path stroke-width=".81" d="M38 8zm19 1zm1 0zm6 1zm21 1zm11 7zm-71 1zm72 5zm-70 4zm51 2zM29 41zm70 0zm-19 1zm0 2zm19 0zm1 6zm0 3zm-19 3zm-20 5zm17 0zm17 8zm0 12zm-15 9zm1 0z"/><path stroke-width=".8" d="M39 8zm35 2zm9 1zm9 6zm-16 1zm0 1zm20 0zm-3 1zm4 3zm-20 1zm-51 1zm71 2zm1 5zm-70 4zm70 0zm-69 3zm70 1zm-3 4zm-66 3zm70 2zm2 4zM77 78zm14 5z"/><path stroke-width=".78" d="M40 8zm19 1zm16 1zm-51 3zm3 2zm0 1zm49 4zm17 1zm1 6zm3 1zm-19 1zm16 0zm-67 2zm71 0zm-2 11zm-66 2zm50 1zm19 0zm1 3zm-68 2zm65 1zm0 1zm5 0zm-1 2zm-22 3zm2 1zm15 0zm-37 4zm1 0zm-10 2zm33 24zm-7 4z"/><path stroke-width=".74" d="M41 8zm20 2zm17 0zm2 1zm1 0zm7 1zm-64 2zm3 0zm73 5zm0 1zm-3 1zm-3 5zm7 0zm-72 2zm72 0zm0 1zm-3 1zm-20 3zm24 5zm1 5zm0 1zm-7 2zm4 1zm3 1zm-6 1zM56 59zm38 10zm-2 1zm0 1zm-2 1zm-2 1zm-13 6z"/><path stroke-width=".71" d="M42 8zm19 1zm-34 1zm48 1zm1 0zm-50 1zm49 0zm-50 1zm50 0zm2 0zm1 0zm21 0zm-24 1zm2 0zm2 0zm1 0zm1 0zm1 0zm1 0zm1 0zm1 0zm1 0zm1 0zm-12 2zm1 0zm19 0zm1 1zm-69 2zm1 5zm65 0zm7 0zm-6 1zm-16 3zm20 0zm-70 3zm71 5zm-68 2zm49 2zm22 2zm-2 3zm-19 2zm-51 1zm50 0zm1 1zm21 1zm-69 1zm47 5zm1 1zm-29 1zm8 3zm-12 3zm-6 1zm1 0zm1 0z"/><path stroke-width=".69" d="M43 8zm-5 1zm-14 2zm3 2zm60 0zm-61 1zm73 0zm-75 1zm52 0zm8 0zm1 0zm1 0zm2 0zm2 0zm8 1zm-23 1zm-48 3zm0 3zm0 1zm49 0zm-48 1zm70 0zm-70 1zm70 0zm-70 1zm0 1zm0 1zm49 1zm-47 1zm47 0zm-50 1zm72 2zm-70 1zm0 1zm49 0zm-47 1zm64 3zm1 0zm-17 1zm24 0zm-24 1zm21 0zm-71 1zm50 0zm21 0zm-68 1zm64 4zm1 0zm6 3zm-69 1zm67 0zm-5 4zm-45 2zm3 0zm1 1zm21 0zm-20 3zm-10 2zm1 0zm-7 1zm1 0zm4 0zm50 5zm-2 1zm-2 1zm-2 1zm-5 1zm3 0zm-2 1zm-2 1zm-1 1zm-3 1zm1 0zm-6 1zm3 0zm14 3zm-14 1zm13 0zm-13 1zm11 0zm-2 1zm-9 1zm8 0zm-8 1zm0 1zm5 0zm-5 1zm3 0zm-2 1zm1 0zm-6 3zm2 0z"/><path stroke-width=".65" d="M44 8zm-9 1zm28 0zm-7 1zm18 5zm5 0zm1 0zm7 1zm4 1zm0 2zm1 3zm0 1zm2 1zm-18 4zm17 0zm0 1zm0 1zm0 1zm0 1zm0 2zm0 1zm1 1zm-64 1zm64 0zm-66 1zm66 0zm-16 2zm25 0zm-72 2zm1 0zm62 1zm-63 1zm64 0zm-1 1zm1 0zm0 1zm-16 1zm16 0zm0 3zm-63 1zm63 0zm0 1zm-47 5zm5 2zm-4 1zm7 0zm37 0zm-35 1zm-4 1zm-10 1zm3 0zm28 17zm0 1zm0 1zm0 1zm0 2zm0 1zm0 1zm0 1zm0 1zm0 2z"/><path stroke-width=".62" d="M45 8zm53 2zm-13 6zm5 5zm0 1zm0 1zm0 1zm0 1zm1 3zm0 1zm0 1zm0 1zm0 1zm-14 4zm15 1zm0 1zm0 1zm6 0zm-6 1zm1 6zm0 1zm0 1zm-61 1zm47 0zm14 0zm-14 4zm15 0zm0 1zm0 1zm0 1zm-46 2zm-1 1zm31 0zm-32 1zm-6 2zm4 0zm-1 1zm-1 1zm-5 1zm39 13zm-2 2zm0 1zm0 1zm0 1zm0 1zm0 1zm0 1zm0 1zm0 1zm0 1zm0 1zm0 1z"/><path stroke-width=".58" d="M46 8zM31 9zm21 1zm19 1zm27 1zm-25 1zm24 0zm-24 1zm9 2zm5 1zm-13 3zm13 0zm1 1zm-63 1zm63 0zm6 1zm-6 1zm0 1zm-13 1zm13 1zm0 1zm1 1zm6 2zm-19 1zm13 0zm0 1zm0 1zm0 3zm1 0zm0 1zm-13 1zm-45 2zm58 0zm0 1zm0 1zm-12 2zm13 0zm-58 2zm58 1zm-58 1zm58 0zm0 1zm0 1zm0 1zm0 1zm1 1zm0 2zm-49 1zm8 0zm41 0zm-47 1zm47 0zm0 1zm-54 1zm54 0zm-51 1zm0 1zm-2 1zm-9 1zm1 0zm1 0zm2 0zm14 1zm5 14zm18 14z"/><path stroke-width=".56" d="M47 8zm3 2zm1 0zm46 2zm-4 1zm3 0zm-1 1zm-22 1zm8 1zm4 1zm1 0zm0 1zm0 1zm0 2zm0 1zm1 1zm0 3zm-12 1zm12 0zm-12 1zm12 0zm0 1zm0 1zm1 1zm-9 1zm-3 2zm12 0zm0 1zm0 1zm0 1zm-8 1zm8 0zm0 1zm1 0zm-12 2zm12 1zm0 1zm0 1zm-56 1zm56 0zm0 1zm-11 1zm12 0zm-56 1zm56 2zm0 1zm0 1zm0 1zm0 1zm0 1zm-51 2zm2 0zm1 0zm57 0zm-59 1zm1 1zm50 0zm-17 1zm17 0zm-20 1zm17 0zm5 0zm-69 2zm14 0zm15 15zm19 3zm0 1zm0 1zm0 1zm0 1zm0 1zm0 1zm0 1zm0 1zm0 1zm0 1zm0 1z"/><path stroke-width=".52" d="M48 8zm-1 2zm21 1zm1 0zm25 4zm-21 3zm11 0zm0 2zm0 1zm0 2zm0 1zm0 1zm1 3zm-55 1zm55 0zm0 1zm-10 1zm10 1zm12 0zm-12 1zm1 3zm0 1zm0 1zm17 1zm-17 1zm0 1zm-9 2zm10 2zm0 1zm0 2zm0 1zm-9 1zm5 1zm5 1zm-52 1zm52 0zm0 1zm0 1zm0 1zm0 1zm-50 2zm2 0zm41 0zm-12 3zm-35 1zm51 1zM19 76zm51 4zm0 13z"/><path stroke-width=".48" d="M49 8zm-4 2zm48 2zm-21 2zm9 3zm1 2zm-9 1zm6 0zm3 2zm0 1zm0 1zm14 0zm-18 1zm2 0zm2 0zm-8 1zm6 0zm-6 1zm7 3zm2 1zm0 1zm-8 1zm8 0zm-7 6zm8 0zm0 1zm0 1zm1 3zm-8 2zm8 0zm0 1zm0 1zm0 1zm-50 1zm46 1zm1 4zm4 0zm-44 1zm1 0zm1 0zm42 0zm-54 1zm1 0zm1 0zm19 0zm33 0zm-59 1zm8 0zm-13 1zm1 0zm1 0zm10 0zm-1 1zm1 0zm50 0zm-52 1zm8 0zm-9 1zm1 0zm-1 1zm22 1zm28 2zm10 4zm-76 4zm55 5zm23 4zm-24 4zm13 3zm-13 2zm0 1z"/><path stroke-width=".45" d="M50 8zm-8 2zm30 7zm7 0zm-2 1zm-29 6zm2 0zm4 0zm6 4zm14 2zm-32 1zm1 1zm2 0zm15 0zm-14 1zm-4 2zm33 1zm-22 2zm6 0zm17 4zm5 1zm-46 1zm2 3zm-1 5zm47 2zm1 4zm-23 2zm25 1zm-60 3zm9 11zm19 5zm14 1zM4 82zm64 0zM5 83zm63 0zm0 2zm0 1zm0 1zm0 1zm0 1zm0 2zm0 1z"/><path stroke-width=".08" d="M68 8zM49 18zm49 38zm-74 9zm1 0zm31 2zm5 0zm-6 1zm38 0zm-2 1zm-2 1zm-2 1zm-2 1zm-2 1zm-2 1zm-53 2zm3 0zm2 1zm5 0zm4 1zm1 0zm0 2zm1 0zM8 86zm4 0zm7 2zm69 0zm-63 1zm4 0zm7 2zm6 1zm40 0zm-2 1zm-21 2zm4 0zm2 1zm6 0zm2 0z"/><path stroke-width=".47" d="M96 8zM68 9zm-25 1zm1 0zm52 0zm-32 1zm1 0zm30 0zm-1 1zm-22 3zm8 2zm1 1zm-2 1zm1 0zm1 0zm0 1zm-8 1zm8 0zm20 0zm-20 1zm-56 1zm55 1zm1 0zm1 2zm-2 1zm1 0zm1 0zm-8 1zm7 0zm1 0zm0 1zm-7 5zm8 0zm-8 1zm7 0zm1 0zm0 1zm-3 1zm3 0zm0 1zm-1 1zm1 0zm-7 1zm7 0zm-7 1zm7 0zm1 1zm0 1zm0 1zm-55 1zm55 0zm0 1zm-7 1zm7 0zm0 1zm0 1zm15 0zm-63 1zm1 0zm48 0zm0 1zm-7 1zm5 0zm1 0zm1 0zm0 1zm-49 1zm49 1zm-40 1zm1 0zm39 0zm-55 1zm1 0zm51 0zm3 0zm-60 1zm1 0zm2 0zm1 0zm1 0zm1 0zm1 0zm1 0zm1 0zm52 0zm-61 1zm1 0zm1 0zm1 0zm1 0zm1 0zm1 0zm1 0zm1 0zm53 0zm10 0zm-75 1zm1 0zm1 0zm1 0zm1 0zm1 0zm1 0zm1 0zm1 0zm1 0zm1 0zm1 0zm51 0zm-62 1zm1 0zm1 0zm1 0zm1 0zm1 0zm1 0zm1 0zm1 0zm1 0zm1 0zm-9 1zm2 0zm1 0zm1 0zm1 0zm1 0zm1 0zm1 0zm48 0zm1 0zm-52 1zm1 0zm1 0zm1 0zm4 2zm31 0zm17 0zm1 0zm-3 1zm9 5zm-75 1zm55 0zm-55 1zm0 1zm0 1zm1 0zm0 1zm60 2zm-7 2zm1 1zm0 1zm-16 1zm16 0zm0 1zm0 1zm0 1zm0 2zm0 1zm0 1zm0 1zm-1 3zm4 0z"/><path stroke-width=".55" d="M25 9zm24 1zm24 6zm7 0zm6 4zm-12 2zm12 1zm0 1zm0 1zm-8 1zm8 0zm-11 3zm12 2zm0 1zm0 1zm0 1zm-56 1zm45 0zm-48 4zm60 1zm0 1zm0 4zm0 1zm1 1zm-11 1zm11 0zm10 0zm-10 1zm0 1zm0 3zm1 3zm-54 1zm1 0zm1 0zm52 0zm-48 1zm48 0zm-16 1zm-36 2zm0 1zm-15 1zm13 0zm1 0zm34 17zm14 8z"/><path stroke-width=".79" d="M27 9zm17 0zm19 1zm-38 6zm1 6zm51 4zm17 2zm-16 4zm-50 1zm51 2zm16 0zm0 1zm-16 2zm17 5zm-1 16zM80 77zm-2 1zm16 3zm-5 4zm-11 6z"/><path stroke-width=".51" d="M29 9zm68 1zm-5 2zm3 0zm-18 7zm6 0zm0 1zm0 1zm11 1zm-65 1zm54 1zm-9 1zm10 2zm0 1zm0 1zm-3 2zm-6 1zm9 0zm1 2zm-3 2zm3 0zm-9 1zm6 0zm3 0zm1 2zm0 3zm-3 1zm-6 1zm6 0zm3 0zm0 1zm1 2zm0 3zm0 1zm-52 1zm52 0zm0 1zm-50 1zm50 0zm-6 1zm6 1zm-52 1zm21 1zm32 0zm-51 1zm51 0zm-52 1zm52 0zm7 0zm-60 1zm-1 1zm-1 1zm-6 1zm23 1zm18 7zm2 22zm1 0z"/><path stroke-width=".6" d="M32 9zm32 0zm9 3zm27 2zm-4 1zm-72 1zm59 0zm1 0zm-10 3zm14 0zm1 3zm0 1zm0 1zm0 1zm0 1zm0 1zm-59 3zm46 1zm14 0zm7 0zm-7 1zm0 2zm0 1zm0 1zm-13 1zm0 1zm14 0zm0 1zm0 1zm0 2zm0 1zm-57 4zm58 0zm5 0zm-5 1zm0 1zm-13 1zm13 0zm0 1zm1 4zm0 1zm-49 1zm49 0zm-47 1zm30 0zm-31 1zm13 0zm19 0zm17 0zm-53 1zm2 1zm47 0zm-48 1zm-1 1zm1 0zm-2 1zm12 0zm21 16zm0 1zm0 2zm0 1zm0 1zm0 1zm15 0zm-15 2zm0 1zm0 2z"/><path stroke-width=".61" d="M33 9zm21 1zm28 0zm16 3zm-1 1zm-20 1zm11 2zm7 0zm-21 1zm15 0zm0 1zm0 1zm0 1zm12 1zm-26 2zm15 2zm0 1zm0 1zm0 1zm0 1zm1 3zm0 1zm0 1zm0 1zm0 1zm1 4zm0 1zm0 1zm0 1zm0 1zm-60 1zm60 0zm-61 4zm62 0zm0 1zm0 1zm0 1zm0 1zm-48 3zm5 0zm44 0zm1 0zm-48 1zm47 0zm-48 1zm-2 1zm1 0zm-1 1zm-1 1zm-2 2zm33 28z"/><path stroke-width=".64" d="M34 9zm64 5zm-20 1zm8 1zm5 4zm-16 2zm16 0zm5 0zm-21 1zm16 0zm1 3zm-66 1zm65 0zm1 0zm0 3zm0 1zm0 3zm-15 1zm15 0zm1 1zm0 1zm0 1zm0 1zm-15 2zm0 1zm16 2zm-62 1zm49 1zm13 0zm-62 1zm62 0zm5 0zm-5 4zm-15 1zm16 2zm0 1zm0 1zm2 0zm-51 1zm1 0zm2 0zm0 1zm30 0zm-32 2zm1 0zm25 0zm-27 1zm13 0zm32 0zm-46 1zm0 1zm-2 1zm1 0zm-6 1zm9 0zm33 26z"/><path stroke-width=".67" d="M36 9zm-10 1zm31 0zm24 0zm5 1zm-12 2zm0 1zm7 1zm1 0zm16 0zm-9 1zm1 0zm7 0zm-69 3zm47 1zm-46 5zm64 1zm4 4zm-68 1zm73 0zm-73 1zm66 0zm-18 1zm-47 3zm0 2zm0 1zm48 0zm-48 1zm1 0zm-1 1zm49 4zm-48 2zm65 2zm0 1zm3 6zm-49 2zm28 0zm2 1zm-1 1zm-28 3zm5 0zm26 12zm-6 5zm0 1zm0 1zm15 2zm-15 1zm0 1zm0 1zm-1 5z"/><path stroke-width=".68" d="M37 9zm25 0zm-4 1zm15 1zm1 1zm25 0zm-16 3zm14 2zm-22 1zm0 1zm-50 2zm51 4zm17 0zm-17 1zm-47 4zm48 2zm-48 1zm65 0zm-65 1zm1 1zm48 2zm0 1zm17 3zm-63 2zm47 1zm0 15zm-33 6zm47 16zm-17 2zm0 1zm0 4zm0 1zm0 1zm1 1zm1 1z"/><path stroke-width=".7" d="M39 9zm20 1zm21 0zm-54 1zm48 0zm2 1zm1 0zm1 0zm1 0zm1 0zm1 0zm1 0zm1 0zm1 0zm1 0zm-59 1zm50 0zm3 0zm1 0zm1 0zm1 0zm1 0zm1 0zm1 0zm1 0zm-10 1zm12 0zm1 0zm-63 1zm61 0zm2 0zm10 0zm1 0zm-74 1zm73 0zm-73 1zm72 0zm1 0zm-73 1zm71 0zm1 0zm1 0zm-73 1zm71 0zm1 0zm1 0zm-1 1zm1 0zm-72 1zm69 0zm2 0zm1 0zm-72 1zm50 0zm21 0zm1 0zm-23 1zm22 0zm1 0zm2 0zm-3 1zm1 0zm-72 1zm72 0zm1 0zm-1 1zm1 0zm-2 1zm1 0zm1 0zm-1 1zm1 0zm-71 1zm48 0zm22 0zm1 0zm-72 1zm71 0zm1 0zm-1 1zm1 0zm-6 1zm5 0zm1 0zm2 0zm-3 1zm1 0zm1 0zm-71 1zm70 0zm1 0zm-23 1zm21 0zm1 0zm1 0zm-1 1zm1 0zm-1 1zm1 0zm-3 1zm2 0zm1 0zm-70 1zm69 0zm1 0zm-1 1zm1 0zm-1 1zm1 0zm-71 1zm71 0zm0 1zm1 0zm-2 1zm1 0zm1 0zm-1 1zm1 0zm-1 1zm1 0zm1 0zm-7 1zm5 0zm1 0zm-1 1zm1 0zm-22 1zm21 0zm1 0zm-1 1zm0 1zm-43 9zm20 0zm16 11zm1 0zm-3 1zm1 0zm1 0zm1 0zm-9 1zm4 0zm1 0zm1 0zm1 0zm1 0zm1 0zm-7 1zm1 0zm1 0zm1 0zm1 0zm1 0zm1 0zm1 0zm-9 1zm1 0zm1 0zm1 0zm1 0zm1 0zm1 0zm1 0zm1 0zm1 0zm-11 1zm1 0zm1 0zm1 0zm1 0zm1 0zm1 0zm1 0zm1 0zm1 0zm1 0zm1 0zm-14 1zm2 0zm1 0zm1 0zm1 0zm1 0zm1 0zm1 0zm1 0zm1 0zm1 0zm1 0zm1 0zm1 0zm-14 1zm1 0zm1 0zm1 0zm1 0zm1 0zm1 0zm1 0zm1 0zm1 0zm1 0zm1 0zm1 0zm1 0zm1 0zm-17 1zm1 0zm1 0zm1 0zm1 0zm1 0zm1 0zm1 0zm1 0zm1 0zm1 0zm1 0zm1 0zm1 0zm1 0zm1 0zm1 0zm1 0zm-18 1zm1 0zm1 0zm1 0zm1 0zm1 0zm1 0zm1 0zm1 0zm1 0zm1 0zm1 0zm1 0zm1 0zm1 0zm1 0zm1 0zm1 0zm1 0zm-18 1zm1 0zm1 0zm1 0zm1 0zm1 0zm1 0zm1 0zm1 0zm1 0zm1 0zm1 0zm1 0zm1 0zm1 0zm1 0zm-15 1zm1 0zm1 0zm1 0zm1 0zm1 0zm1 0zm1 0zm1 0zm1 0zm1 0zm1 0zm1 0zm1 0zm4 0zm-16 1zm1 0zm1 0zm1 0zm1 0zm1 0zm1 0zm1 0zm1 0zm1 0zm1 0zm1 0zm-11 1zm1 0zm1 0zm1 0zm1 0zm1 0zm1 0zm1 0zm1 0zm1 0zm-10 1zm1 0zm1 0zm1 0zm1 0zm1 0zm1 0zm1 0zm1 0zm2 0zm-9 1zm1 0zm1 0zm1 0zm1 0zm1 0zm1 0zm-6 1zm1 0zm1 0zm1 0zm1 0zm1 0zm1 0zm-6 1zm1 0zm1 0zm1 0zm-3 1zm1 0zm-2 1z"/><path stroke-width=".72" d="M40 9zm20 1zm19 0zm-2 1zm2 0zm-54 1zm0 2zm53 0zm-3 1zm-48 3zm-1 2zm2 0zm69 0zm3 1zm0 1zm0 1zm1 1zm0 3zm-24 1zm21 1zm3 1zm0 1zm-71 1zm71 0zm-71 1zm65 0zm-17 1zm1 0zm20 3zm-4 2zm-16 1zm23 0zm0 1zm1 1zm-4 4zm1 0zm3 1zm-1 4zm-49 7zm24 0zm3 0zm-23 1zm22 2zm-27 2zm38 8zm-2 1zm4 10zm-11 7zm2 0zm-9 4z"/><path stroke-width=".73" d="M41 9zm37 2zm13 5zm9 0zm-8 2zm8 0zm-24 4zm-48 1zm65 0zm-67 3zm1 0zm2 0zm68 3zm-3 2zm8 2zm0 2zm0 1zm-74 1zm1 0zm70 1zm3 1zm-6 2zm-66 2zm73 2zm-23 2zm-49 1zm50 0zm-1 2zm23 0zm-2 3zm-4 2zm-17 2zm-5 2zm-15 1zm-3 2zm-2 1zm-6 1zm2 0zm43 6zm-18 9zm13 5z"/><path stroke-width=".77" d="M43 9zm33 1zm-51 1zm57 0zm-58 1zm62 0zm-10 5zm20 3zm-19 3zm-50 4zm68 7zm0 3zm-66 1zm70 1zm-19 2zm-51 1zm67 15zm-37 3zm-1 2zm-5 1zm1 0zm28 13zm4 11z"/><path stroke-width=".82" d="M45 9zm1 0zm19 1zm-40 7zm1 7zm51 1zm-50 5zm51 1zm20 2zm-70 2zm70 0zm-19 1zm0 1zm-50 3zm1 5zm0 1zm50 5zm20 0zm0 1zm0 2zm-7 16zm-6 3zm-2 1zm-2 1zm-2 1zm-2 1zm13 6zm-4 2zm-11 7z"/><path stroke-width=".75" d="M60 9zm-35 6zm67 1zM29 27zm-1 5zm74 2zM80 46zm0 6z"/><path stroke-width=".57" d="M65 9zm26 5zm-63 4zm59 0zm0 1zm-10 1zm-3 1zm13 0zm0 1zm9 1zm-9 1zm0 1zm1 4zm0 1zm0 2zm-12 1zm12 0zm1 2zm0 1zm0 2zm-12 2zm12 0zm0 1zm1 3zm-9 1zm9 0zm-12 1zm12 0zm0 2zm0 1zm-57 1zm46 1zm-46 1zm58 2zm0 1zm0 1zm-51 1zm51 0zm-48 1zm1 0zm47 0zm-49 1zm1 0zm-24 2zm70 0zm-69 1zm19 0zm18 1zm-28 1zm4 0zm2 0zm1 0zm1 0zm-1 1zm28 0zm8 14zm-19 1zm19 0zm-19 1z"/><path stroke-width=".53" d="M66 9zm17 1zm14 1zm-7 2zm4 0zm1 0zm-16 3zm4 1zm1 2zm0 3zm-10 1zm0 1zm11 1zm0 1zm0 1zm-10 3zm27 0zm-17 1zm1 2zm0 1zm0 1zm12 5zm-11 1zm0 1zm0 1zm0 1zm10 2zm-62 2zm-1 1zm1 0zm43 0zm10 0zm0 1zm-54 1zm54 0zm-49 7zm50 0zm-50 1zm50 0zm-52 1zm52 0zm1 0zm-54 1zm1 0zm2 0zm-18 1zm14 0zm1 0zm25 0zm-36 1zm10 0zm0 2zm60 3zm-29 5zm5 6zm0 11z"/><path stroke-width=".5" d="M67 9zm-21 1zm50 1zm-72 6zm49 2zm10 3zm1 4zm0 4zm-3 2zm4 3zm-9 3zm20 0zm-64 2zm54 3zm-5 1zm2 1zm3 1zm0 3zm1 6zm-49 3zm34 3zm15 0zm6 8zm-74 5zm50 6zm1 4zm0 1zm0 5zm0 1z"/><path stroke-width=".16" d="M79 9zM59 58zm7 3zm-38 4zm0 1zm66 1zm-19 3zm-32 7z"/><path stroke-width=".07" d="M83 9zm12 16zm1 4zm0 3zm8 13zm-73 6zm1 1zm42 5zm-2 1zm-53 5zm2 1zm40 0zm28 0zm-37 1zm5 0zm-26 1zm1 0zm33 0zm1 0zm-9 1zm20 2zm0 1zm-4 2zm-2 1zm-49 1zm2 1zm2 0zm4 1zm-7 1zm11 0zm3 0zm-12 1zm3 0zm16 0zm-13 1zm2 0zm1 0zm11 0zm-7 1zm3 0zm1 0zm3 0zm49 3zM3 84zm1 1zm2 0zm3 1zm5 1zm3 0zm3 1zm3 0zm3 1zm2 0zm3 1zm3 0zm49 0zm-51 1zm5 0zm3 0zm3 1zm2 0zm3 1zm1 0zm2 0zm27 0zm-24 1zm3 0zm21 0zm-18 1zm2 0zm10 0zm-6 1zm1 0zm3 0z"/><path stroke-width=".46" d="M96 9zm-1 1zm-4 1zm3 0zm-22 5zm5 0zm2 2zm1 0zm0 2zm-1 1zm1 0zm-7 1zm7 0zm0 1zm1 0zm0 2zm0 1zm-7 3zm7 0zm1 1zm0 1zm0 1zm-1 1zm1 0zm-51 1zm51 0zm-21 4zm22 8zm-6 2zm6 2zm1 0zm0 1zm0 2zm0 1zm1 0zm-1 1zm15 0zm-58 1zm41 0zm0 2zm3 0zm0 1zm-3 1zm-62 1zm50 0zm-47 1zm45 0zm-10 1zm9 0zm17 1zm3 8zm-20 1zm-48 4zm35 1zm0 1zm15 0zm-1 14z"/><path stroke-width=".54" d="M97 9zm-49 1zm22 1zm26 1zm-23 5zm11 0zm1 1zm0 1zm0 1zm0 1zm0 1zm0 1zm0 1zm1 3zm-60 1zm60 0zm0 1zm0 1zm0 1zm0 1zm1 3zm-11 1zm11 0zm0 1zm0 1zm0 1zm0 1zm-10 2zm11 0zm0 1zm0 1zm0 3zm0 1zm-54 2zm55 1zm0 1zm-11 1zm11 1zm0 1zm0 1zm-37 1zm37 0zm-48 1zm49 1zm-53 3zm-9 2zm21 1zm25 4zm-4 2zm-51 4zm52 6zm0 1zm0 1zm0 1zm0 1zm0 1zm0 1zm0 1zm0 1zm0 2zm0 1zm5 1z"/><path stroke-width=".44" d="M24 10zm49 13zm-14 2zm-11 4zm6 1zm-4 1zm-8 2zm2 0zm-1 4zm1 0zm13 1zm-21 8zm2 2zm-2 3zm11 5zm37 0zm0 1zm-51 8zm33 0zm3 6zm-2 1zm-48 1zm46 0zm-36 1zm5 1zm2 0zm32 9zm0 6zm-1 4z"/><path stroke-width=".9" d="M25 10z"/><path stroke-width=".63" d="M55 10zm17 1zm26 0zm-4 3zm3 1zm-23 1zm22 0zm-22 1zm15 0zm1 0zm0 1zm1 0zm2 0zm-3 1zm0 1zm-13 1zm14 0zm0 3zm0 1zm0 1zm-13 1zm14 1zm-16 1zm16 0zm-16 1zm16 2zm-13 1zm13 0zm-61 3zm61 0zm-12 3zm13 1zm0 1zm0 1zm-15 1zm15 0zm0 1zm0 1zm-61 3zm47 0zm15 0zm0 1zm0 1zm0 2zm-59 1zm60 0zm-40 5zm40 0zm-47 1zm1 0zm-4 2zm2 0zm45 0zm-46 1zm32 15zm-5 2zm-1 14z"/><path d="M87 10zm2 1zm1 1zm1 1zm1 1zm1 1zm1 2zm0 1zm1 5zM29 49zm1 1zm4 4zm45 1zm-6 3zm-2 1zm-2 1zm-5 3zm1 0zm23 0zm4 0zm-34 1zm1 0zm1 0zm27 0zm-34 1zm1 0zm1 0zm7 0zm12 0zm-12 3zm14 1zm-4 2zm-51 3zm74 9zm-2 1zm-1 1zm-2 1zm-2 1zm1 0zm-2 1zm-2 1zm-1 1zm-2 1zm-1 1zm-2 1zm-2 1zm-4 1zm1 0z" stroke="none"/><path stroke-width=".66" d="M27 11zm0 1zm68 3zm-7 1zm4 3zm0 1zm-17 1zm17 0zm0 3zm0 1zm-16 2zm17 0zm0 6zm-16 1zm17 0zm0 1zm0 4zm0 1zm-63 1zm63 0zm0 1zm1 0zm-64 1zm64 0zm-64 2zm0 1zm2 0zm46 0zm16 2zm0 1zm-14 1zm15 1zm0 1zm0 1zm0 1zm0 1zm-18 2zm-28 2zm1 0zm1 0zm2 0zm-4 1zm1 0zm1 0zm1 0zm1 0zm1 0zm2 0zm-9 1zm1 0zm1 0zm1 0zm1 0zm1 0zm1 0zm1 0zm1 0zm1 0zm-10 1zm1 0zm1 0zm1 0zm1 0zm1 0zm1 0zm2 0zm-9 1zm2 0zm1 0zm1 0zm-5 1zm-6 1zm41 11zm-5 8zm0 6zm1 1z"/><path stroke-width=".49" d="M66 11zm1 0zm5 1zm0 1zm6 3zm-50 1zm54 0zm0 1zm1 0zm-1 2zm0 1zm1 2zm0 2zm0 1zm0 1zm0 1zm0 1zm0 1zm12 0zm-16 1zm5 0zm0 2zm-57 1zm57 0zm0 1zm0 1zm0 1zm-2 1zm2 0zm1 0zm0 1zm0 1zm0 1zm-2 1zm2 0zm0 1zm-8 2zm8 0zm1 2zm0 1zm-50 1zm50 1zm-51 1zm43 0zm8 0zm0 1zm-4 1zm4 0zm0 1zm1 3zm-51 1zm1 0zm50 0zm-52 1zm1 0zm51 0zm-67 1zm15 0zm37 0zm13 0zm1 0zm1 0zm-54 1zm1 0zm-1 1zm-11 1zm4 0zm6 0zm58 0zm-11 4zm-65 9zm56 5zm0 1zm0 1zm0 3zm0 1zm0 1zm0 1zm0 3zm-1 2z"/><path stroke-width=".89" d="M91 15z"/><path stroke-width=".01" d="M101 18zm-6 4zm8 8zm-76 9zm9 16zm65 0zm-9 9zm-14 5zm-33 9zM5 87zm85 0zm-4 2zm-49 3zm39 2z"/><path stroke-width=".91" d="M100 55z"/><path stroke-width=".02" d="M33 53zm42 4zm12 6zm1 1zm-12 4zm-55 9z"/><path stroke-width=".05" d="M74 66zm22 15zM48 94z"/></g></svg>