<svg xmlns="http://www.w3.org/2000/svg" viewBox="-0.5 -0.5 107 100">
<path id="background" fill="#fffeed" d="M93.5,62.461s3.46,0.4,3.46,4.625V80.959s0.085,2.224-.712,2.815S85.791,90.528,79.763,94.23c-4.916,3.019-13.831,3.45-23,1.81-5.5-.985-50.326-9.2-52.407-9.651A4.286,4.286,0,0,1,1,82.065V69c0-2.692.327-4.163,3.155-5.027S20.5,58.5,24.405,57.234,35.6,55.625,35.6,55.625s-7.522-3.767-8.344-8.947-4.622-26.952-5.393-30.964S22.134,9,25.321,6.666s7.37-5.272,8.141-5.831a8.2,8.2,0,0,1,4.783-.8c2.21,0.152,44.27,2.324,49.151,2.513A14.473,14.473,0,0,1,101.54,14.407C101.907,17.1,105,42.777,105,45.371s-0.3,5.977-1.323,7.238c-1.469,1.8-3.075,3.688-4.884,5.831A22.109,22.109,0,0,1,93.5,62.461Z"/><g stroke="#663300" fill="none" stroke-linecap="round">
<path stroke-width="0.10" d="M36 1zM40 1zM78 3zM48 7zM49 7zM50 7zM51 7zM64 8zM65 8zM66 8zM71 8zM82 9zM95 20zM102 27zM96 33zM103 36zM97 38zM97 40zM35 46zM76 56zM58 65zM59 65zM60 65zM61 65zM90 65zM35 66zM49 66zM50 66zM53 66zM54 66zM55 66zM56 66zM57 66zM58 66zM59 66zM60 66zM61 66zM54 67zM63 67zM62 69zM71 72zM23 74zM23 75zM27 76zM77 76zM24 77zM32 77zM39 77zM29 78zM40 78zM30 79zM36 80zM45 81zM4 84zM7 85zM7 86zM13 87zM18 87zM24 89zM35 90zM85 90zM41 92zM46 92zM43 93zM52 93zM52 94zM58 95zM64 96z"/>
<path stroke-width="0.23" d="M37 1zM38 1zM30 6zM39 6zM57 8zM85 10zM44 18zM29 19zM50 19zM53 19zM102 28zM32 32zM96 35zM103 37zM34 43zM82 50zM98 51zM45 52zM52 52zM53 53zM59 53zM98 53zM62 54zM63 54zM64 54zM65 54zM66 54zM67 54zM68 54zM73 55zM80 55zM66 59zM63 62zM81 62zM82 62zM86 62zM10 63zM78 63zM55 64zM94 64zM95 65zM86 66zM94 66zM95 66zM5 67zM36 67zM66 67zM84 67zM85 67zM86 67zM87 67zM88 67zM89 67zM90 67zM91 67zM92 67zM93 67zM3 68zM4 68zM8 68zM9 68zM79 68zM82 68zM83 68zM84 68zM85 68zM86 68zM87 68zM88 68zM89 68zM90 68zM6 69zM9 69zM10 69zM11 69zM13 69zM35 69zM54 69zM81 69zM82 69zM83 69zM84 69zM85 69zM86 69zM87 69zM88 69zM92 69zM13 70zM14 70zM16 70zM17 70zM18 70zM19 70zM20 70zM21 70zM22 70zM23 70zM24 70zM39 70zM44 70zM61 70zM81 70zM82 70zM83 70zM84 70zM85 70zM86 70zM90 70zM18 71zM20 71zM23 71zM24 71zM25 71zM26 71zM27 71zM28 71zM29 71zM30 71zM31 71zM44 71zM81 71zM82 71zM83 71zM84 71zM25 72zM26 72zM51 72zM79 72zM80 72zM81 72zM82 72zM31 73zM38 73zM46 73zM47 73zM58 73zM75 73zM79 73zM80 73zM38 74zM53 74zM75 74zM76 74zM77 74zM78 74zM44 75zM54 75zM59 75zM60 75zM68 75zM69 75zM70 75zM75 75zM76 75zM59 76zM60 76zM65 76zM66 76zM67 76zM68 76zM69 76zM70 76zM71 76zM72 76zM73 76zM74 76zM75 76zM58 77zM22 78zM49 78zM50 78zM66 78zM67 78zM68 78zM69 78zM70 78zM40 81zM92 84zM10 85zM27 88zM44 91zM81 91zM61 94z"/>
<path stroke-width="0.18" d="M39 1zM32 6zM35 6zM37 6zM56 7zM59 8zM75 8zM97 8zM88 10zM29 16zM29 17zM31 28zM35 47zM37 49zM40 50zM42 51zM81 53zM77 55zM75 56zM67 60zM64 62zM85 62zM23 64zM93 65zM45 66zM44 67zM61 68zM71 70zM79 70zM88 70zM79 71zM86 71zM53 72zM54 72zM57 72zM58 72zM75 72zM21 73zM61 73zM62 73zM84 73zM71 74zM66 75zM34 76zM45 77zM72 77zM23 78zM26 88zM43 91zM60 94zM68 95zM69 95z"/>
<path stroke-width="0.04" d="M41 1zM32 3zM86 10zM23 16zM93 16zM95 21zM96 30zM96 31zM26 33zM28 44zM80 54zM78 55zM77 56zM68 60zM67 61zM76 61zM74 64zM91 64zM52 66zM59 67zM53 68zM76 70zM77 71zM72 72zM74 73zM21 75zM21 76zM22 77zM94 84zM5 85zM91 85zM83 91zM75 95zM59 96z"/>
<path stroke-width="0.39" d="M34 2zM40 2zM41 2zM42 2zM44 2zM47 2zM48 2zM49 2zM57 3zM59 3zM60 3zM61 3zM62 3zM64 3zM66 3zM68 3zM69 3zM32 4zM75 4zM76 4zM78 4zM81 4zM82 4zM84 4zM87 4zM44 5zM46 5zM90 5zM92 5zM63 6zM64 6zM93 6zM31 7zM33 7zM66 7zM82 7zM83 7zM26 8zM52 8zM70 9zM93 9zM37 10zM89 10zM92 10zM59 11zM99 11zM71 12zM30 13zM71 15zM50 16zM42 17zM48 17zM55 17zM56 17zM24 18zM30 18zM31 19zM54 20zM51 21zM55 21zM56 21zM72 21zM39 22zM72 22zM50 23zM52 23zM55 23zM96 25zM40 27zM60 27zM32 29zM40 29zM61 30zM41 31zM74 34zM74 35zM41 36zM34 37zM62 38zM41 39zM51 39zM54 39zM56 39zM57 39zM59 39zM61 39zM35 42zM75 42zM81 42zM37 46zM38 47zM83 48zM56 51zM64 52zM38 53zM39 54zM40 54zM49 54zM39 56zM56 56zM57 56zM83 56zM29 57zM63 57zM70 57zM77 57zM83 57zM70 58zM83 58zM77 61zM32 65zM29 67zM30 67zM50 67zM64 68zM60 69zM4 70zM52 70zM53 70zM5 71zM9 71zM10 71zM11 72zM12 72zM16 72zM18 72zM26 73zM65 74zM40 76zM57 78zM20 79zM60 79zM63 79zM3 80zM35 81zM35 82zM8 83zM44 83zM52 83zM54 83zM49 84zM50 84zM51 84zM14 85zM19 85zM65 85zM20 86zM25 86zM31 88zM36 88zM37 89zM42 90zM48 91zM53 91zM65 93z"/><path stroke-width="0.40" d="M35 2zM43 2zM80 4zM86 4zM40 5zM41 5zM42 5zM43 5zM91 5zM48 6zM60 6zM61 6zM62 6zM94 6zM67 7zM68 7zM80 7zM81 7zM95 8zM87 9zM89 9zM94 9zM38 10zM84 10zM87 11zM30 14zM71 14zM92 15zM52 17zM53 17zM54 17zM41 18zM31 20zM48 20zM50 20zM52 20zM53 20zM39 23zM48 23zM51 23zM32 25zM40 25zM32 26zM40 26zM55 26zM57 26zM56 27zM73 27zM42 28zM57 28zM59 28zM73 28zM80 28zM41 29zM33 31zM45 31zM61 31zM50 32zM31 33zM47 33zM49 33zM51 33zM74 33zM81 34zM62 35zM55 37zM45 38zM58 39zM34 40zM75 40zM36 45zM76 45zM76 46zM83 49zM47 50zM39 51zM50 51zM54 51zM55 51zM58 52zM63 52zM77 52zM37 53zM43 53zM47 53zM67 53zM71 53zM72 53zM55 54zM99 54zM58 55zM59 55zM63 55zM49 56zM67 56zM68 56zM65 58zM82 59zM85 61zM85 63zM3 70zM70 70zM6 71zM7 71zM8 71zM13 72zM24 73zM31 74zM16 75zM18 75zM81 75zM16 76zM18 76zM41 76zM42 76zM44 76zM45 76zM56 78zM59 79zM61 79zM62 79zM64 79zM65 79zM66 79zM24 80zM47 80zM29 81zM66 81zM42 82zM66 82zM7 83zM46 83zM9 84zM13 84zM18 85zM66 85zM24 86zM66 86zM30 87zM35 88zM66 88zM41 89zM66 89zM47 90zM52 91zM54 92zM58 92zM64 93zM66 94z"/>
<path stroke-width="0.38" d="M36 2zM37 2zM38 2zM39 2zM45 2zM46 2zM51 2zM34 3zM53 3zM54 3zM55 3zM56 3zM58 3zM63 3zM65 3zM67 3zM72 4zM73 4zM74 4zM77 4zM79 4zM85 4zM88 4zM45 5zM47 5zM47 6zM65 6zM66 6zM83 8zM87 8zM94 8zM91 10zM58 11zM30 12zM71 16zM41 19zM42 20zM58 20zM54 21zM57 21zM42 22zM44 22zM53 23zM54 23zM56 23zM58 23zM72 23zM78 23zM60 25zM61 27zM40 28zM73 29zM102 29zM33 30zM62 33zM33 35zM34 36zM62 36zM43 38zM103 38zM52 39zM53 39zM55 39zM75 41zM33 44zM29 46zM76 47zM76 48zM42 49zM48 50zM49 51zM99 51zM42 53zM66 53zM73 53zM74 53zM75 53zM76 53zM99 53zM41 54zM48 54zM57 55zM64 55zM65 56zM66 56zM58 57zM64 57zM75 60zM64 61zM19 62zM21 63zM81 65zM23 66zM79 66zM28 67zM36 68zM37 68zM54 70zM10 72zM19 72zM17 76zM79 76zM52 77zM47 78zM58 79zM65 80zM4 81zM65 81zM43 82zM65 82zM43 83zM47 83zM14 84zM48 84zM52 84zM55 84zM65 84zM65 86zM25 87zM31 87zM65 87zM42 89zM65 89zM48 90zM65 90zM65 91zM59 92zM65 92zM59 93zM65 94z"/>
<path stroke-width="0.37" d="M50 2zM52 2zM53 2zM35 3zM36 3zM37 3zM38 3zM39 3zM40 3zM41 3zM42 3zM43 3zM44 3zM45 3zM46 3zM47 3zM48 3zM49 3zM50 3zM51 3zM52 3zM70 3zM71 3zM72 3zM73 3zM33 4zM34 4zM35 4zM36 4zM37 4zM38 4zM39 4zM40 4zM41 4zM42 4zM43 4zM44 4zM45 4zM46 4zM47 4zM48 4zM49 4zM50 4zM51 4zM52 4zM53 4zM54 4zM55 4zM56 4zM57 4zM58 4zM59 4zM60 4zM61 4zM62 4zM63 4zM64 4zM65 4zM66 4zM67 4zM68 4zM69 4zM70 4zM71 4zM83 4zM89 4zM48 5zM49 5zM50 5zM51 5zM52 5zM53 5zM54 5zM55 5zM56 5zM57 5zM58 5zM59 5zM60 5zM61 5zM62 5zM63 5zM64 5zM65 5zM66 5zM67 5zM68 5zM69 5zM70 5zM71 5zM72 5zM73 5zM74 5zM75 5zM76 5zM77 5zM78 5zM79 5zM80 5zM81 5zM82 5zM83 5zM84 5zM85 5zM86 5zM87 5zM88 5zM89 5zM67 6zM68 6zM69 6zM70 6zM71 6zM72 6zM73 6zM74 6zM75 6zM76 6zM77 6zM78 6zM79 6zM80 6zM81 6zM82 6zM83 6zM84 6zM85 6zM86 6zM87 6zM88 6zM89 6zM90 6zM91 6zM92 6zM30 7zM84 7zM85 7zM86 7zM87 7zM88 7zM89 7zM90 7zM91 7zM92 7zM93 7zM94 7zM89 8zM90 8zM91 8zM92 8zM93 8zM91 9zM92 9zM36 10zM57 11zM31 12zM32 12zM33 12zM34 12zM35 12zM36 12zM37 12zM38 12zM39 12zM40 12zM41 12zM42 12zM43 12zM44 12zM45 12zM46 12zM47 12zM48 12zM49 12zM50 12zM51 12zM31 13zM32 13zM33 13zM34 13zM35 13zM36 13zM37 13zM38 13zM39 13zM40 13zM41 13zM42 13zM43 13zM44 13zM45 13zM46 13zM47 13zM48 13zM49 13zM50 13zM51 13zM52 13zM53 13zM54 13zM55 13zM56 13zM57 13zM58 13zM59 13zM60 13zM61 13zM62 13zM63 13zM64 13zM65 13zM66 13zM67 13zM68 13zM69 13zM31 14zM32 14zM33 14zM34 14zM35 14zM36 14zM37 14zM38 14zM39 14zM40 14zM41 14zM42 14zM43 14zM44 14zM45 14zM46 14zM47 14zM48 14zM49 14zM50 14zM51 14zM52 14zM53 14zM54 14zM55 14zM56 14zM57 14zM58 14zM59 14zM60 14zM61 14zM62 14zM63 14zM64 14zM65 14zM66 14zM67 14zM68 14zM69 14zM31 15zM32 15zM33 15zM34 15zM35 15zM36 15zM37 15zM38 15zM39 15zM40 15zM41 15zM42 15zM43 15zM44 15zM45 15zM46 15zM47 15zM48 15zM49 15zM50 15zM51 15zM52 15zM53 15zM54 15zM55 15zM56 15zM57 15zM58 15zM59 15zM60 15zM61 15zM62 15zM63 15zM64 15zM65 15zM66 15zM67 15zM68 15zM69 15zM31 16zM32 16zM33 16zM34 16zM35 16zM36 16zM37 16zM38 16zM39 16zM40 16zM41 16zM42 16zM43 16zM44 16zM45 16zM46 16zM47 16zM48 16zM52 16zM53 16zM54 16zM55 16zM56 16zM57 16zM58 16zM59 16zM60 16zM61 16zM62 16zM63 16zM64 16zM65 16zM66 16zM67 16zM68 16zM69 16zM31 17zM32 17zM33 17zM34 17zM35 17zM36 17zM37 17zM38 17zM39 17zM40 17zM57 17zM58 17zM59 17zM60 17zM61 17zM62 17zM63 17zM64 17zM65 17zM66 17zM67 17zM68 17zM69 17zM71 17zM93 17zM31 18zM32 18zM33 18zM34 18zM35 18zM36 18zM37 18zM38 18zM39 18zM40 18zM57 18zM58 18zM59 18zM60 18zM61 18zM62 18zM63 18zM64 18zM65 18zM66 18zM67 18zM68 18zM69 18zM71 18zM32 19zM33 19zM34 19zM35 19zM36 19zM37 19zM38 19zM39 19zM40 19zM59 19zM60 19zM61 19zM62 19zM63 19zM64 19zM65 19zM66 19zM67 19zM68 19zM69 19zM71 19zM32 20zM33 20zM34 20zM35 20zM36 20zM37 20zM38 20zM39 20zM40 20zM59 20zM60 20zM61 20zM62 20zM63 20zM64 20zM65 20zM66 20zM67 20zM68 20zM69 20zM70 20zM32 21zM33 21zM34 21zM35 21zM36 21zM37 21zM38 21zM41 21zM43 21zM44 21zM45 21zM46 21zM47 21zM48 21zM49 21zM50 21zM52 21zM53 21zM58 21zM59 21zM60 21zM61 21zM62 21zM63 21zM64 21zM65 21zM66 21zM67 21zM68 21zM69 21zM70 21zM32 22zM33 22zM34 22zM35 22zM36 22zM37 22zM41 22zM57 22zM58 22zM59 22zM60 22zM61 22zM62 22zM63 22zM64 22zM65 22zM66 22zM67 22zM68 22zM69 22zM70 22zM32 23zM33 23zM34 23zM35 23zM36 23zM37 23zM57 23zM60 23zM61 23zM62 23zM63 23zM64 23zM65 23zM66 23zM67 23zM68 23zM69 23zM70 23zM25 24zM32 24zM33 24zM34 24zM35 24zM36 24zM37 24zM38 24zM62 24zM63 24zM64 24zM65 24zM66 24zM67 24zM68 24zM69 24zM70 24zM72 24zM33 25zM34 25zM35 25zM36 25zM37 25zM38 25zM39 25zM62 25zM63 25zM64 25zM65 25zM66 25zM67 25zM68 25zM69 25zM70 25zM72 25zM33 26zM34 26zM35 26zM36 26zM37 26zM38 26zM62 26zM63 26zM64 26zM65 26zM66 26zM67 26zM68 26zM69 26zM70 26zM71 26zM33 27zM34 27zM35 27zM36 27zM37 27zM38 27zM62 27zM63 27zM64 27zM65 27zM66 27zM67 27zM68 27zM69 27zM70 27zM71 27zM33 28zM34 28zM35 28zM36 28zM37 28zM38 28zM62 28zM63 28zM64 28zM65 28zM66 28zM67 28zM68 28zM69 28zM70 28zM71 28zM33 29zM34 29zM35 29zM36 29zM37 29zM38 29zM63 29zM64 29zM65 29zM66 29zM67 29zM68 29zM69 29zM70 29zM71 29zM79 29zM34 30zM35 30zM36 30zM37 30zM38 30zM39 30zM63 30zM64 30zM65 30zM66 30zM67 30zM68 30zM69 30zM70 30zM71 30zM73 30zM34 31zM35 31zM36 31zM37 31zM38 31zM39 31zM40 31zM63 31zM64 31zM65 31zM66 31zM67 31zM68 31zM69 31zM70 31zM71 31zM73 31zM34 32zM35 32zM36 32zM37 32zM38 32zM39 32zM63 32zM64 32zM65 32zM66 32zM67 32zM68 32zM69 32zM70 32zM71 32zM72 32zM34 33zM35 33zM36 33zM37 33zM38 33zM39 33zM41 33zM63 33zM64 33zM65 33zM66 33zM67 33zM68 33zM69 33zM70 33zM71 33zM72 33zM34 34zM35 34zM36 34zM37 34zM38 34zM39 34zM63 34zM64 34zM65 34zM66 34zM67 34zM68 34zM69 34zM70 34zM71 34zM72 34zM27 35zM34 35zM35 35zM36 35zM37 35zM38 35zM39 35zM40 35zM64 35zM65 35zM66 35zM67 35zM68 35zM69 35zM70 35zM71 35zM72 35zM35 36zM36 36zM37 36zM38 36zM39 36zM64 36zM65 36zM66 36zM67 36zM68 36zM69 36zM70 36zM71 36zM72 36zM35 37zM36 37zM37 37zM38 37zM39 37zM40 37zM64 37zM65 37zM66 37zM67 37zM68 37zM69 37zM70 37zM71 37zM72 37zM74 37zM35 38zM36 38zM37 38zM38 38zM39 38zM40 38zM64 38zM65 38zM66 38zM67 38zM68 38zM69 38zM70 38zM71 38zM72 38zM73 38zM35 39zM36 39zM37 39zM38 39zM39 39zM40 39zM49 39zM64 39zM65 39zM66 39zM67 39zM68 39zM69 39zM70 39zM71 39zM72 39zM73 39zM35 40zM36 40zM37 40zM38 40zM39 40zM40 40zM41 40zM42 40zM43 40zM44 40zM45 40zM46 40zM47 40zM48 40zM49 40zM50 40zM51 40zM52 40zM63 40zM64 40zM65 40zM66 40zM67 40zM68 40zM69 40zM70 40zM71 40zM72 40zM73 40zM35 41zM36 41zM37 41zM38 41zM39 41zM40 41zM41 41zM42 41zM43 41zM44 41zM45 41zM46 41zM47 41zM48 41zM49 41zM50 41zM51 41zM52 41zM53 41zM54 41zM55 41zM56 41zM57 41zM58 41zM59 41zM60 41zM61 41zM62 41zM63 41zM64 41zM65 41zM66 41zM67 41zM68 41zM69 41zM70 41zM71 41zM72 41zM73 41zM36 42zM37 42zM38 42zM39 42zM40 42zM41 42zM42 42zM43 42zM44 42zM45 42zM46 42zM47 42zM48 42zM49 42zM50 42zM51 42zM52 42zM53 42zM54 42zM55 42zM56 42zM57 42zM58 42zM59 42zM60 42zM61 42zM62 42zM63 42zM64 42zM65 42zM66 42zM67 42zM68 42zM69 42zM70 42zM71 42zM72 42zM73 42zM36 43zM37 43zM38 43zM39 43zM40 43zM41 43zM42 43zM43 43zM44 43zM45 43zM46 43zM47 43zM48 43zM49 43zM50 43zM51 43zM52 43zM53 43zM54 43zM55 43zM56 43zM57 43zM58 43zM59 43zM60 43zM61 43zM62 43zM63 43zM64 43zM65 43zM66 43zM67 43zM68 43zM69 43zM70 43zM71 43zM72 43zM73 43zM75 43zM37 44zM38 44zM39 44zM40 44zM41 44zM42 44zM43 44zM44 44zM45 44zM46 44zM47 44zM48 44zM49 44zM50 44zM51 44zM52 44zM53 44zM54 44zM55 44zM56 44zM57 44zM58 44zM59 44zM60 44zM61 44zM62 44zM63 44zM64 44zM65 44zM66 44zM67 44zM68 44zM69 44zM70 44zM71 44zM72 44zM73 44zM75 44zM37 45zM38 45zM39 45zM40 45zM41 45zM42 45zM43 45zM44 45zM45 45zM46 45zM47 45zM48 45zM49 45zM50 45zM51 45zM52 45zM53 45zM54 45zM55 45zM56 45zM57 45zM58 45zM59 45zM60 45zM61 45zM62 45zM63 45zM64 45zM65 45zM66 45zM67 45zM68 45zM69 45zM70 45zM71 45zM72 45zM73 45zM74 45zM38 46zM39 46zM40 46zM41 46zM42 46zM43 46zM44 46zM45 46zM46 46zM47 46zM48 46zM49 46zM50 46zM51 46zM52 46zM53 46zM54 46zM55 46zM56 46zM57 46zM58 46zM59 46zM60 46zM61 46zM62 46zM63 46zM64 46zM65 46zM66 46zM67 46zM68 46zM69 46zM70 46zM71 46zM72 46zM73 46zM74 46zM40 47zM41 47zM42 47zM43 47zM44 47zM45 47zM46 47zM47 47zM48 47zM49 47zM50 47zM51 47zM52 47zM53 47zM54 47zM55 47zM56 47zM57 47zM58 47zM59 47zM60 47zM61 47zM62 47zM63 47zM64 47zM65 47zM66 47zM67 47zM68 47zM69 47zM70 47zM71 47zM72 47zM73 47zM74 47zM41 48zM42 48zM43 48zM44 48zM45 48zM46 48zM47 48zM48 48zM49 48zM50 48zM51 48zM52 48zM53 48zM54 48zM55 48zM56 48zM57 48zM58 48zM59 48zM60 48zM61 48zM62 48zM63 48zM64 48zM65 48zM66 48zM67 48zM68 48zM69 48zM70 48zM71 48zM72 48zM73 48zM74 48zM43 49zM44 49zM45 49zM46 49zM47 49zM48 49zM49 49zM50 49zM51 49zM52 49zM53 49zM54 49zM55 49zM56 49zM57 49zM58 49zM59 49zM60 49zM61 49zM62 49zM63 49zM64 49zM65 49zM66 49zM67 49zM68 49zM69 49zM70 49zM71 49zM72 49zM73 49zM74 49zM76 49zM42 50zM49 50zM50 50zM51 50zM52 50zM53 50zM54 50zM55 50zM56 50zM57 50zM58 50zM59 50zM60 50zM61 50zM62 50zM63 50zM64 50zM65 50zM66 50zM67 50zM68 50zM69 50zM70 50zM71 50zM72 50zM73 50zM74 50zM76 50zM57 51zM58 51zM59 51zM60 51zM61 51zM62 51zM63 51zM64 51zM65 51zM66 51zM67 51zM68 51zM69 51zM70 51zM71 51zM72 51zM73 51zM74 51zM75 51zM38 52zM39 52zM57 52zM65 52zM66 52zM67 52zM68 52zM69 52zM70 52zM71 52zM72 52zM73 52zM74 52zM75 52zM40 53zM41 53zM42 54zM43 54zM44 54zM45 54zM46 54zM47 54zM56 54zM52 55zM53 55zM54 55zM55 55zM56 55zM50 56zM58 56zM59 56zM60 56zM61 56zM62 56zM63 56zM64 56zM65 57zM66 57zM67 57zM68 57zM57 58zM64 58zM84 65zM82 66zM3 71zM4 71zM3 72zM4 72zM5 72zM6 72zM7 72zM8 72zM9 72zM17 72zM66 72zM3 73zM4 73zM5 73zM6 73zM7 73zM8 73zM9 73zM10 73zM11 73zM12 73zM3 74zM4 74zM5 74zM6 74zM7 74zM8 74zM9 74zM10 74zM11 74zM12 74zM32 74zM66 74zM3 75zM4 75zM5 75zM6 75zM7 75zM8 75zM9 75zM10 75zM11 75zM12 75zM17 75zM32 75zM39 75zM3 76zM4 76zM5 76zM6 76zM7 76zM8 76zM9 76zM10 76zM11 76zM12 76zM3 77zM4 77zM5 77zM6 77zM7 77zM8 77zM9 77zM10 77zM11 77zM12 77zM18 77zM3 78zM4 78zM5 78zM6 78zM7 78zM8 78zM9 78zM10 78zM11 78zM12 78zM13 78zM16 78zM55 78zM58 78zM3 79zM4 79zM5 79zM6 79zM7 79zM8 79zM9 79zM10 79zM11 79zM12 79zM13 79zM14 79zM15 79zM16 79zM17 79zM18 79zM56 79zM57 79zM4 80zM5 80zM6 80zM7 80zM8 80zM9 80zM10 80zM11 80zM12 80zM13 80zM14 80zM15 80zM16 80zM17 80zM18 80zM19 80zM20 80zM21 80zM23 80zM56 80zM57 80zM58 80zM59 80zM60 80zM61 80zM62 80zM63 80zM64 80zM5 81zM6 81zM7 81zM8 81zM9 81zM10 81zM11 81zM12 81zM13 81zM14 81zM15 81zM16 81zM17 81zM18 81zM19 81zM20 81zM21 81zM22 81zM23 81zM24 81zM25 81zM26 81zM27 81zM28 81zM56 81zM57 81zM58 81zM59 81zM60 81zM61 81zM62 81zM63 81zM64 81zM6 82zM7 82zM8 82zM9 82zM10 82zM11 82zM12 82zM13 82zM14 82zM15 82zM16 82zM17 82zM18 82zM19 82zM20 82zM21 82zM22 82zM23 82zM24 82zM25 82zM26 82zM27 82zM28 82zM29 82zM30 82zM31 82zM32 82zM33 82zM34 82zM56 82zM57 82zM58 82zM59 82zM60 82zM61 82zM62 82zM63 82zM64 82zM9 83zM10 83zM11 83zM12 83zM13 83zM14 83zM15 83zM16 83zM17 83zM18 83zM19 83zM20 83zM21 83zM22 83zM23 83zM24 83zM25 83zM26 83zM27 83zM28 83zM29 83zM30 83zM31 83zM32 83zM33 83zM34 83zM35 83zM36 83zM37 83zM38 83zM39 83zM40 83zM41 83zM42 83zM56 83zM57 83zM58 83zM59 83zM60 83zM61 83zM62 83zM63 83zM64 83zM8 84zM15 84zM16 84zM17 84zM18 84zM19 84zM20 84zM21 84zM22 84zM23 84zM24 84zM25 84zM26 84zM27 84zM28 84zM29 84zM30 84zM31 84zM32 84zM33 84zM34 84zM35 84zM36 84zM37 84zM38 84zM39 84zM40 84zM41 84zM42 84zM43 84zM44 84zM45 84zM46 84zM47 84zM56 84zM57 84zM58 84zM59 84zM60 84zM61 84zM62 84zM63 84zM64 84zM20 85zM21 85zM22 85zM23 85zM24 85zM25 85zM26 85zM27 85zM28 85zM29 85zM30 85zM31 85zM32 85zM33 85zM34 85zM35 85zM36 85zM37 85zM38 85zM39 85zM40 85zM41 85zM42 85zM43 85zM44 85zM45 85zM46 85zM47 85zM48 85zM49 85zM50 85zM51 85zM52 85zM53 85zM54 85zM55 85zM56 85zM57 85zM58 85zM59 85zM60 85zM61 85zM62 85zM63 85zM64 85zM19 86zM26 86zM27 86zM28 86zM29 86zM30 86zM31 86zM32 86zM33 86zM34 86zM35 86zM36 86zM37 86zM38 86zM39 86zM40 86zM41 86zM42 86zM43 86zM44 86zM45 86zM46 86zM47 86zM48 86zM49 86zM50 86zM51 86zM52 86zM53 86zM54 86zM55 86zM56 86zM57 86zM58 86zM59 86zM60 86zM61 86zM62 86zM63 86zM64 86zM32 87zM33 87zM34 87zM35 87zM36 87zM37 87zM38 87zM39 87zM40 87zM41 87zM42 87zM43 87zM44 87zM45 87zM46 87zM47 87zM48 87zM49 87zM50 87zM51 87zM52 87zM53 87zM54 87zM55 87zM56 87zM57 87zM58 87zM59 87zM60 87zM61 87zM62 87zM63 87zM64 87zM37 88zM38 88zM39 88zM40 88zM41 88zM42 88zM43 88zM44 88zM45 88zM46 88zM47 88zM48 88zM49 88zM50 88zM51 88zM52 88zM53 88zM54 88zM55 88zM56 88zM57 88zM58 88zM59 88zM60 88zM61 88zM62 88zM63 88zM64 88zM65 88zM36 89zM43 89zM44 89zM45 89zM46 89zM47 89zM48 89zM49 89zM50 89zM51 89zM52 89zM53 89zM54 89zM55 89zM56 89zM57 89zM58 89zM59 89zM60 89zM61 89zM62 89zM63 89zM64 89zM49 90zM50 90zM51 90zM52 90zM53 90zM54 90zM55 90zM56 90zM57 90zM58 90zM59 90zM60 90zM61 90zM62 90zM63 90zM64 90zM54 91zM55 91zM56 91zM57 91zM58 91zM59 91zM60 91zM61 91zM62 91zM63 91zM64 91zM53 92zM60 92zM61 92zM62 92zM63 92zM64 92z"/>
<path stroke-width="0.35" d="M54 2zM45 6zM64 7zM53 8zM71 9zM34 10zM33 11zM34 11zM36 11zM37 11zM55 11zM56 11zM55 12zM57 12zM58 12zM56 18zM51 20zM57 20zM29 21zM40 21zM48 22zM49 22zM50 22zM51 22zM52 22zM53 22zM54 22zM39 24zM61 24zM39 26zM61 26zM39 27zM62 29zM80 29zM62 31zM62 32zM63 35zM63 37zM32 38zM41 38zM42 39zM45 39zM48 39zM63 39zM56 40zM59 40zM42 52zM74 54zM81 54zM42 55zM38 56zM75 58zM84 61zM75 62zM90 62zM17 63zM18 64zM25 64zM72 64zM83 64zM6 65zM72 65zM77 66zM31 67zM80 67zM40 68zM41 68zM42 68zM43 68zM44 68zM50 68zM65 68zM66 68zM43 69zM44 69zM58 69zM59 69zM50 70zM51 70zM55 70zM59 71zM68 71zM21 72zM70 72zM18 73zM52 73zM59 74zM60 74zM61 74zM62 74zM39 76zM46 76zM51 77zM14 78zM19 78zM29 80zM47 81zM45 82zM4 83zM48 83zM55 83zM13 85zM30 88zM47 91zM79 92zM64 94z"/>
<path stroke-width="0.32" d="M55 2zM28 7zM29 11zM45 11zM46 11zM47 11zM48 11zM51 11zM66 12zM67 12zM68 12zM89 12zM54 18zM78 18zM30 19zM78 21zM26 30zM80 34zM96 36zM28 41zM82 52zM52 56zM62 58zM68 59zM63 60zM63 61zM65 61zM74 61zM16 62zM67 62zM74 62zM11 63zM13 63zM83 63zM84 63zM77 64zM78 64zM14 65zM31 65zM7 66zM20 66zM25 66zM13 67zM48 68zM71 68zM41 69zM47 69zM65 69zM71 69zM7 70zM31 70zM57 70zM65 70zM13 71zM14 71zM37 71zM40 71zM44 72zM50 73zM26 74zM58 74zM41 75zM38 76zM61 78zM25 79zM46 79zM55 79zM51 80zM37 81zM50 83zM29 88zM46 91zM77 93zM63 94z"/>
<path stroke-width="0.27" d="M56 2zM41 6zM38 7zM56 8zM80 8zM74 9zM93 14zM44 19zM45 19zM46 19zM25 25zM80 31zM80 32zM81 36zM81 39zM33 42zM98 43zM41 50zM46 51zM60 54zM38 55zM17 61zM80 61zM82 61zM51 65zM5 66zM26 66zM73 66zM75 67zM14 68zM25 68zM26 68zM29 68zM30 68zM60 68zM4 69zM30 69zM31 69zM38 69zM52 69zM55 69zM27 70zM37 70zM46 70zM43 71zM54 71zM63 71zM57 73zM43 75zM56 77zM63 78zM11 85zM28 88zM39 90zM45 91z"/>
<path stroke-width="0.21" d="M57 2zM40 7zM76 9zM30 21zM95 27zM26 31zM33 38zM33 40zM98 44zM98 50zM54 53zM55 53zM57 53zM58 53zM37 55zM58 58zM60 58zM60 59zM64 59zM65 59zM18 62zM83 62zM92 62zM86 63zM7 64zM29 65zM46 67zM75 69zM40 70zM43 70zM96 70zM45 71zM46 71zM51 71zM88 71zM96 71zM27 72zM28 72zM29 72zM36 72zM52 72zM60 72zM96 72zM34 73zM42 73zM43 73zM44 73zM45 73zM96 73zM45 74zM46 74zM47 74zM96 74zM51 75zM52 75zM53 75zM55 75zM56 75zM57 75zM58 75zM65 75zM78 75zM96 75zM20 76zM35 76zM56 76zM58 76zM62 76zM63 76zM96 76zM67 77zM68 77zM96 77zM96 78zM96 79zM21 87z"/>
<path stroke-width="0.15" d="M58 2zM44 7zM55 7zM74 8zM80 9zM91 12zM92 13zM97 36zM36 47zM98 47zM37 48zM98 48zM79 54zM76 55zM98 58zM63 64zM63 68zM79 69zM76 72zM63 73zM80 75zM33 76zM43 81zM14 86zM31 89zM48 92zM66 95zM70 95z"/>
<path stroke-width="0.09" d="M59 2zM28 6zM67 8zM69 8zM70 8zM25 27zM27 38zM97 39zM65 62zM62 64zM90 64zM26 65zM30 66zM33 66zM34 66zM62 66zM55 67zM78 68zM75 71zM74 72zM79 75zM41 78zM35 79zM37 80zM3 83zM16 88zM30 90zM47 93zM53 94z"/>
<path stroke-width="0.03" d="M60 2zM95 24zM61 63zM62 63zM63 63zM4 65zM56 65zM51 66zM52 67zM52 68zM72 70zM76 71zM78 71zM72 73zM73 73zM93 85zM21 89zM80 92z"/>
<path stroke-width="0.41" d="M33 3zM32 5zM38 5zM39 5zM49 6zM50 6zM56 6zM58 6zM59 6zM32 7zM69 7zM75 7zM76 7zM77 7zM78 7zM79 7zM95 7zM51 8zM86 8zM39 10zM93 10zM60 11zM71 13zM30 15zM28 16zM49 16zM30 17zM43 17zM45 17zM46 17zM47 17zM77 17zM58 19zM43 20zM44 20zM45 20zM46 20zM47 20zM49 20zM72 20zM31 21zM94 21zM29 22zM40 22zM79 22zM31 23zM40 23zM42 23zM44 23zM46 23zM49 23zM45 24zM51 24zM53 24zM60 24zM46 25zM48 25zM50 25zM52 25zM54 25zM56 25zM42 26zM46 26zM47 26zM49 26zM51 26zM53 26zM73 26zM41 27zM43 27zM45 27zM48 27zM52 27zM54 27zM58 27zM44 28zM46 28zM51 28zM53 28zM55 28zM43 29zM45 29zM47 29zM50 29zM52 29zM54 29zM56 29zM58 29zM60 29zM61 29zM95 29zM42 30zM44 30zM46 30zM48 30zM52 30zM53 30zM55 30zM57 30zM59 30zM43 31zM47 31zM49 31zM51 31zM54 31zM56 31zM58 31zM33 32zM44 32zM46 32zM48 32zM52 32zM59 32zM61 32zM74 32zM43 33zM53 33zM56 33zM58 33zM61 33zM97 33zM33 34zM41 34zM42 34zM44 34zM46 34zM48 34zM50 34zM52 34zM54 34zM58 34zM59 34zM43 35zM45 35zM47 35zM49 35zM51 35zM53 35zM55 35zM57 35zM60 35zM42 36zM44 36zM46 36zM48 36zM50 36zM52 36zM54 36zM56 36zM80 36zM42 37zM51 37zM53 37zM57 37zM59 37zM62 37zM96 37zM44 38zM46 38zM47 38zM48 38zM49 38zM52 38zM54 38zM56 38zM60 39zM75 39zM82 40zM35 43zM83 47zM30 49zM43 50zM45 50zM46 50zM99 50zM37 51zM52 51zM53 51zM77 51zM37 52zM61 52zM62 52zM34 53zM44 53zM70 53zM77 53zM50 54zM51 54zM52 54zM53 54zM60 55zM69 56zM70 56zM71 56zM60 57zM61 57zM62 57zM66 58zM68 58zM62 61zM73 61zM25 73zM16 74zM28 74zM33 75zM38 75zM43 76zM15 77zM23 79zM47 79zM67 79zM28 80zM66 80zM30 81zM33 81zM34 81zM67 81zM36 82zM37 82zM38 82zM40 82zM41 82zM6 83zM45 83zM66 83zM10 84zM12 84zM66 84zM15 85zM17 85zM21 86zM26 87zM29 87zM66 87zM32 88zM34 88zM38 89zM43 90zM44 90zM46 90zM66 90zM67 90zM51 91zM66 91zM55 92zM66 92zM67 92zM60 93zM62 93zM63 93zM66 93zM73 94z"/>
<path stroke-width="0.34" d="M74 3zM35 7zM63 7zM82 8zM30 10zM32 10zM33 10zM38 11zM39 11zM40 11zM53 11zM54 11zM59 12zM60 12zM61 12zM28 15zM42 18zM55 18zM42 19zM56 20zM78 22zM32 30zM41 35zM81 35zM41 37zM44 39zM34 41zM82 41zM97 44zM48 51zM56 52zM49 53zM57 54zM73 54zM41 55zM43 55zM44 55zM48 55zM49 55zM66 55zM51 56zM55 57zM72 57zM81 60zM15 62zM76 62zM12 63zM69 63zM81 63zM82 63zM89 63zM9 64zM63 65zM76 65zM77 65zM21 66zM68 66zM72 66zM78 66zM32 67zM34 68zM45 68zM46 68zM47 68zM72 68zM73 68zM42 69zM45 69zM6 70zM49 70zM12 71zM57 71zM58 71zM20 72zM22 72zM45 72zM16 73zM27 73zM53 73zM33 74zM40 75zM17 77zM47 77zM77 77zM59 78zM55 80zM36 81zM55 81zM55 82zM51 83zM7 84zM53 84zM24 87zM41 90zM58 93z"/>
<path stroke-width="0.28" d="M75 3zM42 6zM37 7zM61 7zM55 8zM86 9zM28 10zM49 17zM45 18zM47 18zM52 18zM29 20zM79 26zM96 26zM31 31zM32 31zM80 33zM34 42zM82 42zM82 46zM29 47zM82 47zM82 49zM43 52zM54 52zM103 52zM62 53zM70 54zM39 55zM68 55zM69 55zM56 57zM67 59zM64 60zM16 61zM73 62zM88 62zM91 62zM71 63zM74 63zM24 64zM66 64zM67 64zM69 64zM81 64zM79 65zM67 66zM8 67zM19 67zM20 67zM21 67zM22 67zM23 67zM24 67zM34 67zM76 67zM23 68zM24 68zM31 68zM20 69zM21 69zM29 69zM39 69zM72 69zM9 70zM28 70zM35 70zM36 70zM63 70zM68 70zM16 71zM35 71zM42 71zM66 71zM42 72zM49 72zM63 72zM20 73zM29 73zM49 73zM76 73zM36 74zM56 74zM64 74zM50 76zM46 77zM50 79zM49 80zM50 80zM50 81zM95 82zM62 94z"/>
<path stroke-width="0.22" d="M76 3zM58 7zM77 8zM23 12zM29 15zM43 18zM95 19zM30 24zM31 30zM32 35zM28 42zM44 51zM51 52zM35 54zM73 57zM62 62zM20 63zM22 65zM7 69zM8 69zM15 70zM41 70zM42 70zM21 71zM22 71zM52 71zM30 72zM31 72zM32 72zM33 72zM34 72zM35 72zM37 72zM38 72zM32 73zM33 73zM37 73zM39 73zM40 73zM41 73zM59 73zM39 74zM52 74zM29 75zM45 75zM61 76zM64 76zM59 77zM38 90zM55 93z"/>
<path stroke-width="0.17" d="M77 3zM33 6zM34 6zM36 6zM42 7zM43 7zM60 8zM78 9zM100 13zM101 19zM25 26zM27 37zM34 44zM98 45zM104 46zM98 49zM41 51zM82 51zM81 52zM78 56zM28 57zM76 57zM74 58zM97 58zM38 66zM39 66zM46 66zM84 66zM38 67zM39 67zM40 67zM41 67zM42 67zM43 67zM51 67zM65 67zM82 67zM58 68zM92 68zM63 69zM90 69zM55 72zM56 72zM78 72zM24 74zM68 74zM74 74zM82 74zM28 75zM44 77zM73 77zM76 77zM28 79zM34 80zM42 81zM9 85zM20 87zM37 90zM54 93zM75 94zM67 95z"/>
<path stroke-width="0.06" d="M79 3zM84 9zM88 11zM91 63zM57 64zM93 64zM75 65zM75 66zM58 67zM60 67zM54 68zM77 68zM73 70zM78 70zM73 71zM74 71zM25 75zM29 76zM35 77zM36 77zM26 78zM27 78zM32 79zM39 80zM40 80zM10 86zM11 86zM91 86zM15 87zM16 87zM21 88zM22 88zM27 89zM32 90zM33 90zM38 91zM39 91zM44 92zM50 93zM55 94zM56 94zM61 95zM68 96zM69 96z"/>
<path stroke-width="0.33" d="M31 4zM44 6zM29 7zM72 9zM31 10zM41 11zM42 11zM43 11zM44 11zM49 11zM50 11zM52 11zM29 12zM62 12zM63 12zM64 12zM65 12zM70 12zM51 18zM79 28zM31 32zM97 34zM81 41zM35 45zM34 46zM64 53zM45 55zM46 55zM47 55zM54 56zM63 58zM73 59zM94 61zM17 62zM89 62zM75 63zM76 63zM8 64zM10 64zM79 64zM7 65zM15 65zM16 65zM19 65zM21 65zM67 65zM8 66zM9 66zM26 67zM49 67zM68 67zM73 67zM46 69zM51 69zM57 69zM73 69zM32 70zM56 70zM60 70zM38 71zM39 71zM56 71zM46 72zM47 72zM65 72zM17 73zM51 73zM54 73zM63 74zM31 75zM47 76zM50 77zM53 77zM60 78zM51 79zM30 80zM46 80zM51 81zM46 82zM49 83zM18 86zM35 89zM52 92z"/><path stroke-width="0.25" d="M90 4zM75 9zM28 13zM30 25zM33 37zM45 51zM44 52zM52 53zM61 54zM71 58zM40 60zM13 62zM88 66zM91 66zM4 67zM6 68zM28 68zM94 68zM96 68zM5 69zM18 69zM11 70zM26 70zM45 70zM80 70zM53 71zM62 71zM80 71zM61 72zM30 73zM69 73zM20 74zM26 79zM32 80zM39 81zM5 84z"/>
<path stroke-width="0.42" d="M30 5zM33 5zM34 5zM35 5zM36 5zM37 5zM51 6zM53 6zM54 6zM55 6zM57 6zM70 7zM72 7zM73 7zM74 7zM84 8zM85 8zM69 9zM40 10zM61 11zM62 11zM92 11zM93 11zM44 17zM51 17zM72 19zM43 23zM45 23zM47 23zM40 24zM41 24zM42 24zM43 24zM44 24zM47 24zM49 24zM55 24zM57 24zM58 24zM59 24zM42 25zM43 25zM44 25zM45 25zM47 25zM51 25zM53 25zM55 25zM58 25zM73 25zM43 26zM44 26zM45 26zM48 26zM54 26zM56 26zM59 26zM32 27zM42 27zM44 27zM46 27zM47 27zM49 27zM50 27zM55 27zM32 28zM43 28zM45 28zM47 28zM48 28zM49 28zM50 28zM58 28zM26 29zM44 29zM46 29zM49 29zM51 29zM59 29zM45 30zM47 30zM49 30zM50 30zM51 30zM79 30zM44 31zM46 31zM52 31zM53 31zM55 31zM60 31zM41 32zM42 32zM47 32zM51 32zM53 32zM54 32zM55 32zM56 32zM57 32zM45 33zM50 33zM52 33zM54 33zM55 33zM57 33zM60 33zM43 34zM51 34zM55 34zM56 34zM57 34zM60 34zM61 34zM44 35zM52 35zM56 35zM58 35zM59 35zM61 35zM43 36zM45 36zM47 36zM53 36zM55 36zM58 36zM59 36zM60 36zM47 37zM49 37zM54 37zM56 37zM58 37zM60 37zM61 37zM34 38zM42 38zM50 38zM51 38zM58 38zM60 38zM75 38zM34 39zM76 44zM97 45zM39 48zM41 49zM44 50zM77 50zM38 51zM51 51zM40 52zM41 52zM59 52zM60 52zM45 53zM46 53zM68 53zM69 53zM54 54zM61 55zM62 55zM83 55zM40 56zM73 56zM54 57zM59 57zM71 57zM67 58zM83 59zM77 60zM80 60zM30 74zM83 74zM37 75zM14 77zM21 79zM52 79zM25 80zM26 80zM27 80zM3 81zM31 81zM32 81zM39 82zM52 82zM67 82zM67 83zM11 84zM67 84zM16 85zM67 85zM90 85zM22 86zM23 86zM67 86zM27 87zM28 87zM67 87zM33 88zM67 88zM39 89zM40 89zM67 89zM45 90zM49 91zM50 91zM67 91zM56 92zM57 92zM61 93zM67 93z"/><path stroke-width="0.43" d="M31 5zM52 6zM71 7zM88 9zM95 9zM41 10zM90 10zM94 10zM63 11zM30 16zM72 18zM95 18zM31 22zM41 23zM46 24zM52 24zM56 24zM73 24zM78 24zM41 25zM49 25zM57 25zM41 26zM50 26zM52 26zM58 26zM60 26zM51 27zM53 27zM57 27zM59 27zM30 28zM41 28zM52 28zM54 28zM56 28zM42 29zM53 29zM55 29zM57 29zM41 30zM43 30zM56 30zM58 30zM60 30zM48 31zM57 31zM59 31zM74 31zM49 32zM58 32zM33 33zM48 33zM59 33zM45 34zM47 34zM49 34zM53 34zM46 35zM48 35zM50 35zM54 35zM49 36zM51 36zM57 36zM61 36zM45 37zM46 37zM48 37zM50 37zM52 37zM75 37zM55 38zM32 39zM62 39zM28 40zM98 41zM76 43zM40 49zM77 49zM83 53zM38 54zM82 54zM48 56zM72 56zM79 56zM97 57zM69 58zM59 59zM84 59zM19 60zM39 60zM18 61zM70 62zM68 63zM78 67zM74 68zM15 72zM15 73zM85 73zM52 78zM22 79zM68 79zM52 80zM67 80zM52 81zM54 81zM54 82z"/>
<path stroke-width="0.13" d="M93 5zM45 7zM85 9zM95 26zM96 28zM26 32zM28 43zM98 57zM72 59zM70 60zM20 64zM23 65zM91 65zM36 66zM63 66zM64 67zM57 68zM71 71zM72 74zM22 75zM22 76zM23 76zM24 76zM25 76zM26 76zM32 76zM25 77zM26 77zM27 77zM28 77zM29 77zM30 77zM31 77zM40 77zM74 77zM31 78zM32 78zM33 78zM34 78zM35 78zM36 78zM37 78zM38 78zM37 79zM38 79zM39 79zM40 79zM41 79zM42 79zM43 79zM44 79zM44 81zM6 86zM17 88zM86 88zM22 89zM28 90zM33 91zM34 91zM38 92zM39 92zM44 93zM45 93zM49 94zM50 94zM54 95zM55 95zM64 95zM71 95zM60 96zM61 96zM62 96z"/>
<path stroke-width="0.29" d="M29 6zM73 9zM29 13zM28 14zM46 18zM24 19zM43 19zM48 19zM79 25zM30 26zM80 30zM32 37zM81 40zM59 54zM71 54zM57 57zM24 58zM61 58zM21 59zM69 59zM62 60zM69 61zM77 63zM82 64zM68 65zM9 67zM18 67zM48 67zM74 67zM15 68zM22 69zM70 69zM8 70zM47 70zM55 71zM23 72zM56 73zM35 74zM42 75zM37 76zM55 77zM51 78zM62 78zM49 79zM31 80zM48 80zM38 81zM49 81zM51 82zM6 84zM17 86zM34 89zM51 92z"/>
<path stroke-width="0.19" d="M31 6zM77 9zM30 22zM30 23zM32 34zM75 61zM81 61zM66 63zM75 64zM40 66zM59 68zM53 69zM47 71zM49 71zM50 71zM84 72zM41 74zM42 74zM48 75zM49 75zM20 77zM89 86z"/>
<path stroke-width="0.20" d="M38 6zM41 7zM57 7zM58 8zM76 8zM29 10zM23 14zM94 16zM29 18zM50 18zM52 19zM54 19zM56 19zM24 20zM31 27zM96 27zM31 29zM32 33zM33 39zM97 42zM43 51zM46 52zM47 52zM48 52zM49 52zM50 52zM56 53zM80 53zM98 54zM75 55zM62 59zM63 59zM84 62zM86 64zM86 65zM27 66zM41 66zM42 66zM43 66zM44 66zM85 66zM37 67zM45 67zM83 67zM51 68zM80 68zM81 68zM19 71zM48 71zM59 72zM86 72zM35 73zM36 73zM60 73zM64 73zM70 73zM82 73zM40 74zM43 74zM44 74zM48 74zM49 74zM50 74zM51 74zM69 74zM80 74zM46 75zM47 75zM50 75zM67 75zM52 76zM53 76zM54 76zM55 76zM57 76zM76 76zM60 77zM61 77zM62 77zM63 77zM64 77zM65 77zM66 77zM69 77zM70 77zM71 77zM27 79zM33 80zM41 81zM15 86zM32 89zM49 92z"/>
<path stroke-width="0.24" d="M40 6zM27 7zM39 7zM59 7zM78 8zM23 13zM55 19zM31 26zM97 35zM33 41zM97 43zM82 44zM60 53zM71 55zM72 55zM76 60zM18 63zM60 63zM79 63zM73 64zM73 65zM94 65zM3 66zM83 66zM89 66zM90 66zM93 66zM6 67zM81 67zM5 68zM7 68zM10 68zM11 68zM91 68zM12 69zM14 69zM15 69zM16 69zM17 69zM33 69zM34 69zM36 69zM89 69zM96 69zM12 70zM25 70zM38 70zM62 70zM87 70zM32 71zM33 71zM85 71zM39 72zM40 72zM83 72zM81 73zM25 74zM37 74zM54 74zM70 74zM79 74zM61 75zM71 75zM74 75zM77 75zM51 76zM57 77zM48 78zM65 78zM71 78zM49 82zM16 86zM33 89zM50 92z"/>
<path stroke-width="0.30" d="M43 6zM62 7zM81 8zM53 18zM78 19zM78 20zM101 20zM31 25zM79 27zM95 28zM33 43zM82 48zM50 53zM63 53zM37 56zM65 60zM66 60zM72 62zM80 62zM70 63zM72 63zM73 63zM17 64zM19 64zM65 64zM80 64zM5 65zM8 65zM78 65zM80 65zM6 66zM12 66zM13 66zM14 66zM15 66zM16 66zM17 66zM18 66zM10 67zM15 67zM16 67zM17 67zM25 67zM33 67zM16 68zM17 68zM20 68zM21 68zM22 68zM32 68zM3 69zM27 69zM28 69zM40 69zM56 69zM64 69zM69 69zM29 70zM34 70zM64 70zM67 70zM69 70zM15 71zM36 71zM41 71zM61 71zM67 71zM43 72zM48 72zM64 72zM28 73zM57 74zM49 76zM48 77zM49 77zM54 77zM21 78zM73 78zM48 81zM3 82zM23 87zM84 89zM40 90zM57 93zM74 94z"/>
<path stroke-width="0.36" d="M46 6zM34 7zM65 7zM88 8zM90 9zM35 10zM30 11zM31 11zM32 11zM35 11zM52 12zM53 12zM54 12zM56 12zM70 13zM70 14zM70 15zM51 16zM70 16zM41 17zM50 17zM70 17zM78 17zM70 18zM70 19zM41 20zM55 20zM71 20zM39 21zM42 21zM71 21zM38 22zM43 22zM45 22zM46 22zM47 22zM55 22zM56 22zM71 22zM38 23zM59 23zM71 23zM79 23zM31 24zM71 24zM61 25zM71 25zM72 26zM30 27zM72 27zM39 28zM61 28zM72 28zM39 29zM72 29zM40 30zM62 30zM72 30zM72 31zM40 32zM73 32zM40 33zM73 33zM40 34zM62 34zM73 34zM73 35zM80 35zM40 36zM63 36zM73 36zM74 36zM73 37zM63 38zM74 38zM43 39zM46 39zM47 39zM50 39zM74 39zM53 40zM54 40zM55 40zM57 40zM58 40zM60 40zM61 40zM62 40zM74 40zM74 41zM74 42zM98 42zM74 43zM36 44zM74 44zM75 45zM75 46zM39 47zM75 47zM40 48zM75 48zM75 49zM75 50zM76 51zM76 52zM99 52zM39 53zM48 53zM65 53zM75 54zM76 54zM77 54zM78 54zM50 55zM51 55zM65 55zM55 56zM69 57zM71 62zM77 62zM59 63zM54 64zM20 65zM22 66zM24 66zM76 66zM27 67zM35 68zM38 68zM39 68zM5 70zM11 71zM60 71zM13 73zM23 73zM68 73zM13 74zM17 74zM18 74zM27 74zM13 75zM13 76zM13 77zM16 77zM15 78zM17 78zM18 78zM20 78zM74 78zM19 79zM24 79zM22 80zM5 82zM44 82zM65 83zM54 84zM87 87z"/>
<path stroke-width="0.31" d="M36 7zM54 8zM69 12zM48 18zM57 19zM94 20zM79 24zM33 36zM39 49zM47 51zM55 52zM58 54zM72 54zM40 55zM67 55zM36 56zM53 56zM74 56zM71 60zM83 61zM14 62zM14 63zM15 63zM16 63zM80 63zM11 64zM12 64zM13 64zM14 64zM15 64zM16 64zM68 64zM70 64zM71 64zM76 64zM9 65zM10 65zM11 65zM12 65zM13 65zM17 65zM18 65zM69 65zM70 65zM71 65zM10 66zM11 66zM19 66zM69 66zM70 66zM71 66zM11 67zM12 67zM14 67zM67 67zM69 67zM70 67zM71 67zM72 67zM77 67zM18 68zM19 68zM33 68zM49 68zM67 68zM68 68zM69 68zM70 68zM23 69zM24 69zM25 69zM26 69zM48 69zM49 69zM50 69zM66 69zM67 69zM68 69zM30 70zM33 70zM48 70zM58 70zM59 70zM66 70zM64 71zM65 71zM22 73zM55 73zM34 74zM48 76zM48 79zM96 80zM46 81zM47 82zM12 85z"/>
<path stroke-width="0.11" d="M46 7zM47 7zM52 7zM72 8zM104 47zM29 48zM61 59zM29 66zM48 66zM53 67zM62 67zM95 67zM56 68zM30 78zM39 78zM36 79zM12 87zM18 88zM24 88zM23 89zM29 90zM35 91zM41 91zM40 92zM46 93zM76 95zM63 96zM72 96z"/>
<path stroke-width="0.12" d="M53 7zM63 8zM73 8zM94 19zM24 21zM97 37zM38 49zM39 50zM70 59zM68 61zM22 64zM27 65zM89 65zM27 75zM75 77zM24 78zM29 79zM13 86zM11 87zM30 89zM27 90zM47 92zM51 94zM58 94zM56 95zM57 95z"/>
<path stroke-width="0.14" d="M54 7zM96 7zM61 8zM62 8zM81 9zM23 15zM51 19zM96 34zM97 41zM34 45zM98 46zM36 48zM98 55zM66 62zM56 64zM87 65zM88 65zM92 65zM37 66zM47 66zM64 66zM74 70zM77 72zM73 74zM78 76zM41 77zM42 77zM35 80zM8 85zM19 87zM25 88zM36 90zM42 91zM53 93zM59 94zM65 95z"/>
<path stroke-width="0.26" d="M60 7zM79 8zM28 11zM90 11zM28 12zM29 14zM47 19zM49 19zM30 20zM27 36zM32 36zM81 37zM81 38zM82 43zM82 45zM38 50zM40 51zM53 52zM98 52zM51 53zM61 53zM69 54zM70 55zM74 55zM100 56zM87 62zM64 64zM30 65zM85 65zM4 66zM87 66zM92 66zM3 67zM7 67zM35 67zM47 67zM12 68zM13 68zM27 68zM75 68zM19 69zM32 69zM37 69zM61 69zM80 69zM10 70zM17 71zM34 71zM24 72zM41 72zM50 72zM62 72zM48 73zM77 73zM78 73zM55 74zM67 74zM20 75zM30 75zM62 75zM63 75zM64 75zM72 75zM73 75zM36 76zM46 78zM64 78zM72 78zM48 82zM50 82zM22 87zM56 93z"/>
<path stroke-width="0.59" d="M27 8zM28 9zM30 9zM53 10zM96 14zM88 18zM88 20zM88 23zM29 24zM75 25zM88 26zM89 28zM89 30zM89 31zM27 33zM90 33zM90 39zM96 39zM90 40zM91 41zM29 44zM78 44zM91 44zM91 46zM91 47zM33 48zM92 52zM92 53zM92 55zM93 58zM44 59zM93 59zM42 60zM43 60zM42 61zM40 63zM38 64zM39 64zM53 82zM73 82zM73 87zM73 90zM73 92z"/>
<path stroke-width="0.76" d="M28 8zM42 9zM62 10zM77 10zM88 13zM27 17zM100 17zM93 19zM25 20zM26 21zM28 21zM76 21zM28 22zM93 22zM97 22zM101 25zM77 27zM94 30zM98 37zM102 37zM95 38zM79 39zM96 45zM103 49zM97 50zM97 53zM97 54zM94 60zM86 74zM84 75zM86 86z"/>
<path stroke-width="0.84" d="M29 8zM36 8zM48 9zM55 9zM67 10zM84 11zM31 49zM84 88z"/>
<path stroke-width="0.85" d="M30 8zM35 8zM26 9zM72 10zM87 12zM93 82zM87 86zM82 89zM79 91z"/>
<path stroke-width="0.88" d="M31 8zM51 9zM52 9zM70 10z"/>
<path stroke-width="0.87" d="M32 8zM33 8zM71 10z"/>
<path stroke-width="0.86" d="M34 8zM49 9zM50 9zM53 9zM54 9zM68 10zM69 10zM89 13zM90 14zM90 84z"/>
<path stroke-width="0.83" d="M37 8zM47 9zM56 9zM66 10zM73 10zM25 18zM26 23zM97 25zM97 26zM27 29zM28 34zM98 34zM99 42zM80 43zM99 43zM91 71zM89 72zM85 87z"/>
<path stroke-width="0.81" d="M38 8zM57 9zM58 9zM64 10zM85 11zM96 18zM25 19zM97 24zM27 28zM78 30zM29 41zM99 41zM80 42zM80 44zM99 44zM100 50zM100 53zM81 56zM61 61zM78 61zM95 69zM95 81zM80 90zM81 90z"/>
<path stroke-width="0.80" d="M39 8zM74 10zM83 11zM92 17zM76 18zM76 19zM96 19zM93 20zM97 23zM77 24zM26 25zM97 27zM98 32zM28 36zM98 36zM29 39zM99 40zM96 44zM30 47zM100 49zM102 53zM77 78zM91 83z"/>
<path stroke-width="0.78" d="M40 8zM59 9zM75 10zM24 13zM27 15zM27 16zM76 20zM93 21zM94 27zM97 28zM78 29zM94 29zM27 31zM98 31zM96 42zM30 44zM80 45zM99 45zM100 48zM32 50zM97 51zM97 52zM102 52zM101 54zM79 57zM81 58zM96 58zM59 62zM60 62zM50 64zM83 88zM76 92z"/>
<path stroke-width="0.74" d="M41 8zM61 10zM78 10zM80 11zM81 11zM88 12zM24 14zM27 14zM100 19zM100 20zM97 21zM94 26zM101 26zM29 28zM101 28zM101 29zM98 30zM78 33zM102 38zM103 43zM103 44zM96 46zM100 47zM103 48zM97 49zM56 59zM94 69zM92 70zM92 71zM90 72zM88 73zM75 79z"/>
<path stroke-width="0.71" d="M42 8zM61 9zM27 10zM75 11zM76 11zM26 12zM75 12zM25 13zM75 13zM77 13zM78 13zM99 13zM75 14zM77 14zM79 14zM80 14zM81 14zM82 14zM83 14zM84 14zM85 14zM86 14zM87 14zM75 16zM76 16zM95 16zM96 17zM27 19zM28 24zM93 24zM100 24zM94 25zM78 28zM98 28zM28 31zM99 36zM31 38zM80 40zM102 42zM100 45zM81 47zM30 48zM80 48zM81 49zM102 50zM33 51zM80 56zM81 57zM52 58zM60 61zM48 64zM42 65zM43 65zM44 65z"/>
<path stroke-width="0.69" d="M43 8zM38 9zM24 11zM27 13zM87 13zM26 14zM99 14zM24 15zM76 15zM84 15zM85 15zM86 15zM88 15zM90 15zM98 16zM75 17zM27 20zM27 23zM27 24zM76 24zM28 25zM98 25zM28 26zM98 26zM28 27zM28 28zM28 29zM77 30zM30 31zM77 31zM27 32zM99 34zM29 35zM29 36zM78 36zM31 37zM95 40zM96 40zM79 41zM103 41zM79 42zM100 42zM29 43zM79 43zM100 43zM32 44zM96 48zM97 48zM103 51zM34 52zM101 52zM96 56zM51 58zM54 58zM55 59zM76 59zM56 62zM46 64zM47 64zM40 65zM41 65zM45 65zM95 70zM93 71zM91 72zM89 73zM84 74zM87 74zM85 75zM83 76zM82 77zM79 78zM80 78zM74 79zM77 79zM91 82zM77 83zM90 83zM77 84zM88 84zM86 85zM77 86zM85 86zM77 87zM77 88zM82 88zM77 89zM80 89zM78 90zM79 90zM73 93zM75 93z"/>
<path stroke-width="0.65" d="M44 8zM35 9zM63 9zM56 10zM74 15zM79 15zM80 15zM87 16zM91 17zM91 19zM92 22zM92 23zM94 24zM76 28zM93 28zM93 29zM93 30zM93 31zM93 32zM93 34zM93 35zM94 36zM30 37zM94 37zM28 38zM94 38zM78 40zM103 40zM31 42zM32 42zM94 43zM31 44zM95 44zM94 45zM95 45zM95 46zM79 47zM95 47zM95 50zM32 51zM95 51zM95 52zM48 57zM53 59zM49 60zM56 60zM93 60zM58 61zM54 62zM44 63zM47 63zM75 80zM75 81zM75 82zM75 83zM75 85zM75 86zM75 87zM75 88zM75 89zM75 91z"/>
<path stroke-width="0.62" d="M45 8zM98 10zM85 16zM90 21zM90 22zM90 23zM90 24zM90 25zM91 28zM91 29zM91 30zM91 31zM91 32zM77 36zM92 37zM92 38zM92 39zM98 39zM92 40zM93 46zM93 47zM93 48zM32 49zM79 49zM93 49zM79 53zM94 53zM94 54zM94 55zM94 56zM48 58zM47 59zM78 59zM46 60zM40 62zM44 62zM43 63zM42 64zM37 65zM76 78zM74 80zM74 81zM74 82zM74 83zM74 84zM74 85zM74 86zM74 87zM74 88zM74 89zM74 90zM74 91z"/>
<path stroke-width="0.58" d="M46 8zM31 9zM52 10zM71 11zM98 12zM73 13zM97 13zM73 14zM82 16zM87 17zM74 20zM87 20zM88 21zM25 22zM88 22zM94 23zM88 24zM88 25zM75 26zM88 27zM88 28zM89 29zM95 31zM76 32zM89 32zM89 33zM89 34zM89 37zM90 37zM90 38zM77 39zM32 41zM90 41zM90 42zM90 43zM78 45zM91 45zM33 47zM91 48zM33 49zM91 49zM91 50zM91 51zM91 52zM91 53zM92 54zM92 56zM43 57zM51 57zM92 57zM45 58zM92 58zM92 59zM38 60zM92 60zM41 61zM41 62zM39 63zM30 64zM31 64zM32 64zM34 64zM48 65zM53 79zM71 93z"/>
<path stroke-width="0.56" d="M47 8zM50 10zM51 10zM97 12zM93 13zM96 13zM95 14zM73 15zM81 16zM85 17zM86 17zM86 18zM86 19zM86 21zM86 22zM87 23zM87 26zM75 27zM87 27zM75 28zM87 28zM87 29zM87 30zM88 31zM79 32zM76 34zM88 34zM88 35zM88 36zM88 37zM80 38zM88 38zM88 39zM89 39zM77 41zM89 42zM89 43zM89 44zM33 45zM89 45zM89 46zM78 47zM90 47zM34 48zM90 50zM90 51zM90 52zM90 53zM90 54zM90 55zM39 57zM41 57zM42 57zM99 57zM40 58zM41 59zM91 59zM74 60zM91 60zM71 61zM88 61zM93 61zM24 63zM38 63zM53 78zM72 81zM72 82zM72 83zM72 84zM72 85zM72 86zM72 87zM72 88zM72 89zM72 90zM72 91zM72 92z"/>
<path stroke-width="0.52" d="M48 8zM47 10zM68 11zM69 11zM94 15zM73 18zM84 18zM84 20zM84 21zM84 23zM84 24zM84 25zM85 28zM30 29zM85 29zM85 30zM75 31zM85 32zM97 32zM85 33zM86 36zM86 37zM86 38zM103 39zM86 40zM86 41zM77 43zM87 45zM87 46zM87 48zM87 49zM78 50zM83 51zM88 52zM36 53zM88 53zM88 54zM88 55zM88 56zM88 57zM38 59zM40 59zM81 59zM69 62zM34 63zM85 64zM19 76zM70 80zM70 93z"/>
<path stroke-width="0.48" d="M49 8zM45 10zM93 12zM72 14zM81 17zM82 19zM73 20zM79 20zM82 22zM82 23zM82 24zM96 24zM78 25zM80 25zM82 25zM74 26zM80 26zM74 27zM81 30zM83 31zM83 32zM75 33zM83 33zM76 39zM84 39zM84 40zM84 41zM85 44zM77 46zM85 46zM85 47zM85 48zM85 49zM35 50zM81 51zM82 55zM86 55zM42 56zM43 56zM44 56zM86 56zM32 57zM33 57zM34 57zM53 57zM86 57zM27 58zM35 58zM22 59zM23 59zM24 59zM34 59zM33 60zM34 60zM84 60zM32 61zM40 61zM31 62zM32 62zM31 63zM53 64zM81 66zM91 70zM15 74zM70 79zM93 83zM69 87zM82 90zM69 92zM69 93z"/>
<path stroke-width="0.45" d="M50 8zM42 10zM72 17zM79 17zM77 18zM48 24zM50 24zM54 24zM60 28zM74 30zM42 31zM43 32zM45 32zM60 32zM46 33zM42 35zM75 36zM53 38zM59 38zM76 42zM81 43zM35 44zM37 47zM36 52zM83 54zM84 58zM61 60zM86 61zM26 64zM35 75zM54 80zM68 81zM4 82zM68 82zM5 83zM68 83zM68 85zM68 86zM68 87zM68 88zM68 89zM68 91zM68 92z"/>
<path stroke-width="0.08" d="M68 8zM49 18zM98 56zM24 65zM25 65zM56 67zM61 67zM55 68zM93 68zM91 69zM89 70zM87 71zM85 72zM83 73zM81 74zM28 76zM31 76zM33 77zM38 77zM42 78zM43 78zM43 80zM44 80zM8 86zM12 86zM19 88zM88 88zM25 89zM29 89zM36 91zM42 92zM82 92zM80 93zM59 95zM63 95zM65 96zM71 96zM73 96z"/>
<path stroke-width="0.47" d="M96 8zM68 9zM43 10zM44 10zM96 10zM64 11zM65 11zM95 11zM94 12zM72 15zM80 17zM81 18zM79 19zM80 19zM81 19zM81 20zM73 21zM81 21zM101 21zM81 22zM25 23zM80 24zM81 24zM82 26zM80 27zM81 27zM82 27zM74 28zM81 28zM82 28zM82 29zM75 34zM83 34zM75 35zM82 35zM83 35zM83 36zM80 37zM83 37zM83 38zM82 39zM83 39zM76 40zM83 40zM76 41zM83 41zM84 42zM84 43zM84 44zM29 45zM84 45zM84 46zM77 47zM84 47zM84 48zM84 49zM99 49zM36 50zM37 50zM85 50zM85 51zM78 52zM83 52zM84 52zM85 52zM85 53zM36 54zM85 55zM45 56zM46 56zM85 56zM30 57zM31 57zM82 57zM85 57zM25 58zM26 58zM28 58zM29 58zM30 58zM31 58zM32 58zM33 58zM34 58zM86 58zM25 59zM26 59zM27 59zM28 59zM29 59zM30 59zM31 59zM32 59zM33 59zM86 59zM96 59zM21 60zM22 60zM23 60zM24 60zM25 60zM26 60zM27 60zM28 60zM29 60zM30 60zM31 60zM32 60zM83 60zM21 61zM22 61zM23 61zM24 61zM25 61zM26 61zM27 61zM28 61zM29 61zM30 61zM31 61zM22 62zM24 62zM25 62zM26 62zM27 62zM28 62zM29 62zM30 62zM78 62zM79 62zM27 63zM28 63zM29 63zM30 63zM34 65zM65 65zM82 65zM83 65zM80 66zM89 71zM14 72zM69 72zM14 73zM14 74zM14 75zM15 75zM15 76zM75 78zM68 80zM69 81zM69 82zM53 83zM69 83zM69 84zM69 85zM69 86zM69 88zM69 89zM69 90zM69 91zM68 94zM72 94z"/>
<path stroke-width="0.55" d="M25 9zM49 10zM73 16zM80 16zM86 20zM74 22zM86 23zM86 24zM86 25zM78 26zM86 26zM75 29zM87 31zM87 32zM87 33zM87 34zM31 35zM76 35zM28 39zM88 40zM88 41zM88 45zM88 46zM89 47zM78 48zM89 48zM99 48zM89 49zM89 50zM89 53zM90 56zM36 57zM37 57zM38 57zM90 57zM42 58zM90 58zM74 59zM38 61zM38 62zM23 63zM36 63zM37 63zM71 80zM85 88z"/>
<path stroke-width="0.79" d="M27 9zM44 9zM63 10zM25 16zM26 22zM77 26zM94 28zM78 32zM28 33zM79 35zM95 35zM95 36zM79 38zM96 43zM95 59zM80 77zM78 78zM94 81zM89 85zM78 91z"/>
<path stroke-width="0.51" d="M29 9zM97 10zM92 12zM95 12zM77 19zM83 19zM83 20zM83 21zM94 22zM29 23zM83 24zM74 25zM84 27zM84 28zM84 29zM81 31zM75 32zM84 32zM85 34zM82 36zM85 36zM76 37zM82 37zM85 37zM86 39zM86 42zM83 43zM77 44zM83 44zM86 44zM86 45zM87 47zM87 50zM87 51zM35 52zM87 52zM87 53zM37 54zM87 54zM81 55zM87 56zM35 57zM56 58zM88 58zM37 59zM88 59zM36 60zM88 60zM95 60zM35 61zM34 62zM33 63zM27 64zM50 65zM68 72zM70 94zM71 94z"/>
<path stroke-width="0.60" d="M32 9zM64 9zM73 12zM100 14zM96 15zM24 16zM83 16zM84 16zM74 19zM88 19zM89 22zM89 23zM89 24zM89 25zM89 26zM89 27zM30 30zM76 31zM90 31zM97 31zM90 32zM90 34zM90 35zM90 36zM77 37zM77 38zM91 38zM91 39zM91 40zM91 42zM91 43zM34 47zM92 47zM97 47zM92 48zM92 49zM79 50zM92 50zM92 51zM93 55zM93 56zM44 57zM93 57zM46 58zM76 58zM45 59zM58 59zM77 59zM94 59zM41 60zM43 61zM90 61zM42 62zM41 63zM42 63zM40 64zM52 64zM73 80zM73 81zM73 83zM73 84zM73 85zM73 86zM88 86zM73 88zM73 89zM73 91z"/>
<path stroke-width="0.61" d="M33 9zM54 10zM82 10zM98 13zM97 14zM77 15zM88 17zM95 17zM74 18zM89 18zM89 19zM89 20zM89 21zM101 22zM75 24zM90 26zM90 27zM90 28zM90 29zM90 30zM91 33zM91 34zM91 35zM91 36zM91 37zM92 41zM92 42zM92 43zM92 44zM92 45zM32 46zM92 46zM31 50zM93 50zM93 51zM93 52zM93 53zM93 54zM45 57zM50 57zM94 57zM95 57zM47 58zM94 58zM46 59zM44 60zM45 60zM44 61zM43 62zM41 64zM74 92z"/>
<path stroke-width="0.64" d="M34 9zM98 14zM78 15zM86 16zM91 20zM75 22zM91 22zM96 22zM75 23zM91 23zM92 26zM26 27zM91 27zM92 27zM92 30zM92 31zM92 34zM77 35zM92 35zM93 36zM93 37zM93 38zM93 39zM78 41zM78 42zM94 44zM32 45zM81 46zM94 46zM32 47zM94 47zM99 47zM94 51zM79 52zM95 54zM95 55zM95 56zM97 56zM46 57zM47 57zM49 57zM49 58zM79 58zM47 60zM48 60zM73 60zM46 61zM59 61zM91 61zM45 62zM45 63zM43 64zM44 64zM38 65zM47 65zM80 91z"/>
<path stroke-width="0.67" d="M36 9zM26 10zM57 10zM81 10zM86 11zM74 13zM74 14zM81 15zM82 15zM98 15zM89 16zM90 16zM97 16zM28 19zM75 20zM29 25zM93 26zM97 30zM29 31zM102 31zM29 32zM95 32zM77 33zM30 36zM30 38zM30 39zM78 39zM30 40zM31 40zM30 41zM79 45zM31 47zM96 49zM96 50zM99 56zM50 58zM78 58zM80 59zM79 60zM51 63zM56 63zM82 75zM76 80zM76 81zM76 82zM91 84zM76 85zM76 86zM76 87zM75 92z"/>
<path stroke-width="0.68" d="M37 9zM62 9zM58 10zM73 11zM74 12zM99 12zM83 15zM97 17zM75 18zM75 19zM25 21zM76 25zM93 25zM76 26zM29 30zM77 32zM29 33zM94 33zM29 34zM30 35zM78 37zM78 38zM95 41zM32 43zM79 44zM79 59zM46 65zM93 81zM76 83zM76 84zM76 88zM76 89zM76 90zM77 91zM78 92z"/>
<path stroke-width="0.70" d="M39 9zM59 10zM80 10zM26 11zM74 11zM76 12zM77 12zM78 12zM79 12zM80 12zM81 12zM82 12zM83 12zM84 12zM85 12zM26 13zM76 13zM79 13zM80 13zM81 13zM82 13zM83 13zM84 13zM85 13zM86 13zM76 14zM88 14zM89 14zM26 15zM87 15zM89 15zM99 15zM100 15zM26 16zM99 16zM26 17zM98 17zM99 17zM26 18zM97 18zM98 18zM99 18zM26 19zM97 19zM98 19zM99 19zM98 20zM99 20zM27 21zM96 21zM98 21zM99 21zM27 22zM77 22zM98 22zM99 22zM76 23zM98 23zM99 23zM101 23zM98 24zM99 24zM27 25zM99 25zM100 25zM99 26zM100 26zM98 27zM99 27zM100 27zM99 28zM100 28zM29 29zM77 29zM99 29zM100 29zM28 30zM99 30zM100 30zM99 31zM100 31zM94 32zM99 32zM100 32zM102 32zM99 33zM100 33zM101 33zM30 34zM100 34zM101 34zM78 35zM99 35zM100 35zM101 35zM100 36zM101 36zM100 37zM101 37zM98 38zM100 38zM101 38zM31 39zM100 39zM101 39zM100 40zM101 40zM100 41zM101 41zM30 42zM101 42zM101 43zM102 43zM100 44zM101 44zM102 44zM101 45zM102 45zM101 46zM102 46zM103 46zM96 47zM101 47zM102 47zM101 48zM102 48zM80 49zM101 49zM102 49zM101 50zM101 51zM58 60zM78 60zM94 71zM95 71zM92 72zM93 72zM94 72zM95 72zM86 73zM90 73zM91 73zM92 73zM93 73zM94 73zM95 73zM88 74zM89 74zM90 74zM91 74zM92 74zM93 74zM94 74zM95 74zM86 75zM87 75zM88 75zM89 75zM90 75zM91 75zM92 75zM93 75zM94 75zM95 75zM84 76zM85 76zM86 76zM87 76zM88 76zM89 76zM90 76zM91 76zM92 76zM93 76zM94 76zM95 76zM81 77zM83 77zM84 77zM85 77zM86 77zM87 77zM88 77zM89 77zM90 77zM91 77zM92 77zM93 77zM94 77zM95 77zM81 78zM82 78zM83 78zM84 78zM85 78zM86 78zM87 78zM88 78zM89 78zM90 78zM91 78zM92 78zM93 78zM94 78zM95 78zM78 79zM79 79zM80 79zM81 79zM82 79zM83 79zM84 79zM85 79zM86 79zM87 79zM88 79zM89 79zM90 79zM91 79zM92 79zM93 79zM94 79zM95 79zM77 80zM78 80zM79 80zM80 80zM81 80zM82 80zM83 80zM84 80zM85 80zM86 80zM87 80zM88 80zM89 80zM90 80zM91 80zM92 80zM93 80zM94 80zM95 80zM77 81zM78 81zM79 81zM80 81zM81 81zM82 81zM83 81zM84 81zM85 81zM86 81zM87 81zM88 81zM89 81zM90 81zM91 81zM92 81zM77 82zM78 82zM79 82zM80 82zM81 82zM82 82zM83 82zM84 82zM85 82zM86 82zM87 82zM88 82zM89 82zM90 82zM94 82zM78 83zM79 83zM80 83zM81 83zM82 83zM83 83zM84 83zM85 83zM86 83zM87 83zM88 83zM89 83zM78 84zM79 84zM80 84zM81 84zM82 84zM83 84zM84 84zM85 84zM86 84zM87 84zM77 85zM78 85zM79 85zM80 85zM81 85zM82 85zM83 85zM84 85zM85 85zM87 85zM78 86zM79 86zM80 86zM81 86zM82 86zM83 86zM84 86zM78 87zM79 87zM80 87zM81 87zM82 87zM83 87zM84 87zM78 88zM79 88zM80 88zM81 88zM78 89zM79 89zM77 90z"/>
<path stroke-width="0.72" d="M40 9zM60 10zM79 10zM77 11zM79 11zM25 12zM25 14zM78 14zM75 15zM27 18zM26 20zM28 20zM97 20zM100 21zM100 22zM100 23zM101 24zM101 27zM77 28zM98 29zM101 30zM101 31zM30 32zM101 32zM30 33zM95 33zM78 34zM79 34zM99 37zM95 39zM79 40zM102 40zM102 41zM103 42zM99 46zM100 46zM103 47zM102 51zM53 58zM77 58zM80 58zM57 59zM79 61zM52 63zM90 71zM88 72zM92 82zM81 89zM83 89zM74 93z"/>
<path stroke-width="0.73" d="M41 9zM78 11zM91 16zM100 16zM92 18zM100 18zM76 22zM28 23zM93 23zM26 26zM27 26zM29 26zM97 29zM94 31zM102 33zM102 35zM102 36zM28 37zM29 37zM99 38zM102 39zM96 41zM30 43zM103 45zM80 47zM31 48zM81 48zM80 50zM103 50zM101 53zM97 55zM80 57zM75 59zM60 60zM57 62zM55 63zM49 64zM51 64zM94 70zM76 79zM89 84z"/>
<path stroke-width="0.77" d="M43 9zM76 10zM25 11zM82 11zM24 12zM86 12zM76 17zM96 20zM77 23zM27 27zM95 34zM95 37zM29 38zM99 39zM80 41zM29 42zM96 57zM59 60zM58 62zM53 63zM54 63zM82 76zM86 87z"/>
<path stroke-width="0.82" d="M45 9zM46 9zM65 10zM25 17zM26 24zM77 25zM27 30zM78 31zM98 33zM28 35zM98 35zM79 36zM79 37zM29 40zM30 45zM30 46zM80 51zM100 51zM100 52zM100 54zM93 70zM87 73zM85 74zM83 75zM81 76zM79 77zM92 83zM88 85zM77 92z"/>
<path stroke-width="0.75" d="M60 9zM25 15zM92 16zM29 27zM28 32zM102 34zM80 46zM80 52z"/>
<path stroke-width="0.57" d="M65 9zM91 14zM28 18zM87 18zM87 19zM77 20zM74 21zM87 21zM87 22zM96 23zM87 24zM87 25zM88 29zM88 30zM88 32zM76 33zM88 33zM89 35zM89 36zM89 38zM77 40zM89 40zM89 41zM90 44zM81 45zM90 45zM78 46zM90 46zM90 48zM90 49zM33 50zM79 51zM33 52zM91 54zM91 55zM91 56zM40 57zM91 57zM43 58zM44 58zM91 58zM42 59zM43 59zM19 61zM89 61zM20 62zM39 62zM57 63zM29 64zM33 64zM35 64zM36 64zM37 64zM36 65zM64 65zM72 79zM53 80zM72 80zM53 81z"/>
<path stroke-width="0.53" d="M66 9zM83 10zM97 11zM90 13zM94 13zM95 13zM79 16zM83 17zM84 19zM84 22zM74 23zM74 24zM85 25zM85 26zM85 27zM75 30zM102 30zM85 31zM86 33zM86 34zM86 35zM98 40zM87 41zM87 42zM87 43zM87 44zM97 46zM35 48zM34 49zM35 49zM78 49zM88 49zM88 50zM34 51zM88 51zM39 58zM89 58zM39 59zM89 59zM37 60zM89 60zM90 60zM36 61zM37 61zM39 61zM21 62zM35 62zM36 62zM61 62zM25 63zM35 63zM35 65zM95 68zM66 73zM71 79zM71 90z"/>
<path stroke-width="0.50" d="M67 9zM46 10zM96 11zM24 17zM73 19zM83 22zM84 26zM84 30zM81 32zM85 35zM76 38zM96 38zM32 40zM86 43zM81 44zM83 45zM86 46zM86 49zM87 55zM38 58zM72 61zM87 61zM93 69zM19 74zM69 80zM70 84zM70 85zM70 90zM70 91z"/>
<path stroke-width="0.16" d="M79 9zM59 58zM66 61zM28 65zM28 66zM94 67zM75 70zM43 77z"/>
<path stroke-width="0.07" d="M83 9zM95 25zM96 29zM96 32zM104 45zM31 51zM32 52zM74 57zM72 58zM19 63zM21 64zM61 64zM89 64zM52 65zM57 65zM31 66zM32 66zM65 66zM66 66zM57 67zM77 69zM77 70zM73 72zM71 73zM22 74zM24 75zM26 75zM30 76zM23 77zM34 77zM37 77zM25 78zM28 78zM44 78zM31 79zM33 79zM34 79zM45 79zM38 80zM41 80zM42 80zM45 80zM94 83zM3 84zM4 85zM6 85zM9 86zM14 87zM17 87zM20 88zM23 88zM26 89zM28 89zM31 90zM34 90zM83 90zM32 91zM37 91zM40 91zM43 92zM45 92zM48 93zM49 93zM51 93zM78 93zM54 94zM57 94zM78 94zM60 95zM62 95zM72 95zM66 96zM67 96zM70 96z"/>
<path stroke-width="0.46" d="M96 9zM95 10zM91 11zM94 11zM72 16zM77 16zM79 18zM80 18zM80 20zM79 21zM80 21zM73 22zM80 22zM80 23zM81 23zM81 25zM81 26zM74 29zM81 29zM82 30zM82 31zM82 32zM81 33zM82 33zM31 34zM82 34zM61 38zM83 46zM77 48zM83 50zM84 50zM84 51zM84 53zM84 54zM85 54zM84 55zM99 55zM41 56zM82 56zM82 58zM85 58zM85 59zM82 60zM20 61zM70 61zM23 62zM68 62zM58 63zM67 63zM84 64zM87 72zM67 73zM19 77zM54 78zM54 79zM69 79zM68 93z"/>
<path stroke-width="0.54" d="M97 9zM48 10zM70 11zM96 12zM73 17zM84 17zM85 18zM85 19zM85 20zM85 21zM85 22zM85 23zM85 24zM86 27zM26 28zM86 28zM86 29zM86 30zM86 31zM86 32zM87 35zM76 36zM87 36zM87 37zM87 38zM87 39zM87 40zM77 42zM88 42zM88 43zM88 44zM88 47zM88 48zM34 50zM89 51zM89 52zM78 53zM89 54zM89 55zM89 56zM52 57zM89 57zM41 58zM90 59zM37 62zM28 64zM49 65zM74 69zM70 71zM19 75zM71 81zM71 82zM71 83zM71 84zM71 85zM71 86zM71 87zM71 88zM71 89zM71 91zM71 92zM76 93z"/>
<path stroke-width="0.44" d="M24 10zM73 23zM59 25zM48 29zM54 30zM50 31zM42 33zM44 33zM43 37zM44 37zM57 38zM36 46zM38 48zM36 51zM47 56zM84 56zM84 57zM33 65zM66 65zM69 71zM67 72zM19 73zM65 73zM29 74zM34 75zM36 75zM68 84zM68 90zM67 94z"/>
<path stroke-width="0.90" d="M25 10z"/>
<path stroke-width="0.63" d="M55 10zM72 11zM98 11zM94 14zM97 15zM74 16zM96 16zM74 17zM89 17zM90 17zM90 18zM91 18zM93 18zM90 19zM90 20zM77 21zM91 21zM91 24zM91 25zM91 26zM78 27zM92 28zM76 29zM92 29zM76 30zM92 32zM79 33zM92 33zM31 36zM92 36zM80 39zM93 40zM93 41zM93 42zM78 43zM93 43zM93 44zM93 45zM32 48zM79 48zM94 48zM94 49zM94 50zM94 52zM35 53zM95 53zM55 58zM95 58zM48 59zM49 59zM45 61zM47 61zM92 61zM46 62zM78 77zM73 79zM72 93z"/>
<path stroke-width="0.00" d="M87 10zM89 11zM90 12zM91 13zM92 14zM93 15zM94 17zM94 18zM95 23zM29 49zM30 50zM34 54zM79 55zM73 58zM71 59zM69 60zM64 63zM65 63zM88 63zM92 63zM58 64zM59 64zM60 64zM87 64zM53 65zM54 65zM55 65zM62 65zM74 65zM62 68zM76 69zM72 71zM21 74zM95 83zM93 84zM92 85zM90 86zM88 87zM89 87zM87 88zM85 89zM84 90zM82 91zM81 92zM79 93zM77 94zM73 95zM74 95z"/>
<path stroke-width="0.66" d="M27 11zM27 12zM95 15zM88 16zM92 19zM92 20zM75 21zM92 21zM92 24zM92 25zM76 27zM93 27zM93 33zM77 34zM94 34zM94 35zM94 39zM94 40zM31 41zM94 41zM94 42zM95 42zM31 43zM95 43zM31 45zM31 46zM33 46zM79 46zM95 48zM95 49zM81 50zM96 51zM96 52zM96 53zM96 54zM96 55zM78 57zM50 59zM51 59zM52 59zM54 59zM50 60zM51 60zM52 60zM53 60zM54 60zM55 60zM57 60zM48 61zM49 61zM50 61zM51 61zM52 61zM53 61zM54 61zM55 61zM56 61zM57 61zM47 62zM48 62zM49 62zM50 62zM51 62zM52 62zM53 62zM55 62zM46 63zM48 63zM49 63zM50 63zM45 64zM39 65zM80 76zM75 84zM75 90zM76 91z"/>
<path stroke-width="0.49" d="M66 11zM67 11zM72 12zM72 13zM78 16zM28 17zM82 17zM82 18zM83 18zM82 20zM82 21zM83 23zM83 25zM83 26zM83 27zM83 28zM83 29zM83 30zM95 30zM79 31zM84 31zM84 33zM27 34zM84 34zM84 35zM84 36zM84 37zM82 38zM84 38zM85 38zM85 39zM85 40zM85 41zM83 42zM85 42zM85 43zM77 45zM85 45zM86 47zM86 48zM36 49zM86 50zM35 51zM78 51zM86 51zM86 52zM82 53zM86 53zM86 54zM87 57zM36 58zM37 58zM87 58zM35 59zM36 59zM87 59zM20 60zM35 60zM72 60zM85 60zM86 60zM87 60zM33 61zM34 61zM33 62zM22 63zM26 63zM32 63zM90 63zM79 67zM14 76zM70 81zM70 82zM70 83zM70 86zM70 87zM70 88zM70 89zM70 92zM69 94z"/>
<path stroke-width="0.89" d="M91 15z"/>
<path stroke-width="0.01" d="M101 18zM95 22zM103 30zM27 39zM36 55zM101 55zM92 64zM78 69zM45 78zM5 87zM90 87zM86 89zM37 92zM76 94z"/>
<path stroke-width="-1.01"/>
<path stroke-width="0.02" d="M33 53zM75 57zM87 63zM88 64zM76 68zM21 77z"/>
<path stroke-width="0.91" d="M100 55z"/>
<path stroke-width="0.05" d="M74 66zM96 81zM48 94z"/></g>
</svg>