<?xml version="1.0" encoding="UTF-8"?>
<svg xmlns="http://www.w3.org/2000/svg" viewBox="0 0 135 128" shape-rendering="geometric-precision">
<path fill="#fffeed" fill-rule="evenodd" d="M120.073,82.2s4.492,0.529,4.492,6.089v18.266s0.11,2.929-.925,3.707-13.574,8.892-21.4,13.766c-6.381,3.974-17.954,4.543-29.853,2.383-7.142-1.3-65.328-12.118-68.028-12.708A5.626,5.626,0,0,1,0,108.012V90.8c0-3.544.425-5.482,4.095-6.618s21.215-7.2,26.287-8.869S44.912,73.2,44.912,73.2s-9.764-4.96-10.832-11.781-6-35.487-7-40.769,0.354-8.837,4.491-11.913,9.567-6.942,10.568-7.677S45.477-.2,48.346,0s57.466,3.06,63.8,3.309a18.885,18.885,0,0,1,18.361,15.619C130.985,22.471,135,56.283,135,59.7s-0.383,7.869-1.717,9.53c-1.907,2.374-3.992,4.856-6.341,7.677C124.609,79.709,120.073,82.2,120.073,82.2Z"/>
<g stroke="#663300" fill="none" stroke-linecap="round">
<path stroke-width="0.03" d="M45 0zM123 30zM124 39zM125 49zM134 52zM134 66zM120 110zM109 117z" />
<path stroke-width="0.17" d="M46 0zM62 8zM67 9zM87 10zM104 11zM35 20zM28 22zM123 28zM33 50zM34 55zM35 61zM101 71zM102 71zM97 72zM127 73zM126 74zM94 75zM75 84zM76 84zM77 84zM78 84zM120 84zM69 85zM72 85zM73 85zM74 85zM75 85zM76 85zM78 85zM65 86zM68 86zM70 86zM71 86zM73 86zM76 86zM78 86zM47 87zM66 87zM67 87zM72 87zM73 87zM74 87zM75 87zM76 87zM78 87zM66 88zM68 88zM69 88zM70 88zM76 88zM78 88zM91 93zM95 94zM25 97zM29 97zM105 97zM33 98zM33 99zM38 99zM39 100zM45 100zM99 100zM28 101zM45 101zM46 101zM95 101zM57 102zM34 103zM39 103zM56 103zM46 104zM47 104zM47 105zM1 110zM16 114zM22 115zM27 116zM51 119zM107 119zM57 120zM63 121zM60 122zM68 122zM65 123zM74 123zM71 124zM79 124zM93 124zM76 125z" />
<path stroke-width="0.21" d="M47 0zM40 7zM41 7zM42 7zM43 7zM49 8zM64 8zM85 10zM102 10zM35 12zM54 23zM36 25zM36 26zM39 43zM39 44zM126 59zM52 66zM58 67zM40 68zM46 72zM98 73zM94 76zM78 77zM92 77zM21 81zM110 81zM118 81zM68 84zM80 86zM57 87zM84 87zM123 87zM65 89zM79 90zM117 90zM93 91zM115 91zM61 93zM62 93zM69 94zM71 94zM72 94zM98 94zM99 94zM75 95zM26 96zM30 97zM34 98zM47 100zM57 104zM55 106zM57 106zM30 115zM36 116zM113 116zM41 117zM47 118zM109 118zM42 119zM53 121zM64 121zM83 126zM84 126zM88 126zM83 127z" />
<path stroke-width="0.10" d="M48 0zM56 8zM58 8zM71 9zM78 9zM91 10zM92 10zM93 10zM94 10zM95 10zM96 10zM106 11zM27 16zM122 23zM29 29zM123 35zM133 43zM33 51zM34 56zM126 56zM34 60zM43 60zM45 62zM127 65zM40 69zM126 76zM113 82zM24 83zM74 83zM77 83zM112 83zM27 84zM72 84zM95 84zM96 85zM39 86zM40 86zM41 86zM62 86zM81 87zM3 111zM121 111zM108 117zM36 119zM63 124zM87 125z" />
<path stroke-width="0.04" d="M49 0zM27 15zM119 17zM123 34zM124 41zM31 42zM43 71zM0 108zM117 112zM106 119zM52 122zM100 122zM98 123z" />
<path stroke-width="0.25" d="M42 1zM46 7zM29 11zM101 11zM34 14zM34 15zM36 24zM124 44zM39 45zM40 49zM41 55zM42 59zM35 60zM127 61zM50 66zM105 66zM66 68zM71 69zM78 70zM79 70zM79 77zM105 80zM113 81zM114 81zM116 81zM114 82zM121 83zM80 84zM36 85zM44 87zM96 87zM0 89zM73 89zM78 90zM54 92zM78 92zM66 93zM113 93zM111 94zM81 96zM105 96zM31 97zM87 97zM92 97zM94 97zM103 97zM35 98zM58 98zM59 98zM60 98zM83 98zM64 99zM66 99zM67 99zM71 100zM74 100zM78 101zM81 101zM82 101zM91 101zM37 104zM44 105zM3 112zM25 114zM116 114zM31 115zM41 119zM99 124zM100 124zM85 127zM86 127z" />
<path stroke-width="0.44" d="M43 1zM45 1zM46 1zM48 1zM49 1zM50 1zM51 1zM54 1zM55 1zM57 1zM64 2zM66 2zM68 2zM70 2zM71 2zM73 2zM74 2zM75 2zM77 2zM41 3zM84 3zM85 3zM89 3zM92 3zM93 3zM95 3zM38 4zM100 4zM102 4zM103 4zM106 4zM110 4zM112 4zM113 4zM114 4zM116 5zM118 5zM56 6zM57 6zM58 6zM119 6zM77 7zM78 7zM122 7zM39 8zM78 8zM95 8zM96 8zM122 8zM96 9zM112 10zM112 11zM45 12zM36 13zM116 13zM88 14zM90 16zM54 21zM61 21zM37 22zM52 22zM56 22zM72 22zM52 23zM53 25zM67 25zM68 25zM73 25zM69 26zM70 26zM38 28zM52 28zM92 28zM100 28zM66 29zM55 30zM49 32zM53 32zM68 32zM73 32zM39 33zM50 33zM72 33zM93 34zM49 35zM58 35zM61 35zM37 36zM60 38zM71 38zM123 38zM40 39zM52 39zM60 39zM61 40zM58 41zM94 41zM60 42zM69 42zM78 42zM71 43zM41 44zM51 44zM79 45zM54 46zM58 46zM61 46zM64 46zM53 47zM95 47zM72 48zM42 50zM96 53zM44 58zM97 59zM97 60zM47 65zM52 65zM57 65zM98 65zM58 66zM64 66zM98 66zM106 66zM47 67zM51 67zM73 67zM47 68zM51 68zM80 68zM81 68zM55 69zM82 69zM90 69zM49 71zM50 71zM72 71zM81 72zM63 73zM90 73zM91 73zM72 74zM76 74zM71 75zM83 75zM84 76zM81 84zM6 92zM8 93zM13 93zM22 94zM26 95zM29 95zM18 96zM34 96zM34 97zM19 98zM47 98zM19 99zM23 99zM47 99zM17 101zM23 102zM59 102zM74 102zM95 102zM24 103zM75 103zM76 103zM83 104zM33 105zM38 105zM38 106zM45 106zM45 107zM54 107zM65 107zM54 108zM55 108zM58 108zM8 109zM63 109zM68 109zM8 110zM13 110zM13 111zM19 111zM19 112zM115 112zM30 113zM36 114zM41 115zM83 115zM47 116zM83 116zM64 119zM70 120zM70 121zM81 122z" />
<path stroke-width="0.45" d="M44 1zM47 1zM52 1zM41 2zM42 2zM67 2zM69 2zM72 2zM87 3zM90 3zM105 4zM108 4zM111 4zM38 5zM117 5zM53 6zM54 6zM55 6zM120 6zM34 7zM58 7zM59 7zM74 7zM75 7zM76 7zM121 7zM40 8zM79 8zM80 8zM92 8zM93 8zM94 8zM97 9zM98 9zM108 9zM122 9zM78 10zM109 10zM121 10zM120 11zM46 12zM116 12zM119 12zM68 13zM118 13zM36 14zM89 14zM36 15zM36 16zM62 20zM91 20zM91 21zM55 22zM57 22zM66 22zM69 22zM70 22zM71 22zM54 25zM55 25zM60 25zM61 25zM123 25zM64 26zM65 26zM72 26zM92 27zM60 30zM74 30zM75 30zM38 32zM51 32zM65 33zM77 33zM93 33zM39 34zM61 34zM64 34zM71 34zM72 34zM51 35zM63 35zM71 35zM57 36zM70 36zM50 37zM54 37zM61 37zM71 37zM65 38zM65 39zM94 39zM40 40zM59 40zM94 40zM60 41zM66 41zM38 42zM54 42zM40 43zM68 44zM75 44zM41 45zM55 45zM64 45zM70 45zM95 45zM74 46zM95 46zM124 46zM58 47zM60 47zM73 47zM54 48zM74 48zM74 49zM62 50zM70 50zM78 50zM42 51zM96 52zM43 56zM43 58zM97 58zM106 58zM105 60zM98 64zM56 65zM63 66zM66 67zM72 67zM74 68zM47 69zM56 69zM62 69zM88 69zM89 69zM47 70zM64 70zM65 70zM71 70zM92 70zM98 70zM48 71zM73 71zM79 71zM82 72zM88 72zM75 74zM77 75zM82 75zM89 75zM103 78zM50 79zM95 79zM111 80zM66 84zM98 86zM1 91zM3 92zM4 92zM5 92zM9 93zM10 93zM11 93zM12 93zM87 93zM23 95zM30 96zM40 97zM40 98zM104 98zM55 99zM102 99zM18 100zM70 102zM73 102zM65 103zM77 103zM80 103zM81 103zM84 103zM28 104zM65 104zM1 105zM58 105zM65 105zM39 106zM65 106zM46 107zM53 107zM84 107zM3 108zM84 108zM7 109zM60 109zM61 109zM62 109zM66 109zM12 110zM18 111zM84 111zM24 112zM84 112zM29 113zM84 113zM35 114zM84 114zM84 115zM42 116zM84 116zM48 117zM52 117zM84 117zM53 118zM58 118zM59 119zM69 120zM84 120zM75 121zM84 121zM76 122zM80 122zM98 122zM82 123z" />
<path stroke-width="0.43" d="M53 1zM56 1zM58 1zM59 1zM60 1zM43 2zM44 2zM45 2zM46 2zM47 2zM48 2zM49 2zM50 2zM51 2zM52 2zM53 2zM54 2zM55 2zM56 2zM57 2zM58 2zM59 2zM60 2zM61 2zM62 2zM63 2zM65 2zM76 2zM78 2zM79 2zM80 2zM42 3zM43 3zM44 3zM45 3zM46 3zM47 3zM48 3zM49 3zM50 3zM51 3zM52 3zM53 3zM54 3zM55 3zM56 3zM57 3zM58 3zM59 3zM60 3zM61 3zM62 3zM63 3zM64 3zM65 3zM66 3zM67 3zM68 3zM69 3zM70 3zM71 3zM72 3zM73 3zM74 3zM75 3zM76 3zM77 3zM78 3zM79 3zM80 3zM81 3zM82 3zM83 3zM86 3zM88 3zM91 3zM94 3zM96 3zM97 3zM98 3zM40 4zM41 4zM42 4zM43 4zM44 4zM45 4zM46 4zM47 4zM48 4zM49 4zM50 4zM51 4zM52 4zM53 4zM54 4zM55 4zM56 4zM57 4zM58 4zM59 4zM60 4zM61 4zM62 4zM63 4zM64 4zM65 4zM66 4zM67 4zM68 4zM69 4zM70 4zM71 4zM72 4zM73 4zM74 4zM75 4zM76 4zM77 4zM78 4zM79 4zM80 4zM81 4zM82 4zM83 4zM84 4zM85 4zM86 4zM87 4zM88 4zM89 4zM90 4zM91 4zM92 4zM93 4zM94 4zM95 4zM96 4zM97 4zM98 4zM99 4zM101 4zM104 4zM107 4zM109 4zM115 4zM40 5zM41 5zM42 5zM43 5zM44 5zM45 5zM46 5zM47 5zM48 5zM49 5zM50 5zM51 5zM52 5zM53 5zM54 5zM55 5zM56 5zM57 5zM58 5zM59 5zM60 5zM61 5zM62 5zM63 5zM64 5zM65 5zM66 5zM67 5zM68 5zM69 5zM70 5zM71 5zM72 5zM73 5zM74 5zM75 5zM76 5zM77 5zM78 5zM79 5zM80 5zM81 5zM82 5zM83 5zM84 5zM85 5zM86 5zM87 5zM88 5zM89 5zM90 5zM91 5zM92 5zM93 5zM94 5zM95 5zM96 5zM97 5zM98 5zM99 5zM100 5zM101 5zM102 5zM103 5zM104 5zM105 5zM106 5zM107 5zM108 5zM109 5zM110 5zM111 5zM112 5zM113 5zM114 5zM115 5zM59 6zM60 6zM61 6zM62 6zM63 6zM64 6zM65 6zM66 6zM67 6zM68 6zM69 6zM70 6zM71 6zM72 6zM73 6zM74 6zM75 6zM76 6zM77 6zM78 6zM79 6zM80 6zM81 6zM82 6zM83 6zM84 6zM85 6zM86 6zM87 6zM88 6zM89 6zM90 6zM91 6zM92 6zM93 6zM94 6zM95 6zM96 6zM97 6zM98 6zM99 6zM100 6zM101 6zM102 6zM103 6zM104 6zM105 6zM106 6zM107 6zM108 6zM109 6zM110 6zM111 6zM112 6zM113 6zM114 6zM115 6zM116 6zM117 6zM118 6zM57 7zM79 7zM80 7zM81 7zM82 7zM83 7zM84 7zM85 7zM86 7zM87 7zM88 7zM89 7zM90 7zM91 7zM92 7zM93 7zM94 7zM95 7zM96 7zM97 7zM98 7zM99 7zM100 7zM101 7zM102 7zM103 7zM104 7zM105 7zM106 7zM107 7zM108 7zM109 7zM110 7zM111 7zM112 7zM113 7zM114 7zM115 7zM116 7zM117 7zM118 7zM119 7zM120 7zM77 8zM97 8zM98 8zM99 8zM100 8zM101 8zM102 8zM103 8zM104 8zM105 8zM106 8zM107 8zM108 8zM109 8zM110 8zM111 8zM112 8zM113 8zM114 8zM115 8zM116 8zM117 8zM118 8zM119 8zM120 8zM59 9zM95 9zM109 9zM110 9zM111 9zM112 9zM113 9zM114 9zM115 9zM116 9zM117 9zM118 9zM119 9zM120 9zM121 9zM113 10zM114 10zM115 10zM116 10zM117 10zM118 10zM120 10zM97 11zM115 11zM116 11zM117 11zM118 11zM119 11zM44 12zM118 12zM67 13zM37 14zM38 14zM39 14zM40 14zM41 14zM42 14zM43 14zM44 14zM45 14zM46 14zM47 14zM48 14zM49 14zM50 14zM51 14zM52 14zM53 14zM54 14zM55 14zM87 14zM37 15zM38 15zM39 15zM40 15zM41 15zM42 15zM43 15zM44 15zM45 15zM46 15zM47 15zM48 15zM49 15zM50 15zM51 15zM52 15zM53 15zM54 15zM55 15zM56 15zM57 15zM58 15zM59 15zM60 15zM61 15zM62 15zM63 15zM64 15zM65 15zM66 15zM67 15zM68 15zM69 15zM70 15zM71 15zM72 15zM73 15zM74 15zM75 15zM76 15zM77 15zM37 16zM38 16zM39 16zM40 16zM41 16zM42 16zM43 16zM44 16zM45 16zM46 16zM47 16zM48 16zM49 16zM50 16zM51 16zM52 16zM53 16zM54 16zM55 16zM56 16zM57 16zM58 16zM59 16zM60 16zM61 16zM62 16zM63 16zM64 16zM65 16zM66 16zM67 16zM68 16zM69 16zM70 16zM71 16zM72 16zM73 16zM74 16zM75 16zM76 16zM77 16zM78 16zM79 16zM80 16zM81 16zM82 16zM83 16zM84 16zM85 16zM86 16zM87 16zM88 16zM37 17zM38 17zM39 17zM40 17zM41 17zM42 17zM43 17zM44 17zM45 17zM46 17zM47 17zM48 17zM49 17zM50 17zM51 17zM52 17zM53 17zM54 17zM55 17zM56 17zM57 17zM58 17zM59 17zM60 17zM61 17zM62 17zM63 17zM64 17zM65 17zM66 17zM67 17zM68 17zM69 17zM70 17zM71 17zM72 17zM73 17zM74 17zM75 17zM76 17zM77 17zM78 17zM79 17zM80 17zM81 17zM82 17zM83 17zM84 17zM85 17zM86 17zM87 17zM88 17zM90 17zM37 18zM38 18zM39 18zM40 18zM41 18zM42 18zM43 18zM44 18zM45 18zM46 18zM47 18zM48 18zM49 18zM50 18zM51 18zM52 18zM53 18zM54 18zM55 18zM56 18zM57 18zM58 18zM59 18zM60 18zM61 18zM62 18zM63 18zM64 18zM65 18zM66 18zM67 18zM68 18zM69 18zM70 18zM71 18zM72 18zM73 18zM74 18zM75 18zM76 18zM77 18zM78 18zM79 18zM80 18zM81 18zM82 18zM83 18zM84 18zM85 18zM86 18zM87 18zM88 18zM37 19zM38 19zM39 19zM40 19zM41 19zM42 19zM43 19zM44 19zM45 19zM46 19zM47 19zM48 19zM49 19zM50 19zM51 19zM52 19zM53 19zM54 19zM55 19zM56 19zM57 19zM58 19zM59 19zM60 19zM61 19zM62 19zM63 19zM64 19zM65 19zM66 19zM67 19zM68 19zM69 19zM70 19zM71 19zM72 19zM73 19zM74 19zM75 19zM76 19zM77 19zM78 19zM79 19zM80 19zM81 19zM82 19zM83 19zM84 19zM85 19zM86 19zM87 19zM88 19zM37 20zM38 20zM39 20zM40 20zM41 20zM42 20zM43 20zM44 20zM45 20zM46 20zM47 20zM48 20zM49 20zM50 20zM51 20zM52 20zM53 20zM54 20zM55 20zM56 20zM57 20zM58 20zM59 20zM60 20zM61 20zM63 20zM64 20zM65 20zM66 20zM67 20zM68 20zM69 20zM70 20zM71 20zM72 20zM73 20zM74 20zM75 20zM76 20zM77 20zM78 20zM79 20zM80 20zM81 20zM82 20zM83 20zM84 20zM85 20zM86 20zM87 20zM88 20zM89 20zM36 21zM37 21zM38 21zM39 21zM40 21zM41 21zM42 21zM43 21zM44 21zM45 21zM46 21zM47 21zM48 21zM49 21zM50 21zM51 21zM52 21zM53 21zM55 21zM56 21zM57 21zM58 21zM59 21zM60 21zM63 21zM64 21zM65 21zM66 21zM67 21zM68 21zM69 21zM70 21zM71 21zM72 21zM73 21zM74 21zM75 21zM76 21zM77 21zM78 21zM79 21zM80 21zM81 21zM82 21zM83 21zM84 21zM85 21zM86 21zM87 21zM88 21zM89 21zM38 22zM39 22zM40 22zM41 22zM42 22zM43 22zM44 22zM45 22zM46 22zM47 22zM48 22zM49 22zM50 22zM51 22zM53 22zM74 22zM75 22zM76 22zM77 22zM78 22zM79 22zM80 22zM81 22zM82 22zM83 22zM84 22zM85 22zM86 22zM87 22zM88 22zM89 22zM91 22zM99 22zM100 22zM38 23zM39 23zM40 23zM41 23zM42 23zM43 23zM44 23zM45 23zM46 23zM47 23zM48 23zM49 23zM50 23zM51 23zM73 23zM74 23zM75 23zM76 23zM77 23zM78 23zM79 23zM80 23zM81 23zM82 23zM83 23zM84 23zM85 23zM86 23zM87 23zM88 23zM89 23zM91 23zM38 24zM39 24zM40 24zM41 24zM42 24zM43 24zM44 24zM45 24zM46 24zM47 24zM48 24zM49 24zM50 24zM51 24zM74 24zM75 24zM76 24zM77 24zM78 24zM79 24zM80 24zM81 24zM82 24zM83 24zM84 24zM85 24zM86 24zM87 24zM88 24zM89 24zM91 24zM38 25zM39 25zM40 25zM41 25zM42 25zM43 25zM44 25zM45 25zM46 25zM47 25zM48 25zM49 25zM50 25zM51 25zM52 25zM74 25zM75 25zM76 25zM77 25zM78 25zM79 25zM80 25zM81 25zM82 25zM83 25zM84 25zM85 25zM86 25zM87 25zM88 25zM89 25zM38 26zM39 26zM40 26zM41 26zM42 26zM43 26zM44 26zM45 26zM46 26zM47 26zM48 26zM49 26zM50 26zM51 26zM52 26zM53 26zM54 26zM55 26zM56 26zM57 26zM58 26zM59 26zM60 26zM61 26zM62 26zM63 26zM67 26zM68 26zM74 26zM75 26zM76 26zM77 26zM78 26zM79 26zM80 26zM81 26zM82 26zM83 26zM84 26zM85 26zM86 26zM87 26zM88 26zM89 26zM90 26zM38 27zM39 27zM40 27zM41 27zM42 27zM43 27zM44 27zM45 27zM46 27zM47 27zM48 27zM51 27zM53 27zM54 27zM55 27zM56 27zM57 27zM58 27zM59 27zM60 27zM61 27zM62 27zM63 27zM64 27zM65 27zM66 27zM67 27zM68 27zM69 27zM70 27zM71 27zM72 27zM73 27zM74 27zM75 27zM76 27zM77 27zM78 27zM79 27zM80 27zM81 27zM82 27zM83 27zM84 27zM85 27zM86 27zM87 27zM88 27zM89 27zM90 27zM39 28zM40 28zM41 28zM42 28zM43 28zM44 28zM45 28zM46 28zM47 28zM53 28zM58 28zM60 28zM63 28zM65 28zM67 28zM68 28zM69 28zM70 28zM71 28zM72 28zM73 28zM74 28zM75 28zM76 28zM77 28zM78 28zM79 28zM80 28zM81 28zM82 28zM83 28zM84 28zM85 28zM86 28zM87 28zM88 28zM89 28zM90 28zM131 28zM39 29zM40 29zM41 29zM42 29zM43 29zM44 29zM45 29zM46 29zM47 29zM56 29zM67 29zM72 29zM77 29zM78 29zM79 29zM80 29zM81 29zM82 29zM83 29zM84 29zM85 29zM86 29zM87 29zM88 29zM89 29zM90 29zM92 29zM39 30zM40 30zM41 30zM42 30zM43 30zM44 30zM45 30zM46 30zM47 30zM48 30zM67 30zM78 30zM79 30zM80 30zM81 30zM82 30zM83 30zM84 30zM85 30zM86 30zM87 30zM88 30zM89 30zM90 30zM92 30zM39 31zM40 31zM41 31zM42 31zM43 31zM44 31zM45 31zM46 31zM47 31zM49 31zM57 31zM69 31zM78 31zM79 31zM80 31zM81 31zM82 31zM83 31zM84 31zM85 31zM86 31zM87 31zM88 31zM89 31zM90 31zM39 32zM40 32zM41 32zM42 32zM43 32zM44 32zM45 32zM46 32zM47 32zM77 32zM78 32zM79 32zM80 32zM81 32zM82 32zM83 32zM84 32zM85 32zM86 32zM87 32zM88 32zM89 32zM90 32zM40 33zM41 33zM42 33zM43 33zM44 33zM45 33zM46 33zM47 33zM48 33zM79 33zM80 33zM81 33zM82 33zM83 33zM84 33zM85 33zM86 33zM87 33zM88 33zM89 33zM90 33zM91 33zM40 34zM41 34zM42 34zM43 34zM44 34zM45 34zM46 34zM47 34zM48 34zM52 34zM56 34zM67 34zM78 34zM79 34zM80 34zM81 34zM82 34zM83 34zM84 34zM85 34zM86 34zM87 34zM88 34zM89 34zM90 34zM91 34zM102 34zM124 34zM40 35zM41 35zM42 35zM43 35zM44 35zM45 35zM46 35zM47 35zM48 35zM79 35zM80 35zM81 35zM82 35zM83 35zM84 35zM85 35zM86 35zM87 35zM88 35zM89 35zM90 35zM91 35zM93 35zM40 36zM41 36zM42 36zM43 36zM44 36zM45 36zM46 36zM47 36zM48 36zM72 36zM79 36zM80 36zM81 36zM82 36zM83 36zM84 36zM85 36zM86 36zM87 36zM88 36zM89 36zM90 36zM91 36zM93 36zM40 37zM41 37zM42 37zM43 37zM44 37zM45 37zM46 37zM47 37zM48 37zM51 37zM69 37zM78 37zM79 37zM80 37zM81 37zM82 37zM83 37zM84 37zM85 37zM86 37zM87 37zM88 37zM89 37zM90 37zM91 37zM39 38zM40 38zM41 38zM42 38zM43 38zM44 38zM45 38zM46 38zM47 38zM48 38zM49 38zM53 38zM56 38zM80 38zM81 38zM82 38zM83 38zM84 38zM85 38zM86 38zM87 38zM88 38zM89 38zM90 38zM91 38zM41 39zM42 39zM43 39zM44 39zM45 39zM46 39zM47 39zM48 39zM49 39zM67 39zM79 39zM80 39zM81 39zM82 39zM83 39zM84 39zM85 39zM86 39zM87 39zM88 39zM89 39zM90 39zM91 39zM92 39zM41 40zM42 40zM43 40zM44 40zM45 40zM46 40zM47 40zM48 40zM49 40zM50 40zM80 40zM81 40zM82 40zM83 40zM84 40zM85 40zM86 40zM87 40zM88 40zM89 40zM90 40zM91 40zM92 40zM41 41zM42 41zM43 41zM44 41zM45 41zM46 41zM47 41zM48 41zM49 41zM75 41zM78 41zM80 41zM81 41zM82 41zM83 41zM84 41zM85 41zM86 41zM87 41zM88 41zM89 41zM90 41zM91 41zM92 41zM32 42zM41 42zM42 42zM43 42zM44 42zM45 42zM46 42zM47 42zM48 42zM49 42zM50 42zM51 42zM72 42zM80 42zM81 42zM82 42zM83 42zM84 42zM85 42zM86 42zM87 42zM88 42zM89 42zM90 42zM91 42zM92 42zM94 42zM41 43zM42 43zM43 43zM44 43zM45 43zM46 43zM47 43zM48 43zM49 43zM51 43zM80 43zM81 43zM82 43zM83 43zM84 43zM85 43zM86 43zM87 43zM88 43zM89 43zM90 43zM91 43zM92 43zM94 43zM42 44zM43 44zM44 44zM45 44zM46 44zM47 44zM48 44zM49 44zM53 44zM79 44zM80 44zM81 44zM82 44zM83 44zM84 44zM85 44zM86 44zM87 44zM88 44zM89 44zM90 44zM91 44zM92 44zM42 45zM43 45zM44 45zM45 45zM46 45zM47 45zM48 45zM49 45zM50 45zM59 45zM67 45zM74 45zM81 45zM82 45zM83 45zM84 45zM85 45zM86 45zM87 45zM88 45zM89 45zM90 45zM91 45zM92 45zM42 46zM43 46zM44 46zM45 46zM46 46zM47 46zM48 46zM49 46zM50 46zM66 46zM80 46zM81 46zM82 46zM83 46zM84 46zM85 46zM86 46zM87 46zM88 46zM89 46zM90 46zM91 46zM92 46zM93 46zM42 47zM43 47zM44 47zM45 47zM46 47zM47 47zM48 47zM49 47zM50 47zM51 47zM75 47zM81 47zM82 47zM83 47zM84 47zM85 47zM86 47zM87 47zM88 47zM89 47zM90 47zM91 47zM92 47zM93 47zM42 48zM43 48zM44 48zM45 48zM46 48zM47 48zM48 48zM49 48zM50 48zM64 48zM81 48zM82 48zM83 48zM84 48zM85 48zM86 48zM87 48zM88 48zM89 48zM90 48zM91 48zM92 48zM93 48zM95 48zM41 49zM42 49zM43 49zM44 49zM45 49zM46 49zM47 49zM48 49zM49 49zM50 49zM80 49zM81 49zM82 49zM83 49zM84 49zM85 49zM86 49zM87 49zM88 49zM89 49zM90 49zM91 49zM92 49zM93 49zM43 50zM44 50zM45 50zM46 50zM47 50zM48 50zM49 50zM50 50zM51 50zM54 50zM59 50zM63 50zM82 50zM83 50zM84 50zM85 50zM86 50zM87 50zM88 50zM89 50zM90 50zM91 50zM92 50zM93 50zM43 51zM44 51zM45 51zM46 51zM47 51zM48 51zM49 51zM50 51zM51 51zM52 51zM53 51zM54 51zM55 51zM56 51zM57 51zM58 51zM59 51zM61 51zM63 51zM66 51zM68 51zM73 51zM76 51zM78 51zM80 51zM81 51zM82 51zM83 51zM84 51zM85 51zM86 51zM87 51zM88 51zM89 51zM90 51zM91 51zM92 51zM93 51zM94 51zM43 52zM44 52zM45 52zM46 52zM47 52zM48 52zM49 52zM50 52zM51 52zM52 52zM53 52zM54 52zM55 52zM56 52zM57 52zM58 52zM59 52zM60 52zM61 52zM62 52zM63 52zM64 52zM65 52zM66 52zM67 52zM68 52zM69 52zM70 52zM71 52zM72 52zM73 52zM74 52zM75 52zM80 52zM81 52zM82 52zM83 52zM84 52zM85 52zM86 52zM87 52zM88 52zM89 52zM90 52zM91 52zM92 52zM93 52zM94 52zM43 53zM44 53zM45 53zM46 53zM47 53zM48 53zM49 53zM50 53zM51 53zM52 53zM53 53zM54 53zM55 53zM56 53zM57 53zM58 53zM59 53zM60 53zM61 53zM62 53zM63 53zM64 53zM65 53zM66 53zM67 53zM68 53zM69 53zM70 53zM71 53zM72 53zM73 53zM74 53zM75 53zM76 53zM77 53zM78 53zM79 53zM80 53zM81 53zM82 53zM83 53zM84 53zM85 53zM86 53zM87 53zM88 53zM89 53zM90 53zM91 53zM92 53zM93 53zM94 53zM43 54zM44 54zM45 54zM46 54zM47 54zM48 54zM49 54zM50 54zM51 54zM52 54zM53 54zM54 54zM55 54zM56 54zM57 54zM58 54zM59 54zM60 54zM61 54zM62 54zM63 54zM64 54zM65 54zM66 54zM67 54zM68 54zM69 54zM70 54zM71 54zM72 54zM73 54zM74 54zM75 54zM76 54zM77 54zM78 54zM79 54zM80 54zM81 54zM82 54zM83 54zM84 54zM85 54zM86 54zM87 54zM88 54zM89 54zM90 54zM91 54zM92 54zM93 54zM94 54zM96 54zM125 54zM43 55zM44 55zM45 55zM46 55zM47 55zM48 55zM49 55zM50 55zM51 55zM52 55zM53 55zM54 55zM55 55zM56 55zM57 55zM58 55zM59 55zM60 55zM61 55zM62 55zM63 55zM64 55zM65 55zM66 55zM67 55zM68 55zM69 55zM70 55zM71 55zM72 55zM73 55zM74 55zM75 55zM76 55zM77 55zM78 55zM79 55zM80 55zM81 55zM82 55zM83 55zM84 55zM85 55zM86 55zM87 55zM88 55zM89 55zM90 55zM91 55zM92 55zM93 55zM94 55zM96 55zM44 56zM45 56zM46 56zM47 56zM48 56zM49 56zM50 56zM51 56zM52 56zM53 56zM54 56zM55 56zM56 56zM57 56zM58 56zM59 56zM60 56zM61 56zM62 56zM63 56zM64 56zM65 56zM66 56zM67 56zM68 56zM69 56zM70 56zM71 56zM72 56zM73 56zM74 56zM75 56zM76 56zM77 56zM78 56zM79 56zM80 56zM81 56zM82 56zM83 56zM84 56zM85 56zM86 56zM87 56zM88 56zM89 56zM90 56zM91 56zM92 56zM93 56zM94 56zM45 57zM46 57zM47 57zM48 57zM49 57zM50 57zM51 57zM52 57zM53 57zM54 57zM55 57zM56 57zM57 57zM58 57zM59 57zM60 57zM61 57zM62 57zM63 57zM64 57zM65 57zM66 57zM67 57zM68 57zM69 57zM70 57zM71 57zM72 57zM73 57zM74 57zM75 57zM76 57zM77 57zM78 57zM79 57zM80 57zM81 57zM82 57zM83 57zM84 57zM85 57zM86 57zM87 57zM88 57zM89 57zM90 57zM91 57zM92 57zM93 57zM94 57zM45 58zM46 58zM47 58zM48 58zM49 58zM50 58zM51 58zM52 58zM53 58zM54 58zM55 58zM56 58zM57 58zM58 58zM59 58zM60 58zM61 58zM62 58zM63 58zM64 58zM65 58zM66 58zM67 58zM68 58zM69 58zM70 58zM71 58zM72 58zM73 58zM74 58zM75 58zM76 58zM77 58zM78 58zM79 58zM80 58zM81 58zM82 58zM83 58zM84 58zM85 58zM86 58zM87 58zM88 58zM89 58zM90 58zM91 58zM92 58zM93 58zM94 58zM95 58zM46 59zM47 59zM48 59zM49 59zM50 59zM51 59zM52 59zM53 59zM54 59zM55 59zM56 59zM57 59zM58 59zM59 59zM60 59zM61 59zM62 59zM63 59zM64 59zM65 59zM66 59zM67 59zM68 59zM69 59zM70 59zM71 59zM72 59zM73 59zM74 59zM75 59zM76 59zM77 59zM78 59zM79 59zM80 59zM81 59zM82 59zM83 59zM84 59zM85 59zM86 59zM87 59zM88 59zM89 59zM90 59zM91 59zM92 59zM93 59zM94 59zM95 59zM47 60zM48 60zM49 60zM50 60zM51 60zM52 60zM53 60zM54 60zM55 60zM56 60zM57 60zM58 60zM59 60zM60 60zM61 60zM62 60zM63 60zM64 60zM65 60zM66 60zM67 60zM68 60zM69 60zM70 60zM71 60zM72 60zM73 60zM74 60zM75 60zM76 60zM77 60zM78 60zM79 60zM80 60zM81 60zM82 60zM83 60zM84 60zM85 60zM86 60zM87 60zM88 60zM89 60zM90 60zM91 60zM92 60zM93 60zM94 60zM95 60zM48 61zM49 61zM50 61zM51 61zM52 61zM53 61zM54 61zM55 61zM56 61zM57 61zM58 61zM59 61zM60 61zM61 61zM62 61zM63 61zM64 61zM65 61zM66 61zM67 61zM68 61zM69 61zM70 61zM71 61zM72 61zM73 61zM74 61zM75 61zM76 61zM77 61zM78 61zM79 61zM80 61zM81 61zM82 61zM83 61zM84 61zM85 61zM86 61zM87 61zM88 61zM89 61zM90 61zM91 61zM92 61zM93 61zM94 61zM95 61zM97 61zM48 62zM49 62zM50 62zM51 62zM52 62zM53 62zM54 62zM55 62zM56 62zM57 62zM58 62zM59 62zM60 62zM61 62zM62 62zM63 62zM64 62zM65 62zM66 62zM67 62zM68 62zM69 62zM70 62zM71 62zM72 62zM73 62zM74 62zM75 62zM76 62zM77 62zM78 62zM79 62zM80 62zM81 62zM82 62zM83 62zM84 62zM85 62zM86 62zM87 62zM88 62zM89 62zM90 62zM91 62zM92 62zM93 62zM94 62zM95 62zM50 63zM51 63zM52 63zM53 63zM54 63zM55 63zM56 63zM57 63zM58 63zM59 63zM60 63zM61 63zM62 63zM63 63zM64 63zM65 63zM66 63zM67 63zM68 63zM69 63zM70 63zM71 63zM72 63zM73 63zM74 63zM75 63zM76 63zM77 63zM78 63zM79 63zM80 63zM81 63zM82 63zM83 63zM84 63zM85 63zM86 63zM87 63zM88 63zM89 63zM90 63zM91 63zM92 63zM93 63zM94 63zM95 63zM52 64zM53 64zM54 64zM55 64zM56 64zM57 64zM58 64zM59 64zM60 64zM61 64zM62 64zM63 64zM64 64zM65 64zM66 64zM67 64zM68 64zM69 64zM70 64zM71 64zM72 64zM73 64zM74 64zM75 64zM76 64zM77 64zM78 64zM79 64zM80 64zM81 64zM82 64zM83 64zM84 64zM85 64zM86 64zM87 64zM88 64zM89 64zM90 64zM91 64zM92 64zM93 64zM94 64zM95 64zM96 64zM58 65zM59 65zM60 65zM61 65zM62 65zM63 65zM64 65zM65 65zM66 65zM67 65zM68 65zM69 65zM70 65zM71 65zM72 65zM73 65zM74 65zM75 65zM76 65zM77 65zM78 65zM79 65zM80 65zM81 65zM82 65zM83 65zM84 65zM85 65zM86 65zM87 65zM88 65zM89 65zM90 65zM91 65zM92 65zM93 65zM94 65zM95 65zM96 65zM65 66zM66 66zM67 66zM68 66zM69 66zM70 66zM71 66zM72 66zM73 66zM74 66zM75 66zM76 66zM77 66zM78 66zM79 66zM80 66zM81 66zM82 66zM83 66zM84 66zM85 66zM86 66zM87 66zM88 66zM89 66zM90 66zM91 66zM92 66zM93 66zM94 66zM95 66zM96 66zM65 67zM74 67zM75 67zM76 67zM77 67zM78 67zM79 67zM80 67zM81 67zM82 67zM83 67zM84 67zM85 67zM86 67zM87 67zM88 67zM89 67zM90 67zM91 67zM92 67zM93 67zM94 67zM95 67zM96 67zM98 67zM49 68zM50 68zM55 68zM82 68zM83 68zM84 68zM85 68zM86 68zM87 68zM88 68zM89 68zM90 68zM91 68zM92 68zM93 68zM94 68zM95 68zM96 68zM49 69zM50 69zM51 69zM52 69zM53 69zM54 69zM63 69zM91 69zM92 69zM93 69zM94 69zM95 69zM96 69zM48 70zM49 70zM50 70zM51 70zM52 70zM53 70zM54 70zM55 70zM56 70zM57 70zM58 70zM59 70zM60 70zM61 70zM62 70zM63 70zM91 70zM101 70zM51 71zM58 71zM59 71zM60 71zM61 71zM62 71zM63 71zM64 71zM65 71zM66 71zM67 71zM68 71zM69 71zM70 71zM71 71zM65 72zM66 72zM67 72zM68 72zM69 72zM70 72zM71 72zM72 72zM73 72zM74 72zM75 72zM76 72zM77 72zM78 72zM79 72zM80 72zM89 72zM106 72zM70 73zM71 73zM72 73zM73 73zM74 73zM75 73zM76 73zM77 73zM78 73zM79 73zM80 73zM81 73zM82 73zM83 73zM84 73zM85 73zM86 73zM87 73zM88 73zM89 73zM68 74zM77 74zM78 74zM79 74zM80 74zM81 74zM82 74zM83 74zM84 74zM85 74zM86 74zM87 74zM88 74zM89 74zM90 74zM99 74zM76 75zM84 75zM85 75zM86 75zM87 75zM89 76zM105 79zM100 81zM32 84zM104 85zM102 86zM99 87zM2 91zM1 92zM2 92zM7 92zM1 93zM2 93zM3 93zM4 93zM5 93zM6 93zM7 93zM14 93zM1 94zM2 94zM3 94zM4 94zM5 94zM6 94zM7 94zM8 94zM9 94zM10 94zM11 94zM12 94zM13 94zM1 95zM2 95zM3 95zM4 95zM5 95zM6 95zM7 95zM8 95zM9 95zM10 95zM11 95zM12 95zM13 95zM17 95zM21 95zM1 96zM2 96zM3 96zM4 96zM5 96zM6 96zM7 96zM8 96zM9 96zM10 96zM11 96zM12 96zM13 96zM1 97zM2 97zM3 97zM4 97zM5 97zM6 97zM7 97zM8 97zM9 97zM10 97zM11 97zM12 97zM13 97zM41 97zM1 98zM2 98zM3 98zM4 98zM5 98zM6 98zM7 98zM8 98zM9 98zM10 98zM11 98zM12 98zM13 98zM20 98zM1 99zM2 99zM3 99zM4 99zM5 99zM6 99zM7 99zM8 99zM9 99zM10 99zM11 99zM12 99zM13 99zM20 99zM56 99zM1 100zM2 100zM3 100zM4 100zM5 100zM6 100zM7 100zM8 100zM9 100zM10 100zM11 100zM12 100zM13 100zM20 100zM1 101zM2 101zM3 101zM4 101zM5 101zM6 101zM7 101zM8 101zM9 101zM10 101zM11 101zM12 101zM13 101zM15 101zM21 101zM98 101zM1 102zM2 102zM3 102zM4 102zM5 102zM6 102zM7 102zM8 102zM9 102zM10 102zM11 102zM12 102zM13 102zM14 102zM18 102zM19 102zM20 102zM75 102zM1 103zM2 103zM3 103zM4 103zM5 103zM6 103zM7 103zM8 103zM9 103zM10 103zM11 103zM12 103zM13 103zM14 103zM15 103zM16 103zM17 103zM18 103zM19 103zM20 103zM21 103zM22 103zM71 103zM72 103zM73 103zM74 103zM82 103zM83 103zM2 104zM3 104zM4 104zM5 104zM6 104zM7 104zM8 104zM9 104zM10 104zM11 104zM12 104zM13 104zM14 104zM15 104zM16 104zM17 104zM18 104zM19 104zM20 104zM21 104zM22 104zM23 104zM24 104zM25 104zM27 104zM33 104zM58 104zM71 104zM72 104zM73 104zM74 104zM75 104zM76 104zM77 104zM78 104zM79 104zM80 104zM81 104zM82 104zM2 105zM3 105zM4 105zM5 105zM6 105zM7 105zM8 105zM9 105zM10 105zM11 105zM12 105zM13 105zM14 105zM15 105zM16 105zM17 105zM18 105zM19 105zM20 105zM21 105zM22 105zM23 105zM24 105zM25 105zM26 105zM27 105zM28 105zM29 105zM30 105zM31 105zM32 105zM71 105zM72 105zM73 105zM74 105zM75 105zM76 105zM77 105zM78 105zM79 105zM80 105zM81 105zM82 105zM83 105zM2 106zM3 106zM4 106zM5 106zM6 106zM7 106zM8 106zM9 106zM10 106zM11 106zM12 106zM13 106zM14 106zM15 106zM16 106zM17 106zM18 106zM19 106zM20 106zM21 106zM22 106zM23 106zM24 106zM25 106zM26 106zM27 106zM28 106zM29 106zM30 106zM31 106zM32 106zM33 106zM34 106zM37 106zM58 106zM70 106zM71 106zM72 106zM73 106zM74 106zM75 106zM76 106zM77 106zM78 106zM79 106zM80 106zM81 106zM82 106zM83 106zM1 107zM4 107zM5 107zM6 107zM7 107zM8 107zM9 107zM10 107zM11 107zM12 107zM13 107zM14 107zM15 107zM16 107zM17 107zM18 107zM19 107zM20 107zM21 107zM22 107zM23 107zM24 107zM25 107zM26 107zM27 107zM28 107zM29 107zM30 107zM31 107zM32 107zM33 107zM34 107zM35 107zM36 107zM37 107zM38 107zM39 107zM40 107zM41 107zM42 107zM43 107zM44 107zM55 107zM70 107zM71 107zM72 107zM73 107zM74 107zM75 107zM76 107zM77 107zM78 107zM79 107zM80 107zM81 107zM82 107zM83 107zM4 108zM5 108zM6 108zM7 108zM8 108zM9 108zM10 108zM11 108zM12 108zM13 108zM14 108zM15 108zM16 108zM17 108zM18 108zM19 108zM20 108zM21 108zM22 108zM23 108zM24 108zM25 108zM26 108zM27 108zM28 108zM29 108zM30 108zM31 108zM32 108zM33 108zM34 108zM35 108zM36 108zM37 108zM38 108zM39 108zM40 108zM41 108zM42 108zM43 108zM44 108zM45 108zM46 108zM47 108zM48 108zM49 108zM50 108zM51 108zM52 108zM53 108zM70 108zM71 108zM72 108zM73 108zM74 108zM75 108zM76 108zM77 108zM78 108zM79 108zM80 108zM81 108zM82 108zM83 108zM9 109zM10 109zM11 109zM12 109zM13 109zM14 109zM15 109zM16 109zM17 109zM18 109zM19 109zM20 109zM21 109zM22 109zM23 109zM24 109zM25 109zM26 109zM27 109zM28 109zM29 109zM30 109zM31 109zM32 109zM33 109zM34 109zM35 109zM36 109zM37 109zM38 109zM39 109zM40 109zM41 109zM42 109zM43 109zM44 109zM45 109zM46 109zM47 109zM48 109zM49 109zM50 109zM51 109zM52 109zM53 109zM54 109zM55 109zM56 109zM57 109zM58 109zM59 109zM64 109zM65 109zM70 109zM71 109zM72 109zM73 109zM74 109zM75 109zM76 109zM77 109zM78 109zM79 109zM80 109zM81 109zM82 109zM83 109zM14 110zM15 110zM16 110zM17 110zM18 110zM19 110zM20 110zM21 110zM22 110zM23 110zM24 110zM25 110zM26 110zM27 110zM28 110zM29 110zM30 110zM31 110zM32 110zM33 110zM34 110zM35 110zM36 110zM37 110zM38 110zM39 110zM40 110zM41 110zM42 110zM43 110zM44 110zM45 110zM46 110zM47 110zM48 110zM49 110zM50 110zM51 110zM52 110zM53 110zM54 110zM55 110zM56 110zM57 110zM58 110zM59 110zM60 110zM61 110zM62 110zM63 110zM64 110zM65 110zM69 110zM70 110zM71 110zM72 110zM73 110zM74 110zM75 110zM76 110zM77 110zM78 110zM79 110zM80 110zM81 110zM82 110zM83 110zM20 111zM21 111zM22 111zM23 111zM24 111zM25 111zM26 111zM27 111zM28 111zM29 111zM30 111zM31 111zM32 111zM33 111zM34 111zM35 111zM36 111zM37 111zM38 111zM39 111zM40 111zM41 111zM42 111zM43 111zM44 111zM45 111zM46 111zM47 111zM48 111zM49 111zM50 111zM51 111zM52 111zM53 111zM54 111zM55 111zM56 111zM57 111zM58 111zM59 111zM60 111zM61 111zM62 111zM63 111zM64 111zM65 111zM66 111zM67 111zM68 111zM69 111zM70 111zM71 111zM72 111zM73 111zM74 111zM75 111zM76 111zM77 111zM78 111zM79 111zM80 111zM81 111zM82 111zM83 111zM25 112zM26 112zM27 112zM28 112zM29 112zM30 112zM31 112zM32 112zM33 112zM34 112zM35 112zM36 112zM37 112zM38 112zM39 112zM40 112zM41 112zM42 112zM43 112zM44 112zM45 112zM46 112zM47 112zM48 112zM49 112zM50 112zM51 112zM52 112zM53 112zM54 112zM55 112zM56 112zM57 112zM58 112zM59 112zM60 112zM61 112zM62 112zM63 112zM64 112zM65 112zM66 112zM67 112zM68 112zM69 112zM70 112zM71 112zM72 112zM73 112zM74 112zM75 112zM76 112zM77 112zM78 112zM79 112zM80 112zM81 112zM82 112zM83 112zM31 113zM32 113zM33 113zM34 113zM35 113zM36 113zM37 113zM38 113zM39 113zM40 113zM41 113zM42 113zM43 113zM44 113zM45 113zM46 113zM47 113zM48 113zM49 113zM50 113zM51 113zM52 113zM53 113zM54 113zM55 113zM56 113zM57 113zM58 113zM59 113zM60 113zM61 113zM62 113zM63 113zM64 113zM65 113zM66 113zM67 113zM68 113zM69 113zM70 113zM71 113zM72 113zM73 113zM74 113zM75 113zM76 113zM77 113zM78 113zM79 113zM80 113zM81 113zM82 113zM83 113zM30 114zM37 114zM38 114zM39 114zM40 114zM41 114zM42 114zM43 114zM44 114zM45 114zM46 114zM47 114zM48 114zM49 114zM50 114zM51 114zM52 114zM53 114zM54 114zM55 114zM56 114zM57 114zM58 114zM59 114zM60 114zM61 114zM62 114zM63 114zM64 114zM65 114zM66 114zM67 114zM68 114zM69 114zM70 114zM71 114zM72 114zM73 114zM74 114zM75 114zM76 114zM77 114zM78 114zM79 114zM80 114zM81 114zM82 114zM83 114zM36 115zM42 115zM43 115zM44 115zM45 115zM46 115zM47 115zM48 115zM49 115zM50 115zM51 115zM52 115zM53 115zM54 115zM55 115zM56 115zM57 115zM58 115zM59 115zM60 115zM61 115zM62 115zM63 115zM64 115zM65 115zM66 115zM67 115zM68 115zM69 115zM70 115zM71 115zM72 115zM73 115zM74 115zM75 115zM76 115zM77 115zM78 115zM79 115zM80 115zM81 115zM82 115zM41 116zM48 116zM49 116zM50 116zM51 116zM52 116zM53 116zM54 116zM55 116zM56 116zM57 116zM58 116zM59 116zM60 116zM61 116zM62 116zM63 116zM64 116zM65 116zM66 116zM67 116zM68 116zM69 116zM70 116zM71 116zM72 116zM73 116zM74 116zM75 116zM76 116zM77 116zM78 116zM79 116zM80 116zM81 116zM82 116zM53 117zM54 117zM55 117zM56 117zM57 117zM58 117zM59 117zM60 117zM61 117zM62 117zM63 117zM64 117zM65 117zM66 117zM67 117zM68 117zM69 117zM70 117zM71 117zM72 117zM73 117zM74 117zM75 117zM76 117zM77 117zM78 117zM79 117zM80 117zM81 117zM82 117zM83 117zM59 118zM60 118zM61 118zM62 118zM63 118zM64 118zM65 118zM66 118zM67 118zM68 118zM69 118zM70 118zM71 118zM72 118zM73 118zM74 118zM75 118zM76 118zM77 118zM78 118zM79 118zM80 118zM81 118zM82 118zM83 118zM65 119zM66 119zM67 119zM68 119zM69 119zM70 119zM71 119zM72 119zM73 119zM74 119zM75 119zM76 119zM77 119zM78 119zM79 119zM80 119zM81 119zM83 119zM64 120zM71 120zM72 120zM73 120zM74 120zM75 120zM76 120zM77 120zM78 120zM79 120zM80 120zM81 120zM82 120zM83 120zM76 121zM77 121zM78 121zM79 121zM80 121zM81 121zM82 121zM83 121zM82 122zM83 122zM81 123z" />
<path stroke-width="0.42" d="M61 1zM81 2zM99 3zM39 5zM56 7zM41 8zM76 8zM121 8zM94 9zM119 10zM43 12zM117 12zM37 13zM38 13zM39 13zM66 13zM56 14zM57 14zM58 14zM59 14zM60 14zM61 14zM86 14zM78 15zM79 15zM80 15zM81 15zM82 15zM89 16zM119 16zM89 17zM89 18zM90 18zM34 19zM89 19zM90 19zM90 20zM90 21zM99 21zM73 22zM90 22zM72 23zM90 23zM52 24zM90 24zM90 25zM91 25zM66 26zM73 26zM91 26zM37 27zM49 27zM50 27zM52 27zM91 27zM48 28zM51 28zM55 28zM56 28zM66 28zM91 28zM101 28zM60 29zM63 29zM65 29zM68 29zM69 29zM70 29zM74 29zM91 29zM52 30zM91 30zM122 30zM48 31zM59 31zM91 31zM92 31zM48 32zM61 32zM71 32zM91 32zM92 32zM78 33zM92 33zM59 34zM92 34zM92 35zM60 36zM62 36zM92 36zM132 36zM49 37zM92 37zM93 37zM73 38zM76 38zM78 38zM79 38zM92 38zM93 38zM75 39zM93 39zM93 40zM70 41zM73 41zM79 41zM93 41zM52 42zM65 42zM79 42zM93 42zM50 43zM64 43zM74 43zM76 43zM93 43zM50 44zM93 44zM94 44zM62 45zM80 45zM93 45zM94 45zM94 46zM63 47zM65 47zM94 47zM94 48zM56 49zM66 49zM94 49zM95 49zM56 50zM61 50zM66 50zM81 50zM94 50zM95 50zM60 51zM62 51zM64 51zM75 51zM77 51zM95 51zM76 52zM77 52zM78 52zM79 52zM95 52zM95 53zM95 54zM42 55zM95 55zM95 56zM96 56zM44 57zM95 57zM96 57zM96 58zM45 59zM96 59zM127 59zM46 60zM96 60zM45 61zM47 61zM96 61zM96 62zM97 62zM96 63zM97 63zM97 64zM97 65zM97 66zM48 67zM97 67zM48 68zM73 68zM97 68zM98 68zM48 69zM81 69zM97 69zM98 69zM52 71zM53 71zM54 71zM55 71zM56 71zM57 71zM80 71zM53 72zM54 72zM64 72zM69 73zM106 73zM35 74zM106 74zM88 75zM97 75zM106 75zM83 76zM95 76zM106 76zM76 77zM78 81zM76 82zM88 82zM84 85zM98 87zM23 96zM83 97zM39 98zM48 98zM19 100zM59 100zM60 100zM61 100zM62 100zM14 101zM18 101zM68 101zM15 102zM17 102zM21 102zM23 103zM28 103zM58 103zM59 103zM70 103zM1 104zM26 104zM59 104zM70 104zM70 105zM35 106zM36 106zM3 107zM69 109zM68 110zM47 117zM52 118zM58 119zM82 119zM104 119z" />
<path stroke-width="0.39" d="M62 1zM37 8zM73 8zM60 9zM39 12zM40 12zM47 13zM48 13zM62 13zM69 14zM70 14zM82 14zM83 14zM120 21zM35 24zM53 24zM72 25zM59 28zM51 29zM70 30zM56 32zM58 32zM60 33zM49 34zM73 35zM52 36zM31 37zM59 37zM77 37zM63 38zM55 39zM62 39zM74 40zM59 43zM61 43zM79 43zM60 44zM73 44zM77 45zM51 46zM52 47zM68 47zM69 48zM54 49zM53 50zM68 50zM75 50zM72 51zM40 52zM104 53zM105 59zM106 59zM49 64zM105 65zM49 66zM72 68zM80 69zM89 70zM104 71zM51 72zM57 72zM62 72zM91 72zM75 75zM49 78zM80 78zM104 79zM85 81zM20 82zM21 83zM93 84zM98 84zM28 86zM29 86zM33 87zM34 87zM35 87zM43 88zM44 88zM45 88zM46 88zM47 88zM48 88zM49 88zM50 88zM51 88zM52 88zM53 88zM54 88zM55 88zM56 88zM57 88zM58 88zM96 88zM82 89zM73 90zM74 90zM75 90zM76 90zM0 91zM58 91zM59 91zM67 91zM68 91zM90 91zM10 92zM44 92zM45 92zM66 92zM51 93zM52 93zM53 93zM74 93zM75 93zM77 93zM58 94zM60 94zM19 95zM20 95zM25 95zM67 95zM19 96zM36 96zM72 96zM75 96zM80 97zM64 101zM70 101zM25 102zM65 102zM64 103zM34 104zM47 106zM69 107zM40 116zM51 118zM57 119zM60 123zM65 124z" />
<path stroke-width="0.36" d="M63 1zM83 2zM101 3zM52 7zM71 8zM61 9zM35 14zM28 20zM36 22zM55 24zM101 29zM64 31zM76 32zM64 37zM58 38zM68 41zM58 44zM72 45zM56 46zM71 46zM61 49zM35 59zM46 64zM105 68zM43 70zM88 70zM65 73zM66 73zM87 77zM88 77zM93 77zM78 78zM91 78zM81 79zM18 80zM97 80zM15 81zM19 81zM94 81zM96 81zM97 81zM98 81zM103 81zM104 81zM93 82zM96 82zM98 82zM103 82zM104 82zM105 82zM107 82zM110 82zM8 83zM9 83zM92 83zM99 83zM116 83zM5 84zM6 84zM7 84zM9 84zM31 84zM92 84zM105 84zM5 85zM13 85zM14 85zM15 85zM16 85zM17 85zM18 85zM92 85zM97 85zM108 85zM6 86zM7 86zM8 86zM20 86zM21 86zM22 86zM23 86zM24 86zM25 86zM26 86zM31 86zM92 86zM9 87zM10 87zM11 87zM12 87zM13 87zM27 87zM38 87zM93 87zM104 87zM15 88zM16 88zM17 88zM18 88zM19 88zM34 88zM83 88zM22 89zM26 89zM46 89zM47 89zM48 89zM49 89zM77 89zM81 89zM83 89zM84 89zM91 89zM92 89zM0 90zM33 90zM48 90zM55 90zM56 90zM71 90zM5 91zM35 91zM56 91zM63 91zM65 91zM71 91zM72 91zM76 91zM82 91zM86 91zM42 92zM47 92zM63 92zM70 92zM71 92zM72 92zM76 92zM82 92zM49 93zM71 93zM82 93zM56 94zM80 94zM31 95zM38 96zM70 96zM77 96zM45 97zM77 97zM82 97zM84 97zM51 98zM54 100zM60 103zM60 104zM60 105zM48 106zM57 107zM64 107zM123 107zM28 114zM39 116zM45 117zM44 120z" />
<path stroke-width="0.30" d="M64 1zM121 6zM35 8zM68 8zM82 10zM109 12zM113 12zM36 23zM57 23zM65 23zM59 24zM63 24zM72 24zM100 25zM100 26zM36 29zM102 39zM103 42zM103 43zM106 61zM45 63zM69 68zM78 69zM85 70zM97 71zM93 72zM94 72zM50 78zM80 81zM107 81zM2 85zM2 86zM48 86zM3 87zM4 87zM60 87zM95 87zM5 88zM6 88zM7 88zM8 88zM26 88zM2 89zM8 89zM9 89zM10 89zM11 89zM12 89zM13 89zM31 89zM32 89zM33 89zM36 89zM37 89zM7 90zM8 90zM9 90zM10 90zM15 90zM16 90zM17 90zM18 90zM19 90zM20 90zM21 90zM37 90zM45 90zM9 91zM15 91zM17 91zM20 91zM21 91zM22 91zM23 91zM24 91zM28 91zM53 91zM15 92zM21 92zM22 92zM23 92zM24 92zM25 92zM26 92zM27 92zM28 92zM29 92zM35 92zM36 92zM61 92zM21 93zM30 93zM31 93zM32 93zM33 93zM34 93zM35 93zM43 93zM79 93zM50 94zM51 94zM77 94zM24 95zM58 95zM71 95zM41 96zM65 96zM80 96zM47 97zM73 97zM36 98zM54 98zM80 98zM42 99zM66 100zM60 101zM26 102zM62 102zM82 102zM61 107zM62 107zM63 107zM4 110zM15 112zM21 113zM21 116zM29 117zM108 119zM66 121zM105 121zM72 122z" />
<path stroke-width="0.23" d="M65 1zM45 7zM65 9zM83 9zM125 9zM30 10zM36 27zM38 36zM38 38zM39 42zM40 47zM40 48zM125 52zM38 66zM39 67zM63 68zM64 68zM72 69zM74 69zM104 69zM103 70zM99 72zM42 73zM34 74zM80 77zM81 77zM89 77zM104 80zM81 81zM109 81zM111 81zM117 81zM10 82zM111 82zM117 83zM94 85zM110 85zM113 85zM117 85zM118 85zM46 86zM85 86zM108 86zM106 87zM80 88zM104 88zM57 92zM64 93zM97 94zM88 96zM86 97zM84 98zM40 99zM97 100zM93 101zM57 105zM0 106zM8 111zM20 115zM25 116zM31 118zM53 119zM59 120zM58 122zM70 122zM58 123zM76 123zM69 124zM92 124zM74 125zM98 125zM82 126zM84 127zM87 127z" />
<path stroke-width="0.20" d="M66 1zM50 8zM66 9zM101 10zM103 11zM114 14zM129 15zM130 18zM35 19zM35 21zM62 22zM30 33zM32 44zM125 44zM48 64zM51 66zM55 67zM56 67zM57 67zM103 71zM98 72zM100 72zM26 76zM91 76zM77 77zM86 80zM103 80zM4 84zM25 84zM29 85zM35 86zM82 86zM121 88zM71 89zM78 89zM119 89zM80 90zM94 91zM101 91zM101 92zM96 93zM101 93zM70 94zM76 95zM77 95zM78 95zM79 95zM109 95zM103 98zM39 99zM94 101zM28 102zM33 103zM57 103zM46 105zM4 112zM10 113zM15 114zM21 115zM26 116zM52 119zM48 120zM58 120zM59 122zM69 122zM99 122zM64 123zM75 123zM70 124zM75 125zM85 126zM86 126zM87 126z" />
<path stroke-width="0.12" d="M67 1zM55 8zM59 8zM124 8zM70 9zM79 9zM90 10zM97 10zM126 10zM110 12zM112 12zM121 20zM30 34zM32 45zM126 54zM127 64zM127 67zM127 68zM41 70zM127 72zM26 84zM112 84zM117 84zM32 85zM33 85zM68 85zM95 85zM65 88zM98 89zM118 90zM94 92zM95 92zM122 108zM1 109zM10 112zM15 113zM18 114zM21 114zM15 115zM25 115zM26 115zM30 116zM31 116zM41 118zM81 125zM82 125zM83 125zM84 125zM93 125zM89 127z" />
<path stroke-width="0.08" d="M68 1zM106 3zM75 9zM76 9zM114 13zM123 29zM34 59zM123 79zM96 86zM24 100zM122 109zM105 119zM99 123zM90 125zM91 125zM81 127z" />
<path stroke-width="0.01" d="M69 1zM117 4zM111 12zM118 16zM30 37zM130 73zM126 75zM123 108zM121 109zM118 111zM115 113zM107 118zM37 120zM104 120zM102 121zM64 125zM69 126zM90 127z" />
<path stroke-width="0.41" d="M82 2zM100 3zM55 7zM38 8zM75 8zM93 9zM79 10zM108 10zM36 12zM42 12zM40 13zM41 13zM42 13zM43 13zM65 13zM62 14zM63 14zM64 14zM65 14zM85 14zM117 14zM83 15zM84 15zM85 15zM90 15zM121 19zM130 19zM62 21zM54 22zM69 25zM70 25zM54 28zM61 28zM62 28zM64 28zM75 29zM49 30zM77 30zM62 31zM38 33zM49 33zM57 33zM62 33zM101 34zM49 36zM66 37zM74 37zM50 39zM78 39zM79 40zM103 40zM55 41zM62 42zM63 44zM65 44zM51 45zM103 46zM80 47zM77 48zM51 49zM76 49zM52 50zM60 50zM80 50zM65 51zM70 51zM71 51zM134 55zM46 62zM57 66zM64 67zM56 68zM72 70zM90 70zM52 72zM90 72zM79 80zM93 80zM102 81zM27 83zM106 84zM110 84zM39 85zM93 90zM8 92zM15 93zM16 93zM14 94zM23 94zM24 94zM21 96zM35 96zM42 97zM46 99zM57 99zM57 100zM58 100zM19 101zM20 101zM16 102zM58 102zM69 102zM76 102zM39 105zM59 105zM46 106zM59 106zM59 108zM65 108zM7 110zM66 110zM12 111zM18 112zM24 113zM69 121zM75 122zM80 123zM95 123zM70 125z" />
<path stroke-width="0.32" d="M84 2zM45 8zM69 8zM62 9zM34 12zM122 22zM35 23zM53 23zM59 23zM61 23zM66 24zM38 40zM39 40zM103 44zM40 51zM41 51zM34 54zM44 62zM134 65zM75 70zM95 72zM72 75zM86 77zM84 78zM13 81zM92 81zM106 81zM90 82zM102 82zM3 85zM49 86zM55 86zM99 86zM1 88zM10 88zM24 88zM27 88zM29 88zM30 88zM16 89zM17 89zM29 89zM39 89zM96 89zM2 90zM24 90zM25 90zM36 90zM69 90zM7 91zM31 91zM42 91zM54 91zM81 91zM38 92zM39 92zM49 92zM20 93zM45 93zM69 93zM27 94zM53 94zM63 94zM33 95zM82 95zM40 96zM67 96zM79 96zM32 97zM46 97zM74 97zM53 98zM61 99zM93 102zM7 113zM12 114zM23 116zM38 116zM44 117zM43 120zM45 120zM50 121zM56 122zM90 124zM93 126z" />
<path stroke-width="0.24" d="M85 2zM119 5zM35 6zM38 7zM33 8zM48 8zM65 8zM84 9zM84 10zM103 10zM102 11zM110 11zM112 13zM35 18zM121 23zM122 28zM124 36zM133 44zM41 53zM41 54zM41 56zM43 59zM50 65zM53 66zM59 67zM62 68zM65 68zM75 69zM100 71zM96 72zM97 73zM94 74zM73 75zM77 76zM82 77zM96 79zM121 80zM112 81zM115 81zM84 82zM84 83zM94 83zM112 85zM119 85zM34 86zM57 86zM94 86zM58 87zM98 88zM55 92zM56 92zM58 92zM59 93zM65 93zM66 94zM74 94zM96 94zM109 94zM73 95zM107 95zM93 97zM65 99zM72 100zM73 100zM79 101zM80 101zM92 101zM27 102zM32 103zM53 106zM9 113zM10 114zM14 114zM42 117zM48 118zM47 120zM52 121zM63 123zM82 124zM96 125zM81 126zM90 126z" />
<path stroke-width="0.22" d="M86 2zM104 3zM39 7zM44 7zM63 23zM64 24zM71 24zM37 30zM38 37zM42 57zM48 65zM54 67zM73 69zM102 72zM100 73zM96 75zM86 78zM90 78zM84 81zM83 83zM29 84zM94 84zM111 84zM114 85zM115 85zM116 85zM45 87zM72 89zM113 92zM60 93zM63 93zM111 93zM67 94zM68 94zM73 94zM100 94zM74 95zM90 95zM107 96zM38 104zM45 105zM54 106zM3 110zM117 111zM13 112zM19 113zM31 117zM36 118zM101 121zM53 122zM96 123zM101 123zM81 124zM89 126z" />
<path stroke-width="0.14" d="M87 2zM60 8zM69 9zM98 10zM125 51zM42 58zM103 69zM101 72zM99 73zM97 74zM95 75zM92 76zM88 78zM119 81zM81 82zM82 82zM23 83zM120 83zM73 84zM79 84zM114 84zM119 84zM44 86zM73 88zM74 88zM79 88zM122 88zM124 88zM66 89zM67 89zM120 89zM100 90zM100 91zM93 92zM100 92zM92 93zM97 93zM98 93zM99 93zM112 93zM95 95zM108 95zM25 96zM27 97zM28 97zM24 98zM31 98zM32 98zM102 98zM35 99zM36 99zM41 100zM42 100zM43 100zM48 101zM49 101zM50 101zM51 101zM30 102zM31 102zM35 103zM37 103zM41 104zM42 104zM43 104zM49 105zM50 105zM51 105zM52 105zM56 105zM124 106zM0 107zM2 111zM16 113zM17 114zM22 114zM23 115zM27 115zM113 115zM28 116zM33 116zM34 117zM38 117zM39 118zM44 118zM45 119zM50 120zM55 120zM56 121zM61 121zM61 122zM62 122zM63 122zM64 122zM65 122zM66 122zM67 123zM68 123zM69 123zM70 123zM71 123zM72 123zM100 123zM73 124zM74 124zM76 124zM77 124zM78 124zM78 125zM95 126zM82 127z" />
<path stroke-width="0.09" d="M88 2zM57 8zM72 9zM73 9zM74 9zM77 9zM27 17zM126 55zM44 61zM104 68zM42 70zM127 70zM127 71zM45 72zM43 73zM85 80zM78 82zM69 84zM63 86zM84 86zM0 88zM79 89zM97 89zM100 89zM97 90zM119 111zM108 118zM97 123zM94 124zM96 124zM88 125zM89 125zM92 125z" />
<path stroke-width="0.02" d="M89 2zM116 15zM119 18zM124 40zM125 47zM125 48zM33 54zM4 113zM113 114zM112 115zM110 116zM25 117z" />
<path stroke-width="0.11" d="M39 3zM120 20zM28 23zM131 26zM132 35zM31 40zM126 57zM46 63zM36 65zM127 66zM127 69zM89 78zM124 78zM98 79zM22 82zM79 85zM38 86zM42 86zM61 86zM64 86zM95 86zM99 89zM92 92zM2 110zM119 110zM4 111zM8 112zM9 112zM13 113zM14 113zM116 113zM19 114zM20 114zM105 120zM85 125zM86 125z" />
<path stroke-width="0.46" d="M40 3zM37 5zM50 6zM51 6zM52 6zM60 7zM61 7zM71 7zM72 7zM73 7zM81 8zM89 8zM90 8zM91 8zM99 9zM100 9zM107 9zM114 11zM69 13zM36 17zM91 19zM58 22zM59 22zM67 22zM68 22zM37 23zM56 25zM57 25zM58 25zM59 25zM63 25zM66 25zM37 26zM71 26zM92 26zM49 28zM50 28zM38 29zM57 30zM36 31zM51 31zM66 31zM50 32zM93 32zM55 35zM56 35zM75 36zM61 38zM94 38zM64 40zM57 42zM70 42zM75 42zM56 43zM55 44zM95 44zM104 45zM41 48zM63 49zM64 50zM71 50zM79 51zM96 51zM40 53zM42 54zM104 54zM97 57zM98 63zM47 66zM62 66zM49 67zM71 67zM52 68zM54 68zM75 68zM79 68zM57 69zM83 69zM87 69zM66 70zM70 70zM74 71zM83 72zM103 72zM92 73zM74 74zM91 74zM81 75zM85 76zM120 80zM22 81zM90 81zM101 81zM85 82zM40 85zM83 85zM98 85zM101 88zM20 94zM21 94zM85 94zM19 97zM20 97zM16 101zM65 101zM71 102zM72 102zM27 103zM78 103zM79 103zM85 103zM86 103zM32 104zM34 105zM37 105zM84 105zM44 106zM84 106zM2 107zM47 107zM52 107zM56 108zM3 109zM6 109zM84 109zM84 110zM14 111zM17 111zM20 112zM25 113zM31 114zM37 115zM40 115zM46 116zM51 117zM57 118zM84 118zM63 119zM84 119zM68 120zM71 121zM74 121zM79 122zM84 122z" />
<path stroke-width="0.34" d="M102 3zM51 7zM44 8zM70 8zM35 13zM128 13zM34 18zM64 23zM67 23zM60 24zM101 32zM124 35zM40 45zM104 47zM105 58zM106 60zM55 66zM62 67zM66 69zM74 70zM87 70zM49 72zM44 73zM70 74zM81 76zM79 79zM80 80zM96 80zM20 81zM105 81zM95 82zM99 82zM117 82zM89 83zM98 83zM105 83zM107 83zM115 83zM67 84zM87 84zM103 84zM27 85zM64 85zM86 85zM99 85zM101 85zM12 86zM13 86zM14 86zM15 86zM16 86zM17 86zM51 86zM52 86zM53 86zM7 87zM15 87zM16 87zM25 87zM39 87zM94 87zM12 88zM13 88zM21 88zM22 88zM32 88zM82 88zM20 89zM27 89zM40 89zM64 89zM27 90zM34 90zM47 90zM70 90zM90 90zM6 91zM33 91zM55 91zM77 91zM89 91zM13 92zM41 92zM48 92zM87 92zM18 93zM19 93zM47 93zM70 93zM78 93zM85 93zM55 94zM79 94zM90 94zM32 95zM61 95zM39 96zM68 96zM78 96zM75 97zM37 98zM52 98zM53 100zM63 101zM60 102zM79 102zM61 103zM62 103zM63 103zM61 104zM41 105zM61 105zM49 106zM62 106zM63 106zM62 108zM5 110zM16 112zM22 113zM17 115zM27 117zM28 117zM50 118zM67 121zM73 122zM78 123zM87 124zM89 124z" />
<path stroke-width="0.26" d="M103 3zM37 7zM47 8zM66 8zM64 9zM104 10zM34 16zM67 24zM69 24zM123 27zM36 28zM38 35zM39 41zM134 54zM53 67zM61 68zM67 68zM70 69zM76 69zM80 70zM81 70zM83 77zM84 77zM98 80zM108 81zM21 82zM77 82zM7 83zM111 85zM120 85zM107 86zM109 86zM107 87zM103 88zM105 88zM102 89zM103 89zM42 90zM67 90zM48 91zM49 91zM78 91zM91 91zM53 92zM59 92zM58 93zM65 94zM75 94zM101 94zM89 95zM96 95zM45 96zM89 96zM96 96zM51 97zM52 97zM53 97zM54 97zM65 97zM66 97zM67 97zM57 98zM61 98zM71 98zM72 98zM73 98zM74 98zM85 98zM101 98zM68 99zM77 99zM78 99zM79 99zM80 99zM81 99zM82 99zM99 99zM48 100zM70 100zM75 100zM76 100zM77 101zM83 101zM84 101zM85 101zM86 101zM87 101zM88 101zM89 101zM90 101zM87 102zM89 102zM90 102zM1 108zM120 109zM123 109zM9 111zM120 111zM14 112zM20 113zM37 116zM30 117zM37 119zM106 120zM65 121zM102 123zM80 126zM91 126z" />
<path stroke-width="0.16" d="M105 3zM52 8zM68 9zM81 9zM65 24zM124 43zM127 63zM44 71zM87 78zM86 79zM84 80zM74 84zM96 84zM36 86zM79 86zM48 87zM54 87zM55 87zM77 87zM71 88zM69 89zM80 89zM98 90zM99 90zM98 91zM99 91zM91 92zM97 92zM98 92zM99 92zM93 93zM94 93zM91 94zM93 94zM94 94zM91 95zM93 95zM24 97zM26 97zM30 98zM34 99zM100 99zM98 100zM47 101zM55 101zM56 101zM57 101zM29 102zM33 102zM56 102zM38 103zM40 104zM45 104zM56 104zM54 105zM55 105zM6 111zM11 112zM17 113zM23 114zM28 115zM20 116zM34 116zM33 117zM38 118zM44 119zM42 120zM49 120zM103 120z" />
<path stroke-width="0.07" d="M107 3zM117 16zM118 17zM28 24zM30 35zM124 38zM124 42zM32 48zM125 50zM35 62zM35 63zM37 66zM39 68zM115 84zM116 84zM67 85zM116 112zM111 116zM103 121zM101 122zM68 125z" />
<path stroke-width="0.47" d="M39 4zM37 6zM38 6zM39 6zM40 6zM41 6zM42 6zM43 6zM44 6zM45 6zM46 6zM47 6zM48 6zM49 6zM62 7zM63 7zM64 7zM65 7zM66 7zM67 7zM68 7zM69 7zM70 7zM82 8zM83 8zM84 8zM85 8zM86 8zM87 8zM88 8zM58 9zM101 9zM102 9zM103 9zM104 9zM105 9zM106 9zM123 9zM110 10zM111 10zM122 10zM121 11zM47 12zM108 12zM115 12zM120 12zM70 13zM119 13zM36 18zM91 18zM28 19zM36 19zM36 20zM65 22zM37 24zM73 24zM35 25zM37 25zM62 25zM92 25zM38 31zM54 31zM67 31zM74 31zM93 31zM66 32zM52 33zM53 33zM67 33zM76 34zM39 35zM101 35zM39 36zM39 37zM57 37zM72 37zM68 38zM64 39zM66 40zM40 41zM61 41zM65 41zM40 42zM64 42zM54 43zM95 43zM54 45zM69 45zM75 45zM41 46zM63 46zM41 47zM103 47zM59 48zM60 48zM52 49zM68 49zM65 50zM96 50zM126 50zM105 51zM42 52zM34 53zM42 53zM97 56zM35 58zM98 62zM49 63zM51 64zM105 64zM53 65zM54 65zM55 65zM46 66zM59 66zM60 66zM61 66zM46 67zM67 67zM68 67zM69 67zM70 67zM53 68zM76 68zM77 68zM78 68zM58 69zM59 69zM60 69zM61 69zM84 69zM85 69zM86 69zM99 69zM67 70zM68 70zM69 70zM93 70zM94 70zM95 70zM96 70zM97 70zM99 70zM105 70zM75 71zM76 71zM77 71zM78 71zM84 72zM85 72zM86 72zM87 72zM62 73zM73 74zM92 74zM78 75zM79 75zM80 75zM90 75zM86 76zM87 76zM88 80zM24 82zM82 84zM103 87zM95 89zM89 92zM19 94zM89 94zM27 95zM28 95zM83 95zM33 96zM85 96zM35 97zM39 97zM18 98zM21 98zM23 98zM41 98zM46 98zM21 99zM48 99zM54 99zM24 102zM25 103zM29 104zM31 104zM84 104zM40 106zM43 106zM48 107zM49 107zM51 107zM85 107zM57 108zM85 108zM5 109zM9 110zM10 110zM11 110zM15 111zM16 111zM21 112zM22 112zM23 112zM26 113zM27 113zM28 113zM85 113zM32 114zM33 114zM34 114zM38 115zM39 115zM85 115zM43 116zM44 116zM45 116zM85 116zM49 117zM50 117zM85 117zM54 118zM55 118zM56 118zM85 118zM60 119zM61 119zM62 119zM85 119zM65 120zM66 120zM67 120zM72 121zM73 121zM85 121zM77 122zM78 122zM83 123z" />
<path stroke-width="0.31" d="M116 4zM49 7zM87 9zM99 11zM70 24zM125 43zM39 46zM105 57zM61 67zM67 69zM86 70zM85 71zM48 72zM80 76zM85 78zM20 80zM108 80zM93 81zM22 83zM96 83zM24 84zM86 84zM97 84zM1 86zM3 86zM1 87zM2 87zM5 87zM41 87zM64 87zM85 87zM2 88zM3 88zM4 88zM9 88zM28 88zM123 88zM3 89zM4 89zM5 89zM6 89zM7 89zM14 89zM15 89zM30 89zM38 89zM121 89zM11 90zM12 90zM13 90zM14 90zM22 90zM23 90zM8 91zM16 91zM18 91zM19 91zM29 91zM30 91zM79 91zM80 91zM37 92zM81 92zM44 93zM80 93zM28 94zM52 94zM34 95zM59 95zM97 95zM66 96zM51 100zM58 101zM62 101zM74 101zM61 102zM64 102zM81 102zM36 104zM42 105zM50 106zM60 107zM10 111zM18 115zM55 119zM61 120zM67 124zM85 124zM78 126z" />
<path stroke-width="0.51" d="M36 6zM50 12zM119 14zM120 14zM34 20zM100 21zM92 22zM101 22zM93 28zM53 30zM62 30zM73 30zM122 31zM55 32zM60 32zM57 34zM94 34zM60 35zM76 35zM77 35zM54 36zM59 36zM69 36zM67 37zM74 39zM58 40zM62 40zM77 40zM95 40zM74 42zM61 44zM62 44zM67 47zM77 47zM79 48zM73 49zM77 50zM97 53zM106 57zM98 59zM45 65zM45 66zM99 66zM106 69zM100 70zM104 70zM106 70zM48 73zM61 73zM93 73zM107 73zM107 74zM107 75zM107 76zM107 77zM106 78zM107 78zM21 79zM49 79zM90 79zM41 85zM100 87zM15 94zM84 95zM15 96zM108 96zM15 100zM22 101zM66 101zM88 103z" />
<path stroke-width="0.40" d="M35 7zM54 7zM42 8zM74 8zM92 9zM41 12zM114 12zM44 13zM45 13zM46 13zM63 13zM64 13zM66 14zM67 14zM68 14zM84 14zM86 15zM87 15zM88 15zM70 23zM71 23zM100 23zM54 24zM65 25zM57 28zM48 29zM71 29zM73 29zM76 29zM50 30zM30 31zM77 31zM70 33zM77 34zM66 35zM78 35zM78 36zM50 38zM70 39zM71 40zM76 40zM50 41zM63 41zM40 44zM52 45zM133 45zM69 46zM79 46zM104 46zM51 48zM80 48zM59 49zM57 50zM58 50zM67 51zM69 51zM74 51zM105 52zM64 69zM81 71zM55 72zM56 72zM63 72zM64 73zM68 73zM91 75zM82 76zM104 78zM83 79zM110 80zM108 83zM23 84zM25 85zM86 86zM63 87zM63 88zM124 90zM3 91zM124 91zM9 92zM124 92zM124 93zM25 94zM59 94zM84 94zM124 94zM14 95zM18 95zM30 95zM65 95zM66 95zM124 95zM14 96zM29 96zM73 96zM74 96zM124 96zM14 97zM33 97zM43 97zM124 97zM14 98zM49 98zM124 98zM14 99zM124 99zM14 100zM23 100zM56 100zM63 100zM124 100zM69 101zM124 101zM22 102zM77 102zM124 102zM69 103zM124 103zM69 104zM124 104zM69 105zM69 106zM56 107zM67 110zM29 114zM35 115zM46 117zM59 123z" />
<path stroke-width="0.29" d="M36 7zM48 7zM46 8zM63 9zM86 9zM34 17zM35 17zM55 23zM58 23zM37 29zM30 32zM102 37zM104 48zM105 56zM41 57zM126 60zM106 62zM106 64zM54 66zM59 68zM68 69zM76 70zM86 71zM96 71zM98 71zM47 72zM74 75zM90 76zM103 79zM95 80zM100 82zM101 82zM26 83zM30 84zM37 85zM56 86zM112 86zM113 86zM114 86zM115 86zM116 86zM117 86zM118 86zM119 86zM42 87zM25 88zM99 88zM34 89zM35 89zM75 89zM3 90zM4 90zM6 90zM38 90zM66 90zM68 90zM102 90zM10 91zM11 91zM12 91zM13 91zM14 91zM25 91zM26 91zM27 91zM43 91zM102 91zM20 92zM30 92zM31 92zM32 92zM33 92zM34 92zM50 92zM102 92zM28 93zM29 93zM36 93zM37 93zM38 93zM41 93zM42 93zM68 93zM102 93zM29 94zM35 94zM36 94zM37 94zM38 94zM39 94zM40 94zM41 94zM42 94zM43 94zM49 94zM35 95zM43 95zM44 95zM45 95zM46 95zM47 95zM48 95zM57 95zM98 95zM99 95zM100 95zM42 96zM50 96zM64 96zM48 97zM72 97zM78 98zM79 98zM81 98zM92 98zM93 98zM94 98zM62 99zM50 100zM61 101zM75 101zM63 102zM83 102zM92 102zM51 106zM122 110zM1 111zM26 114zM32 115zM40 119zM84 124zM69 125zM73 125zM92 126z" />
<path stroke-width="0.27" d="M47 7zM85 9zM83 10zM28 21zM35 22zM68 24zM29 27zM131 27zM102 38zM38 39zM32 43zM33 49zM104 50zM41 52zM105 54zM105 55zM60 68zM69 69zM77 70zM82 70zM83 70zM89 71zM90 71zM92 71zM93 71zM78 76zM125 76zM85 79zM106 80zM28 85zM109 85zM122 85zM123 85zM81 86zM110 86zM121 86zM122 86zM43 87zM59 87zM105 87zM109 87zM110 87zM111 87zM112 87zM113 87zM114 87zM115 87zM116 87zM117 87zM118 87zM119 87zM120 87zM107 88zM108 88zM109 88zM110 88zM111 88zM112 88zM113 88zM114 88zM115 88zM116 88zM117 88zM118 88zM74 89zM104 89zM105 89zM106 89zM107 89zM108 89zM109 89zM110 89zM111 89zM112 89zM113 89zM114 89zM115 89zM116 89zM117 89zM41 90zM43 90zM44 90zM103 90zM104 90zM105 90zM106 90zM107 90zM108 90zM109 90zM110 90zM111 90zM112 90zM113 90zM114 90zM115 90zM44 91zM45 91zM46 91zM47 91zM50 91zM51 91zM103 91zM104 91zM105 91zM106 91zM107 91zM108 91zM109 91zM110 91zM111 91zM112 91zM113 91zM52 92zM79 92zM103 92zM104 92zM105 92zM106 92zM107 92zM108 92zM109 92zM110 92zM111 92zM67 93zM103 93zM104 93zM105 93zM106 93zM107 93zM108 93zM109 93zM103 94zM104 94zM105 94zM106 94zM107 94zM38 95zM39 95zM40 95zM53 95zM102 95zM103 95zM104 95zM105 95zM27 96zM44 96zM46 96zM47 96zM58 96zM59 96zM60 96zM61 96zM87 96zM90 96zM98 96zM99 96zM100 96zM101 96zM102 96zM103 96zM49 97zM50 97zM55 97zM63 97zM64 97zM68 97zM69 97zM85 97zM88 97zM89 97zM91 97zM95 97zM97 97zM98 97zM99 97zM100 97zM101 97zM56 98zM62 98zM68 98zM69 98zM70 98zM75 98zM76 98zM86 98zM87 98zM88 98zM89 98zM90 98zM96 98zM97 98zM98 98zM99 98zM41 99zM63 99zM69 99zM70 99zM71 99zM72 99zM73 99zM74 99zM75 99zM76 99zM83 99zM84 99zM85 99zM86 99zM87 99zM88 99zM89 99zM90 99zM91 99zM92 99zM93 99zM94 99zM95 99zM96 99zM97 99zM77 100zM78 100zM79 100zM80 100zM81 100zM82 100zM83 100zM84 100zM85 100zM86 100zM87 100zM88 100zM89 100zM90 100zM91 100zM92 100zM93 100zM94 100zM96 100zM76 101zM86 102zM88 102zM91 102zM52 106zM119 112zM117 113zM16 115zM19 115zM114 115zM24 116zM54 119zM60 120zM71 122zM103 122zM62 123zM68 124zM83 124z" />
<path stroke-width="0.33" d="M50 7zM88 9zM81 10zM106 10zM35 16zM66 23zM58 24zM62 24zM100 27zM122 29zM101 30zM101 31zM38 34zM102 36zM103 41zM104 52zM105 53zM125 53zM127 60zM47 63zM106 65zM58 68zM70 68zM84 71zM30 75zM74 76zM79 78zM83 78zM19 79zM20 79zM80 79zM89 79zM94 80zM91 82zM88 83zM97 83zM106 83zM104 84zM80 85zM102 85zM4 86zM32 86zM50 86zM54 86zM100 86zM6 87zM17 87zM18 87zM19 87zM20 87zM21 87zM22 87zM23 87zM24 87zM40 87zM61 87zM11 88zM23 88zM31 88zM81 88zM18 89zM19 89zM28 89zM76 89zM26 90zM35 90zM46 90zM32 91zM88 91zM95 91zM14 92zM40 92zM62 92zM86 92zM46 93zM56 93zM81 93zM84 93zM54 94zM78 94zM60 95zM70 95zM28 96zM82 96zM43 99zM60 99zM52 100zM73 101zM80 102zM30 103zM62 104zM63 104zM62 105zM63 105zM63 108zM27 114zM33 115zM34 118zM39 119zM61 123zM86 124zM97 125zM94 126z" />
<path stroke-width="0.38" d="M53 7zM91 9zM37 12zM38 12zM28 13zM49 13zM50 13zM51 13zM59 13zM60 13zM61 13zM71 14zM72 14zM73 14zM80 14zM81 14zM89 15zM118 15zM61 22zM69 23zM64 25zM71 25zM29 26zM37 28zM53 29zM58 29zM65 30zM72 30zM50 35zM67 36zM39 39zM72 39zM77 39zM54 40zM56 40zM69 40zM38 41zM66 43zM76 46zM39 47zM55 47zM62 48zM55 50zM126 51zM126 61zM56 66zM82 71zM58 72zM61 72zM67 73zM95 73zM126 73zM71 74zM93 74zM127 74zM98 78zM82 79zM81 80zM91 81zM99 81zM71 83zM86 83zM87 83zM93 83zM22 84zM24 85zM85 85zM93 85zM30 86zM93 86zM101 86zM32 87zM36 87zM36 88zM37 88zM38 88zM39 88zM40 88zM41 88zM42 88zM59 88zM60 88zM84 88zM102 88zM43 89zM44 89zM45 89zM30 90zM31 90zM50 90zM51 90zM52 90zM65 90zM82 90zM4 91zM37 91zM38 91zM39 91zM57 91zM60 91zM61 91zM66 91zM69 91zM43 92zM46 92zM64 92zM65 92zM67 92zM68 92zM88 92zM17 93zM50 93zM73 93zM76 93zM86 93zM57 94zM64 95zM68 95zM20 96zM37 96zM71 96zM76 96zM86 96zM44 97zM79 97zM81 97zM38 98zM50 98zM45 99zM58 99zM55 100zM64 100zM23 101zM94 102zM29 103zM0 104zM35 104zM40 105zM60 106zM64 106zM60 108zM69 108zM112 114zM32 118zM63 120zM68 121zM74 122zM79 123zM71 125zM76 126z" />
<path stroke-width="0.28" d="M34 8zM67 8zM105 10zM100 11zM34 13zM115 13zM56 23zM37 34zM123 37zM31 38zM40 46zM104 49zM40 50zM104 51zM126 52zM106 63zM60 67zM68 68zM77 69zM84 70zM87 71zM88 71zM91 71zM94 71zM95 71zM99 71zM96 73zM92 75zM79 76zM85 77zM16 80zM83 80zM107 80zM23 82zM72 83zM85 83zM121 84zM122 84zM121 85zM33 86zM47 86zM111 86zM120 86zM123 86zM108 87zM121 87zM122 87zM64 88zM97 88zM106 88zM119 88zM120 88zM1 89zM118 89zM5 90zM39 90zM40 90zM81 90zM116 90zM119 90zM52 91zM96 91zM114 91zM117 91zM16 92zM17 92zM18 92zM19 92zM51 92zM60 92zM80 92zM112 92zM115 92zM22 93zM23 93zM24 93zM25 93zM26 93zM27 93zM39 93zM40 93zM57 93zM110 93zM30 94zM31 94zM32 94zM33 94zM34 94zM44 94zM45 94zM46 94zM47 94zM48 94zM64 94zM76 94zM102 94zM108 94zM36 95zM37 95zM41 95zM42 95zM49 95zM50 95zM51 95zM52 95zM54 95zM55 95zM56 95zM72 95zM101 95zM106 95zM43 96zM48 96zM49 96zM51 96zM52 96zM53 96zM54 96zM55 96zM56 96zM57 96zM62 96zM63 96zM97 96zM104 96zM56 97zM57 97zM58 97zM59 97zM60 97zM61 97zM62 97zM70 97zM71 97zM90 97zM96 97zM102 97zM55 98zM63 98zM64 98zM65 98zM66 98zM67 98zM77 98zM82 98zM91 98zM95 98zM100 98zM98 99zM49 100zM67 100zM68 100zM69 100zM95 100zM97 101zM84 102zM85 102zM31 103zM43 105zM2 109zM2 112zM8 113zM13 114zM109 116zM43 117zM111 117zM35 118zM49 118zM46 120zM51 121zM57 122zM77 123zM64 124zM91 124zM75 126zM79 126z" />
<path stroke-width="0.35" d="M36 8zM89 9zM98 11zM35 15zM63 22zM68 23zM56 24zM57 24zM61 24zM100 24zM123 26zM54 34zM53 35zM102 40zM67 42zM78 44zM57 45zM103 45zM124 45zM42 56zM51 65zM52 67zM71 68zM79 69zM83 71zM92 72zM82 78zM17 80zM19 80zM82 80zM87 80zM109 80zM14 81zM16 81zM17 81zM18 81zM11 82zM12 82zM13 82zM14 82zM15 82zM16 82zM17 82zM18 82zM19 82zM92 82zM94 82zM108 82zM10 83zM11 83zM12 83zM13 83zM14 83zM15 83zM16 83zM17 83zM18 83zM19 83zM20 83zM90 83zM91 83zM100 83zM101 83zM102 83zM103 83zM104 83zM8 84zM10 84zM11 84zM12 84zM13 84zM14 84zM15 84zM16 84zM17 84zM18 84zM19 84zM20 84zM21 84zM88 84zM89 84zM90 84zM91 84zM99 84zM100 84zM101 84zM102 84zM6 85zM7 85zM8 85zM9 85zM10 85zM11 85zM12 85zM19 85zM20 85zM21 85zM22 85zM23 85zM38 85zM87 85zM88 85zM89 85zM90 85zM91 85zM100 85zM5 86zM9 86zM10 86zM11 86zM18 86zM19 86zM87 86zM88 86zM89 86zM90 86zM91 86zM97 86zM8 87zM14 87zM26 87zM62 87zM87 87zM88 87zM89 87zM90 87zM91 87zM92 87zM14 88zM20 88zM33 88zM86 88zM87 88zM88 88zM89 88zM90 88zM91 88zM92 88zM93 88zM94 88zM21 89zM41 89zM50 89zM51 89zM52 89zM53 89zM54 89zM55 89zM56 89zM57 89zM58 89zM59 89zM60 89zM61 89zM62 89zM85 89zM86 89zM87 89zM88 89zM89 89zM90 89zM93 89zM1 90zM28 90zM57 90zM58 90zM59 90zM60 90zM61 90zM62 90zM63 90zM83 90zM84 90zM85 90zM86 90zM87 90zM88 90zM89 90zM96 90zM34 91zM41 91zM64 91zM73 91zM74 91zM75 91zM83 91zM84 91zM85 91zM87 91zM12 92zM73 92zM74 92zM75 92zM77 92zM83 92zM84 92zM85 92zM48 93zM55 93zM83 93zM26 94zM62 94zM82 94zM83 94zM62 95zM69 95zM69 96zM76 97zM44 99zM59 99zM65 100zM59 101zM72 101zM0 105zM61 106zM59 107zM61 108zM64 108zM6 113zM11 114zM56 119zM62 120zM48 121zM55 122zM66 124zM88 124zM72 125zM77 126z" />
<path stroke-width="0.37" d="M43 8zM72 8zM32 9zM90 9zM80 10zM107 10zM111 11zM52 13zM53 13zM54 13zM55 13zM56 13zM57 13zM58 13zM74 14zM75 14zM76 14zM77 14zM78 14zM79 14zM60 23zM36 30zM63 32zM55 33zM75 33zM101 33zM69 34zM74 34zM37 35zM68 35zM102 35zM65 36zM57 39zM51 40zM53 41zM70 47zM33 48zM67 48zM79 49zM41 50zM73 50zM44 60zM43 61zM36 63zM63 67zM57 68zM65 69zM73 70zM45 71zM50 72zM59 72zM60 72zM69 74zM24 77zM81 78zM84 79zM95 81zM89 82zM97 82zM106 82zM109 82zM4 85zM26 85zM103 85zM27 86zM106 86zM28 87zM29 87zM30 87zM31 87zM37 87zM86 87zM97 87zM35 88zM61 88zM62 88zM85 88zM95 88zM100 88zM23 89zM24 89zM25 89zM42 89zM63 89zM94 89zM29 90zM32 90zM49 90zM53 90zM54 90zM64 90zM72 90zM77 90zM91 90zM92 90zM36 91zM40 91zM62 91zM70 91zM0 92zM11 92zM69 92zM0 93zM54 93zM72 93zM0 94zM61 94zM81 94zM0 95zM63 95zM88 95zM0 96zM0 97zM78 97zM0 98zM0 99zM0 100zM100 100zM0 101zM71 101zM0 102zM78 102zM0 103zM64 104zM64 105zM58 107zM6 110zM11 111zM17 112zM23 113zM34 115zM22 116zM33 118zM38 119zM49 121zM54 122z" />
<path stroke-width="0.18" d="M51 8zM86 10zM100 10zM120 18zM37 32zM123 36zM31 39zM96 74zM82 81zM112 82zM25 83zM73 83zM78 83zM79 83zM82 83zM114 83zM70 85zM71 85zM77 85zM45 86zM58 86zM66 86zM67 86zM69 86zM72 86zM74 86zM75 86zM77 86zM56 87zM68 87zM69 87zM70 87zM71 87zM67 88zM70 89zM96 92zM95 93zM91 96zM95 96zM25 98zM26 98zM27 98zM28 98zM29 98zM25 99zM26 99zM27 99zM28 99zM29 99zM30 99zM31 99zM32 99zM101 99zM25 100zM27 100zM28 100zM29 100zM30 100zM31 100zM32 100zM33 100zM34 100zM35 100zM36 100zM37 100zM38 100zM46 100zM24 101zM29 101zM30 101zM31 101zM32 101zM33 101zM34 101zM35 101zM36 101zM37 101zM38 101zM39 101zM40 101zM41 101zM42 101zM43 101zM44 101zM96 101zM34 102zM35 102zM36 102zM37 102zM38 102zM39 102zM40 102zM41 102zM42 102zM43 102zM44 102zM45 102zM46 102zM47 102zM48 102zM49 102zM50 102zM51 102zM52 102zM53 102zM54 102zM55 102zM40 103zM41 103zM42 103zM43 103zM44 103zM45 103zM46 103zM47 103zM48 103zM49 103zM50 103zM51 103zM52 103zM53 103zM54 103zM55 103zM39 104zM48 104zM49 104zM50 104zM51 104zM52 104zM53 104zM54 104zM55 104zM121 110zM5 112zM118 112zM114 113zM29 115zM35 116zM26 117zM40 117zM46 118zM110 118zM43 119zM47 121zM54 121zM104 121zM98 124zM95 125z" />
<path stroke-width="0.15" d="M53 8zM61 8zM88 10zM99 10zM105 11zM116 14zM62 23zM122 27zM124 37zM134 53zM126 58zM47 64zM49 65zM105 67zM131 71zM41 73zM75 76zM76 76zM97 79zM79 82zM80 82zM119 82zM80 83zM81 83zM119 83zM28 84zM113 84zM118 84zM30 85zM34 85zM59 86zM83 86zM49 87zM50 87zM51 87zM52 87zM53 87zM65 87zM80 87zM82 87zM72 88zM75 88zM68 89zM92 94zM110 94zM92 95zM94 95zM92 96zM93 96zM94 96zM106 96zM104 97zM37 99zM40 100zM44 100zM25 101zM27 101zM52 101zM53 101zM54 101zM32 102zM44 104zM48 105zM53 105zM56 106zM6 112zM11 113zM39 117zM110 117zM45 118zM50 119zM56 120zM55 121zM62 121zM67 122zM102 122zM66 123zM73 123zM72 124zM75 124zM77 125zM94 125z" />
<path stroke-width="0.13" d="M54 8zM80 9zM89 10zM109 11zM125 45zM37 65zM41 69zM102 70zM93 76zM90 77zM91 77zM87 79zM83 81zM83 82zM113 83zM118 83zM31 85zM37 86zM43 86zM60 86zM97 91zM116 91zM114 92zM100 93zM24 96zM24 99zM26 101zM36 103zM5 111zM7 112zM12 113zM24 115zM111 115zM29 116zM32 116zM35 117zM36 117zM37 117zM40 118zM42 118zM43 118zM46 119zM47 119zM48 119zM49 119zM51 120zM52 120zM53 120zM54 120zM57 121zM58 121zM59 121zM60 121zM97 124zM79 125zM80 125zM74 126z" />
<path stroke-width="0.19" d="M63 8zM82 9zM29 28zM37 31zM37 33zM126 53zM127 62zM95 74zM98 74zM93 75zM88 79zM79 81zM95 83zM111 83zM35 85zM46 87zM79 87zM83 87zM77 88zM101 89zM101 90zM92 91zM80 95zM81 95zM26 100zM7 111zM12 112zM5 113zM18 113zM24 114zM115 114zM112 116zM32 117zM37 118zM106 118zM80 124zM88 127z" />
<path stroke-width="0.48" d="M123 8zM77 10zM35 11zM113 11zM48 12zM91 15zM115 15zM119 19zM92 24zM29 25zM55 29zM61 29zM62 29zM64 29zM38 30zM58 30zM63 30zM93 30zM52 31zM71 31zM72 31zM65 32zM58 33zM68 33zM73 33zM66 34zM70 35zM75 35zM50 36zM55 36zM62 37zM94 37zM55 38zM75 38zM103 39zM102 41zM125 42zM69 43zM71 44zM65 45zM53 46zM73 46zM78 46zM33 47zM52 48zM57 48zM65 48zM71 49zM96 49zM41 58zM45 60zM46 61zM48 66zM50 67zM46 68zM99 68zM46 69zM46 71zM47 71zM94 73zM101 73zM88 76zM105 77zM106 77zM97 78zM105 78zM106 79zM85 84zM107 85zM105 86zM94 90zM90 92zM87 95zM22 96zM31 96zM18 97zM38 97zM106 97zM42 98zM45 98zM18 99zM49 99zM53 99zM21 100zM26 103zM87 103zM30 104zM35 105zM36 105zM85 105zM1 106zM41 106zM42 106zM85 106zM50 107zM2 108zM4 109zM67 109zM85 109zM85 110zM85 111zM85 112zM85 114zM85 120zM85 122z" />
<path stroke-width="0.06" d="M31 9zM107 11zM108 11zM117 15zM27 18zM27 19zM122 26zM31 41zM32 46zM125 46zM33 52zM34 57zM36 64zM38 67zM29 75zM125 77zM75 83zM71 84zM107 120zM57 123zM95 124z" />
<path stroke-width="0.58" d="M33 9zM56 9zM111 13zM113 14zM119 15zM93 22zM105 23zM105 24zM105 25zM51 30zM64 30zM66 30zM106 30zM106 31zM57 32zM106 32zM51 33zM66 33zM71 33zM106 33zM58 34zM75 34zM57 35zM95 35zM71 36zM55 37zM58 37zM75 37zM107 38zM71 39zM107 39zM55 40zM65 40zM107 40zM54 41zM59 41zM96 41zM107 41zM125 41zM56 42zM104 42zM59 44zM69 44zM53 45zM57 46zM70 46zM108 46zM59 47zM64 47zM108 47zM58 48zM97 48zM105 48zM108 48zM60 49zM62 49zM105 49zM108 49zM74 50zM79 50zM106 53zM98 54zM109 54zM106 55zM109 55zM109 56zM35 57zM109 57zM99 60zM107 60zM110 61zM110 62zM107 63zM110 63zM126 63zM107 64zM110 64zM110 65zM100 69zM111 70zM111 71zM111 72zM58 73zM111 73zM111 74zM45 75zM70 75zM44 76zM43 77zM42 78zM96 78zM112 78zM41 79zM40 80zM90 80zM39 81zM25 82zM38 82zM35 83zM36 83zM16 95zM68 102zM89 105zM89 106zM68 107zM89 107zM89 108zM89 109zM89 111zM89 112zM89 113zM89 114zM89 115zM89 116zM89 117zM89 118zM89 119zM89 120zM89 121z" />
<path stroke-width="0.79" d="M34 9zM45 11zM66 12zM33 13zM33 16zM127 17zM126 18zM104 19zM125 19zM95 20zM98 20zM111 20zM124 20zM115 21zM29 22zM117 23zM123 23zM117 24zM117 25zM99 27zM118 30zM118 31zM118 32zM97 33zM118 33zM118 34zM119 37zM119 38zM98 39zM119 39zM37 40zM119 40zM119 41zM123 42zM99 46zM120 47zM120 48zM120 49zM34 50zM38 50zM124 50zM120 51zM100 52zM38 54zM121 54zM39 55zM121 55zM127 55zM121 56zM40 57zM121 57zM101 58zM39 62zM39 63zM122 63zM39 64zM102 64zM122 64zM122 65zM122 66zM126 67zM126 68zM123 70zM123 71zM123 72zM123 73zM59 74zM60 74zM61 74zM123 74zM62 75zM63 76zM61 77zM62 77zM103 77zM60 78zM61 78zM121 78zM60 79zM119 79zM58 80zM59 80zM58 81zM56 82zM57 82zM116 82zM56 83zM54 84zM47 85zM58 85zM119 109zM96 122z" />
<path stroke-width="0.89" d="M35 9zM65 10zM84 11zM74 12zM102 12zM30 13zM98 13zM109 14zM99 17zM100 17zM101 17zM102 17zM103 17zM104 17zM115 17zM33 18zM97 18zM30 20zM29 21zM97 23zM129 23zM130 23zM34 24zM31 26zM125 26zM30 27zM35 30zM32 31zM35 32zM130 32zM99 35zM126 35zM33 37zM131 40zM122 42zM127 43zM101 47zM35 48zM34 49zM132 49zM123 50zM132 50zM128 52zM102 53zM36 54zM102 54zM124 57zM103 60zM129 61zM133 61zM125 66zM132 67zM125 70zM125 74zM69 76zM70 76zM100 79zM77 80zM67 83zM60 84zM123 89zM106 99zM104 100zM102 101zM96 103zM115 110zM104 117z" />
<path stroke-width="0.95" d="M36 9zM44 9zM47 10zM48 10zM62 10zM61 11zM62 11zM82 12zM105 13zM109 13zM110 14zM29 20zM119 21zM30 22zM98 23zM30 26zM121 31zM99 32zM121 32zM122 38zM33 39zM122 39zM101 44zM123 46zM127 46zM123 47zM34 48zM35 50zM127 52zM124 54zM124 55zM128 55zM125 61zM128 61zM125 62zM129 64zM104 75zM123 77zM113 95zM111 96zM100 101zM114 111zM106 116z" />
<path stroke-width="0.96" d="M37 9zM42 9zM43 9zM35 10zM49 10zM50 10zM51 10zM61 10zM63 11zM64 11zM65 11zM80 11zM81 11zM83 12zM84 12zM98 12zM106 13zM120 24zM124 26zM125 30zM31 31zM100 35zM125 35zM32 37zM100 38zM126 39zM126 43zM127 47zM102 50zM103 53zM103 56zM128 56zM129 71zM130 71zM103 73zM63 84zM109 97zM107 98zM99 102zM123 106zM109 115zM103 118zM98 121z" />
<path stroke-width="0.97" d="M38 9zM39 9zM40 9zM41 9zM32 10zM34 10zM52 10zM53 10zM59 10zM60 10zM66 11zM67 11zM68 11zM79 11zM85 12zM86 12zM97 12zM29 16zM29 19zM30 23zM98 24zM124 24zM98 26zM31 29zM99 29zM99 31zM125 31zM32 34zM125 34zM33 40zM126 40zM33 42zM101 43zM34 45zM102 47zM127 48zM102 49zM35 51zM127 51zM36 56zM128 57zM104 60zM128 60zM104 65zM129 65zM129 66zM129 67zM129 68zM129 69zM129 70zM128 73zM110 96zM105 99zM103 100zM101 101zM122 106zM111 113z" />
<path stroke-width="0.94" d="M45 9zM41 10zM42 10zM43 10zM44 10zM45 10zM46 10zM30 11zM58 11zM59 11zM60 11zM82 11zM80 12zM81 12zM99 12zM114 16zM97 20zM118 20zM119 22zM120 25zM98 27zM31 28zM125 29zM121 30zM32 33zM126 38zM122 40zM34 44zM102 46zM123 48zM124 53zM36 55zM103 57zM36 59zM104 59zM125 60zM37 61zM125 63zM132 68zM131 70zM125 72zM125 73zM104 74zM73 77zM77 79zM75 81zM76 81zM70 82zM119 92zM115 94zM98 102zM120 108zM117 109zM101 119zM97 121z" />
<path stroke-width="0.92" d="M46 9zM55 11zM56 11zM77 12zM100 12zM102 13zM112 15zM114 15zM33 19zM97 19zM129 19zM129 20zM30 21zM97 21zM124 23zM130 26zM31 27zM124 27zM125 28zM130 28zM121 29zM130 29zM125 36zM126 37zM131 37zM33 38zM122 41zM132 43zM101 45zM127 45zM132 45zM123 49zM133 53zM133 55zM124 56zM133 64zM125 71zM101 74zM124 75zM101 80zM69 82zM62 84zM121 91z" />
<path stroke-width="0.90" d="M47 9zM52 11zM53 11zM75 12zM101 12zM99 13zM100 13zM97 22zM98 22zM129 22zM130 24zM34 26zM120 26zM125 27zM98 28zM35 31zM130 31zM131 33zM99 34zM32 38zM131 39zM132 41zM123 44zM101 46zM132 48zM133 50zM124 52zM133 58zM103 59zM125 59zM37 60zM133 62zM103 66zM130 70zM124 76zM101 79zM77 81zM100 102zM123 105zM106 117z" />
<path stroke-width="0.88" d="M48 9zM51 11zM73 12zM93 13zM94 13zM95 13zM96 13zM97 13zM30 14zM96 14zM97 14zM98 14zM99 14zM100 14zM101 14zM102 14zM103 14zM104 14zM105 14zM106 14zM107 14zM108 14zM30 15zM32 15zM96 15zM97 15zM98 15zM99 15zM100 15zM101 15zM102 15zM103 15zM104 15zM105 15zM106 15zM107 15zM108 15zM109 15zM110 15zM30 16zM32 16zM96 16zM97 16zM98 16zM99 16zM100 16zM101 16zM102 16zM103 16zM104 16zM105 16zM106 16zM107 16zM108 16zM109 16zM110 16zM111 16zM112 16zM30 17zM31 17zM96 17zM97 17zM98 17zM105 17zM106 17zM107 17zM108 17zM109 17zM110 17zM111 17zM112 17zM113 17zM30 18zM31 18zM96 18zM106 18zM107 18zM108 18zM109 18zM110 18zM111 18zM112 18zM113 18zM114 18zM115 18zM116 18zM30 19zM31 19zM117 19zM31 20zM31 21zM128 21zM31 22zM123 22zM127 22zM128 22zM31 23zM120 23zM126 23zM127 23zM128 23zM31 24zM97 24zM125 24zM126 24zM127 24zM128 24zM129 24zM31 25zM32 25zM125 25zM126 25zM127 25zM128 25zM129 25zM32 26zM126 26zM127 26zM128 26zM129 26zM32 27zM34 27zM126 27zM127 27zM128 27zM129 27zM32 28zM126 28zM127 28zM128 28zM129 28zM32 29zM98 29zM126 29zM127 29zM128 29zM129 29zM32 30zM98 30zM126 30zM127 30zM128 30zM129 30zM126 31zM127 31zM128 31zM129 31zM126 32zM127 32zM128 32zM129 32zM131 32zM33 33zM126 33zM127 33zM128 33zM129 33zM130 33zM33 34zM126 34zM127 34zM128 34zM129 34zM130 34zM33 35zM121 35zM127 35zM128 35zM129 35zM130 35zM33 36zM36 36zM99 36zM127 36zM128 36zM129 36zM130 36zM99 37zM127 37zM128 37zM129 37zM130 37zM127 38zM128 38zM129 38zM130 38zM127 39zM128 39zM129 39zM130 39zM127 40zM128 40zM129 40zM130 40zM132 40zM100 41zM127 41zM128 41zM129 41zM130 41zM131 41zM34 42zM100 42zM127 42zM128 42zM129 42zM130 42zM131 42zM100 43zM128 43zM129 43zM130 43zM131 43zM128 44zM129 44zM130 44zM131 44zM128 45zM129 45zM130 45zM131 45zM128 46zM129 46zM130 46zM131 46zM35 47zM128 47zM129 47zM130 47zM131 47zM101 48zM128 48zM129 48zM130 48zM131 48zM101 49zM128 49zM129 49zM130 49zM131 49zM128 50zM129 50zM130 50zM131 50zM128 51zM129 51zM130 51zM131 51zM132 51zM129 52zM130 52zM131 52zM132 52zM129 53zM130 53zM131 53zM132 53zM129 54zM130 54zM131 54zM132 54zM102 55zM129 55zM130 55zM131 55zM132 55zM102 56zM129 56zM130 56zM131 56zM132 56zM129 57zM130 57zM131 57zM132 57zM129 58zM130 58zM131 58zM132 58zM129 59zM130 59zM131 59zM132 59zM133 59zM36 60zM129 60zM130 60zM131 60zM132 60zM133 60zM103 61zM130 61zM131 61zM132 61zM103 62zM130 62zM131 62zM132 62zM130 63zM131 63zM132 63zM130 64zM131 64zM132 64zM130 65zM131 65zM132 65zM130 66zM131 66zM132 66zM125 67zM130 67zM131 67zM102 68zM125 68zM130 68zM125 69zM72 77zM74 77zM73 81zM59 84zM55 85zM123 91zM121 92zM122 92zM123 92zM119 93zM120 93zM121 93zM122 93zM123 93zM117 94zM118 94zM119 94zM120 94zM121 94zM122 94zM123 94zM115 95zM116 95zM117 95zM118 95zM119 95zM120 95zM121 95zM122 95zM123 95zM114 96zM115 96zM116 96zM117 96zM118 96zM119 96zM120 96zM121 96zM122 96zM123 96zM110 97zM112 97zM113 97zM114 97zM115 97zM116 97zM117 97zM118 97zM119 97zM120 97zM121 97zM122 97zM123 97zM108 98zM110 98zM111 98zM112 98zM113 98zM114 98zM115 98zM116 98zM117 98zM118 98zM119 98zM120 98zM121 98zM122 98zM123 98zM108 99zM109 99zM110 99zM111 99zM112 99zM113 99zM114 99zM115 99zM116 99zM117 99zM118 99zM119 99zM120 99zM121 99zM122 99zM123 99zM106 100zM107 100zM108 100zM109 100zM110 100zM111 100zM112 100zM113 100zM114 100zM115 100zM116 100zM117 100zM118 100zM119 100zM120 100zM121 100zM122 100zM123 100zM104 101zM105 101zM106 101zM107 101zM108 101zM109 101zM110 101zM111 101zM112 101zM113 101zM114 101zM115 101zM116 101zM117 101zM118 101zM119 101zM120 101zM121 101zM122 101zM123 101zM102 102zM103 102zM104 102zM105 102zM106 102zM107 102zM108 102zM109 102zM110 102zM111 102zM112 102zM113 102zM114 102zM115 102zM116 102zM117 102zM118 102zM119 102zM120 102zM121 102zM122 102zM123 102zM100 103zM101 103zM102 103zM103 103zM104 103zM105 103zM106 103zM107 103zM108 103zM109 103zM110 103zM111 103zM112 103zM113 103zM114 103zM115 103zM116 103zM117 103zM118 103zM119 103zM120 103zM121 103zM122 103zM123 103zM100 104zM101 104zM102 104zM103 104zM104 104zM105 104zM106 104zM107 104zM108 104zM109 104zM110 104zM111 104zM112 104zM113 104zM114 104zM115 104zM116 104zM117 104zM118 104zM119 104zM120 104zM121 104zM122 104zM123 104zM100 105zM101 105zM102 105zM103 105zM104 105zM105 105zM106 105zM107 105zM108 105zM109 105zM110 105zM111 105zM112 105zM113 105zM114 105zM115 105zM116 105zM117 105zM118 105zM119 105zM120 105zM121 105zM100 106zM101 106zM102 106zM103 106zM104 106zM105 106zM106 106zM107 106zM108 106zM109 106zM110 106zM111 106zM112 106zM113 106zM114 106zM115 106zM116 106zM117 106zM118 106zM119 106zM100 107zM101 107zM102 107zM103 107zM104 107zM105 107zM106 107zM107 107zM108 107zM109 107zM110 107zM111 107zM112 107zM113 107zM114 107zM115 107zM116 107zM117 107zM118 107zM100 108zM101 108zM102 108zM103 108zM104 108zM105 108zM106 108zM107 108zM108 108zM109 108zM110 108zM111 108zM112 108zM113 108zM114 108zM115 108zM116 108zM118 108zM100 109zM101 109zM102 109zM103 109zM104 109zM105 109zM106 109zM107 109zM108 109zM109 109zM110 109zM111 109zM112 109zM113 109zM114 109zM115 109zM100 110zM101 110zM102 110zM103 110zM104 110zM105 110zM106 110zM107 110zM108 110zM109 110zM110 110zM111 110zM112 110zM113 110zM100 111zM101 111zM102 111zM103 111zM104 111zM105 111zM106 111zM107 111zM108 111zM109 111zM110 111zM111 111zM112 111zM100 112zM101 112zM102 112zM103 112zM104 112zM105 112zM106 112zM107 112zM108 112zM109 112zM110 112zM114 112zM100 113zM101 113zM102 113zM103 113zM104 113zM105 113zM106 113zM107 113zM108 113zM100 114zM101 114zM102 114zM103 114zM104 114zM105 114zM106 114zM107 114zM100 115zM101 115zM102 115zM103 115zM104 115zM105 115zM107 115zM100 116zM101 116zM102 116zM103 116zM104 116zM100 117zM101 117zM102 117zM100 118zM101 120z" />
<path stroke-width="0.85" d="M49 9zM32 11zM31 12zM33 12zM70 12zM32 13zM95 15zM98 18zM112 19zM128 19zM96 21zM126 21zM124 22zM33 23zM33 24zM33 25zM33 26zM34 28zM97 28zM120 28zM34 33zM34 34zM98 34zM34 35zM122 36zM36 38zM99 40zM35 41zM37 41zM35 42zM37 43zM123 43zM100 47zM36 50zM36 51zM124 51zM101 53zM37 57zM37 58zM102 59zM128 63zM103 74zM99 75zM68 76zM101 78zM120 79zM51 85zM113 94zM95 103zM98 103zM99 121zM94 122z" />
<path stroke-width="0.82" d="M50 9zM32 12zM68 12zM128 17zM95 18zM127 18zM107 19zM114 20zM123 20zM98 21zM117 21zM96 24zM30 28zM120 31zM120 32zM31 33zM120 33zM120 34zM35 35zM35 36zM98 37zM121 38zM121 39zM121 40zM121 41zM99 43zM33 44zM36 44zM122 46zM122 47zM122 48zM133 48zM100 49zM122 49zM37 51zM103 51zM37 52zM39 53zM123 54zM123 55zM101 56zM123 56zM123 57zM38 59zM134 59zM38 60zM134 60zM38 61zM124 61zM38 62zM102 62zM124 62zM124 63zM124 64zM38 65zM124 65zM124 66zM124 74zM102 75zM102 76zM76 79zM71 81zM67 82zM49 85zM107 97zM97 104zM97 105zM97 106zM97 107zM122 107zM97 108zM97 109zM97 110zM97 111zM97 112zM97 113zM97 114zM97 115zM97 116zM97 117zM97 118zM97 119zM97 120z" />
<path stroke-width="0.80" d="M51 9zM68 10zM67 12zM105 12zM88 13zM110 13zM98 19zM105 19zM112 20zM116 21zM117 22zM118 22zM118 23zM118 24zM118 25zM96 26zM118 26zM118 27zM118 28zM118 29zM97 32zM119 32zM119 33zM119 34zM119 35zM122 35zM119 36zM98 38zM120 41zM120 42zM120 43zM120 44zM99 45zM120 45zM37 46zM38 46zM120 46zM126 46zM37 47zM37 48zM121 48zM121 49zM121 50zM100 51zM121 51zM121 52zM121 53zM35 55zM38 55zM38 56zM122 56zM101 57zM104 57zM122 57zM40 58zM122 58zM122 59zM122 60zM36 61zM122 61zM134 61zM122 62zM123 64zM123 65zM123 66zM123 67zM42 68zM123 68zM123 69zM124 72zM124 73zM101 75zM64 76zM97 76zM101 76zM63 77zM101 77zM62 78zM61 79zM121 79zM60 80zM59 81zM58 82zM57 83zM63 83zM68 83zM55 84zM109 96zM97 102zM96 104zM96 105zM96 106zM96 107zM96 108zM96 109zM96 110zM96 111zM96 112zM96 113zM96 114zM96 115zM96 116zM96 117zM96 118zM96 119zM96 120z" />
<path stroke-width="0.76" d="M52 9zM43 11zM29 12zM86 13zM33 14zM94 16zM126 17zM100 19zM101 19zM124 19zM109 20zM113 21zM115 22zM115 23zM115 24zM116 28zM96 29zM116 29zM116 30zM116 31zM116 32zM116 33zM97 35zM117 37zM117 38zM117 39zM117 40zM102 44zM118 44zM118 45zM118 46zM118 47zM99 48zM118 48zM118 49zM39 51zM119 52zM119 53zM100 54zM119 54zM119 55zM119 56zM39 57zM39 58zM120 61zM120 62zM120 63zM40 64zM120 64zM128 64zM120 65zM103 68zM101 69zM121 69zM121 70zM121 71zM121 72zM121 73zM60 75zM122 76zM54 81zM52 83zM51 84zM103 99z" />
<path stroke-width="0.73" d="M53 9zM63 12zM123 19zM107 20zM111 21zM113 22zM114 26zM114 27zM114 28zM114 29zM114 30zM96 31zM114 31zM100 32zM115 34zM122 34zM115 35zM115 36zM115 37zM115 38zM115 39zM98 43zM116 43zM116 44zM38 45zM116 45zM116 46zM116 47zM126 47zM99 50zM117 50zM117 51zM117 52zM117 53zM117 54zM117 55zM100 56zM118 58zM40 59zM41 59zM118 59zM40 60zM118 60zM118 61zM118 62zM134 62zM101 63zM126 65zM119 67zM119 68zM119 69zM119 70zM119 71zM128 71zM56 74zM58 75zM57 76zM120 76zM56 77zM95 77zM99 77zM120 77zM48 78zM55 78zM51 79zM54 79zM78 79zM118 79zM53 80zM52 81zM51 82zM115 82zM50 83zM48 84z" />
<path stroke-width="0.70" d="M54 9zM71 10zM40 11zM61 12zM121 17zM105 20zM94 21zM112 22zM29 23zM112 23zM112 24zM112 25zM112 26zM95 27zM112 27zM96 33zM113 33zM113 34zM113 35zM114 40zM114 41zM114 42zM114 43zM115 49zM39 50zM115 50zM115 51zM99 52zM115 52zM35 56zM40 56zM116 56zM116 57zM100 58zM116 58zM116 59zM116 60zM41 63zM41 64zM117 65zM41 66zM117 66zM117 67zM117 68zM118 73zM54 74zM118 74zM56 75zM118 75zM118 76zM52 78zM77 78zM94 78zM102 79zM117 79zM51 80zM102 80zM49 81zM39 84zM99 101zM105 118z" />
<path stroke-width="0.65" d="M55 9zM126 11zM58 12zM126 12zM127 12zM80 13zM126 13zM125 14zM28 15zM124 15zM123 16zM122 17zM102 20zM107 21zM109 22zM120 22zM109 23zM94 24zM109 24zM109 25zM109 26zM109 27zM95 30zM100 31zM110 31zM110 32zM36 33zM110 33zM110 34zM111 39zM111 40zM111 41zM111 42zM97 43zM111 43zM112 47zM112 48zM126 48zM98 49zM112 49zM112 50zM99 56zM113 56zM113 57zM134 57zM113 58zM42 62zM100 62zM114 63zM42 64zM114 64zM114 65zM114 66zM114 67zM115 72zM115 73zM49 74zM115 74zM51 75zM115 75zM51 76zM105 76zM115 76zM47 79zM114 79zM46 80zM116 80zM23 81zM45 81zM44 82zM74 82zM43 83zM22 100zM91 105zM91 106zM91 107zM91 108zM91 109zM91 110zM91 111zM91 112zM91 113zM91 114zM91 115zM91 116zM91 117zM91 118zM91 119zM91 120zM91 121zM97 122zM89 123z" />
<path stroke-width="0.50" d="M57 9zM96 11zM72 13zM90 14zM91 16zM99 23zM101 27zM68 30zM76 30zM56 31zM54 32zM69 32zM70 32zM74 32zM63 33zM62 34zM94 35zM31 36zM56 37zM69 39zM72 40zM95 41zM59 42zM53 43zM73 43zM77 43zM66 44zM76 44zM68 46zM57 47zM96 47zM97 54zM98 60zM134 64zM42 69zM106 71zM45 73zM46 73zM86 81zM89 81zM70 83zM109 83zM105 85zM124 89zM88 93zM90 93zM86 94zM21 97zM51 99zM17 100zM85 104zM86 105zM124 105zM86 106zM86 107zM86 108zM86 109zM86 110zM86 111zM86 112zM86 113zM86 114zM86 115zM86 116zM86 117zM86 118zM86 119zM86 120zM86 121zM86 122z" />
<path stroke-width="0.53" d="M124 9zM51 12zM120 17zM92 20zM101 23zM102 23zM102 24zM102 25zM93 26zM102 26zM102 27zM102 28zM69 30zM103 30zM103 31zM103 32zM59 33zM94 33zM103 33zM73 36zM37 37zM68 37zM51 39zM95 39zM57 40zM68 40zM58 43zM67 44zM104 44zM96 45zM62 46zM67 46zM56 47zM71 47zM76 48zM57 49zM58 49zM97 52zM40 54zM98 58zM99 64zM46 65zM104 67zM107 67zM108 72zM130 72zM49 73zM108 73zM108 74zM108 75zM73 76zM108 76zM75 82zM86 82zM28 83zM110 83zM101 87zM87 94zM88 94zM22 95zM85 95zM86 95zM83 96zM23 97zM66 103zM89 103zM86 104zM87 105zM87 106zM87 107zM87 108zM87 109zM87 110zM87 111zM87 112zM87 113zM87 114zM87 115zM87 116zM87 117zM87 118zM87 119zM87 120zM87 121zM87 122zM85 123z" />
<path stroke-width="0.72" d="M31 10zM41 11zM62 12zM106 12zM84 13zM127 14zM129 16zM118 18zM122 18zM94 19zM106 20zM113 23zM113 24zM95 25zM113 25zM113 26zM113 27zM114 32zM114 33zM31 34zM114 34zM114 35zM97 38zM37 39zM115 40zM115 41zM123 41zM115 42zM115 43zM98 44zM116 48zM116 49zM103 50zM116 50zM99 51zM116 51zM116 52zM104 56zM117 56zM100 57zM117 57zM117 58zM117 59zM117 60zM118 63zM118 64zM118 65zM118 66zM118 67zM118 68zM119 72zM119 73zM55 74zM119 74zM57 75zM119 75zM56 76zM119 76zM55 77zM54 78zM120 78zM53 79zM49 80zM52 80zM51 81zM50 82zM49 83zM43 84zM44 84zM45 84zM47 84zM101 100zM116 111z" />
<path stroke-width="0.98" d="M33 10zM54 10zM55 10zM56 10zM58 10zM31 11zM69 11zM70 11zM78 11zM87 12zM88 12zM89 12zM92 12zM93 12zM94 12zM95 12zM96 12zM29 13zM107 13zM108 13zM29 15zM29 17zM29 18zM30 24zM30 25zM98 25zM124 25zM31 30zM99 30zM125 32zM125 33zM32 35zM32 36zM100 36zM100 37zM101 41zM126 41zM101 42zM126 42zM34 47zM102 48zM127 49zM127 50zM35 53zM103 54zM103 55zM36 57zM36 58zM128 58zM128 59zM104 61zM37 63zM38 64zM104 64zM103 67zM129 72zM104 73zM104 76zM122 90zM108 97zM106 98zM104 99zM102 100zM119 108zM112 113zM108 115zM105 117z" />
<path stroke-width="0.93" d="M36 10zM37 10zM38 10zM39 10zM40 10zM63 10zM57 11zM78 12zM79 12zM103 13zM104 13zM112 14zM33 20zM130 27zM99 33zM121 33zM131 35zM131 36zM100 39zM132 44zM123 45zM102 51zM35 54zM128 54zM133 54zM129 63zM125 64zM39 65zM133 65zM133 66zM132 69zM65 83zM66 83zM123 90zM117 93zM120 107zM109 114zM99 120z" />
<path stroke-width="0.99" d="M57 10zM71 11zM72 11zM73 11zM74 11zM75 11zM76 11zM77 11zM90 12zM91 12zM29 14zM33 41zM34 46zM35 52zM37 62zM104 62zM104 63zM128 74zM120 91zM118 92zM114 94zM112 95zM116 110zM110 114z" />
<path stroke-width="0.91" d="M64 10zM54 11zM83 11zM76 12zM101 13zM129 18zM33 21zM123 21zM129 21zM34 25zM130 25zM99 28zM130 30zM31 32zM32 32zM100 34zM121 34zM131 34zM126 36zM122 37zM131 38zM100 40zM101 40zM132 42zM33 43zM34 43zM126 44zM127 44zM132 46zM132 47zM35 49zM133 51zM102 52zM103 52zM133 52zM127 53zM128 53zM133 56zM133 57zM103 58zM128 62zM129 62zM133 63zM125 65zM133 67zM131 69zM102 74zM103 76zM75 78zM76 78zM122 78zM78 80zM74 81zM71 82zM61 84zM121 90zM117 110zM112 112z" />
<path stroke-width="0.86" d="M66 10zM33 11zM49 11zM71 12zM103 12zM31 13zM91 13zM129 17zM32 18zM100 18zM101 18zM102 18zM32 19zM113 19zM114 19zM115 19zM116 19zM32 20zM96 20zM127 20zM32 21zM33 22zM125 22zM130 22zM33 27zM97 27zM33 28zM33 29zM98 32zM98 33zM36 35zM34 36zM121 36zM34 37zM99 39zM35 43zM122 43zM35 44zM35 45zM100 45zM102 45zM126 45zM100 46zM123 51zM36 52zM101 52zM36 53zM127 54zM102 58zM124 58zM38 63zM103 64zM103 65zM39 66zM66 75zM102 77zM68 82zM58 84zM52 85zM111 95zM99 103zM99 104zM99 105zM99 106zM99 107zM119 107zM99 108zM99 109zM116 109zM99 110zM99 111zM99 112zM99 113zM99 114zM99 115zM99 116zM99 117zM99 118zM99 119z" />
<path stroke-width="0.83" d="M67 10zM47 11zM69 12zM128 15zM128 16zM95 17zM128 18zM108 19zM109 19zM115 20zM116 20zM126 20zM125 21zM96 23zM121 27zM35 29zM120 29zM34 30zM97 30zM120 30zM35 34zM98 36zM35 37zM35 38zM36 39zM99 42zM37 44zM36 45zM122 45zM36 46zM36 47zM100 48zM37 53zM123 53zM37 54zM101 55zM124 60zM102 61zM67 76zM71 76zM71 77zM74 78zM100 78zM50 85zM57 85z" />
<path stroke-width="0.77" d="M69 10zM65 12zM128 14zM33 15zM94 15zM127 16zM125 18zM102 19zM110 20zM95 22zM116 23zM116 24zM116 25zM116 26zM121 26zM116 27zM96 28zM117 32zM117 33zM117 34zM117 35zM117 36zM118 40zM98 41zM118 41zM118 42zM118 43zM99 47zM119 48zM119 49zM119 50zM119 51zM100 53zM120 56zM120 57zM120 58zM39 59zM120 59zM101 60zM120 60zM121 65zM102 66zM121 66zM126 66zM121 67zM121 68zM126 69zM122 72zM102 73zM122 73zM58 74zM62 74zM122 74zM61 75zM122 75zM60 76zM99 76zM100 76zM59 77zM96 77zM122 77zM58 78zM57 79zM58 79zM56 80zM55 81zM54 82zM53 83zM52 84zM95 104zM95 105zM95 106zM95 107zM95 108zM95 109zM95 110zM95 111zM95 112zM95 113zM95 114zM95 115zM95 116zM95 117zM95 118zM95 119zM95 120zM95 121zM93 122z" />
<path stroke-width="0.74" d="M70 10zM42 11zM89 11zM85 13zM127 13zM93 14zM127 15zM126 16zM117 17zM125 17zM94 18zM124 18zM112 21zM114 22zM114 23zM95 24zM114 24zM114 25zM115 29zM96 30zM115 30zM124 30zM131 30zM115 31zM115 32zM115 33zM97 37zM116 37zM116 38zM116 39zM125 39zM116 40zM116 41zM116 42zM117 45zM117 46zM117 47zM117 48zM99 49zM117 49zM118 53zM118 54zM100 55zM118 55zM118 56zM118 57zM41 60zM40 61zM119 61zM40 62zM101 62zM119 62zM119 63zM119 64zM119 65zM119 66zM102 67zM43 69zM120 70zM126 70zM120 71zM120 72zM120 73zM100 74zM120 74zM59 75zM120 75zM58 76zM57 77zM98 77zM121 77zM56 78zM55 79zM50 80zM54 80zM53 81zM52 82zM51 83zM49 84zM46 85zM59 85zM105 98zM93 104zM94 105zM94 106zM94 107zM94 108zM94 109zM94 110zM94 111zM94 112zM94 113zM94 114zM94 115zM94 116zM94 117zM94 118zM94 119zM94 120zM94 121z" />
<path stroke-width="0.67" d="M72 10zM59 12zM81 13zM93 15zM28 16zM93 16zM103 20zM108 21zM110 22zM94 23zM110 23zM110 24zM110 25zM110 26zM95 29zM111 31zM111 32zM111 33zM111 34zM96 35zM112 39zM112 40zM112 41zM97 42zM102 43zM113 47zM98 48zM113 48zM113 49zM113 50zM99 54zM114 55zM114 56zM114 57zM114 58zM100 60zM115 63zM115 64zM126 64zM115 65zM115 66zM42 67zM101 67zM115 67zM133 68zM116 71zM116 72zM105 73zM116 73zM51 74zM52 74zM116 74zM53 75zM125 75zM52 76zM75 77zM117 80zM47 81zM46 82zM45 83zM67 102zM90 123zM92 123z" />
<path stroke-width="0.64" d="M73 10zM36 11zM37 11zM92 11zM28 17zM93 18zM101 20zM108 23zM94 25zM109 28zM109 29zM109 30zM95 31zM109 31zM109 32zM110 35zM110 36zM96 37zM110 37zM110 38zM110 39zM123 40zM38 44zM97 44zM111 44zM111 45zM111 46zM111 47zM124 48zM98 50zM112 51zM112 52zM112 53zM112 54zM112 55zM113 59zM113 60zM113 61zM113 62zM42 63zM113 63zM134 63zM113 64zM43 68zM101 68zM114 68zM44 69zM114 69zM114 70zM114 71zM48 74zM65 74zM50 75zM96 76zM48 77zM115 77zM47 78zM115 78zM46 79zM92 79zM113 79zM22 80zM45 80zM44 81zM43 82zM42 83zM61 85zM120 90zM93 123z" />
<path stroke-width="0.59" d="M74 10zM125 10zM55 12zM125 12zM77 13zM123 14zM92 16zM121 16zM106 22zM29 24zM106 24zM106 25zM106 26zM106 27zM94 28zM106 28zM106 29zM131 29zM122 32zM107 33zM55 34zM60 34zM95 34zM107 34zM67 35zM72 35zM107 35zM51 36zM76 36zM107 36zM107 37zM56 39zM61 39zM69 41zM108 41zM102 42zM108 42zM55 43zM65 43zM108 43zM54 44zM74 44zM108 44zM108 45zM55 46zM75 46zM74 47zM97 47zM68 48zM73 48zM109 50zM109 51zM109 52zM98 53zM109 53zM106 54zM125 55zM110 57zM110 58zM110 59zM110 60zM107 61zM107 62zM43 64zM100 66zM111 66zM111 67zM128 67zM111 68zM128 68zM111 69zM44 70zM52 73zM112 74zM46 75zM112 75zM45 76zM112 76zM44 77zM104 77zM112 77zM43 78zM42 79zM109 79zM41 80zM40 81zM28 82zM39 82zM34 83zM37 83zM38 83zM35 84zM65 84zM43 85zM116 92zM88 104zM68 106zM89 110zM113 113zM89 122zM87 123z" />
<path stroke-width="0.56" d="M75 10zM53 12zM28 14zM120 15zM28 18zM92 18zM130 20zM102 21zM104 22zM104 23zM93 24zM104 24zM101 25zM104 25zM35 26zM104 26zM104 27zM56 30zM102 30zM50 31zM58 31zM73 31zM102 31zM105 31zM36 32zM52 32zM67 32zM72 32zM105 32zM74 33zM105 33zM50 34zM63 34zM65 34zM105 34zM52 35zM69 35zM105 35zM53 36zM95 36zM103 36zM63 37zM73 37zM52 38zM54 38zM57 38zM59 38zM62 38zM67 38zM72 38zM58 39zM66 39zM123 39zM106 40zM67 41zM106 41zM58 42zM66 42zM106 42zM52 43zM96 43zM104 43zM106 43zM64 44zM77 44zM106 44zM56 45zM58 45zM61 45zM68 45zM73 45zM106 45zM60 46zM72 46zM77 46zM105 46zM133 46zM63 48zM107 48zM77 49zM97 49zM107 49zM107 50zM106 51zM107 51zM107 52zM98 55zM108 56zM108 57zM107 58zM108 58zM108 59zM108 60zM99 62zM109 63zM44 64zM45 64zM109 64zM109 65zM44 66zM109 66zM106 67zM109 67zM44 68zM100 68zM106 68zM109 68zM105 69zM110 71zM110 72zM59 73zM110 73zM36 74zM37 74zM38 74zM39 74zM40 74zM41 74zM110 74zM31 75zM32 75zM33 75zM34 75zM35 75zM36 75zM37 75zM38 75zM39 75zM40 75zM41 75zM42 75zM110 75zM28 76zM29 76zM30 76zM31 76zM32 76zM33 76zM34 76zM35 76zM36 76zM37 76zM38 76zM39 76zM40 76zM41 76zM110 76zM25 77zM26 77zM27 77zM28 77zM29 77zM30 77zM31 77zM32 77zM33 77zM34 77zM35 77zM36 77zM37 77zM38 77zM39 77zM40 77zM110 77zM24 78zM25 78zM26 78zM27 78zM28 78zM29 78zM30 78zM31 78zM32 78zM33 78zM34 78zM35 78zM36 78zM37 78zM38 78zM39 78zM23 79zM24 79zM25 79zM26 79zM27 79zM28 79zM29 79zM30 79zM31 79zM32 79zM33 79zM34 79zM35 79zM36 79zM37 79zM38 79zM99 79zM23 80zM25 80zM26 80zM27 80zM28 80zM29 80zM30 80zM31 80zM32 80zM33 80zM34 80zM35 80zM36 80zM37 80zM89 80zM99 80zM26 81zM27 81zM28 81zM29 81zM30 81zM31 81zM32 81zM33 81zM34 81zM35 81zM36 81zM29 82zM30 82zM31 82zM32 82zM33 82zM34 82zM35 82zM106 85zM104 86zM118 91zM89 93zM90 103zM87 104zM88 108zM88 109zM88 110zM88 113zM88 115zM88 116zM88 120zM88 122zM94 123z" />
<path stroke-width="0.52" d="M76 10zM124 10zM123 11zM122 12zM73 13zM121 13zM99 20zM92 21zM122 21zM102 22zM121 24zM93 27zM49 29zM54 29zM100 29zM30 30zM76 31zM124 33zM58 36zM64 36zM68 36zM74 36zM53 39zM54 39zM68 39zM52 40zM53 40zM63 40zM73 40zM51 41zM56 41zM71 41zM76 41zM57 43zM63 43zM52 44zM96 46zM61 47zM62 47zM66 47zM76 47zM39 48zM70 48zM53 49zM69 49zM67 50zM127 58zM105 62zM105 63zM99 65zM45 67zM45 68zM107 68zM45 69zM107 69zM46 70zM107 70zM107 71zM107 72zM108 77zM108 78zM107 79zM83 84zM82 85zM103 86zM114 93zM15 95zM15 97zM17 97zM15 98zM17 98zM15 99zM66 102zM66 108zM102 120z" />
<path stroke-width="0.49" d="M123 10zM122 11zM49 12zM121 12zM71 13zM117 13zM120 13zM91 17zM60 22zM64 22zM92 23zM93 29zM61 31zM102 33zM51 34zM63 36zM77 36zM94 36zM52 37zM76 37zM51 38zM66 38zM70 38zM59 39zM67 40zM78 40zM55 42zM77 42zM95 42zM68 43zM56 44zM70 44zM60 45zM59 46zM72 47zM78 47zM79 47zM75 48zM96 48zM64 49zM78 49zM97 55zM43 57zM44 59zM98 61zM105 61zM47 62zM126 62zM48 63zM50 64zM99 67zM47 73zM67 74zM22 78zM122 79zM21 80zM92 80zM112 80zM87 82zM33 84zM107 84zM109 84zM17 94zM18 94zM110 95zM32 96zM36 97zM37 97zM43 98zM44 98zM50 99zM52 99zM67 101zM118 110zM107 117zM84 123z" />
<path stroke-width="0.62" d="M34 11zM124 14zM94 26zM108 28zM108 29zM108 30zM108 31zM108 32zM31 35zM109 36zM109 37zM109 38zM109 39zM74 41zM97 45zM110 45zM110 46zM110 47zM110 48zM103 49zM98 51zM111 54zM40 55zM111 55zM111 56zM127 57zM112 61zM112 62zM112 63zM113 69zM45 70zM113 70zM113 71zM113 72zM54 73zM55 73zM45 74zM46 74zM48 76zM47 77zM49 77zM50 77zM114 77zM46 78zM114 78zM22 79zM45 79zM91 79zM44 80zM24 81zM30 83zM32 83zM81 85zM122 89zM16 96zM68 103zM89 104zM90 105zM90 106zM90 107zM90 108zM90 109zM90 110zM90 111zM90 112zM90 113zM90 116zM90 117zM90 118zM90 119zM90 120zM90 121zM90 122zM88 123z" />
<path stroke-width="0.66" d="M38 11zM92 14zM120 16zM93 17zM35 27zM110 27zM110 28zM110 29zM110 30zM122 33zM111 35zM96 36zM111 36zM111 37zM111 38zM125 40zM112 42zM112 43zM112 44zM112 45zM112 46zM113 51zM113 52zM113 53zM113 54zM99 55zM113 55zM114 59zM114 60zM100 61zM114 61zM36 62zM43 62zM114 62zM42 65zM128 65zM42 66zM115 68zM115 69zM115 70zM115 71zM126 71zM129 73zM50 74zM52 75zM98 75zM116 75zM49 76zM116 76zM116 77zM93 78zM116 78zM115 79zM47 80zM48 80zM118 80zM46 81zM45 82zM44 83zM37 84zM92 103zM90 104zM91 122z" />
<path stroke-width="0.68" d="M39 11zM91 11zM60 12zM126 14zM125 15zM116 16zM124 16zM123 17zM94 22zM111 25zM121 25zM99 26zM111 26zM111 27zM95 28zM111 28zM111 29zM111 30zM124 31zM112 34zM112 35zM112 36zM112 37zM112 38zM97 41zM113 42zM113 43zM113 44zM113 45zM113 46zM98 47zM114 49zM114 50zM114 51zM114 52zM114 53zM114 54zM115 57zM115 58zM115 59zM115 60zM41 61zM115 61zM115 62zM101 66zM116 66zM116 67zM116 68zM116 69zM116 70zM53 74zM105 74zM54 75zM117 75zM50 76zM53 76zM117 76zM51 77zM52 77zM117 77zM117 78zM116 79zM48 81zM47 82zM45 85zM67 103zM67 104zM67 105zM92 105zM67 106zM92 106zM92 107zM92 108zM92 109zM92 110zM92 111zM92 112zM92 113zM92 114zM92 115zM92 116zM92 117zM92 118zM92 119zM92 120zM92 121zM91 123z" />
<path stroke-width="0.78" d="M44 11zM88 11zM87 13zM103 19zM95 21zM114 21zM34 22zM116 22zM117 26zM96 27zM117 27zM117 28zM117 29zM117 30zM117 31zM36 34zM97 34zM118 35zM118 36zM118 37zM118 38zM118 39zM98 40zM119 42zM119 43zM119 44zM119 45zM119 46zM119 47zM120 50zM38 51zM38 52zM120 52zM38 53zM120 53zM120 54zM120 55zM39 56zM125 57zM121 58zM101 59zM121 59zM39 60zM121 60zM39 61zM121 61zM121 62zM121 63zM121 64zM102 65zM122 67zM122 68zM122 69zM122 70zM122 71zM68 75zM123 75zM61 76zM62 76zM60 77zM97 77zM100 77zM59 78zM102 78zM59 79zM57 80zM56 81zM57 81zM55 82zM54 83zM55 83zM53 84zM94 103zM108 116z" />
<path stroke-width="0.81" d="M46 11zM87 11zM89 13zM94 14zM95 19zM106 19zM122 19zM126 19zM113 20zM119 20zM125 20zM124 21zM119 24zM96 25zM119 25zM119 26zM119 27zM119 28zM119 29zM124 29zM119 30zM97 31zM119 31zM100 33zM120 35zM120 36zM120 37zM120 38zM125 38zM32 39zM101 39zM120 39zM36 40zM120 40zM36 41zM36 42zM121 42zM36 43zM121 43zM99 44zM121 44zM37 45zM121 45zM121 46zM121 47zM37 49zM38 49zM37 50zM100 50zM122 50zM122 51zM39 52zM122 52zM122 53zM39 54zM122 54zM122 55zM38 57zM38 58zM123 58zM123 59zM123 60zM123 61zM123 62zM102 63zM123 63zM40 67zM124 67zM124 68zM124 69zM124 70zM124 71zM63 75zM65 76zM66 76zM98 76zM123 76zM64 77zM65 77zM66 77zM67 77zM68 77zM69 77zM70 77zM63 78zM64 78zM65 78zM66 78zM67 78zM68 78zM69 78zM70 78zM71 78zM72 78zM73 78zM62 79zM63 79zM64 79zM65 79zM66 79zM67 79zM68 79zM69 79zM70 79zM71 79zM72 79zM73 79zM74 79zM75 79zM61 80zM62 80zM63 80zM64 80zM65 80zM66 80zM67 80zM68 80zM69 80zM70 80zM71 80zM72 80zM73 80zM74 80zM75 80zM76 80zM60 81zM61 81zM62 81zM63 81zM64 81zM65 81zM66 81zM67 81zM68 81zM69 81zM70 81zM59 82zM60 82zM61 82zM62 82zM63 82zM64 82zM65 82zM66 82zM58 83zM59 83zM60 83zM61 83zM62 83zM56 84zM48 85z" />
<path stroke-width="0.84" d="M48 11zM86 11zM104 12zM90 13zM95 16zM33 17zM99 18zM110 19zM111 19zM127 19zM117 20zM118 21zM96 22zM34 23zM119 23zM34 29zM97 29zM34 31zM34 32zM98 35zM121 37zM35 39zM35 40zM99 41zM122 44zM38 47zM36 48zM38 48zM36 49zM123 52zM101 54zM37 55zM37 56zM125 58zM124 59zM102 60zM41 67zM128 72zM64 75zM67 75zM100 75zM103 75zM72 81zM72 82zM64 83zM57 84zM98 104zM98 105zM98 106zM98 107zM98 108zM98 109zM98 110zM98 111zM98 112zM98 113zM98 114zM111 114zM98 115zM98 116zM98 117zM98 118zM98 119zM103 119zM98 120zM96 121z" />
<path stroke-width="0.87" d="M50 11zM85 11zM72 12zM92 13zM31 14zM32 14zM95 14zM31 15zM111 15zM31 16zM113 16zM32 17zM114 17zM103 18zM104 18zM105 18zM96 19zM128 20zM127 21zM32 22zM126 22zM32 23zM125 23zM32 24zM97 25zM97 26zM120 27zM121 28zM124 28zM33 30zM33 31zM98 31zM131 31zM33 32zM35 33zM36 37zM125 37zM34 38zM99 38zM34 39zM132 39zM34 40zM34 41zM37 42zM100 44zM35 46zM133 49zM101 50zM101 51zM102 57zM104 58zM37 59zM103 63zM40 66zM104 66zM131 68zM130 69zM104 72zM65 75zM100 80zM64 84zM53 85zM54 85zM56 85zM119 91zM122 91zM117 92zM120 92zM115 93zM118 93zM116 94zM114 95zM112 96zM113 96zM111 97zM109 98zM107 99zM105 100zM103 101zM101 102zM97 103zM122 105zM120 106zM121 106zM117 108zM114 110zM113 111zM111 112zM109 113zM110 113zM108 114zM106 115zM105 116zM103 117zM101 118zM102 118zM100 119zM95 122z" />
<path stroke-width="0.71" d="M90 11zM83 13zM126 15zM125 16zM124 17zM123 18zM94 20zM122 20zM110 21zM130 21zM95 26zM113 28zM113 29zM113 30zM113 31zM96 32zM113 32zM114 36zM114 37zM101 38zM114 38zM97 39zM114 39zM32 40zM115 44zM33 45zM98 45zM115 45zM115 46zM115 47zM115 48zM124 49zM116 53zM116 54zM116 55zM125 56zM127 56zM42 61zM117 61zM117 62zM117 63zM101 64zM117 64zM41 65zM118 69zM118 70zM118 71zM105 72zM118 72zM64 74zM55 76zM72 76zM54 77zM119 77zM53 78zM119 78zM48 79zM52 79zM50 81zM49 82zM48 83zM40 84zM41 84zM42 84zM46 84zM93 103zM92 104zM93 105zM93 106zM93 107zM93 108zM93 109zM93 110zM93 111zM93 112zM93 113zM93 114zM93 115zM93 116zM93 117zM93 118zM93 119zM93 120zM93 121zM92 122z" />
<path stroke-width="0.60" d="M93 11zM124 13zM122 15zM93 21zM104 21zM106 23zM99 25zM107 29zM107 30zM107 31zM62 32zM107 32zM124 32zM62 35zM56 36zM108 37zM108 38zM76 39zM108 39zM96 40zM108 40zM32 41zM76 42zM60 43zM70 43zM109 45zM33 46zM109 46zM109 47zM53 48zM109 48zM109 49zM110 53zM110 54zM110 55zM110 56zM99 59zM111 61zM111 62zM111 63zM111 64zM43 65zM100 65zM111 65zM112 69zM128 69zM112 70zM112 71zM112 72zM57 73zM112 73zM47 75zM127 75zM46 76zM45 77zM44 78zM113 78zM43 79zM42 80zM114 80zM119 80zM41 81zM40 82zM29 83zM33 83zM39 83zM84 84zM16 97zM16 98zM22 98zM16 100zM96 102zM91 103zM68 105zM100 121z" />
<path stroke-width="0.57" d="M94 11zM125 11zM54 12zM124 12zM76 13zM123 13zM91 14zM122 14zM92 15zM121 15zM92 17zM103 21zM105 22zM93 23zM105 26zM105 27zM105 28zM52 29zM94 29zM105 29zM61 30zM94 30zM100 30zM105 30zM53 31zM63 31zM68 31zM56 33zM61 33zM76 33zM53 34zM73 34zM106 34zM106 35zM61 36zM66 36zM106 36zM65 37zM70 37zM103 37zM106 37zM77 38zM106 38zM106 39zM60 40zM70 40zM75 40zM64 41zM72 41zM77 41zM104 41zM53 42zM61 42zM71 42zM96 42zM107 42zM67 43zM75 43zM107 43zM72 44zM107 44zM63 45zM107 45zM52 46zM107 46zM54 47zM69 47zM105 47zM107 47zM78 48zM55 49zM65 49zM67 49zM70 49zM72 49zM75 49zM126 49zM108 50zM108 51zM34 52zM106 52zM108 52zM108 53zM108 54zM108 55zM109 58zM107 59zM109 59zM109 60zM99 61zM109 61zM109 62zM107 65zM110 66zM44 67zM100 67zM110 67zM110 68zM110 69zM110 70zM51 73zM43 74zM43 75zM44 75zM111 75zM42 76zM43 76zM111 76zM41 77zM42 77zM94 77zM111 77zM23 78zM40 78zM41 78zM111 78zM39 79zM40 79zM94 79zM38 80zM39 80zM25 81zM37 81zM38 81zM36 82zM37 82zM62 85zM16 94z" />
<path stroke-width="0.54" d="M95 11zM124 11zM52 12zM123 12zM74 13zM118 14zM121 14zM101 21zM103 22zM101 24zM103 25zM103 26zM103 27zM103 28zM50 29zM59 29zM102 29zM103 29zM54 30zM55 31zM60 31zM65 31zM59 32zM75 32zM94 32zM102 32zM54 33zM64 33zM69 33zM103 34zM104 34zM54 35zM59 35zM65 35zM104 35zM104 36zM104 37zM74 38zM95 38zM103 38zM104 38zM63 39zM104 39zM105 42zM62 43zM72 43zM78 43zM105 43zM105 44zM105 45zM55 48zM56 48zM61 48zM66 48zM71 48zM103 48zM69 50zM72 50zM105 50zM97 51zM134 56zM98 57zM108 67zM108 68zM108 69zM108 70zM108 71zM60 73zM109 74zM109 75zM27 76zM109 76zM109 77zM92 78zM109 78zM88 81zM112 94zM17 96zM84 96zM17 99zM66 107z" />
<path stroke-width="1.00" d="M30 12zM111 14zM113 15zM116 17zM118 19zM116 93zM121 107zM118 109zM115 111zM113 112zM107 116zM104 118zM102 119z" />
<path stroke-width="0.61" d="M56 12zM78 13zM93 20zM105 21zM107 22zM107 23zM107 24zM107 25zM107 26zM94 27zM107 27zM107 28zM95 33zM108 33zM108 34zM108 35zM108 36zM60 37zM101 37zM132 37zM96 39zM109 40zM109 41zM109 42zM109 43zM109 44zM97 46zM39 49zM110 49zM110 50zM110 51zM98 52zM110 52zM104 55zM111 57zM99 58zM111 58zM111 59zM111 60zM43 63zM44 63zM37 64zM100 64zM112 64zM112 65zM43 66zM112 66zM128 66zM43 67zM112 67zM112 68zM53 73zM56 73zM113 73zM44 74zM113 74zM48 75zM113 75zM47 76zM113 76zM46 77zM113 77zM45 78zM99 78zM123 78zM44 79zM93 79zM110 79zM43 80zM42 81zM41 82zM40 83zM16 99zM22 99zM68 104zM90 114zM90 115z" />
<path stroke-width="0.63" d="M57 12zM107 12zM79 13zM125 13zM123 15zM122 16zM93 19zM100 20zM34 21zM106 21zM108 22zM108 24zM123 24zM108 25zM108 26zM108 27zM95 32zM109 33zM109 34zM109 35zM37 38zM96 38zM110 40zM110 41zM110 42zM110 43zM110 44zM111 48zM111 49zM111 50zM111 51zM111 52zM111 53zM112 56zM99 57zM112 57zM112 58zM112 59zM112 60zM100 63zM113 65zM113 66zM113 67zM113 68zM128 70zM114 72zM114 73zM47 74zM114 74zM49 75zM114 75zM114 76zM111 79zM112 79zM115 80zM43 81zM26 82zM27 82zM42 82zM31 83zM41 83zM69 83zM36 84zM44 85zM95 90zM22 97z" />
<path stroke-width="0.75" d="M64 12zM94 17zM108 20zM95 23zM115 25zM115 26zM115 27zM35 28zM115 28zM116 34zM116 35zM97 36zM116 36zM132 38zM117 41zM98 42zM117 42zM117 43zM117 44zM118 50zM118 51zM118 52zM119 57zM119 58zM134 58zM119 59zM119 60zM101 61zM40 63zM40 65zM120 66zM120 67zM120 68zM120 69zM57 74zM63 74zM121 74zM121 75zM59 76zM121 76zM58 77zM51 78zM57 78zM56 79zM55 80zM53 82zM73 82zM50 84zM94 104z" />
<path stroke-width="0.55" d="M75 13zM122 13zM92 19zM103 23zM99 24zM103 24zM93 25zM101 26zM104 28zM57 29zM104 29zM59 30zM71 30zM104 30zM70 31zM75 31zM94 31zM104 31zM64 32zM104 32zM104 33zM68 34zM70 34zM64 35zM74 35zM103 35zM101 36zM105 36zM53 37zM95 37zM105 37zM64 38zM69 38zM105 38zM73 39zM105 39zM104 40zM105 40zM52 41zM57 41zM62 41zM105 41zM63 42zM68 42zM73 42zM38 43zM57 44zM96 44zM66 45zM71 45zM76 45zM78 45zM65 46zM106 46zM106 47zM124 47zM106 48zM106 49zM76 50zM97 50zM106 50zM107 53zM107 54zM107 55zM98 56zM106 56zM107 56zM107 57zM42 60zM108 61zM108 62zM99 63zM108 63zM108 64zM44 65zM108 65zM107 66zM108 66zM109 69zM109 70zM105 71zM109 71zM109 72zM126 72zM50 73zM109 73zM42 74zM66 74zM124 77zM110 78zM108 79zM24 80zM91 80zM113 80zM87 81zM34 84zM108 84zM42 85zM63 85zM102 87zM66 104zM66 105zM88 105zM66 106zM88 106zM88 107zM68 108zM121 108zM88 111zM88 112zM88 114zM110 115zM88 117zM88 118zM88 119zM88 121zM86 123z" />
<path stroke-width="0.69" d="M82 13zM121 18zM99 19zM104 20zM109 21zM111 22zM111 23zM111 24zM112 28zM30 29zM112 29zM112 30zM112 31zM112 32zM112 33zM96 34zM113 36zM113 37zM113 38zM113 39zM97 40zM113 40zM113 41zM114 44zM114 45zM98 46zM114 46zM114 47zM133 47zM114 48zM34 51zM99 53zM115 53zM115 54zM115 55zM115 56zM100 59zM116 61zM41 62zM116 62zM116 63zM116 64zM101 65zM116 65zM41 68zM102 69zM117 69zM117 70zM117 71zM117 72zM117 73zM117 74zM55 75zM69 75zM105 75zM54 76zM53 77zM118 77zM95 78zM118 78zM48 82zM46 83zM47 83zM38 84zM60 85zM91 104zM67 107zM67 108z" />
<path stroke-width="0.00" d="M113 13zM115 14zM120 19zM121 21zM121 22zM122 24zM122 25zM123 31zM123 32zM123 33zM46 121z" />
<path stroke-width="1.01" d="M115 16zM117 18zM100 120z" />
</g></svg>